G04*
G04 #@! TF.GenerationSoftware,Altium Limited,Altium Designer,26.3.0 (6)*
G04*
G04 Layer_Color=65535*
%FSLAX44Y44*%
%MOMM*%
G71*
G04*
G04 #@! TF.SameCoordinates,D57B5760-88B1-4855-907E-DBF2512A65CE*
G04*
G04*
G04 #@! TF.FilePolarity,Positive*
G04*
G01*
G75*
%ADD10C,0.1000*%
%ADD11C,0.2000*%
%ADD12C,0.2500*%
%ADD13C,0.2540*%
%ADD14C,0.1250*%
%ADD15C,0.1500*%
%ADD16C,0.1270*%
%ADD17C,0.2032*%
%ADD18C,0.1524*%
G36*
X-1775Y253252D02*
X-2284D01*
Y252742D01*
X-2794D01*
Y252233D01*
X-3303D01*
Y251723D01*
X-3812D01*
Y251214D01*
X-4322D01*
Y250705D01*
X-4831D01*
Y250195D01*
X-5341D01*
Y249686D01*
X-5850D01*
Y249177D01*
X-6359D01*
Y248667D01*
X-6869D01*
Y248158D01*
X-7378D01*
Y247649D01*
X-7887D01*
Y247139D01*
X-8397D01*
Y246630D01*
X-8906D01*
Y246120D01*
X-9416D01*
Y245611D01*
X-9925D01*
Y245102D01*
X-10434D01*
Y244592D01*
X-10944D01*
Y244083D01*
X-11453D01*
Y243573D01*
X-11962D01*
Y243064D01*
X-12472D01*
Y242555D01*
X-12981D01*
Y242045D01*
X-13491D01*
Y241536D01*
X-14000D01*
Y241027D01*
X-14509D01*
Y240517D01*
X-15019D01*
Y240008D01*
X-15528D01*
Y239499D01*
X-16037D01*
Y238989D01*
X-16547D01*
Y238480D01*
X-17056D01*
Y237970D01*
X-17566D01*
Y237461D01*
X-18075D01*
Y236952D01*
X-18584D01*
Y236442D01*
X-19094D01*
Y235933D01*
X-19603D01*
Y235424D01*
X-20113D01*
Y234914D01*
X-20622D01*
Y217086D01*
X-23169D01*
Y234914D01*
X-23678D01*
Y235424D01*
X-24188D01*
Y235933D01*
X-24697D01*
Y236442D01*
X-25206D01*
Y236952D01*
X-25716D01*
Y237461D01*
X-26225D01*
Y237970D01*
X-26734D01*
Y238480D01*
X-27244D01*
Y238989D01*
X-27753D01*
Y239499D01*
X-28263D01*
Y240008D01*
X-28772D01*
Y240517D01*
X-29281D01*
Y241027D01*
X-29791D01*
Y241536D01*
X-30300D01*
Y242045D01*
X-30809D01*
Y242555D01*
X-31319D01*
Y243064D01*
X-31828D01*
Y243573D01*
X-32338D01*
Y244083D01*
X-32847D01*
Y244592D01*
X-33356D01*
Y245102D01*
X-33866D01*
Y245611D01*
X-34375D01*
Y246120D01*
X-34884D01*
Y246630D01*
X-35394D01*
Y247139D01*
X-35903D01*
Y247649D01*
X-36412D01*
Y248158D01*
X-36922D01*
Y248667D01*
X-37431D01*
Y249177D01*
X-37941D01*
Y249686D01*
X-38450D01*
Y250195D01*
X-38959D01*
Y250705D01*
X-39469D01*
Y251214D01*
X-39978D01*
Y251723D01*
X-40487D01*
Y252233D01*
X-40997D01*
Y252742D01*
X-41506D01*
Y253252D01*
X-42016D01*
Y253761D01*
X-37941D01*
Y253252D01*
X-37431D01*
Y252742D01*
X-36922D01*
Y252233D01*
X-36412D01*
Y251723D01*
X-35903D01*
Y251214D01*
X-35394D01*
Y250705D01*
X-34884D01*
Y250195D01*
X-34375D01*
Y249686D01*
X-33866D01*
Y249177D01*
X-33356D01*
Y248667D01*
X-32847D01*
Y248158D01*
X-32338D01*
Y247649D01*
X-31828D01*
Y247139D01*
X-31319D01*
Y246630D01*
X-30809D01*
Y246120D01*
X-30300D01*
Y245611D01*
X-29791D01*
Y245102D01*
X-29281D01*
Y244592D01*
X-28772D01*
Y244083D01*
X-28263D01*
Y243573D01*
X-27753D01*
Y243064D01*
X-27244D01*
Y242555D01*
X-26734D01*
Y242045D01*
X-26225D01*
Y241536D01*
X-25716D01*
Y241027D01*
X-25206D01*
Y240517D01*
X-24697D01*
Y240008D01*
X-24188D01*
Y239499D01*
X-23678D01*
Y238989D01*
X-23169D01*
Y238480D01*
X-22659D01*
Y237970D01*
X-22150D01*
Y237461D01*
X-21641D01*
Y237970D01*
X-21131D01*
Y238480D01*
X-20622D01*
Y238989D01*
X-20113D01*
Y239499D01*
X-19603D01*
Y240008D01*
X-19094D01*
Y240517D01*
X-18584D01*
Y241027D01*
X-18075D01*
Y241536D01*
X-17566D01*
Y242045D01*
X-17056D01*
Y242555D01*
X-16547D01*
Y243064D01*
X-16037D01*
Y243573D01*
X-15528D01*
Y244083D01*
X-15019D01*
Y244592D01*
X-14509D01*
Y245102D01*
X-14000D01*
Y245611D01*
X-13491D01*
Y246120D01*
X-12981D01*
Y246630D01*
X-12472D01*
Y247139D01*
X-11962D01*
Y247649D01*
X-11453D01*
Y248158D01*
X-10944D01*
Y248667D01*
X-10434D01*
Y249177D01*
X-9925D01*
Y249686D01*
X-9416D01*
Y250195D01*
X-8906D01*
Y250705D01*
X-8397D01*
Y251214D01*
X-7887D01*
Y251723D01*
X-7378D01*
Y252233D01*
X-6869D01*
Y252742D01*
X-6359D01*
Y253252D01*
X-5850D01*
Y253761D01*
X-1775D01*
Y253252D01*
D02*
G37*
G36*
X-46091D02*
X-45581D01*
Y252742D01*
X-45072D01*
Y252233D01*
X-44563D01*
Y251723D01*
X-44053D01*
Y251214D01*
X-43544D01*
Y250705D01*
X-43034D01*
Y250195D01*
X-42525D01*
Y249686D01*
X-42016D01*
Y249177D01*
X-41506D01*
Y248667D01*
X-40997D01*
Y248158D01*
X-40487D01*
Y247649D01*
X-39978D01*
Y247139D01*
X-39469D01*
Y246630D01*
X-38959D01*
Y246120D01*
X-38450D01*
Y245611D01*
X-37941D01*
Y245102D01*
X-37431D01*
Y244592D01*
X-36922D01*
Y244083D01*
X-36412D01*
Y243573D01*
X-35903D01*
Y243064D01*
X-35394D01*
Y242555D01*
X-34884D01*
Y242045D01*
X-34375D01*
Y241536D01*
X-33866D01*
Y241027D01*
X-33356D01*
Y240517D01*
X-32847D01*
Y240008D01*
X-32338D01*
Y239499D01*
X-31828D01*
Y238989D01*
X-31319D01*
Y238480D01*
X-30809D01*
Y237970D01*
X-30300D01*
Y237461D01*
X-29791D01*
Y236952D01*
X-29281D01*
Y236442D01*
X-28772D01*
Y235933D01*
X-28263D01*
Y235424D01*
X-27753D01*
Y234914D01*
X-31828D01*
Y235424D01*
X-32338D01*
Y235933D01*
X-32847D01*
Y236442D01*
X-33356D01*
Y236952D01*
X-33866D01*
Y237461D01*
X-34375D01*
Y237970D01*
X-34884D01*
Y238480D01*
X-35394D01*
Y238989D01*
X-35903D01*
Y239499D01*
X-36412D01*
Y240008D01*
X-36922D01*
Y240517D01*
X-37431D01*
Y241027D01*
X-37941D01*
Y241536D01*
X-56788D01*
Y241027D01*
X-57297D01*
Y240517D01*
X-57806D01*
Y240008D01*
X-58316D01*
Y239499D01*
X-58825D01*
Y238989D01*
X-59334D01*
Y238480D01*
X-59844D01*
Y237970D01*
X-60353D01*
Y237461D01*
X-60862D01*
Y236952D01*
X-61372D01*
Y236442D01*
X-61881D01*
Y235933D01*
X-62391D01*
Y235424D01*
X-62900D01*
Y234914D01*
X-66975D01*
Y235424D01*
X-66466D01*
Y235933D01*
X-65956D01*
Y236442D01*
X-65447D01*
Y236952D01*
X-64938D01*
Y237461D01*
X-64428D01*
Y237970D01*
X-63919D01*
Y238480D01*
X-63409D01*
Y238989D01*
X-62900D01*
Y239499D01*
X-62391D01*
Y240008D01*
X-61881D01*
Y240517D01*
X-61372D01*
Y241027D01*
X-60862D01*
Y241536D01*
X-60353D01*
Y242045D01*
X-59844D01*
Y242555D01*
X-59334D01*
Y243064D01*
X-58825D01*
Y243573D01*
X-58316D01*
Y244083D01*
X-57806D01*
Y244592D01*
X-57297D01*
Y245102D01*
X-56788D01*
Y245611D01*
X-56278D01*
Y246120D01*
X-55769D01*
Y246630D01*
X-55259D01*
Y247139D01*
X-54750D01*
Y247649D01*
X-54241D01*
Y248158D01*
X-53731D01*
Y248667D01*
X-53222D01*
Y249177D01*
X-52712D01*
Y249686D01*
X-52203D01*
Y250195D01*
X-51694D01*
Y250705D01*
X-51184D01*
Y251214D01*
X-50675D01*
Y251723D01*
X-50166D01*
Y252233D01*
X-49656D01*
Y252742D01*
X-49147D01*
Y253252D01*
X-48637D01*
Y253761D01*
X-46091D01*
Y253252D01*
D02*
G37*
G36*
X-71050Y286361D02*
X-70541D01*
Y285852D01*
X-70031D01*
Y285342D01*
X-69522D01*
Y284833D01*
X-69012D01*
Y284324D01*
X-68503D01*
Y283814D01*
X-67994D01*
Y283305D01*
X-67484D01*
Y282795D01*
X-66975D01*
Y282286D01*
X-66466D01*
Y281777D01*
X-65956D01*
Y281267D01*
X-65447D01*
Y280758D01*
X-64938D01*
Y280249D01*
X-64428D01*
Y279739D01*
X-63919D01*
Y279230D01*
X-63409D01*
Y278720D01*
X-62900D01*
Y278211D01*
X-62391D01*
Y277702D01*
X-61881D01*
Y277192D01*
X-61372D01*
Y276683D01*
X-60862D01*
Y276173D01*
X-60353D01*
Y275664D01*
X-59844D01*
Y275155D01*
X-59334D01*
Y274645D01*
X-58825D01*
Y274136D01*
X-58316D01*
Y273627D01*
X-57806D01*
Y273117D01*
X-57297D01*
Y272608D01*
X-56788D01*
Y272099D01*
X-56278D01*
Y271589D01*
X-55769D01*
Y271080D01*
X-55259D01*
Y270570D01*
X-54750D01*
Y270061D01*
X-54241D01*
Y269552D01*
X-53731D01*
Y269042D01*
X-53222D01*
Y268533D01*
X-52712D01*
Y253252D01*
X-53222D01*
Y252742D01*
X-53731D01*
Y252233D01*
X-54241D01*
Y251723D01*
X-54750D01*
Y251214D01*
X-55259D01*
Y250705D01*
X-55769D01*
Y250195D01*
X-56278D01*
Y249686D01*
X-56788D01*
Y249177D01*
X-57297D01*
Y248667D01*
X-57806D01*
Y248158D01*
X-58316D01*
Y247649D01*
X-58825D01*
Y247139D01*
X-59334D01*
Y246630D01*
X-59844D01*
Y246120D01*
X-60353D01*
Y245611D01*
X-60862D01*
Y245102D01*
X-61372D01*
Y244592D01*
X-61881D01*
Y244083D01*
X-62391D01*
Y243573D01*
X-62900D01*
Y243064D01*
X-63409D01*
Y242555D01*
X-63919D01*
Y242045D01*
X-64428D01*
Y241536D01*
X-64938D01*
Y241027D01*
X-65447D01*
Y240517D01*
X-65956D01*
Y240008D01*
X-66466D01*
Y239499D01*
X-66975D01*
Y238989D01*
X-67484D01*
Y238480D01*
X-67994D01*
Y237970D01*
X-68503D01*
Y237461D01*
X-69012D01*
Y236952D01*
X-69522D01*
Y236442D01*
X-70031D01*
Y235933D01*
X-70541D01*
Y235424D01*
X-71050D01*
Y234914D01*
X-89388D01*
Y286870D01*
X-71050D01*
Y286361D01*
D02*
G37*
G36*
X47125Y217086D02*
X43559D01*
Y217595D01*
X43050D01*
Y218105D01*
X42541D01*
Y218614D01*
X42031D01*
Y219123D01*
X41522D01*
Y219633D01*
X41013D01*
Y220142D01*
X40503D01*
Y220652D01*
X39994D01*
Y221161D01*
X39484D01*
Y221670D01*
X38975D01*
Y222180D01*
X38466D01*
Y222689D01*
X37956D01*
Y223199D01*
X37447D01*
Y223708D01*
X36937D01*
Y224217D01*
X36428D01*
Y224727D01*
X35919D01*
Y225236D01*
X35409D01*
Y225745D01*
X34900D01*
Y226255D01*
X34391D01*
Y226764D01*
X33881D01*
Y227274D01*
X33372D01*
Y227783D01*
X32863D01*
Y228292D01*
X32353D01*
Y228802D01*
X31844D01*
Y229311D01*
X31334D01*
Y229820D01*
X30825D01*
Y230330D01*
X30316D01*
Y217086D01*
X27769D01*
Y234914D01*
X30316D01*
Y234405D01*
X30825D01*
Y233895D01*
X31334D01*
Y233386D01*
X31844D01*
Y232877D01*
X32353D01*
Y232367D01*
X32863D01*
Y231858D01*
X33372D01*
Y231348D01*
X33881D01*
Y230839D01*
X34391D01*
Y230330D01*
X34900D01*
Y229820D01*
X35409D01*
Y229311D01*
X35919D01*
Y228802D01*
X36428D01*
Y228292D01*
X36937D01*
Y227783D01*
X37447D01*
Y227274D01*
X37956D01*
Y226764D01*
X38466D01*
Y226255D01*
X38975D01*
Y225745D01*
X39484D01*
Y225236D01*
X39994D01*
Y224727D01*
X40503D01*
Y224217D01*
X41013D01*
Y223708D01*
X41522D01*
Y223199D01*
X42031D01*
Y222689D01*
X42541D01*
Y222180D01*
X43050D01*
Y221670D01*
X43559D01*
Y221161D01*
X44069D01*
Y220652D01*
X44578D01*
Y221161D01*
Y221670D01*
Y234914D01*
X47125D01*
Y217086D01*
D02*
G37*
G36*
X68519Y232367D02*
X53747D01*
Y227274D01*
X68519D01*
Y224727D01*
X53747D01*
Y219633D01*
X68519D01*
Y217086D01*
X51200D01*
Y234914D01*
X68519D01*
Y232367D01*
D02*
G37*
G36*
X4847Y253252D02*
X5356D01*
Y252742D01*
X5866D01*
Y252233D01*
X6375D01*
Y251723D01*
X6884D01*
Y251214D01*
X7394D01*
Y250705D01*
X7903D01*
Y250195D01*
X8413D01*
Y249686D01*
X8922D01*
Y249177D01*
X9431D01*
Y248667D01*
X9941D01*
Y248158D01*
X10450D01*
Y247649D01*
X10959D01*
Y247139D01*
X11469D01*
Y246630D01*
X11978D01*
Y246120D01*
X12487D01*
Y245611D01*
X12997D01*
Y245102D01*
X13506D01*
Y244592D01*
X14016D01*
Y244083D01*
X14525D01*
Y243573D01*
X15034D01*
Y243064D01*
X15544D01*
Y242555D01*
X16053D01*
Y242045D01*
X16562D01*
Y241536D01*
X17072D01*
Y241027D01*
X17581D01*
Y240517D01*
X18091D01*
Y240008D01*
X18600D01*
Y239499D01*
X19109D01*
Y238989D01*
X19619D01*
Y238480D01*
X20128D01*
Y237970D01*
X20638D01*
Y237461D01*
X21147D01*
Y236952D01*
X21656D01*
Y236442D01*
X22166D01*
Y235933D01*
X22675D01*
Y235424D01*
X23184D01*
Y234914D01*
X23694D01*
Y217086D01*
X23184D01*
Y216577D01*
X22675D01*
Y216067D01*
X22166D01*
Y215558D01*
X21656D01*
Y215049D01*
X21147D01*
Y214539D01*
X20638D01*
Y214030D01*
X20128D01*
Y213520D01*
X19619D01*
Y213011D01*
X19109D01*
Y212502D01*
X18600D01*
Y211992D01*
X18091D01*
Y211483D01*
X17581D01*
Y210973D01*
X17072D01*
Y210464D01*
X16562D01*
Y209955D01*
X16053D01*
Y209445D01*
X15544D01*
Y208936D01*
X15034D01*
Y208427D01*
X14525D01*
Y207917D01*
X14016D01*
Y207408D01*
X13506D01*
Y206898D01*
X12997D01*
Y206389D01*
X12487D01*
Y205880D01*
X11978D01*
Y205370D01*
X11469D01*
Y204861D01*
X10959D01*
Y204352D01*
X10450D01*
Y203842D01*
X9941D01*
Y203333D01*
X9431D01*
Y202823D01*
X8922D01*
Y202314D01*
X8413D01*
Y201805D01*
X7903D01*
Y201295D01*
X7394D01*
Y200786D01*
X6884D01*
Y200277D01*
X6375D01*
Y199767D01*
X5866D01*
Y199258D01*
X5356D01*
Y198748D01*
X4847D01*
Y198239D01*
X2300D01*
Y198748D01*
X1791D01*
Y199258D01*
X1281D01*
Y199767D01*
X772D01*
Y200277D01*
X262D01*
Y200786D01*
X-247D01*
Y201295D01*
X-756D01*
Y201805D01*
X-1266D01*
Y202314D01*
X-1775D01*
Y202823D01*
X-2284D01*
Y203333D01*
X-2794D01*
Y203842D01*
X-3303D01*
Y204352D01*
X-3812D01*
Y204861D01*
X-4322D01*
Y205370D01*
X-4831D01*
Y205880D01*
X-5341D01*
Y206389D01*
X-5850D01*
Y206898D01*
X-6359D01*
Y207408D01*
X-6869D01*
Y207917D01*
X-7378D01*
Y208427D01*
X-7887D01*
Y208936D01*
X-8397D01*
Y209445D01*
X-8906D01*
Y209955D01*
X-9416D01*
Y210464D01*
X-9925D01*
Y210973D01*
X-10434D01*
Y211483D01*
X-10944D01*
Y211992D01*
X-11453D01*
Y212502D01*
X-11962D01*
Y213011D01*
X-12472D01*
Y213520D01*
X-12981D01*
Y214030D01*
X-13491D01*
Y214539D01*
X-14000D01*
Y215049D01*
X-14509D01*
Y215558D01*
X-15019D01*
Y216067D01*
X-15528D01*
Y216577D01*
X-16037D01*
Y217086D01*
X-16547D01*
Y234914D01*
X-16037D01*
Y235424D01*
X-15528D01*
Y235933D01*
X-15019D01*
Y236442D01*
X-14509D01*
Y236952D01*
X-14000D01*
Y237461D01*
X-13491D01*
Y237970D01*
X-12981D01*
Y238480D01*
X-12472D01*
Y238989D01*
X-11962D01*
Y239499D01*
X-11453D01*
Y240008D01*
X-10944D01*
Y240517D01*
X-10434D01*
Y241027D01*
X-9925D01*
Y241536D01*
X-9416D01*
Y242045D01*
X-8906D01*
Y242555D01*
X-8397D01*
Y243064D01*
X-7887D01*
Y243573D01*
X-7378D01*
Y244083D01*
X-6869D01*
Y244592D01*
X-6359D01*
Y245102D01*
X-5850D01*
Y245611D01*
X-5341D01*
Y246120D01*
X-4831D01*
Y246630D01*
X-4322D01*
Y247139D01*
X-3812D01*
Y247649D01*
X-3303D01*
Y248158D01*
X-2794D01*
Y248667D01*
X-2284D01*
Y249177D01*
X-1775D01*
Y249686D01*
X-1266D01*
Y250195D01*
X-756D01*
Y250705D01*
X-247D01*
Y251214D01*
X262D01*
Y251723D01*
X772D01*
Y252233D01*
X1281D01*
Y252742D01*
X1791D01*
Y253252D01*
X2300D01*
Y253761D01*
X4847D01*
Y253252D01*
D02*
G37*
%LPC*%
G36*
X-47109Y250705D02*
X-47619D01*
Y250195D01*
X-48128D01*
Y249686D01*
X-48637D01*
Y249177D01*
X-49147D01*
Y248667D01*
X-49656D01*
Y248158D01*
X-50166D01*
Y247649D01*
X-50675D01*
Y247139D01*
X-51184D01*
Y246630D01*
X-51694D01*
Y246120D01*
X-52203D01*
Y245611D01*
X-52712D01*
Y245102D01*
X-53222D01*
Y244592D01*
X-53731D01*
Y244083D01*
X-40997D01*
Y244592D01*
X-41506D01*
Y245102D01*
X-42016D01*
Y245611D01*
X-42525D01*
Y246120D01*
X-43034D01*
Y246630D01*
X-43544D01*
Y247139D01*
X-44053D01*
Y247649D01*
X-44563D01*
Y248158D01*
X-45072D01*
Y248667D01*
X-45581D01*
Y249177D01*
X-46091D01*
Y249686D01*
X-46600D01*
Y250195D01*
X-47109D01*
Y250705D01*
D02*
G37*
G36*
X-72578Y284324D02*
X-86841D01*
Y237461D01*
X-72578D01*
Y237970D01*
X-72069D01*
Y238480D01*
X-71559D01*
Y238989D01*
X-71050D01*
Y239499D01*
X-70541D01*
Y240008D01*
X-70031D01*
Y240517D01*
X-69522D01*
Y241027D01*
X-69012D01*
Y241536D01*
X-68503D01*
Y242045D01*
X-67994D01*
Y242555D01*
X-67484D01*
Y243064D01*
X-66975D01*
Y243573D01*
X-66466D01*
Y244083D01*
X-65956D01*
Y244592D01*
X-65447D01*
Y245102D01*
X-64938D01*
Y245611D01*
X-64428D01*
Y246120D01*
X-63919D01*
Y246630D01*
X-63409D01*
Y247139D01*
X-62900D01*
Y247649D01*
X-62391D01*
Y248158D01*
X-61881D01*
Y248667D01*
X-61372D01*
Y249177D01*
X-60862D01*
Y249686D01*
X-60353D01*
Y250195D01*
X-59844D01*
Y250705D01*
X-59334D01*
Y251214D01*
X-58825D01*
Y251723D01*
X-58316D01*
Y252233D01*
X-57806D01*
Y252742D01*
X-57297D01*
Y253252D01*
X-56788D01*
Y253761D01*
X-56278D01*
Y254270D01*
X-55769D01*
Y254780D01*
X-55259D01*
Y267005D01*
X-55769D01*
Y267514D01*
X-56278D01*
Y268023D01*
X-56788D01*
Y268533D01*
X-57297D01*
Y269042D01*
X-57806D01*
Y269552D01*
X-58316D01*
Y270061D01*
X-58825D01*
Y270570D01*
X-59334D01*
Y271080D01*
X-59844D01*
Y271589D01*
X-60353D01*
Y272099D01*
X-60862D01*
Y272608D01*
X-61372D01*
Y273117D01*
X-61881D01*
Y273627D01*
X-62391D01*
Y274136D01*
X-62900D01*
Y274645D01*
X-63409D01*
Y275155D01*
X-63919D01*
Y275664D01*
X-64428D01*
Y276173D01*
X-64938D01*
Y276683D01*
X-65447D01*
Y277192D01*
X-65956D01*
Y277702D01*
X-66466D01*
Y278211D01*
X-66975D01*
Y278720D01*
X-67484D01*
Y279230D01*
X-67994D01*
Y279739D01*
X-68503D01*
Y280249D01*
X-69012D01*
Y280758D01*
X-69522D01*
Y281267D01*
X-70031D01*
Y281777D01*
X-70541D01*
Y282286D01*
X-71050D01*
Y282795D01*
X-71559D01*
Y283305D01*
X-72069D01*
Y283814D01*
X-72578D01*
Y284324D01*
D02*
G37*
G36*
X3828Y250705D02*
X3319D01*
Y250195D01*
X2809D01*
Y249686D01*
X2300D01*
Y249177D01*
X1791D01*
Y248667D01*
X1281D01*
Y248158D01*
X772D01*
Y247649D01*
X262D01*
Y247139D01*
X-247D01*
Y246630D01*
X-756D01*
Y246120D01*
X-1266D01*
Y245611D01*
X-1775D01*
Y245102D01*
X-2284D01*
Y244592D01*
X-2794D01*
Y244083D01*
X-3303D01*
Y243573D01*
X-3812D01*
Y243064D01*
X-4322D01*
Y242555D01*
X-4831D01*
Y242045D01*
X-5341D01*
Y241536D01*
X-5850D01*
Y241027D01*
X-6359D01*
Y240517D01*
X-6869D01*
Y240008D01*
X-7378D01*
Y239499D01*
X-7887D01*
Y238989D01*
X-8397D01*
Y238480D01*
X-8906D01*
Y237970D01*
X-9416D01*
Y237461D01*
X-9925D01*
Y236952D01*
X-10434D01*
Y236442D01*
X-10944D01*
Y235933D01*
X-11453D01*
Y235424D01*
X-11962D01*
Y234914D01*
X-12472D01*
Y234405D01*
X-12981D01*
Y233895D01*
X-13491D01*
Y233386D01*
X-14000D01*
Y218614D01*
X-13491D01*
Y218105D01*
X-12981D01*
Y217595D01*
X-12472D01*
Y217086D01*
X-11962D01*
Y216577D01*
X-11453D01*
Y216067D01*
X-10944D01*
Y215558D01*
X-10434D01*
Y215049D01*
X-9925D01*
Y214539D01*
X-9416D01*
Y214030D01*
X-8906D01*
Y213520D01*
X-8397D01*
Y213011D01*
X-7887D01*
Y212502D01*
X-7378D01*
Y211992D01*
X-6869D01*
Y211483D01*
X-6359D01*
Y210973D01*
X-5850D01*
Y210464D01*
X-5341D01*
Y209955D01*
X-4831D01*
Y209445D01*
X-4322D01*
Y208936D01*
X-3812D01*
Y208427D01*
X-3303D01*
Y207917D01*
X-2794D01*
Y207408D01*
X-2284D01*
Y206898D01*
X-1775D01*
Y206389D01*
X-1266D01*
Y205880D01*
X-756D01*
Y205370D01*
X-247D01*
Y204861D01*
X262D01*
Y204352D01*
X772D01*
Y203842D01*
X1281D01*
Y203333D01*
X1791D01*
Y202823D01*
X2300D01*
Y202314D01*
X2809D01*
Y201805D01*
X3319D01*
Y201295D01*
X3828D01*
Y201805D01*
X4338D01*
Y202314D01*
X4847D01*
Y202823D01*
X5356D01*
Y203333D01*
X5866D01*
Y203842D01*
X6375D01*
Y204352D01*
X6884D01*
Y204861D01*
X7394D01*
Y205370D01*
X7903D01*
Y205880D01*
X8413D01*
Y206389D01*
X8922D01*
Y206898D01*
X9431D01*
Y207408D01*
X9941D01*
Y207917D01*
X10450D01*
Y208427D01*
X10959D01*
Y208936D01*
X11469D01*
Y209445D01*
X11978D01*
Y209955D01*
X12487D01*
Y210464D01*
X12997D01*
Y210973D01*
X13506D01*
Y211483D01*
X14016D01*
Y211992D01*
X14525D01*
Y212502D01*
X15034D01*
Y213011D01*
X15544D01*
Y213520D01*
X16053D01*
Y214030D01*
X16562D01*
Y214539D01*
X17072D01*
Y215049D01*
X17581D01*
Y215558D01*
X18091D01*
Y216067D01*
X18600D01*
Y216577D01*
X19109D01*
Y217086D01*
X19619D01*
Y217595D01*
X20128D01*
Y218105D01*
X20638D01*
Y218614D01*
X21147D01*
Y233386D01*
X20638D01*
Y233895D01*
X20128D01*
Y234405D01*
X19619D01*
Y234914D01*
X19109D01*
Y235424D01*
X18600D01*
Y235933D01*
X18091D01*
Y236442D01*
X17581D01*
Y236952D01*
X17072D01*
Y237461D01*
X16562D01*
Y237970D01*
X16053D01*
Y238480D01*
X15544D01*
Y238989D01*
X15034D01*
Y239499D01*
X14525D01*
Y240008D01*
X14016D01*
Y240517D01*
X13506D01*
Y241027D01*
X12997D01*
Y241536D01*
X12487D01*
Y242045D01*
X11978D01*
Y242555D01*
X11469D01*
Y243064D01*
X10959D01*
Y243573D01*
X10450D01*
Y244083D01*
X9941D01*
Y244592D01*
X9431D01*
Y245102D01*
X8922D01*
Y245611D01*
X8413D01*
Y246120D01*
X7903D01*
Y246630D01*
X7394D01*
Y247139D01*
X6884D01*
Y247649D01*
X6375D01*
Y248158D01*
X5866D01*
Y248667D01*
X5356D01*
Y249177D01*
X4847D01*
Y249686D01*
X4338D01*
Y250195D01*
X3828D01*
Y250705D01*
D02*
G37*
%LPD*%
D10*
X295000Y-152000D02*
G03*
X294000Y-152000I-500J0D01*
G01*
D02*
G03*
X295000Y-152000I500J0D01*
G01*
X282875Y-206125D02*
G03*
X281875Y-206125I-500J0D01*
G01*
D02*
G03*
X282875Y-206125I500J0D01*
G01*
X-285000Y-183500D02*
G03*
X-285000Y-182500I0J500D01*
G01*
D02*
G03*
X-285000Y-183500I0J-500D01*
G01*
X-5500Y111750D02*
G03*
X-6500Y111750I-500J0D01*
G01*
D02*
G03*
X-5500Y111750I500J0D01*
G01*
X-176000Y-189000D02*
G03*
X-177000Y-189000I-500J0D01*
G01*
D02*
G03*
X-176000Y-189000I500J0D01*
G01*
X-206000Y-188000D02*
G03*
X-207000Y-188000I-500J0D01*
G01*
D02*
G03*
X-206000Y-188000I500J0D01*
G01*
X-157000D02*
G03*
X-156000Y-188000I500J0D01*
G01*
D02*
G03*
X-157000Y-188000I-500J0D01*
G01*
X300000Y-185000D02*
Y-158750D01*
X282000Y-185000D02*
Y-158750D01*
X287875Y-239125D02*
Y-212875D01*
X269875Y-239125D02*
Y-212875D01*
X93750Y-250500D02*
X112500D01*
X93750D02*
X112500D01*
X-10000D02*
X8750D01*
X-10000D02*
X8750D01*
X-10000Y-292500D02*
X112500D01*
X-10000D02*
X112500D01*
X222880Y28000D02*
X317870D01*
X222880D02*
Y37500D01*
X362370Y28000D02*
Y127000D01*
X222880D02*
X317870D01*
X222880Y117500D02*
Y127000D01*
X342870Y28000D02*
X362370D01*
X342870Y127000D02*
X362370D01*
X-51250Y-250500D02*
X-32500D01*
X-51250D02*
X-32500D01*
X-155000Y-292500D02*
X-32500D01*
X-155000D02*
X-32500D01*
X-155000Y-250500D02*
X-136250D01*
X-155000D02*
X-136250D01*
X-12500Y114750D02*
X-10200D01*
X-12500D02*
Y117050D01*
X15200Y114750D02*
X17500D01*
Y117050D01*
Y142450D02*
Y144750D01*
X15200D02*
X17500D01*
X-12500D02*
X-10200D01*
X-12500Y142450D02*
Y144750D01*
X315000Y-139000D02*
X362000D01*
X315000Y-3500D02*
X362500D01*
X315000Y-139000D02*
Y-3500D01*
X-176000Y-221000D02*
Y-194750D01*
X-194000Y-221000D02*
Y-194750D01*
X-201000Y-221000D02*
Y-194750D01*
X-219000Y-221000D02*
Y-194750D01*
X-151000Y-221000D02*
Y-194750D01*
X-169000Y-221000D02*
Y-194750D01*
X-198750Y-250500D02*
X-180000D01*
X-198750D02*
X-180000D01*
X-302500D02*
X-283750D01*
X-302500D02*
X-283750D01*
X-302500Y-292500D02*
X-180000D01*
X-302500D02*
X-180000D01*
D11*
X20000Y-227500D02*
G03*
X20000Y-228500I0J-500D01*
G01*
Y-227500D02*
G03*
X20000Y-228500I0J-500D01*
G01*
D02*
G03*
X20000Y-227500I0J500D01*
G01*
X-125000D02*
G03*
X-125000Y-228500I0J-500D01*
G01*
D02*
G03*
X-125000Y-227500I0J500D01*
G01*
D02*
G03*
X-125000Y-228500I0J-500D01*
G01*
X-272500Y-227500D02*
G03*
X-272500Y-228500I0J-500D01*
G01*
Y-227500D02*
G03*
X-272500Y-228500I0J-500D01*
G01*
D02*
G03*
X-272500Y-227500I0J500D01*
G01*
X224000Y-269000D02*
Y-246500D01*
X216000D02*
X224000D01*
X144000D02*
X152000D01*
X144000Y-269000D02*
Y-246500D01*
X156000Y-289000D02*
X212000D01*
X106220Y173720D02*
Y256280D01*
X117080D01*
X188780Y173720D02*
Y256280D01*
X106220Y173720D02*
X117080D01*
X177920D02*
X188780D01*
X177920Y256280D02*
X188780D01*
X112000Y80000D02*
Y132500D01*
X89000Y80000D02*
X112000D01*
X89000Y148000D02*
X96500D01*
X112000Y132500D01*
X44000D02*
X59500Y148000D01*
X67000D01*
X44000Y80000D02*
X67000D01*
X44000D02*
Y132500D01*
X-104900Y-17500D02*
Y7500D01*
X-112400D02*
X-104900D01*
X-112400Y-172500D02*
X-104900D01*
Y-147500D01*
X-359900Y7500D02*
X-292400D01*
X-359900Y-172500D02*
Y7500D01*
Y-172500D02*
X-292400D01*
X-253950Y182250D02*
Y281500D01*
Y49500D02*
Y66750D01*
X-130200Y49500D02*
X-121950D01*
X-253950D02*
X-245700D01*
X-121950Y182250D02*
Y281500D01*
Y49500D02*
Y66750D01*
X-253950Y281500D02*
X-121950D01*
X-111500Y-189500D02*
X-84500D01*
Y-210500D02*
Y-189500D01*
X-111500Y-210500D02*
X-84500D01*
X153500Y96000D02*
Y117000D01*
X180500D01*
X153500Y96000D02*
X180500D01*
X-13250Y39875D02*
X23250D01*
X-13250D02*
Y71375D01*
X23250D01*
Y39875D02*
Y71375D01*
X-68320Y-71660D02*
Y-44660D01*
X-47320D01*
Y-71660D02*
Y-44660D01*
X216500Y-148500D02*
X218500D01*
X216500Y-86500D02*
X218500D01*
X237000Y-126530D02*
Y-108470D01*
X198000Y-126530D02*
Y-108470D01*
X96500Y-131500D02*
Y-38500D01*
X3500D02*
X96500D01*
X3500Y-131500D02*
Y-38500D01*
Y-131500D02*
X96500D01*
D12*
X160250Y-230000D02*
G03*
X160250Y-230000I-1250J0D01*
G01*
X-268200Y173500D02*
G03*
X-268200Y173500I-1250J0D01*
G01*
X30000Y48125D02*
G03*
X30000Y48125I-1250J0D01*
G01*
X230750Y-154000D02*
G03*
X230750Y-154000I-1250J0D01*
G01*
X113500Y-130000D02*
G03*
X113500Y-130000I-1250J0D01*
G01*
D13*
X-271500Y-228500D02*
G03*
X-271500Y-228500I-1000J0D01*
G01*
X-311000Y-182000D02*
G03*
X-311000Y-182000I-1000J0D01*
G01*
D14*
X237375Y236900D02*
G03*
X237375Y236900I-625J0D01*
G01*
D15*
X246875Y-239333D02*
Y-212917D01*
X260875Y-239333D02*
Y-212917D01*
X246875Y-239333D02*
X249049D01*
X258701D02*
X260875D01*
X258701Y-212917D02*
X260875D01*
X246875D02*
X249049D01*
X270000Y-158000D02*
X273366D01*
Y-186000D02*
Y-158000D01*
X270000Y-186000D02*
X273366D01*
X258634D02*
X262000D01*
X258634D02*
Y-158000D01*
X262000D01*
X203500Y-163500D02*
Y-160134D01*
X231500D01*
Y-163500D02*
Y-160134D01*
Y-174866D02*
Y-171500D01*
X203500Y-174866D02*
X231500D01*
X203500D02*
Y-171500D01*
X199000Y-233000D02*
Y-202000D01*
X159000Y-233000D02*
Y-202000D01*
X179000Y-233000D02*
Y-202000D01*
X217634Y198500D02*
X221000D01*
X217634D02*
Y226500D01*
X221000D01*
X229000D02*
X232366D01*
Y198500D02*
Y226500D01*
X229000Y198500D02*
X232366D01*
X287634Y218000D02*
X291000D01*
X287634D02*
Y246000D01*
X291000D01*
X299000D02*
X302366D01*
Y218000D02*
Y246000D01*
X299000Y218000D02*
X302366D01*
X-25000Y149000D02*
X-21634D01*
Y121000D02*
Y149000D01*
X-25000Y121000D02*
X-21634D01*
X-36366D02*
X-33000D01*
X-36366D02*
Y149000D01*
X-33000D01*
X53000Y153000D02*
X86000Y186000D01*
Y290000D01*
X-359000Y205000D02*
X-268000D01*
X-258000Y215000D01*
X-105000Y166000D02*
Y289000D01*
Y166000D02*
X-92000Y153000D01*
X53000D01*
X-258000Y215000D02*
Y288000D01*
X-317000Y-250000D02*
Y-234000D01*
X-312000Y-229000D01*
X-317000Y-224000D02*
Y-177000D01*
Y-224000D02*
X-312000Y-229000D01*
X-206000D01*
X199000Y195000D02*
X232000D01*
X196000Y198000D02*
X199000Y195000D01*
X196000Y198000D02*
Y232000D01*
X197000Y231000D02*
X232000D01*
X196000Y232000D02*
X197000Y231000D01*
X196000Y232000D02*
Y272000D01*
X185000Y283000D02*
X196000Y272000D01*
X161000Y283000D02*
X185000D01*
X79250Y-163500D02*
Y-160134D01*
X107250D01*
Y-163500D02*
Y-160134D01*
Y-174866D02*
Y-171500D01*
X79250Y-174866D02*
X107250D01*
X79250D02*
Y-171500D01*
X20500Y-205708D02*
Y-179292D01*
X34500Y-205708D02*
Y-179292D01*
X20500Y-205708D02*
X22674D01*
X32326D02*
X34500D01*
X32326Y-179292D02*
X34500D01*
X20500D02*
X22674D01*
X-28500Y-113500D02*
X-25134D01*
Y-141500D02*
Y-113500D01*
X-28500Y-141500D02*
X-25134D01*
X-39866D02*
X-36500D01*
X-39866D02*
Y-113500D01*
X-36500D01*
X-23329Y-178708D02*
Y-152292D01*
X-37329Y-178708D02*
Y-152292D01*
X-25503D02*
X-23329D01*
X-37329D02*
X-35155D01*
X-37329Y-178708D02*
X-35155D01*
X-25503D02*
X-23329D01*
X151000Y-132366D02*
Y-129000D01*
X123000Y-132366D02*
X151000D01*
X123000D02*
Y-129000D01*
Y-121000D02*
Y-117634D01*
X151000D01*
Y-121000D02*
Y-117634D01*
X231500Y-74866D02*
Y-71500D01*
X203500Y-74866D02*
X231500D01*
X203500D02*
Y-71500D01*
Y-63500D02*
Y-60134D01*
X231500D01*
Y-63500D02*
Y-60134D01*
X160292Y-102000D02*
X186708D01*
X160292Y-88000D02*
X186708D01*
Y-102000D02*
Y-99826D01*
Y-90174D02*
Y-88000D01*
X160292Y-90174D02*
Y-88000D01*
Y-102000D02*
Y-99826D01*
X125134Y-69000D02*
X128500D01*
X125134D02*
Y-41000D01*
X128500D01*
X136500D02*
X139866D01*
Y-69000D02*
Y-41000D01*
X136500Y-69000D02*
X139866D01*
X142634D02*
X146000D01*
X142634D02*
Y-41000D01*
X146000D01*
X154000D02*
X157366D01*
Y-69000D02*
Y-41000D01*
X154000Y-69000D02*
X157366D01*
X119292Y99500D02*
X145708D01*
X119292Y113500D02*
X145708D01*
Y99500D02*
Y101674D01*
Y111326D02*
Y113500D01*
X119292Y111326D02*
Y113500D01*
Y99500D02*
Y101674D01*
X-8571Y19420D02*
Y22786D01*
X19429D01*
Y19420D02*
Y22786D01*
Y8054D02*
Y11420D01*
X-8571Y8054D02*
X19429D01*
X-8571D02*
Y11420D01*
X-95208Y32000D02*
X-68792D01*
X-95208Y18000D02*
X-68792D01*
X-95208Y29826D02*
Y32000D01*
Y18000D02*
Y20174D01*
X-68792Y18000D02*
Y20174D01*
Y29826D02*
Y32000D01*
X-96000Y11000D02*
Y14366D01*
X-68000D01*
Y11000D02*
Y14366D01*
Y-366D02*
Y3000D01*
X-96000Y-366D02*
X-68000D01*
X-96000D02*
Y3000D01*
X-90708Y70500D02*
X-64292D01*
X-90708Y84500D02*
X-64292D01*
Y70500D02*
Y72674D01*
Y82326D02*
Y84500D01*
X-90708Y82326D02*
Y84500D01*
Y70500D02*
Y72674D01*
X-97208Y131000D02*
X-70792D01*
X-97208Y145000D02*
X-70792D01*
Y131000D02*
Y133174D01*
Y142826D02*
Y145000D01*
X-97208Y142826D02*
Y145000D01*
Y131000D02*
Y133174D01*
X-283500Y94000D02*
X-280134D01*
Y66000D02*
Y94000D01*
X-283500Y66000D02*
X-280134D01*
X-294866D02*
X-291500D01*
X-294866D02*
Y94000D01*
X-291500D01*
X-301000D02*
X-297634D01*
Y66000D02*
Y94000D01*
X-301000Y66000D02*
X-297634D01*
X-312366D02*
X-309000D01*
X-312366D02*
Y94000D01*
X-309000D01*
X-294866Y98500D02*
X-291500D01*
X-294866D02*
Y126500D01*
X-291500D01*
X-283500D02*
X-280134D01*
Y98500D02*
Y126500D01*
X-283500Y98500D02*
X-280134D01*
X-294500Y139292D02*
Y165708D01*
X-280500Y139292D02*
Y165708D01*
X-294500Y139292D02*
X-292326D01*
X-282674D02*
X-280500D01*
X-282674Y165708D02*
X-280500D01*
X-294500D02*
X-292326D01*
X-65000Y-14792D02*
X-62826D01*
X-53174D02*
X-51000D01*
X-53174Y-41208D02*
X-51000D01*
X-65000D02*
X-62826D01*
X-51000D02*
Y-14792D01*
X-65000Y-41208D02*
Y-14792D01*
X202792Y240500D02*
Y242674D01*
Y252326D02*
Y254500D01*
X229208Y252326D02*
Y254500D01*
Y240500D02*
Y242674D01*
X202792Y254500D02*
X229208D01*
X202792Y240500D02*
X229208D01*
X212326Y165292D02*
X214500D01*
X200500D02*
X202674D01*
X200500Y191708D02*
X202674D01*
X212326D02*
X214500D01*
X200500Y165292D02*
Y191708D01*
X214500Y165292D02*
Y191708D01*
X247792Y178000D02*
Y180174D01*
Y189826D02*
Y192000D01*
X274208Y189826D02*
Y192000D01*
Y178000D02*
Y180174D01*
X247792Y192000D02*
X274208D01*
X247792Y178000D02*
X274208D01*
X218000Y191708D02*
X220174D01*
X229826D02*
X232000D01*
X229826Y165292D02*
X232000D01*
X218000D02*
X220174D01*
X232000D02*
Y191708D01*
X218000Y165292D02*
Y191708D01*
X19750Y1500D02*
Y4866D01*
X-8250D02*
X19750D01*
X-8250Y1500D02*
Y4866D01*
Y-9866D02*
Y-6500D01*
Y-9866D02*
X19750D01*
Y-6500D01*
X104000Y1500D02*
Y4866D01*
X76000D02*
X104000D01*
X76000Y1500D02*
Y4866D01*
Y-9866D02*
Y-6500D01*
Y-9866D02*
X104000D01*
Y-6500D01*
X-10750Y80634D02*
Y84000D01*
Y80634D02*
X17250D01*
Y84000D01*
Y92000D02*
Y95366D01*
X-10750D02*
X17250D01*
X-10750Y92000D02*
Y95366D01*
X-42366Y83000D02*
X-39000D01*
X-42366Y55000D02*
Y83000D01*
Y55000D02*
X-39000D01*
X-31000D02*
X-27634D01*
Y83000D01*
X-31000D02*
X-27634D01*
X-271500Y-204866D02*
Y-201500D01*
Y-204866D02*
X-243500D01*
Y-201500D01*
Y-193500D02*
Y-190134D01*
X-271500D02*
X-243500D01*
X-271500Y-193500D02*
Y-190134D01*
Y-222366D02*
Y-219000D01*
Y-222366D02*
X-243500D01*
Y-219000D01*
Y-211000D02*
Y-207634D01*
X-271500D02*
X-243500D01*
X-271500Y-211000D02*
Y-207634D01*
X266500Y259000D02*
Y262366D01*
X238500D02*
X266500D01*
X238500Y259000D02*
Y262366D01*
Y247634D02*
Y251000D01*
Y247634D02*
X266500D01*
Y251000D01*
X211500Y198500D02*
X214866D01*
Y226500D01*
X211500D02*
X214866D01*
X200134D02*
X203500D01*
X200134Y198500D02*
Y226500D01*
Y198500D02*
X203500D01*
X162831Y-177164D02*
X164497Y-175498D01*
Y-172166D01*
X162831Y-170500D01*
X156166D01*
X154500Y-172166D01*
Y-175498D01*
X156166Y-177164D01*
X159498D01*
Y-173832D01*
X154500Y-180497D02*
X164497D01*
X154500Y-187161D01*
X164497D01*
Y-190494D02*
X154500D01*
Y-195492D01*
X156166Y-197158D01*
X162831D01*
X164497Y-195492D01*
Y-190494D01*
X174497Y-221500D02*
X164500D01*
Y-226498D01*
X166166Y-228165D01*
X167832D01*
X169498Y-226498D01*
Y-221500D01*
Y-226498D01*
X171164Y-228165D01*
X172831D01*
X174497Y-226498D01*
Y-221500D01*
X-202500Y-234500D02*
Y-227836D01*
X-344836Y-241169D02*
X-346502Y-239503D01*
X-349834D01*
X-351500Y-241169D01*
Y-247834D01*
X-349834Y-249500D01*
X-346502D01*
X-344836Y-247834D01*
Y-244502D01*
X-348168D01*
X-341503Y-249500D02*
Y-239503D01*
X-334839Y-249500D01*
Y-239503D01*
X-331507D02*
Y-249500D01*
X-326508D01*
X-324842Y-247834D01*
Y-241169D01*
X-326508Y-239503D01*
X-331507D01*
X-350500Y-187503D02*
Y-197500D01*
X-345502D01*
X-343835Y-195834D01*
Y-189169D01*
X-345502Y-187503D01*
X-350500D01*
X-340503D02*
X-333839D01*
X-337171D01*
Y-197500D01*
X-330507D02*
Y-187503D01*
X-325508D01*
X-323842Y-189169D01*
Y-192502D01*
X-325508Y-194168D01*
X-330507D01*
X-327174D02*
X-323842Y-197500D01*
X-349500Y-181168D02*
X-342836D01*
X-346168Y-177836D02*
Y-184500D01*
X-351500Y-226503D02*
X-344836D01*
X-348168D01*
Y-236500D01*
X-341503Y-226503D02*
X-334839Y-236500D01*
Y-226503D02*
X-341503Y-236500D01*
X-350500Y-223500D02*
Y-213503D01*
X-345502D01*
X-343835Y-215169D01*
Y-218502D01*
X-345502Y-220168D01*
X-350500D01*
X-347168D02*
X-343835Y-223500D01*
X-340503Y-213503D02*
X-333839Y-223500D01*
Y-213503D02*
X-340503Y-223500D01*
X-350500Y-210500D02*
Y-200503D01*
X-345502D01*
X-343835Y-202169D01*
Y-205502D01*
X-345502Y-207168D01*
X-350500D01*
X-347168D02*
X-343835Y-210500D01*
X-340503Y-200503D02*
X-333839D01*
X-337171D01*
Y-210500D01*
X-323842Y-202169D02*
X-325508Y-200503D01*
X-328840D01*
X-330507Y-202169D01*
Y-203836D01*
X-328840Y-205502D01*
X-325508D01*
X-323842Y-207168D01*
Y-208834D01*
X-325508Y-210500D01*
X-328840D01*
X-330507Y-208834D01*
X-64831Y-223836D02*
X-66497Y-225502D01*
Y-228834D01*
X-64831Y-230500D01*
X-58166D01*
X-56500Y-228834D01*
Y-225502D01*
X-58166Y-223836D01*
X-61498D01*
Y-227168D01*
X-69500Y-230500D02*
X-79497D01*
X-76164Y-227168D01*
X-79497Y-223836D01*
X-69500D01*
X-79497Y-215505D02*
Y-218837D01*
X-77831Y-220503D01*
X-71166D01*
X-69500Y-218837D01*
Y-215505D01*
X-71166Y-213839D01*
X-77831D01*
X-79497Y-215505D01*
X-82500Y-230500D02*
X-92497D01*
X-89164Y-227168D01*
X-92497Y-223836D01*
X-82500D01*
X-92497Y-220503D02*
Y-217171D01*
Y-218837D01*
X-82500D01*
Y-220503D01*
Y-217171D01*
X-103831Y-224835D02*
X-105497Y-226502D01*
Y-229834D01*
X-103831Y-231500D01*
X-102164D01*
X-100498Y-229834D01*
Y-226502D01*
X-98832Y-224835D01*
X-97166D01*
X-95500Y-226502D01*
Y-229834D01*
X-97166Y-231500D01*
X-103831Y-214839D02*
X-105497Y-216505D01*
Y-219837D01*
X-103831Y-221503D01*
X-97166D01*
X-95500Y-219837D01*
Y-216505D01*
X-97166Y-214839D01*
X-116831Y-224835D02*
X-118497Y-226502D01*
Y-229834D01*
X-116831Y-231500D01*
X-110166D01*
X-108500Y-229834D01*
Y-226502D01*
X-110166Y-224835D01*
X-116831Y-214839D02*
X-118497Y-216505D01*
Y-219837D01*
X-116831Y-221503D01*
X-115164D01*
X-113498Y-219837D01*
Y-216505D01*
X-111832Y-214839D01*
X-110166D01*
X-108500Y-216505D01*
Y-219837D01*
X-110166Y-221503D01*
X-124832Y-223500D02*
Y-216835D01*
X-128165Y-220168D02*
X-121500D01*
X80169Y-223836D02*
X78503Y-225502D01*
Y-228834D01*
X80169Y-230500D01*
X86834D01*
X88500Y-228834D01*
Y-225502D01*
X86834Y-223836D01*
X83502D01*
Y-227168D01*
X88500Y-220503D02*
X78503D01*
X88500Y-213839D01*
X78503D01*
Y-210506D02*
X88500D01*
Y-205508D01*
X86834Y-203842D01*
X80169D01*
X78503Y-205508D01*
Y-210506D01*
X65503Y-230500D02*
Y-223836D01*
Y-227168D01*
X75500D01*
Y-220503D02*
X65503D01*
Y-215505D01*
X67169Y-213839D01*
X70502D01*
X72168Y-215505D01*
Y-220503D01*
Y-217171D02*
X75500Y-213839D01*
Y-210506D02*
X68836D01*
X65503Y-207174D01*
X68836Y-203842D01*
X75500D01*
X70502D01*
Y-210506D01*
X67169Y-193845D02*
X65503Y-195511D01*
Y-198843D01*
X67169Y-200510D01*
X73834D01*
X75500Y-198843D01*
Y-195511D01*
X73834Y-193845D01*
X65503Y-183848D02*
Y-190513D01*
X75500D01*
Y-183848D01*
X70502Y-190513D02*
Y-187181D01*
X52503Y-230500D02*
X62500D01*
Y-225502D01*
X60834Y-223836D01*
X54169D01*
X52503Y-225502D01*
Y-230500D01*
Y-220503D02*
Y-217171D01*
Y-218837D01*
X62500D01*
Y-220503D01*
Y-217171D01*
X52503Y-207174D02*
Y-210506D01*
X54169Y-212173D01*
X60834D01*
X62500Y-210506D01*
Y-207174D01*
X60834Y-205508D01*
X54169D01*
X52503Y-207174D01*
X41169Y-223836D02*
X39503Y-225502D01*
Y-228834D01*
X41169Y-230500D01*
X47834D01*
X49500Y-228834D01*
Y-225502D01*
X47834Y-223836D01*
X39503Y-220503D02*
X49500D01*
Y-213839D01*
X39503Y-210506D02*
X49500D01*
X46168D01*
X39503Y-203842D01*
X44502Y-208840D01*
X49500Y-203842D01*
X36500Y-230500D02*
X26503D01*
Y-225502D01*
X28169Y-223836D01*
X31502D01*
X33168Y-225502D01*
Y-230500D01*
Y-227168D02*
X36500Y-223836D01*
X28169Y-213839D02*
X26503Y-215505D01*
Y-218837D01*
X28169Y-220503D01*
X29836D01*
X31502Y-218837D01*
Y-215505D01*
X33168Y-213839D01*
X34834D01*
X36500Y-215505D01*
Y-218837D01*
X34834Y-220503D01*
X20168Y-223500D02*
Y-216835D01*
X16836Y-220168D02*
X23500D01*
X174500Y-184500D02*
X184497D01*
X181164Y-187832D01*
X184497Y-191164D01*
X174500D01*
Y-194497D02*
Y-197829D01*
Y-196163D01*
X184497D01*
X182831Y-194497D01*
X184500Y-211500D02*
X194497D01*
X191164Y-214832D01*
X194497Y-218165D01*
X184500D01*
Y-228161D02*
Y-221497D01*
X191164Y-228161D01*
X192831D01*
X194497Y-226495D01*
Y-223163D01*
X192831Y-221497D01*
X193500Y-180500D02*
X203497D01*
X200164Y-183832D01*
X203497Y-187164D01*
X193500D01*
X201831Y-190497D02*
X203497Y-192163D01*
Y-195495D01*
X201831Y-197161D01*
X200164D01*
X198498Y-195495D01*
Y-193829D01*
Y-195495D01*
X196832Y-197161D01*
X195166D01*
X193500Y-195495D01*
Y-192163D01*
X195166Y-190497D01*
X203500Y-211500D02*
X213497D01*
X210165Y-214832D01*
X213497Y-218165D01*
X203500D01*
Y-226495D02*
X213497D01*
X208498Y-221497D01*
Y-228161D01*
D16*
X241000Y237400D02*
Y241500D01*
Y198500D02*
Y202600D01*
Y198500D02*
X274000D01*
Y237400D02*
Y241500D01*
Y198500D02*
Y202600D01*
X241000Y241500D02*
X274000D01*
D17*
X-83968Y208090D02*
Y197933D01*
X-78890D01*
X-77197Y199626D01*
Y201318D01*
Y203011D01*
X-78890Y204704D01*
X-83968D01*
X-73811D02*
Y199626D01*
X-72119Y197933D01*
X-67040D01*
Y196240D01*
X-68733Y194547D01*
X-70426D01*
X-67040Y197933D02*
Y204704D01*
X-63655D02*
X-61962D01*
Y203011D01*
X-63655D01*
Y204704D01*
Y199626D02*
X-61962D01*
Y197933D01*
X-63655D01*
Y199626D01*
X-83968Y177482D02*
Y184254D01*
X-80582Y187639D01*
X-77197Y184254D01*
Y177482D01*
Y182561D01*
X-83968D01*
X-73811Y184254D02*
Y177482D01*
Y180868D01*
X-72119Y182561D01*
X-70426Y184254D01*
X-68733D01*
X-63655Y177482D02*
Y187639D01*
Y180868D02*
X-58576Y184254D01*
X-63655Y180868D02*
X-58576Y177482D01*
X-51805Y184254D02*
X-48419D01*
X-46727Y182561D01*
Y177482D01*
X-51805D01*
X-53498Y179175D01*
X-51805Y180868D01*
X-46727D01*
X-36570Y187639D02*
Y177482D01*
X-41648D01*
X-43341Y179175D01*
Y182561D01*
X-41648Y184254D01*
X-36570D01*
X-33184Y177482D02*
X-29799D01*
X-31492D01*
Y184254D01*
X-33184D01*
X-24720D02*
Y179175D01*
X-23028Y177482D01*
X-17949D01*
Y184254D01*
X-14564Y177482D02*
X-9485D01*
X-7793Y179175D01*
X-9485Y180868D01*
X-12871D01*
X-14564Y182561D01*
X-12871Y184254D01*
X-7793D01*
X-4407D02*
X2364D01*
X-4407Y177482D01*
X2364D01*
X-83968Y160418D02*
Y170574D01*
X-78890D01*
X-77197Y168881D01*
Y165496D01*
X-78890Y163803D01*
X-83968D01*
X-80582D02*
X-77197Y160418D01*
X-72119D02*
X-68733D01*
X-67040Y162110D01*
Y165496D01*
X-68733Y167189D01*
X-72119D01*
X-73811Y165496D01*
Y162110D01*
X-72119Y160418D01*
X-63655Y167189D02*
X-56883D01*
X-63655Y160418D01*
X-56883D01*
X-53498D02*
Y167189D01*
X-51805D01*
X-50112Y165496D01*
Y160418D01*
Y165496D01*
X-48419Y167189D01*
X-46727Y165496D01*
Y160418D01*
X-41648Y167189D02*
X-38263D01*
X-36570Y165496D01*
Y160418D01*
X-41648D01*
X-43341Y162110D01*
X-41648Y163803D01*
X-36570D01*
X-33184Y167189D02*
Y160418D01*
Y163803D01*
X-31492Y165496D01*
X-29799Y167189D01*
X-28106D01*
X-23028D02*
Y162110D01*
X-21335Y160418D01*
X-16257D01*
Y158725D01*
X-17949Y157032D01*
X-19642D01*
X-16257Y160418D02*
Y167189D01*
X-12871Y160418D02*
Y167189D01*
X-7793D01*
X-6100Y165496D01*
Y160418D01*
X-1021D02*
X2364D01*
X4057Y162110D01*
Y165496D01*
X2364Y167189D01*
X-1021D01*
X-2714Y165496D01*
Y162110D01*
X-1021Y160418D01*
X7442Y167189D02*
Y162110D01*
X9135Y160418D01*
X10828Y162110D01*
X12521Y160418D01*
X14214Y162110D01*
Y167189D01*
X17599Y160418D02*
X20985D01*
X19292D01*
Y167189D01*
X17599D01*
X32834D02*
X27756D01*
X26063Y165496D01*
Y162110D01*
X27756Y160418D01*
X32834D01*
X36220Y167189D02*
X42991D01*
X36220Y160418D01*
X42991D01*
X-350197Y268305D02*
Y275076D01*
X-351890Y276769D01*
X-355275D01*
X-356968Y275076D01*
Y268305D01*
X-355275Y266612D01*
X-351890D01*
X-353582Y269998D02*
X-350197Y266612D01*
X-351890D02*
X-350197Y268305D01*
X-346811Y273383D02*
Y268305D01*
X-345118Y266612D01*
X-340040D01*
Y273383D01*
X-334962D02*
X-331576D01*
X-329883Y271691D01*
Y266612D01*
X-334962D01*
X-336655Y268305D01*
X-334962Y269998D01*
X-329883D01*
X-319727Y276769D02*
Y266612D01*
X-324805D01*
X-326498Y268305D01*
Y271691D01*
X-324805Y273383D01*
X-319727D01*
X-309570D02*
X-314648D01*
X-316341Y271691D01*
Y268305D01*
X-314648Y266612D01*
X-309570D01*
X-304492D02*
X-301106D01*
X-299413Y268305D01*
Y271691D01*
X-301106Y273383D01*
X-304492D01*
X-306184Y271691D01*
Y268305D01*
X-304492Y266612D01*
X-296028Y263227D02*
Y273383D01*
X-290949D01*
X-289256Y271691D01*
Y268305D01*
X-290949Y266612D01*
X-296028D01*
X-284178Y275076D02*
Y273383D01*
X-285871D01*
X-282485D01*
X-284178D01*
Y268305D01*
X-282485Y266612D01*
X-272329D02*
X-275714D01*
X-277407Y268305D01*
Y271691D01*
X-275714Y273383D01*
X-272329D01*
X-270636Y271691D01*
Y269998D01*
X-277407D01*
X-267250Y273383D02*
Y266612D01*
Y269998D01*
X-265557Y271691D01*
X-263865Y273383D01*
X-262172D01*
X-356968Y246162D02*
Y256318D01*
X-353582Y252933D01*
X-350197Y256318D01*
Y246162D01*
X-345118Y252933D02*
X-341733D01*
X-340040Y251240D01*
Y246162D01*
X-345118D01*
X-346811Y247854D01*
X-345118Y249547D01*
X-340040D01*
X-336655Y246162D02*
X-333269D01*
X-334962D01*
Y252933D01*
X-336655D01*
X-328191Y246162D02*
Y252933D01*
X-323112D01*
X-321419Y251240D01*
Y246162D01*
X-307877D02*
Y256318D01*
X-302799D01*
X-301106Y254626D01*
Y251240D01*
X-302799Y249547D01*
X-307877D01*
X-290949Y254626D02*
X-292642Y256318D01*
X-296028D01*
X-297721Y254626D01*
Y247854D01*
X-296028Y246162D01*
X-292642D01*
X-290949Y247854D01*
X-287564Y256318D02*
Y246162D01*
X-282485D01*
X-280793Y247854D01*
Y249547D01*
X-282485Y251240D01*
X-287564D01*
X-282485D01*
X-280793Y252933D01*
Y254626D01*
X-282485Y256318D01*
X-287564D01*
X-356968Y237561D02*
X-355275Y239254D01*
X-351890D01*
X-350197Y237561D01*
Y230790D01*
X-351890Y229097D01*
X-355275D01*
X-356968Y230790D01*
Y237561D01*
X-340040Y239254D02*
X-343426Y237561D01*
X-346811Y234175D01*
Y230790D01*
X-345118Y229097D01*
X-341733D01*
X-340040Y230790D01*
Y232482D01*
X-341733Y234175D01*
X-346811D01*
X-336655Y229097D02*
Y230790D01*
X-334962D01*
Y229097D01*
X-336655D01*
X-321419D02*
X-328191D01*
X-321419Y235868D01*
Y237561D01*
X-323112Y239254D01*
X-326498D01*
X-328191Y237561D01*
X-318034D02*
X-316341Y239254D01*
X-312956D01*
X-311263Y237561D01*
Y230790D01*
X-312956Y229097D01*
X-316341D01*
X-318034Y230790D01*
Y237561D01*
X-301106Y229097D02*
X-307877D01*
X-301106Y235868D01*
Y237561D01*
X-302799Y239254D01*
X-306184D01*
X-307877Y237561D01*
X-290949Y239254D02*
X-294335Y237561D01*
X-297721Y234175D01*
Y230790D01*
X-296028Y229097D01*
X-292642D01*
X-290949Y230790D01*
Y232482D01*
X-292642Y234175D01*
X-297721D01*
X-356968Y218803D02*
X-353582Y212032D01*
X-350197Y218803D01*
X-346811Y212032D02*
X-343426D01*
X-345118D01*
Y222189D01*
X-346811Y220496D01*
X-338347Y212032D02*
Y213725D01*
X-336655D01*
Y212032D01*
X-338347D01*
X-329883Y220496D02*
X-328191Y222189D01*
X-324805D01*
X-323112Y220496D01*
Y213725D01*
X-324805Y212032D01*
X-328191D01*
X-329883Y213725D01*
Y220496D01*
X294504Y-271197D02*
X292811Y-272890D01*
Y-276275D01*
X294504Y-277968D01*
X296197D01*
X297890Y-276275D01*
Y-272890D01*
X299582Y-271197D01*
X301275D01*
X302968Y-272890D01*
Y-276275D01*
X301275Y-277968D01*
X292811Y-267811D02*
Y-261040D01*
Y-264426D01*
X302968D01*
Y-257655D02*
X292811D01*
X296197Y-254269D01*
X292811Y-250883D01*
X302968D01*
Y-237341D02*
X292811D01*
Y-232263D01*
X294504Y-230570D01*
X297890D01*
X299582Y-232263D01*
Y-237341D01*
Y-233955D02*
X302968Y-230570D01*
X294504Y-220413D02*
X292811Y-222106D01*
Y-225492D01*
X294504Y-227184D01*
X296197D01*
X297890Y-225492D01*
Y-222106D01*
X299582Y-220413D01*
X301275D01*
X302968Y-222106D01*
Y-225492D01*
X301275Y-227184D01*
X292811Y-217028D02*
Y-210257D01*
Y-213642D01*
X302968D01*
X239189Y-249803D02*
Y-243032D01*
X229032D01*
Y-249803D01*
X234110Y-243032D02*
Y-246418D01*
X237496Y-259960D02*
X239189Y-258267D01*
Y-254881D01*
X237496Y-253189D01*
X235803D01*
X234110Y-254881D01*
Y-258267D01*
X232418Y-259960D01*
X230725D01*
X229032Y-258267D01*
Y-254881D01*
X230725Y-253189D01*
X237496Y-270117D02*
X239189Y-268424D01*
Y-265038D01*
X237496Y-263345D01*
X230725D01*
X229032Y-265038D01*
Y-268424D01*
X230725Y-270117D01*
X308504Y-180197D02*
X306811Y-181890D01*
Y-185275D01*
X308504Y-186968D01*
X310197D01*
X311890Y-185275D01*
Y-181890D01*
X313582Y-180197D01*
X315275D01*
X316968Y-181890D01*
Y-185275D01*
X315275Y-186968D01*
X306811Y-176811D02*
Y-170040D01*
Y-173426D01*
X316968D01*
Y-166655D02*
X306811D01*
X310197Y-163269D01*
X306811Y-159883D01*
X316968D01*
X288803Y-121811D02*
X282032D01*
Y-131968D01*
X288803D01*
X282032Y-126890D02*
X285418D01*
X298960Y-123504D02*
X297267Y-121811D01*
X293881D01*
X292189Y-123504D01*
Y-125197D01*
X293881Y-126890D01*
X297267D01*
X298960Y-128582D01*
Y-130275D01*
X297267Y-131968D01*
X293881D01*
X292189Y-130275D01*
X309117Y-123504D02*
X307424Y-121811D01*
X304038D01*
X302345Y-123504D01*
Y-130275D01*
X304038Y-131968D01*
X307424D01*
X309117Y-130275D01*
X258504Y-50197D02*
X256811Y-51890D01*
Y-55275D01*
X258504Y-56968D01*
X265275D01*
X266968Y-55275D01*
Y-51890D01*
X265275Y-50197D01*
X261890D01*
Y-53582D01*
X266968Y-46811D02*
X256811D01*
X266968Y-40040D01*
X256811D01*
Y-36655D02*
X266968D01*
Y-31576D01*
X265275Y-29883D01*
X258504D01*
X256811Y-31576D01*
Y-36655D01*
X261890Y-109968D02*
Y-103197D01*
X258504Y-106582D02*
X265275D01*
X258504Y-99811D02*
X256811Y-98118D01*
Y-94733D01*
X258504Y-93040D01*
X260197D01*
X261890Y-94733D01*
Y-96426D01*
Y-94733D01*
X263582Y-93040D01*
X265275D01*
X266968Y-94733D01*
Y-98118D01*
X265275Y-99811D01*
X258504Y-82883D02*
X256811Y-84576D01*
Y-87962D01*
X258504Y-89655D01*
X260197D01*
X261890Y-87962D01*
Y-84576D01*
X263582Y-82883D01*
X265275D01*
X266968Y-84576D01*
Y-87962D01*
X265275Y-89655D01*
X247032Y144574D02*
Y134418D01*
X252110D01*
X253803Y136110D01*
Y137803D01*
X252110Y139496D01*
X247032D01*
X252110D01*
X253803Y141189D01*
Y142881D01*
X252110Y144574D01*
X247032D01*
X258881Y141189D02*
X262267D01*
X263960Y139496D01*
Y134418D01*
X258881D01*
X257189Y136110D01*
X258881Y137803D01*
X263960D01*
X269038Y142881D02*
Y141189D01*
X267345D01*
X270731D01*
X269038D01*
Y136110D01*
X270731Y134418D01*
X277502Y142881D02*
Y141189D01*
X275809D01*
X279195D01*
X277502D01*
Y136110D01*
X279195Y134418D01*
X289352D02*
X285966D01*
X284273Y136110D01*
Y139496D01*
X285966Y141189D01*
X289352D01*
X291045Y139496D01*
Y137803D01*
X284273D01*
X294430Y141189D02*
Y134418D01*
Y137803D01*
X296123Y139496D01*
X297816Y141189D01*
X299508D01*
X304587D02*
Y136110D01*
X306280Y134418D01*
X311358D01*
Y132725D01*
X309665Y131032D01*
X307972D01*
X311358Y134418D02*
Y141189D01*
X207504Y45803D02*
X205811Y44110D01*
Y40725D01*
X207504Y39032D01*
X214275D01*
X215968Y40725D01*
Y44110D01*
X214275Y45803D01*
X210890D01*
Y42418D01*
X215968Y49189D02*
X205811D01*
X215968Y55960D01*
X205811D01*
Y59345D02*
X215968D01*
Y64424D01*
X214275Y66117D01*
X207504D01*
X205811Y64424D01*
Y59345D01*
X210890Y87032D02*
Y93803D01*
X207504Y90418D02*
X214275D01*
X207504Y97189D02*
X205811Y98882D01*
Y102267D01*
X207504Y103960D01*
X209197D01*
X210890Y102267D01*
Y100574D01*
Y102267D01*
X212582Y103960D01*
X214275D01*
X215968Y102267D01*
Y98882D01*
X214275Y97189D01*
X207504Y114117D02*
X205811Y112424D01*
Y109038D01*
X207504Y107346D01*
X209197D01*
X210890Y109038D01*
Y112424D01*
X212582Y114117D01*
X214275D01*
X215968Y112424D01*
Y109038D01*
X214275Y107346D01*
X-300197Y-236811D02*
X-306968D01*
Y-246968D01*
X-300197D01*
X-306968Y-241890D02*
X-303582D01*
X-290040Y-238504D02*
X-291733Y-236811D01*
X-295119D01*
X-296811Y-238504D01*
Y-240197D01*
X-295119Y-241890D01*
X-291733D01*
X-290040Y-243582D01*
Y-245275D01*
X-291733Y-246968D01*
X-295119D01*
X-296811Y-245275D01*
X-286655Y-246968D02*
Y-236811D01*
X-281576D01*
X-279883Y-238504D01*
Y-241890D01*
X-281576Y-243582D01*
X-286655D01*
X-155197Y-235811D02*
X-161968D01*
Y-245968D01*
X-155197D01*
X-161968Y-240890D02*
X-158582D01*
X-151811Y-235811D02*
X-145040Y-245968D01*
Y-235811D02*
X-151811Y-245968D01*
X-141655Y-235811D02*
X-134883D01*
X-138269D01*
Y-245968D01*
X-13197Y-237504D02*
X-14890Y-235811D01*
X-18275D01*
X-19968Y-237504D01*
Y-239197D01*
X-18275Y-240890D01*
X-14890D01*
X-13197Y-242582D01*
Y-244275D01*
X-14890Y-245968D01*
X-18275D01*
X-19968Y-244275D01*
X-9811Y-235811D02*
X-3040D01*
X-6426D01*
Y-245968D01*
X345D02*
Y-235811D01*
X3731Y-239197D01*
X7117Y-235811D01*
Y-245968D01*
X-233189Y-210197D02*
Y-216968D01*
X-223032D01*
Y-210197D01*
X-228110Y-216968D02*
Y-213582D01*
X-223032Y-206811D02*
X-233189D01*
X-223032Y-200040D01*
X-233189D01*
X-186275Y-188968D02*
X-182890D01*
X-181197Y-187275D01*
Y-183890D01*
X-182890Y-182197D01*
X-186275D01*
X-187968Y-183890D01*
Y-187275D01*
X-186275Y-188968D01*
X-147189Y-215197D02*
Y-221968D01*
X-137032D01*
Y-215197D01*
X-142110Y-221968D02*
Y-218582D01*
X-145496Y-205040D02*
X-147189Y-206733D01*
Y-210119D01*
X-145496Y-211811D01*
X-143803D01*
X-142110Y-210119D01*
Y-206733D01*
X-140418Y-205040D01*
X-138725D01*
X-137032Y-206733D01*
Y-210119D01*
X-138725Y-211811D01*
X-137032Y-201654D02*
X-147189D01*
Y-196576D01*
X-145496Y-194883D01*
X-142110D01*
X-140418Y-196576D01*
Y-201654D01*
X-65197Y-84504D02*
X-66890Y-82811D01*
X-70275D01*
X-71968Y-84504D01*
Y-86197D01*
X-70275Y-87890D01*
X-66890D01*
X-65197Y-89582D01*
Y-91275D01*
X-66890Y-92968D01*
X-70275D01*
X-71968Y-91275D01*
X-61811Y-82811D02*
X-55040D01*
X-58426D01*
Y-92968D01*
X-51655D02*
Y-82811D01*
X-48269Y-86197D01*
X-44883Y-82811D01*
Y-92968D01*
X-73197Y-194811D02*
X-79968D01*
Y-204968D01*
X-73197D01*
X-79968Y-199890D02*
X-76582D01*
X-63040Y-196504D02*
X-64733Y-194811D01*
X-68119D01*
X-69811Y-196504D01*
Y-198197D01*
X-68119Y-199890D01*
X-64733D01*
X-63040Y-201582D01*
Y-203275D01*
X-64733Y-204968D01*
X-68119D01*
X-69811Y-203275D01*
X-59655Y-204968D02*
Y-194811D01*
X-54576D01*
X-52883Y-196504D01*
Y-199890D01*
X-54576Y-201582D01*
X-59655D01*
X126032Y123032D02*
Y133189D01*
X131110D01*
X132803Y131496D01*
Y128110D01*
X131110Y126418D01*
X126032D01*
X141267Y133189D02*
X137881D01*
X136189Y131496D01*
Y124725D01*
X137881Y123032D01*
X141267D01*
X142960Y124725D01*
Y131496D01*
X141267Y133189D01*
X146346D02*
Y123032D01*
X149731Y126418D01*
X153117Y123032D01*
Y133189D01*
X163273D02*
X156502D01*
Y123032D01*
X163273D01*
X156502Y128110D02*
X159888D01*
X166659Y123032D02*
Y133189D01*
X171737D01*
X173430Y131496D01*
Y128110D01*
X171737Y126418D01*
X166659D01*
X170044D02*
X173430Y123032D01*
X-269078Y46536D02*
X-260614D01*
X-258922Y48229D01*
Y51614D01*
X-260614Y53307D01*
X-269078D01*
Y63464D02*
X-267386Y60078D01*
X-264000Y56693D01*
X-260614D01*
X-258922Y58386D01*
Y61771D01*
X-260614Y63464D01*
X-262307D01*
X-264000Y61771D01*
Y56693D01*
X131229Y-104614D02*
X129536Y-102922D01*
X126151D01*
X124458Y-104614D01*
Y-111386D01*
X126151Y-113078D01*
X129536D01*
X131229Y-111386D01*
X141386Y-113078D02*
X134614D01*
X141386Y-106307D01*
Y-104614D01*
X139693Y-102922D01*
X136307D01*
X134614Y-104614D01*
X144771Y-102922D02*
X151542D01*
Y-104614D01*
X144771Y-111386D01*
Y-113078D01*
X160458Y-83078D02*
Y-72922D01*
X165536D01*
X167229Y-74614D01*
Y-78000D01*
X165536Y-79693D01*
X160458D01*
X163843D02*
X167229Y-83078D01*
X177386D02*
X170614D01*
X177386Y-76307D01*
Y-74614D01*
X175693Y-72922D01*
X172307D01*
X170614Y-74614D01*
X180771Y-81386D02*
X182464Y-83078D01*
X185849D01*
X187542Y-81386D01*
Y-74614D01*
X185849Y-72922D01*
X182464D01*
X180771Y-74614D01*
Y-76307D01*
X182464Y-78000D01*
X187542D01*
X146614Y-28771D02*
X144922Y-30464D01*
Y-33849D01*
X146614Y-35542D01*
X153385D01*
X155078Y-33849D01*
Y-30464D01*
X153385Y-28771D01*
X155078Y-18614D02*
Y-25385D01*
X148307Y-18614D01*
X146614D01*
X144922Y-20307D01*
Y-23693D01*
X146614Y-25385D01*
Y-15229D02*
X144922Y-13536D01*
Y-10151D01*
X146614Y-8458D01*
X148307D01*
X150000Y-10151D01*
X151693Y-8458D01*
X153385D01*
X155078Y-10151D01*
Y-13536D01*
X153385Y-15229D01*
X151693D01*
X150000Y-13536D01*
X148307Y-15229D01*
X146614D01*
X150000Y-13536D02*
Y-10151D01*
X-285693Y-210614D02*
X-287386Y-208922D01*
X-290771D01*
X-292464Y-210614D01*
Y-217386D01*
X-290771Y-219078D01*
X-287386D01*
X-285693Y-217386D01*
X-282307Y-208922D02*
X-275536D01*
Y-210614D01*
X-282307Y-217386D01*
Y-219078D01*
X-42693Y-235922D02*
X-46078D01*
X-44386D01*
Y-244386D01*
X-46078Y-246078D01*
X-47771D01*
X-49464Y-244386D01*
X-32536Y-246078D02*
X-39307D01*
X-32536Y-239307D01*
Y-237614D01*
X-34229Y-235922D01*
X-37614D01*
X-39307Y-237614D01*
X240078Y-233542D02*
X229922D01*
Y-228464D01*
X231614Y-226771D01*
X235000D01*
X236693Y-228464D01*
Y-233542D01*
Y-230157D02*
X240078Y-226771D01*
X231614Y-223386D02*
X229922Y-221693D01*
Y-218307D01*
X231614Y-216614D01*
X233307D01*
X235000Y-218307D01*
Y-220000D01*
Y-218307D01*
X236693Y-216614D01*
X238386D01*
X240078Y-218307D01*
Y-221693D01*
X238386Y-223386D01*
X240078Y-206458D02*
Y-213229D01*
X233307Y-206458D01*
X231614D01*
X229922Y-208151D01*
Y-211536D01*
X231614Y-213229D01*
X123922Y-237229D02*
X134078D01*
Y-242307D01*
X132386Y-244000D01*
X129000D01*
X127307Y-242307D01*
Y-237229D01*
X123922Y-247386D02*
Y-250771D01*
Y-249078D01*
X134078D01*
X132386Y-247386D01*
X-191693Y-236922D02*
X-195078D01*
X-193386D01*
Y-245386D01*
X-195078Y-247078D01*
X-196771D01*
X-198464Y-245386D01*
X-181536Y-236922D02*
X-188307D01*
Y-242000D01*
X-184922Y-240307D01*
X-183229D01*
X-181536Y-242000D01*
Y-245386D01*
X-183229Y-247078D01*
X-186614D01*
X-188307Y-245386D01*
X101307Y-233922D02*
X97922D01*
X99614D01*
Y-242386D01*
X97922Y-244078D01*
X96229D01*
X94536Y-242386D01*
X104693Y-235614D02*
X106386Y-233922D01*
X109771D01*
X111464Y-235614D01*
Y-237307D01*
X109771Y-239000D01*
X108078D01*
X109771D01*
X111464Y-240693D01*
Y-242386D01*
X109771Y-244078D01*
X106386D01*
X104693Y-242386D01*
X179229Y-112922D02*
X186000Y-123078D01*
Y-112922D02*
X179229Y-123078D01*
X189386D02*
X192771D01*
X191078D01*
Y-112922D01*
X189386Y-114614D01*
X-35922Y-38849D02*
X-46078D01*
Y-33771D01*
X-44386Y-32078D01*
X-41000D01*
X-39307Y-33771D01*
Y-38849D01*
Y-35464D02*
X-35922Y-32078D01*
X-44386Y-28693D02*
X-46078Y-27000D01*
Y-23614D01*
X-44386Y-21922D01*
X-42693D01*
X-41000Y-23614D01*
Y-25307D01*
Y-23614D01*
X-39307Y-21922D01*
X-37615D01*
X-35922Y-23614D01*
Y-27000D01*
X-37615Y-28693D01*
X-35922Y-18536D02*
Y-15151D01*
Y-16843D01*
X-46078D01*
X-44386Y-18536D01*
X121229Y84922D02*
Y95078D01*
X126307D01*
X128000Y93386D01*
Y90000D01*
X126307Y88307D01*
X121229D01*
X124614D02*
X128000Y84922D01*
X131386D02*
X134771D01*
X133078D01*
Y95078D01*
X131386Y93386D01*
X-84078Y-70696D02*
X-73922D01*
Y-65617D01*
X-75614Y-63925D01*
X-82386D01*
X-84078Y-65617D01*
Y-70696D01*
X-73922Y-60539D02*
Y-57154D01*
Y-58846D01*
X-84078D01*
X-82386Y-60539D01*
Y-52075D02*
X-84078Y-50382D01*
Y-46997D01*
X-82386Y-45304D01*
X-80693D01*
X-79000Y-46997D01*
Y-48690D01*
Y-46997D01*
X-77307Y-45304D01*
X-75614D01*
X-73922Y-46997D01*
Y-50382D01*
X-75614Y-52075D01*
X178229Y91078D02*
Y80922D01*
X183307D01*
X185000Y82614D01*
Y89386D01*
X183307Y91078D01*
X178229D01*
X188386Y80922D02*
X191771D01*
X190078D01*
Y91078D01*
X188386Y89386D01*
X30922Y18386D02*
X29229Y20078D01*
X25843D01*
X24151Y18386D01*
Y11614D01*
X25843Y9922D01*
X29229D01*
X30922Y11614D01*
X41078Y9922D02*
X34307D01*
X41078Y16693D01*
Y18386D01*
X39386Y20078D01*
X36000D01*
X34307Y18386D01*
X44464Y9922D02*
X47849D01*
X46157D01*
Y20078D01*
X44464Y18386D01*
X254229Y-144614D02*
X252536Y-142922D01*
X249151D01*
X247458Y-144614D01*
Y-151386D01*
X249151Y-153078D01*
X252536D01*
X254229Y-151386D01*
X257614Y-144614D02*
X259307Y-142922D01*
X262693D01*
X264386Y-144614D01*
Y-146307D01*
X262693Y-148000D01*
X261000D01*
X262693D01*
X264386Y-149693D01*
Y-151386D01*
X262693Y-153078D01*
X259307D01*
X257614Y-151386D01*
X267771Y-144614D02*
X269464Y-142922D01*
X272850D01*
X274542Y-144614D01*
Y-151386D01*
X272850Y-153078D01*
X269464D01*
X267771Y-151386D01*
Y-144614D01*
X210229Y-46614D02*
X208536Y-44922D01*
X205151D01*
X203458Y-46614D01*
Y-53386D01*
X205151Y-55078D01*
X208536D01*
X210229Y-53386D01*
X220386Y-55078D02*
X213614D01*
X220386Y-48307D01*
Y-46614D01*
X218693Y-44922D01*
X215307D01*
X213614Y-46614D01*
X223771D02*
X225464Y-44922D01*
X228850D01*
X230542Y-46614D01*
Y-53386D01*
X228850Y-55078D01*
X225464D01*
X223771Y-53386D01*
Y-46614D01*
X222075Y-180614D02*
X220382Y-178922D01*
X216997D01*
X215304Y-180614D01*
Y-187386D01*
X216997Y-189078D01*
X220382D01*
X222075Y-187386D01*
X225461Y-189078D02*
X228846D01*
X227154D01*
Y-178922D01*
X225461Y-180614D01*
X233925Y-187386D02*
X235618Y-189078D01*
X239003D01*
X240696Y-187386D01*
Y-180614D01*
X239003Y-178922D01*
X235618D01*
X233925Y-180614D01*
Y-182307D01*
X235618Y-184000D01*
X240696D01*
X118229Y-164614D02*
X116536Y-162922D01*
X113151D01*
X111458Y-164614D01*
Y-171386D01*
X113151Y-173078D01*
X116536D01*
X118229Y-171386D01*
X128386Y-173078D02*
X121614D01*
X128386Y-166307D01*
Y-164614D01*
X126693Y-162922D01*
X123307D01*
X121614Y-164614D01*
X138542Y-162922D02*
X135157Y-164614D01*
X131771Y-168000D01*
Y-171386D01*
X133464Y-173078D01*
X136849D01*
X138542Y-171386D01*
Y-169693D01*
X136849Y-168000D01*
X131771D01*
X-20386Y-16771D02*
X-22078Y-18464D01*
Y-21850D01*
X-20386Y-23542D01*
X-13614D01*
X-11922Y-21850D01*
Y-18464D01*
X-13614Y-16771D01*
X-11922Y-6614D02*
Y-13386D01*
X-18693Y-6614D01*
X-20386D01*
X-22078Y-8307D01*
Y-11693D01*
X-20386Y-13386D01*
X-22078Y3542D02*
Y-3229D01*
X-17000D01*
X-18693Y157D01*
Y1849D01*
X-17000Y3542D01*
X-13614D01*
X-11922Y1849D01*
Y-1536D01*
X-13614Y-3229D01*
X-53386Y-133771D02*
X-55078Y-135464D01*
Y-138849D01*
X-53386Y-140542D01*
X-46614D01*
X-44922Y-138849D01*
Y-135464D01*
X-46614Y-133771D01*
X-44922Y-123614D02*
Y-130386D01*
X-51693Y-123614D01*
X-53386D01*
X-55078Y-125307D01*
Y-128693D01*
X-53386Y-130386D01*
X-44922Y-115150D02*
X-55078D01*
X-50000Y-120229D01*
Y-113458D01*
X82229Y18386D02*
X80536Y20078D01*
X77151D01*
X75458Y18386D01*
Y11614D01*
X77151Y9922D01*
X80536D01*
X82229Y11614D01*
X92386Y9922D02*
X85614D01*
X92386Y16693D01*
Y18386D01*
X90693Y20078D01*
X87307D01*
X85614Y18386D01*
X95771D02*
X97464Y20078D01*
X100850D01*
X102542Y18386D01*
Y16693D01*
X100850Y15000D01*
X99157D01*
X100850D01*
X102542Y13307D01*
Y11614D01*
X100850Y9922D01*
X97464D01*
X95771Y11614D01*
X129614Y-28771D02*
X127922Y-30464D01*
Y-33849D01*
X129614Y-35542D01*
X136385D01*
X138078Y-33849D01*
Y-30464D01*
X136385Y-28771D01*
X138078Y-18614D02*
Y-25385D01*
X131307Y-18614D01*
X129614D01*
X127922Y-20307D01*
Y-23693D01*
X129614Y-25385D01*
X138078Y-8458D02*
Y-15229D01*
X131307Y-8458D01*
X129614D01*
X127922Y-10151D01*
Y-13536D01*
X129614Y-15229D01*
X-32925Y102386D02*
X-34618Y104078D01*
X-38003D01*
X-39696Y102386D01*
Y95614D01*
X-38003Y93922D01*
X-34618D01*
X-32925Y95614D01*
X-29539Y93922D02*
X-26154D01*
X-27846D01*
Y104078D01*
X-29539Y102386D01*
X-14304Y104078D02*
X-17690Y102386D01*
X-21075Y99000D01*
Y95614D01*
X-19382Y93922D01*
X-15997D01*
X-14304Y95614D01*
Y97307D01*
X-15997Y99000D01*
X-21075D01*
X-54386Y63075D02*
X-56078Y61382D01*
Y57997D01*
X-54386Y56304D01*
X-47614D01*
X-45922Y57997D01*
Y61382D01*
X-47614Y63075D01*
X-45922Y66461D02*
Y69846D01*
Y68154D01*
X-56078D01*
X-54386Y66461D01*
X-56078Y81696D02*
Y74925D01*
X-51000D01*
X-52693Y78310D01*
Y80003D01*
X-51000Y81696D01*
X-47614D01*
X-45922Y80003D01*
Y76618D01*
X-47614Y74925D01*
X-49386Y130075D02*
X-51078Y128383D01*
Y124997D01*
X-49386Y123304D01*
X-42614D01*
X-40922Y124997D01*
Y128383D01*
X-42614Y130075D01*
X-40922Y133461D02*
Y136846D01*
Y135154D01*
X-51078D01*
X-49386Y133461D01*
X-51078Y141925D02*
Y148696D01*
X-49386D01*
X-42614Y141925D01*
X-40922D01*
X39536Y-4922D02*
Y-13386D01*
X41229Y-15078D01*
X44614D01*
X46307Y-13386D01*
Y-4922D01*
X49693Y-13386D02*
X51386Y-15078D01*
X54771D01*
X56464Y-13386D01*
Y-6614D01*
X54771Y-4922D01*
X51386D01*
X49693Y-6614D01*
Y-8307D01*
X51386Y-10000D01*
X56464D01*
X36536Y62078D02*
Y53614D01*
X38229Y51922D01*
X41614D01*
X43307Y53614D01*
Y62078D01*
X46693D02*
X53464D01*
Y60386D01*
X46693Y53614D01*
Y51922D01*
X-41922Y-176003D02*
X-52078D01*
Y-170925D01*
X-50386Y-169232D01*
X-47000D01*
X-45307Y-170925D01*
Y-176003D01*
Y-172617D02*
X-41922Y-169232D01*
Y-165846D02*
Y-162461D01*
Y-164154D01*
X-52078D01*
X-50386Y-165846D01*
X-41922Y-157382D02*
Y-153997D01*
Y-155690D01*
X-52078D01*
X-50386Y-157382D01*
X17078Y-204696D02*
X6922D01*
Y-199618D01*
X8614Y-197925D01*
X12000D01*
X13693Y-199618D01*
Y-204696D01*
Y-201310D02*
X17078Y-197925D01*
Y-194539D02*
Y-191154D01*
Y-192846D01*
X6922D01*
X8614Y-194539D01*
Y-186075D02*
X6922Y-184382D01*
Y-180997D01*
X8614Y-179304D01*
X15386D01*
X17078Y-180997D01*
Y-184382D01*
X15386Y-186075D01*
X8614D01*
X-89696Y89922D02*
Y100078D01*
X-84618D01*
X-82925Y98386D01*
Y95000D01*
X-84618Y93307D01*
X-89696D01*
X-86310D02*
X-82925Y89922D01*
X-79539D02*
X-76154D01*
X-77846D01*
Y100078D01*
X-79539Y98386D01*
X-65997Y89922D02*
Y100078D01*
X-71075Y95000D01*
X-64304D01*
X-61849Y19922D02*
Y30078D01*
X-56771D01*
X-55078Y28386D01*
Y25000D01*
X-56771Y23307D01*
X-61849D01*
X-58464D02*
X-55078Y19922D01*
X-44922D02*
X-51693D01*
X-44922Y26693D01*
Y28386D01*
X-46614Y30078D01*
X-50000D01*
X-51693Y28386D01*
X-41536Y19922D02*
X-38150D01*
X-39843D01*
Y30078D01*
X-41536Y28386D01*
X-95696Y115922D02*
Y126078D01*
X-90618D01*
X-88925Y124386D01*
Y121000D01*
X-90618Y119307D01*
X-95696D01*
X-92310D02*
X-88925Y115922D01*
X-85539D02*
X-82154D01*
X-83846D01*
Y126078D01*
X-85539Y124386D01*
X-77075Y126078D02*
X-70304D01*
Y124386D01*
X-77075Y117614D01*
Y115922D01*
X-298922Y140304D02*
X-309078D01*
Y145382D01*
X-307386Y147075D01*
X-304000D01*
X-302307Y145382D01*
Y140304D01*
Y143690D02*
X-298922Y147075D01*
Y150461D02*
Y153846D01*
Y152154D01*
X-309078D01*
X-307386Y150461D01*
X-309078Y165696D02*
Y158925D01*
X-304000D01*
X-305693Y162310D01*
Y164003D01*
X-304000Y165696D01*
X-300614D01*
X-298922Y164003D01*
Y160618D01*
X-300614Y158925D01*
X-94696Y-173922D02*
Y-184078D01*
X-89618D01*
X-87925Y-182386D01*
Y-175614D01*
X-89618Y-173922D01*
X-94696D01*
X-84539Y-184078D02*
X-81154D01*
X-82846D01*
Y-173922D01*
X-84539Y-175614D01*
X-69304Y-184078D02*
X-76075D01*
X-69304Y-177307D01*
Y-175614D01*
X-70997Y-173922D01*
X-74383D01*
X-76075Y-175614D01*
X-55925Y10386D02*
X-57618Y12078D01*
X-61003D01*
X-62696Y10386D01*
Y3614D01*
X-61003Y1922D01*
X-57618D01*
X-55925Y3614D01*
X-52539Y1922D02*
X-49154D01*
X-50846D01*
Y12078D01*
X-52539Y10386D01*
X-37304Y1922D02*
X-44075D01*
X-37304Y8693D01*
Y10386D01*
X-38997Y12078D01*
X-42382D01*
X-44075Y10386D01*
X-308386Y42768D02*
X-310078Y41075D01*
Y37690D01*
X-308386Y35997D01*
X-301614D01*
X-299922Y37690D01*
Y41075D01*
X-301614Y42768D01*
X-299922Y46154D02*
Y49539D01*
Y47846D01*
X-310078D01*
X-308386Y46154D01*
X-299922Y54618D02*
Y58003D01*
Y56310D01*
X-310078D01*
X-308386Y54618D01*
X-290386Y43075D02*
X-292078Y41382D01*
Y37997D01*
X-290386Y36304D01*
X-283614D01*
X-281922Y37997D01*
Y41382D01*
X-283614Y43075D01*
X-281922Y46461D02*
Y49846D01*
Y48154D01*
X-292078D01*
X-290386Y46461D01*
Y54925D02*
X-292078Y56618D01*
Y60003D01*
X-290386Y61696D01*
X-283614D01*
X-281922Y60003D01*
Y56618D01*
X-283614Y54925D01*
X-290386D01*
X-307386Y111307D02*
X-309078Y109614D01*
Y106229D01*
X-307386Y104536D01*
X-300614D01*
X-298922Y106229D01*
Y109614D01*
X-300614Y111307D01*
Y114693D02*
X-298922Y116386D01*
Y119771D01*
X-300614Y121464D01*
X-307386D01*
X-309078Y119771D01*
Y116386D01*
X-307386Y114693D01*
X-305693D01*
X-304000Y116386D01*
Y121464D01*
X-285693Y-193614D02*
X-287386Y-191922D01*
X-290771D01*
X-292464Y-193614D01*
Y-200386D01*
X-290771Y-202078D01*
X-287386D01*
X-285693Y-200386D01*
X-282307Y-193614D02*
X-280614Y-191922D01*
X-277229D01*
X-275536Y-193614D01*
Y-195307D01*
X-277229Y-197000D01*
X-275536Y-198693D01*
Y-200386D01*
X-277229Y-202078D01*
X-280614D01*
X-282307Y-200386D01*
Y-198693D01*
X-280614Y-197000D01*
X-282307Y-195307D01*
Y-193614D01*
X-280614Y-197000D02*
X-277229D01*
X20536Y147078D02*
Y138614D01*
X22229Y136922D01*
X25614D01*
X27307Y138614D01*
Y147078D01*
X30693Y145386D02*
X32386Y147078D01*
X35771D01*
X37464Y145386D01*
Y143693D01*
X35771Y142000D01*
X37464Y140307D01*
Y138614D01*
X35771Y136922D01*
X32386D01*
X30693Y138614D01*
Y140307D01*
X32386Y142000D01*
X30693Y143693D01*
Y145386D01*
X32386Y142000D02*
X35771D01*
X-335464Y26078D02*
Y17614D01*
X-333771Y15922D01*
X-330386D01*
X-328693Y17614D01*
Y26078D01*
X-318536D02*
X-325307D01*
Y21000D01*
X-321922Y22693D01*
X-320229D01*
X-318536Y21000D01*
Y17614D01*
X-320229Y15922D01*
X-323614D01*
X-325307Y17614D01*
X228380Y23078D02*
X224994D01*
X226687D01*
Y14614D01*
X224994Y12922D01*
X223302D01*
X221609Y14614D01*
X231766Y12922D02*
X235151D01*
X233458D01*
Y23078D01*
X231766Y21386D01*
X349307Y11078D02*
X345922D01*
X347614D01*
Y2614D01*
X345922Y922D01*
X344229D01*
X342536Y2614D01*
X357771Y922D02*
Y11078D01*
X352693Y6000D01*
X359464D01*
X270590Y257067D02*
Y248603D01*
X272283Y246911D01*
X275669D01*
X277362Y248603D01*
Y257067D01*
X280747Y246911D02*
X284133D01*
X282440D01*
Y257067D01*
X280747Y255375D01*
X208536Y258922D02*
Y269078D01*
X213614D01*
X215307Y267386D01*
Y264000D01*
X213614Y262307D01*
X208536D01*
X211922D02*
X215307Y258922D01*
X225464Y269078D02*
X218693D01*
Y264000D01*
X222078Y265693D01*
X223771D01*
X225464Y264000D01*
Y260614D01*
X223771Y258922D01*
X220386D01*
X218693Y260614D01*
X252536Y163922D02*
Y174078D01*
X257614D01*
X259307Y172386D01*
Y169000D01*
X257614Y167307D01*
X252536D01*
X255922D02*
X259307Y163922D01*
X262693Y172386D02*
X264386Y174078D01*
X267771D01*
X269464Y172386D01*
Y170693D01*
X267771Y169000D01*
X266078D01*
X267771D01*
X269464Y167307D01*
Y165614D01*
X267771Y163922D01*
X264386D01*
X262693Y165614D01*
X212078Y145536D02*
X201922D01*
Y150614D01*
X203614Y152307D01*
X207000D01*
X208693Y150614D01*
Y145536D01*
Y148922D02*
X212078Y152307D01*
Y160771D02*
X201922D01*
X207000Y155693D01*
Y162464D01*
X173229Y159078D02*
Y148922D01*
X180000D01*
X183386D02*
X186771D01*
X185078D01*
Y159078D01*
X183386Y157386D01*
X30614Y113307D02*
X28922Y111614D01*
Y108229D01*
X30614Y106536D01*
X37385D01*
X39078Y108229D01*
Y111614D01*
X37385Y113307D01*
X30614Y116693D02*
X28922Y118386D01*
Y121771D01*
X30614Y123464D01*
X32307D01*
X34000Y121771D01*
Y120078D01*
Y121771D01*
X35693Y123464D01*
X37385D01*
X39078Y121771D01*
Y118386D01*
X37385Y116693D01*
X298307Y208386D02*
X296614Y210078D01*
X293229D01*
X291536Y208386D01*
Y201614D01*
X293229Y199922D01*
X296614D01*
X298307Y201614D01*
X308464Y199922D02*
X301693D01*
X308464Y206693D01*
Y208386D01*
X306771Y210078D01*
X303386D01*
X301693Y208386D01*
X250307Y275386D02*
X248614Y277078D01*
X245229D01*
X243536Y275386D01*
Y268614D01*
X245229Y266922D01*
X248614D01*
X250307Y268614D01*
X260464Y277078D02*
X253693D01*
Y272000D01*
X257078Y273693D01*
X258771D01*
X260464Y272000D01*
Y268614D01*
X258771Y266922D01*
X255386D01*
X253693Y268614D01*
X123000Y285386D02*
X121307Y287078D01*
X117922D01*
X116229Y285386D01*
Y278614D01*
X117922Y276922D01*
X121307D01*
X123000Y278614D01*
X126386Y276922D02*
X129771D01*
X128078D01*
Y287078D01*
X126386Y285386D01*
X145307D02*
X143614Y287078D01*
X140229D01*
X138536Y285386D01*
Y278614D01*
X140229Y276922D01*
X143614D01*
X145307Y278614D01*
X153771Y276922D02*
Y287078D01*
X148693Y282000D01*
X155464D01*
X230078Y144536D02*
X219922D01*
Y149614D01*
X221614Y151307D01*
X225000D01*
X226693Y149614D01*
Y144536D01*
Y147922D02*
X230078Y151307D01*
Y161464D02*
Y154693D01*
X223307Y161464D01*
X221614D01*
X219922Y159771D01*
Y156386D01*
X221614Y154693D01*
D18*
X90552Y157224D02*
X101000D01*
X95776Y152000D02*
Y162448D01*
M02*
