G04*
G04 #@! TF.GenerationSoftware,Altium Limited,Altium Designer,26.3.0 (6)*
G04*
G04 Layer_Color=32896*
%FSLAX44Y44*%
%MOMM*%
G71*
G04*
G04 #@! TF.SameCoordinates,D57B5760-88B1-4855-907E-DBF2512A65CE*
G04*
G04*
G04 #@! TF.FilePolarity,Positive*
G04*
G01*
G75*
%ADD10C,0.1000*%
%ADD11C,0.2000*%
%ADD12C,0.2500*%
%ADD13C,0.2540*%
%ADD15C,0.1500*%
%ADD17C,0.2032*%
%ADD18C,0.1524*%
D10*
X-31000Y-261000D02*
G03*
X-31000Y-262000I0J-500D01*
G01*
D02*
G03*
X-31000Y-261000I0J500D01*
G01*
X143500Y-201250D02*
X163500D01*
X143500Y-186750D02*
X163500D01*
D11*
X126500Y-193000D02*
G03*
X126500Y-195000I0J-1000D01*
G01*
D02*
G03*
X126500Y-193000I0J1000D01*
G01*
X183750Y-286750D02*
X190250D01*
Y-257250D01*
X183750D02*
X190250D01*
X183750Y-286750D02*
Y-257250D01*
X168750Y-287000D02*
X180250D01*
X-35000Y-276000D02*
Y-274000D01*
X-27000Y-276000D02*
Y-274000D01*
X-289850Y-262500D02*
X-280500D01*
Y-240750D02*
Y-232500D01*
Y-262500D02*
Y-254250D01*
X-289850Y-232500D02*
X-280500D01*
X-294500Y-250250D02*
Y-244750D01*
Y-190000D02*
X-285150D01*
X-294500Y-220000D02*
Y-211750D01*
Y-198250D02*
Y-190000D01*
Y-220000D02*
X-285150D01*
X-280500Y-207750D02*
Y-202250D01*
X-101020Y-198320D02*
X-49980D01*
X-101020Y-171680D02*
X-49980D01*
X-89450Y-257870D02*
X-40450D01*
X-89450D02*
Y-226370D01*
X-90750Y-222870D02*
Y-207620D01*
X-89450Y-226370D02*
X-40450D01*
Y-257870D02*
Y-226370D01*
X-135250Y-286000D02*
X-123750D01*
X-120250Y-285750D02*
Y-256250D01*
X-113750D01*
Y-285750D02*
Y-256250D01*
X-120250Y-285750D02*
X-113750D01*
X34750Y-286000D02*
X46250D01*
X49750Y-285750D02*
Y-256250D01*
X56250D01*
Y-285750D02*
Y-256250D01*
X49750Y-285750D02*
X56250D01*
X314180Y-97520D02*
Y-46480D01*
X340820Y-97520D02*
Y-46480D01*
X271680Y51980D02*
Y103020D01*
X298320Y51980D02*
Y103020D01*
X263000Y149250D02*
Y180750D01*
Y149250D02*
X312000D01*
Y180750D01*
X263000D02*
X312000D01*
X261700Y184250D02*
Y199500D01*
X353320Y161480D02*
Y212520D01*
X326680Y161480D02*
Y212520D01*
X-248250Y-286000D02*
X-236750D01*
X-233250Y-285750D02*
Y-256250D01*
X-226750D01*
Y-285750D02*
Y-256250D01*
X-233250Y-285750D02*
X-226750D01*
D12*
X-24750Y-249000D02*
G03*
X-24750Y-249000I-1250J0D01*
G01*
D13*
X257000Y197000D02*
G03*
X257000Y197000I-1000J0D01*
G01*
D15*
X257875Y-240125D02*
X261241D01*
Y-212125D01*
X257875D02*
X261241D01*
X246509D02*
X249875D01*
X246509Y-240125D02*
Y-212125D01*
Y-240125D02*
X249875D01*
X284000Y-186708D02*
Y-160292D01*
X298000Y-186708D02*
Y-160292D01*
X284000D02*
X286174D01*
X295826D02*
X298000D01*
X295826Y-186708D02*
X298000D01*
X284000D02*
X286174D01*
X271875Y-240833D02*
Y-214417D01*
X285875Y-240833D02*
Y-214417D01*
X271875D02*
X274049D01*
X283701D02*
X285875D01*
X283701Y-240833D02*
X285875D01*
X271875D02*
X274049D01*
X139292Y-211174D02*
Y-209000D01*
Y-223000D02*
Y-220826D01*
X165708Y-223000D02*
Y-220826D01*
Y-211174D02*
Y-209000D01*
X139292Y-223000D02*
X165708D01*
X139292Y-209000D02*
X165708D01*
X25634Y114000D02*
X29000D01*
X25634D02*
Y142000D01*
X29000D01*
X37000D02*
X40366D01*
Y114000D02*
Y142000D01*
X37000Y114000D02*
X40366D01*
X-20708Y-255174D02*
Y-253000D01*
Y-267000D02*
Y-264826D01*
X5708Y-267000D02*
Y-264826D01*
Y-255174D02*
Y-253000D01*
X-20708Y-267000D02*
X5708D01*
X-20708Y-253000D02*
X5708D01*
X-21000Y-273000D02*
Y-269634D01*
X7000D01*
Y-273000D02*
Y-269634D01*
Y-284366D02*
Y-281000D01*
X-21000Y-284366D02*
X7000D01*
X-21000D02*
Y-281000D01*
X-141432Y-221555D02*
X-138066D01*
Y-193555D01*
X-141432D02*
X-138066D01*
X-152798D02*
X-149432D01*
X-152798Y-221555D02*
Y-193555D01*
Y-221555D02*
X-149432D01*
X-136208Y-208000D02*
X-109792D01*
X-136208Y-194000D02*
X-109792D01*
X-136208Y-208000D02*
Y-205826D01*
Y-196174D02*
Y-194000D01*
X-109792Y-196174D02*
Y-194000D01*
Y-208000D02*
Y-205826D01*
X-153208Y-18000D02*
X-126792D01*
X-153208Y-32000D02*
X-126792D01*
Y-20174D02*
Y-18000D01*
Y-32000D02*
Y-29826D01*
X-153208Y-32000D02*
Y-29826D01*
Y-20174D02*
Y-18000D01*
Y-34000D02*
X-126792D01*
X-153208Y-48000D02*
X-126792D01*
Y-36174D02*
Y-34000D01*
Y-48000D02*
Y-45826D01*
X-153208Y-48000D02*
Y-45826D01*
Y-36174D02*
Y-34000D01*
X-250500Y-219208D02*
Y-192792D01*
X-264500Y-219208D02*
Y-192792D01*
X-252674Y-219208D02*
X-250500D01*
X-264500D02*
X-262326D01*
X-264500Y-192792D02*
X-262326D01*
X-252674D02*
X-250500D01*
X-203000Y-190708D02*
Y-164292D01*
X-217000Y-190708D02*
Y-164292D01*
X-205174Y-190708D02*
X-203000D01*
X-217000D02*
X-214826D01*
X-217000Y-164292D02*
X-214826D01*
X-205174D02*
X-203000D01*
X-147208Y-133000D02*
X-120792D01*
X-147208Y-147000D02*
X-120792D01*
Y-135174D02*
Y-133000D01*
Y-147000D02*
Y-144826D01*
X-147208Y-147000D02*
Y-144826D01*
Y-135174D02*
Y-133000D01*
X-192000Y-220708D02*
Y-194292D01*
X-178000Y-220708D02*
Y-194292D01*
X-192000D02*
X-189826D01*
X-180174D02*
X-178000D01*
X-180174Y-220708D02*
X-178000D01*
X-192000D02*
X-189826D01*
X-217000Y-220708D02*
Y-194292D01*
X-203000Y-220708D02*
Y-194292D01*
X-217000D02*
X-214826D01*
X-205174D02*
X-203000D01*
X-205174Y-220708D02*
X-203000D01*
X-217000D02*
X-214826D01*
X-234866Y-179250D02*
X-231500D01*
X-234866Y-207250D02*
Y-179250D01*
Y-207250D02*
X-231500D01*
X-223500D02*
X-220134D01*
Y-179250D01*
X-223500D02*
X-220134D01*
X106792Y-209000D02*
X133208D01*
X106792Y-223000D02*
X133208D01*
Y-211174D02*
Y-209000D01*
Y-223000D02*
Y-220826D01*
X106792Y-223000D02*
Y-220826D01*
Y-211174D02*
Y-209000D01*
X303000Y209792D02*
Y236208D01*
X317000Y209792D02*
Y236208D01*
X303000D02*
X305174D01*
X314826D02*
X317000D01*
X314826Y209792D02*
X317000D01*
X303000D02*
X305174D01*
X-75590Y-148950D02*
Y-146776D01*
Y-160776D02*
Y-158602D01*
X-49174Y-160776D02*
Y-158602D01*
Y-148950D02*
Y-146776D01*
X-75590Y-160776D02*
X-49174D01*
X-75590Y-146776D02*
X-49174D01*
X-159717Y-194792D02*
X-157543D01*
X-171543D02*
X-169369D01*
X-171543Y-221208D02*
X-169369D01*
X-159717D02*
X-157543D01*
X-171543D02*
Y-194792D01*
X-157543Y-221208D02*
Y-194792D01*
X47292Y-109174D02*
Y-107000D01*
Y-121000D02*
Y-118826D01*
X73708Y-121000D02*
Y-118826D01*
Y-109174D02*
Y-107000D01*
X47292Y-121000D02*
X73708D01*
X47292Y-107000D02*
X73708D01*
X-287708Y-267174D02*
Y-265000D01*
Y-279000D02*
Y-276826D01*
X-261292Y-279000D02*
Y-276826D01*
Y-267174D02*
Y-265000D01*
X-287708Y-279000D02*
X-261292D01*
X-287708Y-265000D02*
X-261292D01*
X-4292Y-212000D02*
Y-209826D01*
Y-200174D02*
Y-198000D01*
X-30708Y-200174D02*
Y-198000D01*
Y-212000D02*
Y-209826D01*
Y-198000D02*
X-4292D01*
X-30708Y-212000D02*
X-4292D01*
X-39170Y-281002D02*
Y-290998D01*
X-44169D01*
X-45835Y-289332D01*
Y-282668D01*
X-44169Y-281002D01*
X-39170D01*
X-49167Y-290998D02*
X-52499D01*
X-50833D01*
Y-281002D01*
X-49167Y-282668D01*
X-57498Y-290998D02*
X-60830D01*
X-59164D01*
Y-281002D01*
X-57498Y-282668D01*
D17*
X-57406Y-138790D02*
Y-128633D01*
X-62484D01*
X-64177Y-130326D01*
Y-133712D01*
X-62484Y-135404D01*
X-57406D01*
X-60792D02*
X-64177Y-138790D01*
X-67563Y-130326D02*
X-69255Y-128633D01*
X-72641D01*
X-74334Y-130326D01*
Y-132019D01*
X-72641Y-133712D01*
X-74334Y-135404D01*
Y-137097D01*
X-72641Y-138790D01*
X-69255D01*
X-67563Y-137097D01*
Y-135404D01*
X-69255Y-133712D01*
X-67563Y-132019D01*
Y-130326D01*
X-69255Y-133712D02*
X-72641D01*
X116422Y-251696D02*
X126578D01*
Y-246618D01*
X124886Y-244925D01*
X121500D01*
X119807Y-246618D01*
Y-251696D01*
Y-248310D02*
X116422Y-244925D01*
Y-241539D02*
Y-238154D01*
Y-239846D01*
X126578D01*
X124886Y-241539D01*
Y-233075D02*
X126578Y-231382D01*
Y-227997D01*
X124886Y-226304D01*
X123193D01*
X121500Y-227997D01*
Y-229690D01*
Y-227997D01*
X119807Y-226304D01*
X118114D01*
X116422Y-227997D01*
Y-231382D01*
X118114Y-233075D01*
X147922Y-251696D02*
X158078D01*
Y-246618D01*
X156386Y-244925D01*
X153000D01*
X151307Y-246618D01*
Y-251696D01*
Y-248310D02*
X147922Y-244925D01*
Y-241539D02*
Y-238154D01*
Y-239846D01*
X158078D01*
X156386Y-241539D01*
X147922Y-226304D02*
Y-233075D01*
X154693Y-226304D01*
X156386D01*
X158078Y-227997D01*
Y-231382D01*
X156386Y-233075D01*
X139804Y-181578D02*
Y-171422D01*
X144882D01*
X146575Y-173114D01*
Y-179886D01*
X144882Y-181578D01*
X139804D01*
X149961Y-171422D02*
X153346D01*
X151654D01*
Y-181578D01*
X149961Y-179886D01*
X158425D02*
X160118Y-181578D01*
X163503D01*
X165196Y-179886D01*
Y-173114D01*
X163503Y-171422D01*
X160118D01*
X158425Y-173114D01*
Y-179886D01*
X-190078Y-189542D02*
X-179922D01*
Y-184464D01*
X-181614Y-182771D01*
X-185000D01*
X-186693Y-184464D01*
Y-189542D01*
Y-186157D02*
X-190078Y-182771D01*
Y-172614D02*
Y-179386D01*
X-183307Y-172614D01*
X-181614D01*
X-179922Y-174307D01*
Y-177693D01*
X-181614Y-179386D01*
X-190078Y-164151D02*
X-179922D01*
X-185000Y-169229D01*
Y-162458D01*
X-215078Y-253542D02*
X-204922D01*
Y-248464D01*
X-206614Y-246771D01*
X-210000D01*
X-211693Y-248464D01*
Y-253542D01*
Y-250157D02*
X-215078Y-246771D01*
Y-236614D02*
Y-243386D01*
X-208307Y-236614D01*
X-206614D01*
X-204922Y-238307D01*
Y-241693D01*
X-206614Y-243386D01*
X-204922Y-226458D02*
Y-233229D01*
X-210000D01*
X-208307Y-229843D01*
Y-228151D01*
X-210000Y-226458D01*
X-213386D01*
X-215078Y-228151D01*
Y-231536D01*
X-213386Y-233229D01*
X-170078Y-252542D02*
X-159922D01*
Y-247464D01*
X-161614Y-245771D01*
X-165000D01*
X-166693Y-247464D01*
Y-252542D01*
Y-249157D02*
X-170078Y-245771D01*
Y-235614D02*
Y-242386D01*
X-163307Y-235614D01*
X-161614D01*
X-159922Y-237307D01*
Y-240693D01*
X-161614Y-242386D01*
X-159922Y-232229D02*
Y-225458D01*
X-161614D01*
X-168386Y-232229D01*
X-170078D01*
X-119536Y-241922D02*
Y-252078D01*
X-124614D01*
X-126307Y-250386D01*
Y-243614D01*
X-124614Y-241922D01*
X-119536D01*
X-134771Y-252078D02*
Y-241922D01*
X-129693Y-247000D01*
X-136464D01*
X279078Y-160458D02*
X268922D01*
Y-165536D01*
X270614Y-167229D01*
X274000D01*
X275693Y-165536D01*
Y-160458D01*
Y-163843D02*
X279078Y-167229D01*
X270614Y-170614D02*
X268922Y-172307D01*
Y-175693D01*
X270614Y-177386D01*
X272307D01*
X274000Y-175693D01*
Y-174000D01*
Y-175693D01*
X275693Y-177386D01*
X277386D01*
X279078Y-175693D01*
Y-172307D01*
X277386Y-170614D01*
X270614Y-180771D02*
X268922Y-182464D01*
Y-185849D01*
X270614Y-187542D01*
X272307D01*
X274000Y-185849D01*
Y-184157D01*
Y-185849D01*
X275693Y-187542D01*
X277386D01*
X279078Y-185849D01*
Y-182464D01*
X277386Y-180771D01*
X192078Y-253464D02*
X181922D01*
Y-248386D01*
X183614Y-246693D01*
X190386D01*
X192078Y-248386D01*
Y-253464D01*
X190386Y-243307D02*
X192078Y-241614D01*
Y-238229D01*
X190386Y-236536D01*
X188693D01*
X187000Y-238229D01*
X185307Y-236536D01*
X183614D01*
X181922Y-238229D01*
Y-241614D01*
X183614Y-243307D01*
X185307D01*
X187000Y-241614D01*
X188693Y-243307D01*
X190386D01*
X187000Y-241614D02*
Y-238229D01*
X-227536Y-238922D02*
Y-249078D01*
X-232614D01*
X-234307Y-247386D01*
Y-240614D01*
X-232614Y-238922D01*
X-227536D01*
X-237693Y-247386D02*
X-239386Y-249078D01*
X-242771D01*
X-244464Y-247386D01*
Y-240614D01*
X-242771Y-238922D01*
X-239386D01*
X-237693Y-240614D01*
Y-242307D01*
X-239386Y-244000D01*
X-244464D01*
X60464Y-238922D02*
Y-249078D01*
X55386D01*
X53693Y-247386D01*
Y-240614D01*
X55386Y-238922D01*
X60464D01*
X43536D02*
X46922Y-240614D01*
X50307Y-244000D01*
Y-247386D01*
X48614Y-249078D01*
X45229D01*
X43536Y-247386D01*
Y-245693D01*
X45229Y-244000D01*
X50307D01*
X283953Y-246583D02*
X273797D01*
Y-251661D01*
X275489Y-253354D01*
X278875D01*
X280568Y-251661D01*
Y-246583D01*
Y-249968D02*
X283953Y-253354D01*
X275489Y-256739D02*
X273797Y-258432D01*
Y-261818D01*
X275489Y-263510D01*
X277182D01*
X278875Y-261818D01*
Y-260125D01*
Y-261818D01*
X280568Y-263510D01*
X282260D01*
X283953Y-261818D01*
Y-258432D01*
X282260Y-256739D01*
X275489Y-266896D02*
X273797Y-268589D01*
Y-271975D01*
X275489Y-273667D01*
X282260D01*
X283953Y-271975D01*
Y-268589D01*
X282260Y-266896D01*
X275489D01*
X43542Y-121078D02*
Y-110922D01*
X38464D01*
X36771Y-112614D01*
Y-116000D01*
X38464Y-117693D01*
X43542D01*
X40157D02*
X36771Y-121078D01*
X26614D02*
X33386D01*
X26614Y-114307D01*
Y-112614D01*
X28307Y-110922D01*
X31693D01*
X33386Y-112614D01*
X23229D02*
X21536Y-110922D01*
X18151D01*
X16458Y-112614D01*
Y-114307D01*
X18151Y-116000D01*
X16458Y-117693D01*
Y-119386D01*
X18151Y-121078D01*
X21536D01*
X23229Y-119386D01*
Y-117693D01*
X21536Y-116000D01*
X23229Y-114307D01*
Y-112614D01*
X21536Y-116000D02*
X18151D01*
X232489Y-219354D02*
X230797Y-217661D01*
Y-214275D01*
X232489Y-212583D01*
X239261D01*
X240953Y-214275D01*
Y-217661D01*
X239261Y-219354D01*
X240953Y-229510D02*
Y-222739D01*
X234182Y-229510D01*
X232489D01*
X230797Y-227818D01*
Y-224432D01*
X232489Y-222739D01*
X239261Y-232896D02*
X240953Y-234589D01*
Y-237974D01*
X239261Y-239667D01*
X232489D01*
X230797Y-237974D01*
Y-234589D01*
X232489Y-232896D01*
X234182D01*
X235875Y-234589D01*
Y-239667D01*
X52886Y122075D02*
X54578Y120382D01*
Y116997D01*
X52886Y115304D01*
X46114D01*
X44422Y116997D01*
Y120382D01*
X46114Y122075D01*
X44422Y125461D02*
Y128846D01*
Y127154D01*
X54578D01*
X52886Y125461D01*
Y133925D02*
X54578Y135618D01*
Y139003D01*
X52886Y140696D01*
X51193D01*
X49500Y139003D01*
X47807Y140696D01*
X46114D01*
X44422Y139003D01*
Y135618D01*
X46114Y133925D01*
X47807D01*
X49500Y135618D01*
X51193Y133925D01*
X52886D01*
X49500Y135618D02*
Y139003D01*
X-149614Y-182925D02*
X-147922Y-184618D01*
Y-188003D01*
X-149614Y-189696D01*
X-156386D01*
X-158078Y-188003D01*
Y-184618D01*
X-156386Y-182925D01*
X-158078Y-179539D02*
Y-176154D01*
Y-177846D01*
X-147922D01*
X-149614Y-179539D01*
X-158078Y-165997D02*
X-147922D01*
X-153000Y-171075D01*
Y-164304D01*
X-114958Y-190078D02*
Y-179922D01*
X-120036D01*
X-121729Y-181614D01*
Y-185000D01*
X-120036Y-186693D01*
X-114958D01*
X-118343D02*
X-121729Y-190078D01*
X-131886D02*
X-125114D01*
X-131886Y-183307D01*
Y-181614D01*
X-130193Y-179922D01*
X-126807D01*
X-125114Y-181614D01*
X-142042Y-179922D02*
X-138657Y-181614D01*
X-135271Y-185000D01*
Y-188386D01*
X-136964Y-190078D01*
X-140350D01*
X-142042Y-188386D01*
Y-186693D01*
X-140350Y-185000D01*
X-135271D01*
X-262078Y-188542D02*
X-251922D01*
Y-183464D01*
X-253614Y-181771D01*
X-257000D01*
X-258693Y-183464D01*
Y-188542D01*
Y-185157D02*
X-262078Y-181771D01*
Y-171614D02*
Y-178386D01*
X-255307Y-171614D01*
X-253614D01*
X-251922Y-173307D01*
Y-176693D01*
X-253614Y-178386D01*
Y-168229D02*
X-251922Y-166536D01*
Y-163151D01*
X-253614Y-161458D01*
X-255307D01*
X-257000Y-163151D01*
Y-164843D01*
Y-163151D01*
X-258693Y-161458D01*
X-260386D01*
X-262078Y-163151D01*
Y-166536D01*
X-260386Y-168229D01*
X-215078Y-160542D02*
X-204922D01*
Y-155464D01*
X-206614Y-153771D01*
X-210000D01*
X-211693Y-155464D01*
Y-160542D01*
Y-157157D02*
X-215078Y-153771D01*
Y-143614D02*
Y-150386D01*
X-208307Y-143614D01*
X-206614D01*
X-204922Y-145307D01*
Y-148693D01*
X-206614Y-150386D01*
X-215078Y-133458D02*
Y-140229D01*
X-208307Y-133458D01*
X-206614D01*
X-204922Y-135150D01*
Y-138536D01*
X-206614Y-140229D01*
X-293458Y-277078D02*
Y-266922D01*
X-298536D01*
X-300229Y-268614D01*
Y-272000D01*
X-298536Y-273693D01*
X-293458D01*
X-296843D02*
X-300229Y-277078D01*
X-310386D02*
X-303614D01*
X-310386Y-270307D01*
Y-268614D01*
X-308693Y-266922D01*
X-305307D01*
X-303614Y-268614D01*
X-313771D02*
X-315464Y-266922D01*
X-318850D01*
X-320542Y-268614D01*
Y-275386D01*
X-318850Y-277078D01*
X-315464D01*
X-313771Y-275386D01*
Y-268614D01*
X-157304Y-30078D02*
Y-19922D01*
X-162383D01*
X-164075Y-21614D01*
Y-25000D01*
X-162383Y-26693D01*
X-157304D01*
X-160690D02*
X-164075Y-30078D01*
X-167461D02*
X-170846D01*
X-169154D01*
Y-19922D01*
X-167461Y-21614D01*
X-175925Y-28386D02*
X-177618Y-30078D01*
X-181003D01*
X-182696Y-28386D01*
Y-21614D01*
X-181003Y-19922D01*
X-177618D01*
X-175925Y-21614D01*
Y-23307D01*
X-177618Y-25000D01*
X-182696D01*
X-157304Y-46078D02*
Y-35922D01*
X-162383D01*
X-164075Y-37614D01*
Y-41000D01*
X-162383Y-42693D01*
X-157304D01*
X-160690D02*
X-164075Y-46078D01*
X-167461D02*
X-170846D01*
X-169154D01*
Y-35922D01*
X-167461Y-37614D01*
X-175925D02*
X-177618Y-35922D01*
X-181003D01*
X-182696Y-37614D01*
Y-39307D01*
X-181003Y-41000D01*
X-182696Y-42693D01*
Y-44386D01*
X-181003Y-46078D01*
X-177618D01*
X-175925Y-44386D01*
Y-42693D01*
X-177618Y-41000D01*
X-175925Y-39307D01*
Y-37614D01*
X-177618Y-41000D02*
X-181003D01*
X-121304Y-128078D02*
Y-117922D01*
X-126383D01*
X-128075Y-119614D01*
Y-123000D01*
X-126383Y-124693D01*
X-121304D01*
X-124690D02*
X-128075Y-128078D01*
X-131461D02*
X-134846D01*
X-133154D01*
Y-117922D01*
X-131461Y-119614D01*
X-146696Y-117922D02*
X-143310Y-119614D01*
X-139925Y-123000D01*
Y-126385D01*
X-141618Y-128078D01*
X-145003D01*
X-146696Y-126385D01*
Y-124693D01*
X-145003Y-123000D01*
X-139925D01*
X-313307Y-208386D02*
Y-201614D01*
X-311614Y-199922D01*
X-308229D01*
X-306536Y-201614D01*
Y-208386D01*
X-308229Y-210078D01*
X-311614D01*
X-309922Y-206693D02*
X-313307Y-210078D01*
X-311614D02*
X-313307Y-208386D01*
X-323464Y-210078D02*
X-316693D01*
X-323464Y-203307D01*
Y-201614D01*
X-321771Y-199922D01*
X-318386D01*
X-316693Y-201614D01*
X-314000Y-249386D02*
Y-242614D01*
X-312307Y-240922D01*
X-308922D01*
X-307229Y-242614D01*
Y-249386D01*
X-308922Y-251078D01*
X-312307D01*
X-310614Y-247693D02*
X-314000Y-251078D01*
X-312307D02*
X-314000Y-249386D01*
X-317386Y-251078D02*
X-320771D01*
X-319078D01*
Y-240922D01*
X-317386Y-242614D01*
X-224614Y-168925D02*
X-222922Y-170618D01*
Y-174003D01*
X-224614Y-175696D01*
X-231386D01*
X-233078Y-174003D01*
Y-170618D01*
X-231386Y-168925D01*
X-233078Y-165539D02*
Y-162154D01*
Y-163846D01*
X-222922D01*
X-224614Y-165539D01*
Y-157075D02*
X-222922Y-155382D01*
Y-151997D01*
X-224614Y-150304D01*
X-226307D01*
X-228000Y-151997D01*
Y-153690D01*
Y-151997D01*
X-229693Y-150304D01*
X-231386D01*
X-233078Y-151997D01*
Y-155382D01*
X-231386Y-157075D01*
X297922Y-64536D02*
X308078D01*
Y-69614D01*
X306386Y-71307D01*
X299614D01*
X297922Y-69614D01*
Y-64536D01*
Y-74693D02*
Y-81464D01*
X299614D01*
X306386Y-74693D01*
X308078D01*
X255922Y87464D02*
X266078D01*
Y82386D01*
X264386Y80693D01*
X257614D01*
X255922Y82386D01*
Y87464D01*
Y70536D02*
Y77307D01*
X261000D01*
X259307Y73922D01*
Y72229D01*
X261000Y70536D01*
X264386D01*
X266078Y72229D01*
Y75614D01*
X264386Y77307D01*
X257464Y154078D02*
Y145614D01*
X255771Y143922D01*
X252386D01*
X250693Y145614D01*
Y154078D01*
X242229Y143922D02*
Y154078D01*
X247307Y149000D01*
X240536D01*
X-93922Y-250464D02*
X-102386D01*
X-104078Y-248771D01*
Y-245386D01*
X-102386Y-243693D01*
X-93922D01*
X-95614Y-240307D02*
X-93922Y-238614D01*
Y-235229D01*
X-95614Y-233536D01*
X-97307D01*
X-99000Y-235229D01*
Y-236922D01*
Y-235229D01*
X-100693Y-233536D01*
X-102386D01*
X-104078Y-235229D01*
Y-238614D01*
X-102386Y-240307D01*
X25464Y-203922D02*
Y-212386D01*
X23771Y-214078D01*
X20386D01*
X18693Y-212386D01*
Y-203922D01*
X8536Y-214078D02*
X15307D01*
X8536Y-207307D01*
Y-205614D01*
X10229Y-203922D01*
X13614D01*
X15307Y-205614D01*
X26464Y-264078D02*
Y-253922D01*
X21386D01*
X19693Y-255614D01*
Y-259000D01*
X21386Y-260693D01*
X26464D01*
X23078D02*
X19693Y-264078D01*
X9536Y-253922D02*
X12922Y-255614D01*
X16307Y-259000D01*
Y-262386D01*
X14614Y-264078D01*
X11229D01*
X9536Y-262386D01*
Y-260693D01*
X11229Y-259000D01*
X16307D01*
X-5844Y-190098D02*
Y-179941D01*
X-10922D01*
X-12615Y-181634D01*
Y-185020D01*
X-10922Y-186712D01*
X-5844D01*
X-9230D02*
X-12615Y-190098D01*
X-16001Y-179941D02*
X-22772D01*
Y-181634D01*
X-16001Y-188405D01*
Y-190098D01*
X-85536Y-154922D02*
Y-165078D01*
X-90614D01*
X-92307Y-163386D01*
Y-156614D01*
X-90614Y-154922D01*
X-85536D01*
X-102464Y-165078D02*
X-95693D01*
X-102464Y-158307D01*
Y-156614D01*
X-100771Y-154922D01*
X-97386D01*
X-95693Y-156614D01*
X348464Y234078D02*
Y223922D01*
X343386D01*
X341693Y225614D01*
Y232386D01*
X343386Y234078D01*
X348464D01*
X338307Y232386D02*
X336614Y234078D01*
X333229D01*
X331536Y232386D01*
Y230693D01*
X333229Y229000D01*
X334922D01*
X333229D01*
X331536Y227307D01*
Y225614D01*
X333229Y223922D01*
X336614D01*
X338307Y225614D01*
X21693Y-278614D02*
X23386Y-276922D01*
X26771D01*
X28464Y-278614D01*
Y-285386D01*
X26771Y-287078D01*
X23386D01*
X21693Y-285386D01*
X11536Y-276922D02*
X14922Y-278614D01*
X18307Y-282000D01*
Y-285386D01*
X16614Y-287078D01*
X13229D01*
X11536Y-285386D01*
Y-283693D01*
X13229Y-282000D01*
X18307D01*
X318464Y240922D02*
Y251078D01*
X313386D01*
X311693Y249386D01*
Y246000D01*
X313386Y244307D01*
X318464D01*
X315078D02*
X311693Y240922D01*
X308307Y242614D02*
X306614Y240922D01*
X303229D01*
X301536Y242614D01*
Y249386D01*
X303229Y251078D01*
X306614D01*
X308307Y249386D01*
Y247693D01*
X306614Y246000D01*
X301536D01*
X233078Y179000D02*
Y172229D01*
X228000D01*
Y175614D01*
Y172229D01*
X222922D01*
Y182386D02*
Y185771D01*
Y184078D01*
X233078D01*
X231386Y182386D01*
D18*
X251223Y173497D02*
Y182371D01*
X238777Y173497D02*
Y182371D01*
M02*
