G04*
G04 #@! TF.GenerationSoftware,Altium Limited,Altium Designer,26.3.0 (6)*
G04*
G04 Layer_Physical_Order=4*
G04 Layer_Color=16711680*
%FSLAX44Y44*%
%MOMM*%
G71*
G04*
G04 #@! TF.SameCoordinates,D57B5760-88B1-4855-907E-DBF2512A65CE*
G04*
G04*
G04 #@! TF.FilePolarity,Positive*
G04*
G01*
G75*
%ADD11C,0.2000*%
%ADD13C,0.2540*%
%ADD19R,0.9500X0.8500*%
%ADD20R,1.0000X0.9000*%
%ADD22R,0.9000X1.0000*%
%ADD26R,0.8500X0.9500*%
%ADD71C,0.5000*%
%ADD72C,0.3000*%
%ADD73C,0.4000*%
%ADD74C,2.8000*%
%ADD75C,2.5500*%
%ADD76C,1.5000*%
%ADD77C,0.6000*%
%ADD78C,0.7000*%
%ADD79R,1.1500X0.6000*%
%ADD80R,0.8000X0.3000*%
%ADD81R,0.6000X0.7000*%
%ADD82R,1.7460X2.4840*%
%ADD83R,1.5500X2.2000*%
%ADD84R,0.9500X1.7000*%
%ADD85R,0.6500X1.5250*%
%ADD86R,2.2000X1.5500*%
%ADD87R,0.8000X0.6000*%
%ADD88R,0.8984X0.6310*%
G36*
X319825Y270175D02*
X319615Y269667D01*
X319000Y266576D01*
Y263424D01*
X319615Y260333D01*
X320821Y257421D01*
X322572Y254801D01*
X324801Y252572D01*
X327421Y250821D01*
X330333Y249615D01*
X333424Y249000D01*
X336576D01*
X339667Y249615D01*
X340175Y249825D01*
X360000Y230000D01*
Y152000D01*
X342697Y134697D01*
X340466Y135295D01*
X340233Y136167D01*
X338982Y138333D01*
X337213Y140102D01*
X335047Y141353D01*
X332631Y142000D01*
X330129D01*
X327713Y141353D01*
X325547Y140102D01*
X323778Y138333D01*
X322527Y136167D01*
X322039Y134345D01*
X320039Y134608D01*
Y146000D01*
X320039Y146000D01*
X319884Y146780D01*
X319442Y147442D01*
X319442Y147442D01*
X316442Y150442D01*
X315780Y150884D01*
X315000Y151039D01*
X266000D01*
X266000Y151039D01*
X265220Y150884D01*
X264558Y150442D01*
X264558Y150442D01*
X258558Y144442D01*
X258116Y143780D01*
X257961Y143000D01*
Y133845D01*
X254116Y130000D01*
X222000D01*
X199000Y107000D01*
Y90000D01*
X217000Y72000D01*
X244000D01*
X250500Y65500D01*
X250396Y57088D01*
X231380D01*
X229624Y56739D01*
X228136Y55744D01*
X227141Y54256D01*
X226792Y52500D01*
X227141Y50744D01*
X228136Y49256D01*
X229624Y48261D01*
X231380Y47912D01*
X248860D01*
X250265Y46489D01*
X250000Y25000D01*
X307000Y-32000D01*
Y-40412D01*
X285000D01*
X283244Y-40761D01*
X281756Y-41756D01*
X280761Y-43244D01*
X280412Y-45000D01*
X280761Y-46756D01*
X281756Y-48244D01*
X283244Y-49239D01*
X285000Y-49588D01*
X307000D01*
Y-59000D01*
X296000Y-70000D01*
X268000D01*
X256000Y-82000D01*
Y-134000D01*
X271000Y-149000D01*
X273996D01*
X274000Y-149005D01*
Y-150995D01*
X274761Y-152832D01*
X276168Y-154239D01*
X278006Y-155000D01*
X279995D01*
X280155Y-154934D01*
X281833Y-156612D01*
X282025Y-156740D01*
X284186Y-158901D01*
Y-164020D01*
X284250Y-164342D01*
Y-171750D01*
X284250Y-173250D01*
X284250Y-175250D01*
Y-186250D01*
X287666D01*
Y-193398D01*
X287000Y-195005D01*
Y-196995D01*
X287761Y-198832D01*
X289168Y-200239D01*
X291005Y-201000D01*
X292995D01*
X294832Y-200239D01*
X296239Y-198832D01*
X297000Y-196995D01*
Y-195005D01*
X296239Y-193168D01*
X294832Y-191761D01*
X294334Y-191555D01*
Y-186250D01*
X297750D01*
Y-175250D01*
X297750Y-173750D01*
X297750Y-171750D01*
Y-160750D01*
X290854D01*
Y-157520D01*
X290600Y-156244D01*
X289878Y-155162D01*
X286612Y-151897D01*
X286420Y-151768D01*
X285651Y-151000D01*
X286480Y-149000D01*
X360000D01*
X363000Y-152000D01*
Y-270000D01*
X341000Y-292000D01*
X21879D01*
X20039Y-291000D01*
Y-255000D01*
X20039Y-255000D01*
X19884Y-254220D01*
X19442Y-253558D01*
X19442Y-253558D01*
X18442Y-252558D01*
X18070Y-252309D01*
X18039Y-251043D01*
X18242Y-250202D01*
X19251Y-249527D01*
X35845Y-232934D01*
X36005Y-233000D01*
X37995D01*
X39832Y-232239D01*
X41239Y-230832D01*
X42000Y-228995D01*
Y-227005D01*
X41239Y-225168D01*
X39832Y-223761D01*
X37995Y-223000D01*
X36005D01*
X34168Y-223761D01*
X32761Y-225168D01*
X32000Y-227005D01*
Y-227349D01*
X15513Y-243836D01*
X13000D01*
Y-235834D01*
X14500D01*
X15776Y-235580D01*
X16858Y-234858D01*
X17524Y-234191D01*
X18523Y-233523D01*
X20209Y-231838D01*
X20561Y-231768D01*
X21884Y-230884D01*
X23472Y-229295D01*
X23756Y-229239D01*
X25244Y-228244D01*
X32053Y-221436D01*
X33048Y-219947D01*
X33397Y-218191D01*
Y-212451D01*
X34000Y-210994D01*
Y-209005D01*
X33239Y-207168D01*
X31832Y-205761D01*
X29995Y-205000D01*
X28005D01*
X26168Y-205761D01*
X24761Y-207168D01*
X24000Y-209005D01*
Y-210994D01*
X24220Y-211527D01*
Y-216291D01*
X22848Y-217664D01*
X21846Y-217301D01*
X21000Y-216683D01*
Y-215005D01*
X20239Y-213168D01*
X18832Y-211761D01*
X16995Y-211000D01*
X15005D01*
X13168Y-211761D01*
X11761Y-213168D01*
X11000Y-215005D01*
Y-216995D01*
X11002Y-217000D01*
X9666Y-219000D01*
X3770D01*
Y-217540D01*
X3188D01*
X2949Y-215540D01*
X4244Y-214244D01*
X5239Y-212756D01*
X5588Y-211000D01*
X5239Y-209244D01*
X4244Y-207756D01*
X4244Y-207756D01*
X48Y-203559D01*
X-1441Y-202564D01*
X-3197Y-202215D01*
X-4210D01*
Y-197710D01*
X-9730D01*
Y-205000D01*
X-12270D01*
Y-197710D01*
X-17790D01*
Y-198250D01*
X-30250D01*
Y-211750D01*
X-29011D01*
X-28183Y-213750D01*
X-31628Y-217195D01*
X-32350Y-218276D01*
X-32604Y-219552D01*
Y-225354D01*
X-32350Y-226630D01*
X-32129Y-226961D01*
X-33084Y-228961D01*
X-47155D01*
X-49251Y-226865D01*
X-48423Y-224865D01*
X-40650D01*
Y-205615D01*
X-41312D01*
Y-190850D01*
X-41661Y-189094D01*
X-42000Y-188587D01*
Y-175250D01*
X-50532D01*
Y-169368D01*
X-49733Y-168837D01*
X-48532Y-168363D01*
X-46995Y-169000D01*
X-45005D01*
X-43168Y-168239D01*
X-41761Y-166832D01*
X-41000Y-164995D01*
Y-163005D01*
X-41761Y-161168D01*
X-43168Y-159761D01*
X-45005Y-159000D01*
X-46995D01*
X-47632Y-159264D01*
X-49632Y-157948D01*
Y-147026D01*
X-62092D01*
Y-146486D01*
X-65412D01*
Y-142000D01*
X-65761Y-140244D01*
X-66756Y-138756D01*
X-68244Y-137761D01*
X-70000Y-137412D01*
X-71756Y-137761D01*
X-73244Y-138756D01*
X-74239Y-140244D01*
X-74588Y-142000D01*
Y-146486D01*
X-75672D01*
Y-152506D01*
X-68882D01*
Y-153776D01*
X-67612D01*
Y-161066D01*
X-62092D01*
Y-160526D01*
X-59708D01*
Y-175250D01*
X-68000D01*
Y-194750D01*
X-50488D01*
Y-201800D01*
X-52488Y-202628D01*
X-53558Y-201558D01*
X-54220Y-201116D01*
X-55000Y-200961D01*
X-80489D01*
X-81529Y-199921D01*
Y-177906D01*
X-81684Y-177126D01*
X-82126Y-176464D01*
X-83000Y-175590D01*
Y-175250D01*
X-83340D01*
X-84158Y-174432D01*
X-84820Y-173990D01*
X-85600Y-173835D01*
X-101935D01*
X-102764Y-171835D01*
X-102761Y-171832D01*
X-102000Y-169995D01*
Y-168005D01*
X-102761Y-166168D01*
X-104168Y-164761D01*
X-106005Y-164000D01*
X-107489D01*
X-109560Y-161929D01*
X-110641Y-161206D01*
X-111917Y-160952D01*
X-112332D01*
X-124166Y-149119D01*
Y-146750D01*
X-121250D01*
Y-133250D01*
X-133710D01*
Y-132710D01*
X-139230D01*
Y-140000D01*
Y-147290D01*
X-133710D01*
Y-146750D01*
X-130834D01*
Y-150500D01*
X-130580Y-151776D01*
X-129858Y-152858D01*
X-116071Y-166644D01*
X-114989Y-167367D01*
X-113713Y-167621D01*
X-113298D01*
X-112000Y-168919D01*
Y-169995D01*
X-111239Y-171832D01*
X-110050Y-173021D01*
X-109810Y-173543D01*
X-109670Y-175471D01*
X-109902Y-175702D01*
X-110344Y-176364D01*
X-110499Y-177144D01*
Y-192130D01*
X-110475Y-192250D01*
X-111464Y-193904D01*
X-111854Y-194250D01*
X-122666D01*
Y-176000D01*
X-122920Y-174724D01*
X-123643Y-173643D01*
X-142000Y-155285D01*
Y-154005D01*
X-142761Y-152168D01*
X-144168Y-150761D01*
X-146005Y-150000D01*
X-147995D01*
X-149832Y-150761D01*
X-151239Y-152168D01*
X-152000Y-154005D01*
Y-155995D01*
X-151239Y-157832D01*
X-149832Y-159239D01*
X-147995Y-160000D01*
X-146715D01*
X-129334Y-177381D01*
Y-194250D01*
X-135750D01*
Y-207750D01*
X-124750D01*
X-123250Y-207750D01*
Y-207750D01*
X-122750D01*
Y-207750D01*
X-114965D01*
X-113329Y-209386D01*
X-114000Y-211005D01*
Y-212994D01*
X-113239Y-214832D01*
X-111832Y-216239D01*
X-109995Y-217000D01*
X-108005D01*
X-106168Y-216239D01*
X-104761Y-214832D01*
X-104000Y-212994D01*
Y-211005D01*
X-104761Y-209168D01*
X-106168Y-207761D01*
X-106467Y-207637D01*
X-106582Y-207062D01*
X-107304Y-205980D01*
X-110250Y-203035D01*
Y-196232D01*
X-109970Y-195900D01*
X-107870Y-195604D01*
X-107208Y-196046D01*
X-106428Y-196201D01*
X-103386D01*
X-103232Y-196974D01*
X-102790Y-197636D01*
X-95039Y-205387D01*
Y-226414D01*
X-95039Y-226414D01*
X-94884Y-227195D01*
X-94442Y-227856D01*
X-94442Y-227856D01*
X-92856Y-229442D01*
X-92195Y-229884D01*
X-91414Y-230039D01*
X-63845Y-230039D01*
X-52095Y-241789D01*
X-52013Y-242266D01*
X-52234Y-243877D01*
X-52412Y-244199D01*
X-53244Y-244756D01*
X-54239Y-246244D01*
X-54588Y-248000D01*
X-54239Y-249756D01*
X-53244Y-251244D01*
X-53053Y-251436D01*
X-51564Y-252430D01*
X-49809Y-252780D01*
X-47709D01*
X-45376Y-255113D01*
X-46141Y-256961D01*
X-89000D01*
X-89000Y-256961D01*
X-89977Y-256096D01*
X-90029Y-254692D01*
X-88388Y-253000D01*
X-88005D01*
X-86168Y-252239D01*
X-84761Y-250832D01*
X-84000Y-248995D01*
Y-247005D01*
X-84761Y-245168D01*
X-86168Y-243761D01*
X-88005Y-243000D01*
X-89995D01*
X-91832Y-243761D01*
X-93239Y-245168D01*
X-94000Y-247005D01*
Y-248285D01*
X-96357Y-250643D01*
X-97080Y-251724D01*
X-97334Y-253000D01*
Y-256500D01*
X-101798D01*
X-103005Y-256000D01*
X-104995D01*
X-106202Y-256500D01*
X-110666D01*
Y-250737D01*
X-109761Y-249832D01*
X-109000Y-247995D01*
Y-246005D01*
X-109761Y-244168D01*
X-111168Y-242761D01*
X-113005Y-242000D01*
X-114995D01*
X-116832Y-242761D01*
X-118239Y-244168D01*
X-119000Y-246005D01*
Y-247995D01*
X-118239Y-249832D01*
X-117334Y-250737D01*
Y-267493D01*
X-119362Y-269522D01*
X-121210Y-268756D01*
Y-265460D01*
X-121750D01*
Y-256500D01*
X-127798D01*
X-129005Y-256000D01*
X-130995D01*
X-132202Y-256500D01*
X-137250D01*
Y-259621D01*
X-139098Y-260386D01*
X-140412Y-259072D01*
Y-250000D01*
X-140761Y-248244D01*
X-141756Y-246756D01*
X-143244Y-245761D01*
X-145000Y-245412D01*
X-146756Y-245761D01*
X-148244Y-246756D01*
X-149239Y-248244D01*
X-149588Y-250000D01*
Y-260972D01*
X-149239Y-262728D01*
X-148244Y-264217D01*
X-138717Y-273744D01*
X-137790Y-274364D01*
Y-276540D01*
X-137250D01*
Y-282190D01*
X-139220Y-283116D01*
X-140000Y-282961D01*
X-209750D01*
Y-275500D01*
X-214666D01*
Y-273855D01*
X-214920Y-272579D01*
X-215643Y-271497D01*
X-218640Y-268500D01*
X-218639Y-268421D01*
X-218024Y-266500D01*
X-209750D01*
Y-256500D01*
X-213994D01*
X-215000Y-254995D01*
Y-253005D01*
X-215761Y-251168D01*
X-217168Y-249761D01*
X-219006Y-249000D01*
X-220995D01*
X-222832Y-249761D01*
X-224239Y-251168D01*
X-225000Y-253005D01*
Y-254995D01*
X-224711Y-255693D01*
X-225250Y-256500D01*
X-225250D01*
Y-264354D01*
X-226892Y-265839D01*
X-227250Y-265839D01*
X-228881D01*
X-230719Y-266600D01*
X-232125Y-268007D01*
X-232210Y-268212D01*
X-234210Y-267814D01*
Y-265460D01*
X-234750D01*
Y-256500D01*
X-238994D01*
X-240000Y-254995D01*
Y-253005D01*
X-240761Y-251168D01*
X-241666Y-250263D01*
Y-232215D01*
X-239666Y-231405D01*
X-238832Y-232239D01*
X-236995Y-233000D01*
X-235005D01*
X-233168Y-232239D01*
X-231761Y-230832D01*
X-231000Y-228995D01*
Y-227005D01*
X-231761Y-225168D01*
X-232431Y-224498D01*
Y-207040D01*
X-228770D01*
Y-200000D01*
X-226230D01*
Y-207040D01*
X-225897D01*
X-225193Y-209040D01*
X-226102Y-209949D01*
X-226863Y-211786D01*
Y-213776D01*
X-226102Y-215613D01*
X-224695Y-217020D01*
X-222857Y-217781D01*
X-220868D01*
X-219031Y-217020D01*
X-218750Y-216739D01*
X-216750Y-217568D01*
Y-220250D01*
X-203250D01*
Y-207790D01*
X-202710D01*
Y-205588D01*
X-192290D01*
Y-207790D01*
X-191750D01*
Y-220250D01*
X-190793D01*
X-189965Y-222250D01*
X-193715Y-226000D01*
X-194995D01*
X-196832Y-226761D01*
X-198239Y-228168D01*
X-199000Y-230005D01*
Y-231995D01*
X-198239Y-233832D01*
X-196832Y-235239D01*
X-194995Y-236000D01*
X-193006D01*
X-191168Y-235239D01*
X-189761Y-233832D01*
X-189000Y-231995D01*
Y-230715D01*
X-182642Y-224357D01*
X-181920Y-223276D01*
X-181666Y-222000D01*
Y-220250D01*
X-178250D01*
Y-207790D01*
X-177710D01*
Y-202270D01*
X-185000D01*
Y-201000D01*
X-186270D01*
Y-194210D01*
X-192290D01*
Y-196412D01*
X-202710D01*
Y-194210D01*
X-208730D01*
Y-201000D01*
X-211270D01*
Y-194210D01*
X-214310D01*
X-215139Y-192210D01*
X-214761Y-191832D01*
X-214132Y-190314D01*
X-212980D01*
X-212658Y-190250D01*
X-203250D01*
Y-179250D01*
X-203250Y-177750D01*
X-203250Y-175750D01*
Y-164750D01*
X-206666D01*
Y-143737D01*
X-205761Y-142832D01*
X-205000Y-140995D01*
Y-139005D01*
X-205761Y-137168D01*
X-207168Y-135761D01*
X-209005Y-135000D01*
X-210995D01*
X-212832Y-135761D01*
X-214239Y-137168D01*
X-215000Y-139005D01*
Y-140995D01*
X-214239Y-142832D01*
X-213334Y-143737D01*
Y-164750D01*
X-216750D01*
Y-175750D01*
X-216750Y-177250D01*
X-216750Y-179250D01*
Y-182449D01*
X-218006Y-184000D01*
X-219995D01*
X-220500Y-183662D01*
Y-180000D01*
X-224166D01*
Y-160869D01*
X-223305Y-160007D01*
X-223029Y-159596D01*
X-222168Y-159239D01*
X-220761Y-157832D01*
X-220000Y-155995D01*
Y-154005D01*
X-220761Y-152168D01*
X-222168Y-150761D01*
X-224005Y-150000D01*
X-225995D01*
X-227832Y-150761D01*
X-229239Y-152168D01*
X-230000Y-154005D01*
Y-155894D01*
X-230735Y-156592D01*
X-231965Y-156782D01*
X-232431Y-156367D01*
Y-14348D01*
X-232168Y-14239D01*
X-230761Y-12832D01*
X-230000Y-10995D01*
Y-9005D01*
X-230761Y-7168D01*
X-232168Y-5761D01*
X-234006Y-5000D01*
X-235995D01*
X-237832Y-5761D01*
X-239239Y-7168D01*
X-240000Y-9005D01*
Y-10995D01*
X-239569Y-12036D01*
Y-222719D01*
X-240225Y-223271D01*
X-242642Y-223143D01*
X-250750Y-215035D01*
Y-207750D01*
X-250750Y-206250D01*
X-250750Y-204250D01*
Y-193250D01*
X-259535D01*
X-259643Y-193143D01*
X-260724Y-192420D01*
X-262000Y-192166D01*
X-271400D01*
Y-190500D01*
X-274401D01*
X-274798Y-188500D01*
X-274168Y-188239D01*
X-272761Y-186832D01*
X-272000Y-184995D01*
Y-183005D01*
X-272761Y-181168D01*
X-274168Y-179761D01*
X-276005Y-179000D01*
X-277995D01*
X-279832Y-179761D01*
X-280666Y-180595D01*
X-282666Y-179785D01*
Y-157381D01*
X-277907Y-152622D01*
X-276995Y-153000D01*
X-275005D01*
X-273168Y-152239D01*
X-271761Y-150832D01*
X-271000Y-148995D01*
Y-147005D01*
X-271761Y-145168D01*
X-273168Y-143761D01*
X-275005Y-143000D01*
X-276995D01*
X-278832Y-143761D01*
X-280239Y-145168D01*
X-280490Y-145775D01*
X-288000Y-153285D01*
X-289394Y-152932D01*
X-290000Y-152518D01*
Y8000D01*
X-316000Y34000D01*
Y165000D01*
X-303339Y177661D01*
X-22950D01*
X-22170Y177816D01*
X-21508Y178258D01*
X-21066Y178920D01*
X-21050Y179000D01*
X49000D01*
X58000Y170000D01*
X97000D01*
X104000Y177000D01*
Y285000D01*
X109000Y290000D01*
X300000D01*
X319825Y270175D01*
D02*
G37*
G36*
X318000Y146000D02*
Y127000D01*
X323000Y122000D01*
X351000D01*
X360000Y113000D01*
Y-138000D01*
X358000Y-140000D01*
X276000Y-140000D01*
X265000Y-129000D01*
Y-86000D01*
X275000Y-76000D01*
X299000D01*
X313000Y-62000D01*
Y-49588D01*
X317750D01*
Y-64500D01*
X337250D01*
Y-38500D01*
X317750D01*
Y-40412D01*
X313000D01*
Y10000D01*
X280848Y42152D01*
X281613Y44000D01*
X294750D01*
Y70000D01*
X275250D01*
Y57088D01*
X265912D01*
X243000Y80000D01*
X225000D01*
X211000Y94000D01*
Y110000D01*
X223000Y122000D01*
X249000D01*
X260000Y133000D01*
Y143000D01*
X266000Y149000D01*
X315000D01*
X318000Y146000D01*
D02*
G37*
G36*
X-289334Y-176162D02*
Y-193019D01*
X-296315Y-200000D01*
X-303600D01*
Y-210000D01*
X-291600D01*
Y-204715D01*
X-285400Y-198515D01*
X-283400Y-199343D01*
Y-200500D01*
X-279400D01*
X-278571Y-202500D01*
X-279239Y-203168D01*
X-280000Y-205005D01*
Y-206995D01*
X-279791Y-207500D01*
X-281127Y-209500D01*
X-283400D01*
Y-215908D01*
X-283464Y-216230D01*
Y-218609D01*
X-283832Y-218761D01*
X-285239Y-220168D01*
X-286000Y-222005D01*
Y-223995D01*
X-285239Y-225832D01*
X-283832Y-227239D01*
X-281995Y-228000D01*
X-280044D01*
X-279937Y-228111D01*
X-278937Y-229722D01*
X-283881Y-234666D01*
X-291600D01*
Y-233000D01*
X-303600D01*
Y-243000D01*
X-294530D01*
X-293194Y-245000D01*
X-293292Y-245237D01*
Y-247227D01*
X-292531Y-249064D01*
X-291592Y-250004D01*
X-292261Y-252000D01*
X-303600D01*
Y-262000D01*
X-296192D01*
X-295870Y-262064D01*
X-295151D01*
X-287250Y-269965D01*
Y-278750D01*
X-276250D01*
X-274750Y-278750D01*
X-272750Y-278750D01*
X-265965D01*
X-261607Y-283107D01*
X-260526Y-283830D01*
X-259250Y-284084D01*
X-250250D01*
Y-285500D01*
X-234750D01*
Y-276540D01*
X-234210D01*
Y-273865D01*
X-232210Y-273467D01*
X-232125Y-273671D01*
X-230719Y-275078D01*
X-228881Y-275839D01*
X-227110D01*
X-226892Y-275839D01*
X-225250Y-277324D01*
Y-285500D01*
X-216625D01*
X-215039Y-287000D01*
Y-292000D01*
X-301000D01*
X-314000Y-279000D01*
Y-189000D01*
X-302000Y-177000D01*
X-293000D01*
X-291334Y-175334D01*
X-289334Y-176162D01*
D02*
G37*
G36*
X-83568Y-177906D02*
Y-200766D01*
X-81334Y-203000D01*
X-55000D01*
X-52000Y-206000D01*
Y-227000D01*
X-48000Y-231000D01*
X-18290D01*
Y-246740D01*
X-18230Y-246800D01*
Y-246920D01*
X-18110D01*
X-14360Y-250670D01*
X-13250Y-251900D01*
X-11967D01*
X-8000Y-255867D01*
X-8000Y-258598D01*
X-9402Y-260000D01*
X-11604D01*
X-11724Y-259920D01*
X-13000Y-259666D01*
X-14276Y-259920D01*
X-14396Y-260000D01*
X-18000D01*
X-19031Y-260000D01*
X-19819Y-259212D01*
Y-257681D01*
X-36500Y-241000D01*
X-50000D01*
X-63000Y-228000D01*
X-91414Y-228000D01*
X-93000Y-226414D01*
Y-204542D01*
X-101348Y-196194D01*
Y-195178D01*
X-102364Y-194162D01*
X-106428D01*
X-108460Y-192130D01*
Y-177144D01*
X-107190Y-175874D01*
X-85600D01*
X-83568Y-177906D01*
D02*
G37*
G36*
X-256378Y-218838D02*
X-248334Y-226881D01*
Y-250263D01*
X-249239Y-251168D01*
X-250000Y-253005D01*
Y-254995D01*
X-249711Y-255693D01*
X-250250Y-256500D01*
X-250250D01*
Y-265460D01*
X-250790D01*
Y-266412D01*
X-256000D01*
X-257756Y-266761D01*
X-259244Y-267756D01*
X-259750Y-268512D01*
X-261750Y-267906D01*
Y-265250D01*
X-262707D01*
X-263535Y-263250D01*
X-260285Y-260000D01*
X-259006D01*
X-257168Y-259239D01*
X-255761Y-257832D01*
X-255000Y-255995D01*
Y-254005D01*
X-255761Y-252168D01*
X-257168Y-250761D01*
X-259006Y-250000D01*
X-260995D01*
X-262832Y-250761D01*
X-264239Y-252168D01*
X-265000Y-254005D01*
Y-255285D01*
X-270357Y-260643D01*
X-271080Y-261724D01*
X-271334Y-263000D01*
Y-263836D01*
X-272748Y-265250D01*
X-274250Y-265250D01*
X-276250Y-265250D01*
X-282535D01*
X-291413Y-256373D01*
X-291600Y-256247D01*
Y-252439D01*
X-290049Y-250916D01*
X-289287Y-251232D01*
X-287297D01*
X-285460Y-250471D01*
X-285400Y-250411D01*
X-283400Y-250709D01*
Y-252500D01*
X-271400D01*
Y-242500D01*
X-279749D01*
X-280356Y-240500D01*
X-280142Y-240357D01*
X-258622Y-218838D01*
X-258564Y-218750D01*
X-256436D01*
X-256378Y-218838D01*
D02*
G37*
G36*
X-21858Y-258526D02*
Y-259212D01*
X-21858Y-259212D01*
X-21703Y-259992D01*
X-21261Y-260654D01*
X-20473Y-261442D01*
X-20250Y-261591D01*
Y-266750D01*
X-14854D01*
X-14318Y-267460D01*
X-15315Y-269460D01*
X-20790D01*
Y-269912D01*
X-22850D01*
X-25460Y-267301D01*
Y-261710D01*
X-27069D01*
X-27261Y-260744D01*
X-28256Y-259256D01*
X-42472Y-245039D01*
X-42446Y-244645D01*
X-41820Y-243039D01*
X-37345D01*
X-21858Y-258526D01*
D02*
G37*
G36*
X18000Y-255000D02*
Y-291000D01*
X16227Y-292773D01*
X-211773D01*
X-213000Y-292000D01*
Y-287000D01*
X-211500Y-285500D01*
X-209750D01*
Y-285000D01*
X-140000D01*
X-138000Y-287000D01*
X-90000D01*
Y-260000D01*
X-89000Y-259000D01*
X-43000D01*
X-41000Y-261000D01*
Y-276000D01*
X-39000Y-278000D01*
X-28000D01*
X-21000Y-285000D01*
X8000D01*
X10000Y-283000D01*
Y-255000D01*
X11000Y-254000D01*
X17000D01*
X18000Y-255000D01*
D02*
G37*
%LPC*%
G36*
X294995Y254750D02*
X293005D01*
X291168Y253989D01*
X289761Y252582D01*
X289000Y250745D01*
Y248755D01*
X289761Y246918D01*
X291168Y245511D01*
X293005Y244750D01*
X294995D01*
X296832Y245511D01*
X298239Y246918D01*
X299000Y248755D01*
Y250745D01*
X298239Y252582D01*
X296832Y253989D01*
X294995Y254750D01*
D02*
G37*
G36*
X308730Y236290D02*
X302710D01*
Y230770D01*
X308730D01*
Y236290D01*
D02*
G37*
G36*
X282171Y234256D02*
X280181D01*
X278344Y233495D01*
X276937Y232088D01*
X276176Y230251D01*
Y228261D01*
X276937Y226424D01*
X278344Y225017D01*
X278371Y225006D01*
Y219806D01*
X277191Y218626D01*
X276430Y216789D01*
Y214799D01*
X277191Y212962D01*
X278598Y211555D01*
X280435Y210794D01*
X282425D01*
X284262Y211555D01*
X285669Y212962D01*
X286430Y214799D01*
Y216789D01*
X285669Y218626D01*
X284489Y219806D01*
Y225498D01*
X285415Y226424D01*
X286176Y228261D01*
Y230251D01*
X285415Y232088D01*
X284008Y233495D01*
X282171Y234256D01*
D02*
G37*
G36*
X317290Y236290D02*
X311270D01*
Y229500D01*
X310000D01*
Y228230D01*
X302710D01*
Y222710D01*
X303250D01*
Y210250D01*
X306666D01*
Y201505D01*
X301300D01*
Y201505D01*
X299323Y201561D01*
X298442Y202442D01*
X297780Y202884D01*
X297000Y203039D01*
X265000D01*
X264220Y202884D01*
X263558Y202442D01*
X261558Y200442D01*
X261116Y199780D01*
X260961Y199000D01*
Y194751D01*
X258961Y193923D01*
X254442Y198442D01*
X253780Y198884D01*
X253000Y199039D01*
X247039D01*
X247039Y215000D01*
X246884Y215780D01*
X246442Y216442D01*
X237442Y225442D01*
X236780Y225884D01*
X236000Y226039D01*
X221000D01*
X221000Y226039D01*
X220220Y225884D01*
X219558Y225442D01*
X219558Y225442D01*
X218558Y224442D01*
X218116Y223780D01*
X217961Y223000D01*
Y215000D01*
X217961Y215000D01*
X218116Y214220D01*
X218558Y213558D01*
X218558Y213558D01*
X231961Y200155D01*
Y189000D01*
X231961Y189000D01*
X232116Y188220D01*
X232558Y187558D01*
X232558Y187558D01*
X240202Y179914D01*
X240529Y178574D01*
X240493Y177377D01*
X235558Y172442D01*
X235116Y171780D01*
X234961Y171000D01*
Y161000D01*
X235116Y160220D01*
X235558Y159558D01*
X237558Y157558D01*
X238220Y157116D01*
X239000Y156961D01*
X316155D01*
X322558Y150558D01*
X323220Y150116D01*
X324000Y149961D01*
X347000D01*
X347780Y150116D01*
X348442Y150558D01*
X348442Y150558D01*
X352442Y154558D01*
X352884Y155220D01*
X353039Y156000D01*
Y178000D01*
X353039Y178000D01*
X352884Y178780D01*
X352442Y179442D01*
X352442Y179442D01*
X349442Y182442D01*
X348780Y182884D01*
X348000Y183039D01*
X311800D01*
Y187292D01*
X324380D01*
X326136Y187641D01*
X327624Y188636D01*
X333400Y194412D01*
X334750D01*
X335193Y194500D01*
X349750D01*
Y220500D01*
X330250D01*
Y203340D01*
X329744Y203239D01*
X328256Y202244D01*
X322480Y196468D01*
X314175D01*
X313080Y198429D01*
X313088Y198468D01*
X313334Y199705D01*
Y210250D01*
X316750D01*
Y222710D01*
X317290D01*
Y224912D01*
X321229D01*
X322985Y225261D01*
X323724Y225755D01*
X323756Y225761D01*
X325244Y226756D01*
X326239Y228244D01*
X326588Y230000D01*
X326239Y231756D01*
X325244Y233244D01*
X323756Y234239D01*
X322000Y234588D01*
X321729D01*
X319974Y234239D01*
X319748Y234088D01*
X317290D01*
Y236290D01*
D02*
G37*
G36*
X169995Y165000D02*
X168005D01*
X166168Y164239D01*
X164761Y162832D01*
X164000Y160995D01*
Y159748D01*
X163362Y158638D01*
X162561Y158178D01*
X160541Y158807D01*
X160000Y159748D01*
Y160995D01*
X159239Y162832D01*
X157832Y164239D01*
X155995Y165000D01*
X154005D01*
X152168Y164239D01*
X150761Y162832D01*
X150000Y160995D01*
Y159748D01*
X149459Y158807D01*
X148000Y158353D01*
X146541Y158807D01*
X146000Y159748D01*
Y160995D01*
X145239Y162832D01*
X143832Y164239D01*
X141995Y165000D01*
X140005D01*
X138168Y164239D01*
X136761Y162832D01*
X136000Y160995D01*
Y159748D01*
X135362Y158638D01*
X134561Y158178D01*
X132541Y158807D01*
X132000Y159748D01*
Y160995D01*
X131239Y162832D01*
X129832Y164239D01*
X127995Y165000D01*
X126005D01*
X124168Y164239D01*
X122761Y162832D01*
X122000Y160995D01*
Y159005D01*
X122761Y157168D01*
X124168Y155761D01*
X126005Y155000D01*
X127252D01*
X128362Y154362D01*
X129000Y153252D01*
Y152005D01*
X129761Y150168D01*
X131168Y148761D01*
X133005Y148000D01*
X134994D01*
X136832Y148761D01*
X138239Y150168D01*
X139000Y152005D01*
Y153252D01*
X139541Y154193D01*
X141000Y154647D01*
X142459Y154193D01*
X143000Y153252D01*
Y152005D01*
X143761Y150168D01*
X145168Y148761D01*
X147005Y148000D01*
X148995D01*
X150832Y148761D01*
X152239Y150168D01*
X153000Y152005D01*
Y153252D01*
X153541Y154193D01*
X155000Y154647D01*
X156459Y154193D01*
X157000Y153252D01*
Y152005D01*
X157761Y150168D01*
X159168Y148761D01*
X161005Y148000D01*
X162994D01*
X164832Y148761D01*
X166239Y150168D01*
X167000Y152005D01*
Y153252D01*
X167638Y154362D01*
X168748Y155000D01*
X169995D01*
X171832Y155761D01*
X173239Y157168D01*
X174000Y159005D01*
Y160995D01*
X173239Y162832D01*
X171832Y164239D01*
X169995Y165000D01*
D02*
G37*
G36*
X225994Y168000D02*
X224005D01*
X222168Y167239D01*
X220761Y165832D01*
X220000Y163995D01*
Y162005D01*
X220761Y160168D01*
X222168Y158761D01*
X224005Y158000D01*
X225994D01*
X227832Y158761D01*
X229239Y160168D01*
X230000Y162005D01*
Y163995D01*
X229239Y165832D01*
X227832Y167239D01*
X225994Y168000D01*
D02*
G37*
G36*
X104995Y157000D02*
X103005D01*
X101168Y156239D01*
X99761Y154832D01*
X99000Y152995D01*
Y151005D01*
X99761Y149168D01*
X101168Y147761D01*
X103005Y147000D01*
X104995D01*
X106832Y147761D01*
X108239Y149168D01*
X109000Y151005D01*
Y152995D01*
X108239Y154832D01*
X106832Y156239D01*
X104995Y157000D01*
D02*
G37*
G36*
X36995Y155000D02*
X35005D01*
X33168Y154239D01*
X31761Y152832D01*
X31000Y150995D01*
Y149005D01*
X31761Y147168D01*
X32941Y145988D01*
Y141250D01*
X26000D01*
Y141250D01*
X24059Y141392D01*
Y148000D01*
X23826Y149171D01*
X23163Y150163D01*
X22171Y150826D01*
X21000Y151059D01*
X19829Y150826D01*
X18837Y150163D01*
X18174Y149171D01*
X17941Y148000D01*
Y132750D01*
X17941Y132750D01*
X18174Y131580D01*
X18837Y130587D01*
X25460Y123964D01*
Y122520D01*
X40540D01*
Y128290D01*
X40000D01*
Y141250D01*
X39059D01*
Y145988D01*
X40239Y147168D01*
X41000Y149005D01*
Y150995D01*
X40239Y152832D01*
X38832Y154239D01*
X36995Y155000D01*
D02*
G37*
G36*
X95995Y141000D02*
X94005D01*
X92168Y140239D01*
X90761Y138832D01*
X90000Y136995D01*
Y135005D01*
X90761Y133168D01*
X92168Y131761D01*
X94005Y131000D01*
X95995D01*
X97832Y131761D01*
X99239Y133168D01*
X100000Y135005D01*
Y136995D01*
X99239Y138832D01*
X97832Y140239D01*
X95995Y141000D01*
D02*
G37*
G36*
X4995Y133000D02*
X3005D01*
X1168Y132239D01*
X263Y131334D01*
X-27000D01*
X-28276Y131080D01*
X-29358Y130358D01*
X-40715Y119000D01*
X-41995D01*
X-43832Y118239D01*
X-45239Y116832D01*
X-46000Y114995D01*
Y113005D01*
X-45239Y111168D01*
X-43832Y109761D01*
X-41995Y109000D01*
X-40005D01*
X-38168Y109761D01*
X-36761Y111168D01*
X-36000Y113005D01*
Y114285D01*
X-25619Y124666D01*
X263D01*
X1168Y123761D01*
X3005Y123000D01*
X4995D01*
X6832Y123761D01*
X8239Y125168D01*
X9000Y127005D01*
Y128995D01*
X8239Y130832D01*
X6832Y132239D01*
X4995Y133000D01*
D02*
G37*
G36*
X-41006D02*
X-42995D01*
X-44832Y132239D01*
X-46239Y130832D01*
X-47000Y128995D01*
Y127005D01*
X-46239Y125168D01*
X-44832Y123761D01*
X-42995Y123000D01*
X-41006D01*
X-39168Y123761D01*
X-37761Y125168D01*
X-37000Y127005D01*
Y128995D01*
X-37761Y130832D01*
X-39168Y132239D01*
X-41006Y133000D01*
D02*
G37*
G36*
X180995Y127000D02*
X179005D01*
X177168Y126239D01*
X175761Y124832D01*
X175000Y122995D01*
Y121005D01*
X175761Y119168D01*
X177168Y117761D01*
X179005Y117000D01*
X180995D01*
X182832Y117761D01*
X184239Y119168D01*
X185000Y121005D01*
Y122995D01*
X184239Y124832D01*
X182832Y126239D01*
X180995Y127000D01*
D02*
G37*
G36*
X40540Y119980D02*
X34270D01*
Y114210D01*
X40540D01*
Y119980D01*
D02*
G37*
G36*
X31730D02*
X25460D01*
Y114210D01*
X31730D01*
Y119980D01*
D02*
G37*
G36*
X-269006Y122000D02*
X-270995D01*
X-272832Y121239D01*
X-274239Y119832D01*
X-275000Y117995D01*
Y116005D01*
X-274239Y114168D01*
X-272832Y112761D01*
X-270995Y112000D01*
X-269006D01*
X-267168Y112761D01*
X-265761Y114168D01*
X-265000Y116005D01*
Y117995D01*
X-265761Y119832D01*
X-267168Y121239D01*
X-269006Y122000D01*
D02*
G37*
G36*
X-299005Y111000D02*
X-300995D01*
X-302832Y110239D01*
X-304239Y108832D01*
X-305000Y106995D01*
Y105006D01*
X-304998Y105000D01*
X-305995Y103000D01*
X-307832Y102239D01*
X-309239Y100832D01*
X-310000Y98995D01*
Y97005D01*
X-309239Y95168D01*
X-307832Y93761D01*
X-305995Y93000D01*
X-304005D01*
X-302168Y93761D01*
X-300761Y95168D01*
X-300000Y97005D01*
Y98995D01*
X-300002Y99000D01*
X-299005Y101000D01*
X-297168Y101761D01*
X-295761Y103168D01*
X-295000Y105006D01*
Y106995D01*
X-295761Y108832D01*
X-297168Y110239D01*
X-299005Y111000D01*
D02*
G37*
G36*
X-70005Y95000D02*
X-71995D01*
X-73832Y94239D01*
X-75239Y92832D01*
X-76000Y90995D01*
Y89005D01*
X-75239Y87168D01*
X-73832Y85761D01*
X-71995Y85000D01*
X-70005D01*
X-68168Y85761D01*
X-66761Y87168D01*
X-66000Y89005D01*
Y90995D01*
X-66761Y92832D01*
X-68168Y94239D01*
X-70005Y95000D01*
D02*
G37*
G36*
X-21005Y120000D02*
X-22995D01*
X-24832Y119239D01*
X-26239Y117832D01*
X-27000Y115995D01*
Y114005D01*
X-26239Y112168D01*
X-24832Y110761D01*
X-22995Y110000D01*
X-21005D01*
X-19168Y110761D01*
X-18263Y111666D01*
X-11381D01*
X9285Y91000D01*
X9173Y90201D01*
X8617Y88839D01*
X7168Y88239D01*
X5761Y86832D01*
X5000Y84995D01*
Y83005D01*
X5761Y81168D01*
X7168Y79761D01*
X9005Y79000D01*
X10994D01*
X12832Y79761D01*
X14239Y81168D01*
X14839Y82617D01*
X16201Y83173D01*
X17000Y83285D01*
X19000Y81285D01*
Y80006D01*
X19761Y78168D01*
X21168Y76761D01*
X23005Y76000D01*
X24995D01*
X26832Y76761D01*
X28239Y78168D01*
X29000Y80006D01*
Y81995D01*
X28239Y83832D01*
X26832Y85239D01*
X24995Y86000D01*
X23715D01*
X-7642Y117358D01*
X-8724Y118080D01*
X-10000Y118334D01*
X-18263D01*
X-19168Y119239D01*
X-21005Y120000D01*
D02*
G37*
G36*
X-168006Y76000D02*
X-169995D01*
X-171832Y75239D01*
X-172737Y74334D01*
X-184263D01*
X-185168Y75239D01*
X-187005Y76000D01*
X-188995D01*
X-190832Y75239D01*
X-192239Y73832D01*
X-193000Y71995D01*
Y70005D01*
X-192239Y68168D01*
X-190832Y66761D01*
X-188995Y66000D01*
X-187005D01*
X-185168Y66761D01*
X-184263Y67666D01*
X-172737D01*
X-171832Y66761D01*
X-169995Y66000D01*
X-168006D01*
X-166168Y66761D01*
X-164761Y68168D01*
X-164000Y70005D01*
Y71995D01*
X-164761Y73832D01*
X-166168Y75239D01*
X-168006Y76000D01*
D02*
G37*
G36*
X-88005Y65000D02*
X-89995D01*
X-91832Y64239D01*
X-92737Y63334D01*
X-111263D01*
X-112168Y64239D01*
X-114005Y65000D01*
X-115995D01*
X-117832Y64239D01*
X-119239Y62832D01*
X-120000Y60995D01*
Y59005D01*
X-119239Y57168D01*
X-117832Y55761D01*
X-115995Y55000D01*
X-114005D01*
X-112168Y55761D01*
X-111263Y56666D01*
X-92737D01*
X-91832Y55761D01*
X-89995Y55000D01*
X-88005D01*
X-86168Y55761D01*
X-84761Y57168D01*
X-84000Y59005D01*
Y60995D01*
X-84761Y62832D01*
X-86168Y64239D01*
X-88005Y65000D01*
D02*
G37*
G36*
X-169006Y64000D02*
X-170995D01*
X-172832Y63239D01*
X-173737Y62334D01*
X-197263D01*
X-198168Y63239D01*
X-200005Y64000D01*
X-201995D01*
X-203832Y63239D01*
X-205239Y61832D01*
X-206000Y59995D01*
Y58005D01*
X-205239Y56168D01*
X-203832Y54761D01*
X-201995Y54000D01*
X-200005D01*
X-198168Y54761D01*
X-197263Y55666D01*
X-173737D01*
X-172832Y54761D01*
X-170995Y54000D01*
X-169006D01*
X-167168Y54761D01*
X-165761Y56168D01*
X-165000Y58005D01*
Y59995D01*
X-165761Y61832D01*
X-167168Y63239D01*
X-169006Y64000D01*
D02*
G37*
G36*
X29995Y68125D02*
X28005D01*
X26168Y67364D01*
X25263Y66459D01*
X-12875D01*
X-14151Y66205D01*
X-15232Y65483D01*
X-22715Y58000D01*
X-23995D01*
X-25832Y57239D01*
X-27239Y55832D01*
X-27832Y54401D01*
X-29092Y54029D01*
X-29121Y54025D01*
X-29978Y54049D01*
X-31168Y55239D01*
X-33005Y56000D01*
X-34995D01*
X-36832Y55239D01*
X-38239Y53832D01*
X-39000Y51995D01*
Y50005D01*
X-38239Y48168D01*
X-36832Y46761D01*
X-34995Y46000D01*
X-33005D01*
X-31168Y46761D01*
X-29761Y48168D01*
X-29168Y49599D01*
X-27908Y49971D01*
X-27880Y49975D01*
X-27022Y49951D01*
X-25832Y48761D01*
X-23995Y48000D01*
X-22005D01*
X-20168Y48761D01*
X-18761Y50168D01*
X-18000Y52005D01*
Y53285D01*
X-11494Y59791D01*
X25263D01*
X26168Y58886D01*
X28005Y58125D01*
X29995D01*
X31832Y58886D01*
X33239Y60293D01*
X34000Y62130D01*
Y64120D01*
X33239Y65957D01*
X31832Y67364D01*
X29995Y68125D01*
D02*
G37*
G36*
X58994Y105000D02*
X57005D01*
X55168Y104239D01*
X53761Y102832D01*
X53000Y100995D01*
Y99005D01*
X53761Y97168D01*
X55168Y95761D01*
X57005Y95000D01*
X58285D01*
X94000Y59285D01*
Y58005D01*
X94761Y56168D01*
X96168Y54761D01*
X98005Y54000D01*
X99995D01*
X101832Y54761D01*
X103239Y56168D01*
X104000Y58005D01*
Y59995D01*
X103239Y61832D01*
X101832Y63239D01*
X99995Y64000D01*
X98715D01*
X63000Y99715D01*
Y100995D01*
X62239Y102832D01*
X60832Y104239D01*
X58994Y105000D01*
D02*
G37*
G36*
X-69005Y43000D02*
X-70995D01*
X-72832Y42239D01*
X-74239Y40832D01*
X-75000Y38995D01*
Y37005D01*
X-74239Y35168D01*
X-72832Y33761D01*
X-70995Y33000D01*
X-69005D01*
X-67168Y33761D01*
X-65761Y35168D01*
X-65000Y37005D01*
Y38995D01*
X-65761Y40832D01*
X-67168Y42239D01*
X-69005Y43000D01*
D02*
G37*
G36*
X995Y38000D02*
X-995D01*
X-2832Y37239D01*
X-4239Y35832D01*
X-5000Y33995D01*
Y32005D01*
X-4239Y30168D01*
X-2832Y28761D01*
X-995Y28000D01*
X995D01*
X2832Y28761D01*
X3737Y29666D01*
X12551D01*
X13000Y28995D01*
Y27005D01*
X13761Y25168D01*
X15168Y23761D01*
X17005Y23000D01*
X18995D01*
X20832Y23761D01*
X21737Y24666D01*
X44263D01*
X45168Y23761D01*
X47005Y23000D01*
X48995D01*
X50832Y23761D01*
X52239Y25168D01*
X53000Y27005D01*
Y28316D01*
X53875Y28739D01*
X55000Y28929D01*
X56168Y27761D01*
X58005Y27000D01*
X59995D01*
X61832Y27761D01*
X63239Y29168D01*
X64000Y31005D01*
Y32995D01*
X63239Y34832D01*
X61832Y36239D01*
X59995Y37000D01*
X59312D01*
X58788Y37350D01*
X57512Y37604D01*
X15403D01*
X14127Y37350D01*
X13045Y36628D01*
X12752Y36334D01*
X3737D01*
X2832Y37239D01*
X995Y38000D01*
D02*
G37*
G36*
X81995Y14000D02*
X80005D01*
X78168Y13239D01*
X76761Y11832D01*
X76000Y9995D01*
Y8005D01*
X76761Y6168D01*
X78168Y4761D01*
X80005Y4000D01*
X81995D01*
X83832Y4761D01*
X85239Y6168D01*
X86000Y8005D01*
Y9995D01*
X85239Y11832D01*
X83832Y13239D01*
X81995Y14000D01*
D02*
G37*
G36*
X-258006Y43000D02*
X-259995D01*
X-261832Y42239D01*
X-263239Y40832D01*
X-264000Y38995D01*
Y37005D01*
X-263239Y35168D01*
X-262334Y34263D01*
Y12737D01*
X-263239Y11832D01*
X-264000Y9995D01*
Y8005D01*
X-263239Y6168D01*
X-261832Y4761D01*
X-259995Y4000D01*
X-258006D01*
X-256168Y4761D01*
X-254761Y6168D01*
X-254000Y8005D01*
Y9995D01*
X-254761Y11832D01*
X-255666Y12737D01*
Y34263D01*
X-254761Y35168D01*
X-254000Y37005D01*
Y38995D01*
X-254761Y40832D01*
X-256168Y42239D01*
X-258006Y43000D01*
D02*
G37*
G36*
X-8005Y8000D02*
X-9995D01*
X-11832Y7239D01*
X-13239Y5832D01*
X-14000Y3995D01*
Y2005D01*
X-13239Y168D01*
X-11832Y-1239D01*
X-9995Y-2000D01*
X-8005D01*
X-6168Y-1239D01*
X-4761Y168D01*
X-4000Y2005D01*
Y3995D01*
X-4761Y5832D01*
X-6168Y7239D01*
X-8005Y8000D01*
D02*
G37*
G36*
X-32005Y-12000D02*
X-33995D01*
X-35832Y-12761D01*
X-37239Y-14168D01*
X-38000Y-16005D01*
Y-17995D01*
X-37239Y-19832D01*
X-35832Y-21239D01*
X-33995Y-22000D01*
X-32005D01*
X-30168Y-21239D01*
X-29263Y-20334D01*
X-22809D01*
X-16347Y-26796D01*
X-15265Y-27519D01*
X-14288Y-27713D01*
X-14239Y-27832D01*
X-12832Y-29239D01*
X-10995Y-30000D01*
X-9005D01*
X-7168Y-29239D01*
X-5761Y-27832D01*
X-5000Y-25995D01*
Y-24005D01*
X-5761Y-22168D01*
X-7168Y-20761D01*
X-9005Y-20000D01*
X-10995D01*
X-12832Y-20761D01*
X-12892Y-20821D01*
X-19071Y-14642D01*
X-20152Y-13920D01*
X-21428Y-13666D01*
X-29263D01*
X-30168Y-12761D01*
X-32005Y-12000D01*
D02*
G37*
G36*
X-156809Y-10874D02*
X-158565Y-11223D01*
X-160053Y-12218D01*
X-161048Y-13706D01*
X-161397Y-15462D01*
Y-15691D01*
X-161048Y-17447D01*
X-160053Y-18936D01*
X-153290Y-25699D01*
Y-32290D01*
X-152847D01*
X-152750Y-34250D01*
X-152750Y-34290D01*
Y-47750D01*
X-151088D01*
Y-52500D01*
X-151000Y-52943D01*
Y-53995D01*
X-150239Y-55832D01*
X-148832Y-57239D01*
X-146995Y-58000D01*
X-145006D01*
X-143168Y-57239D01*
X-141761Y-55832D01*
X-141000Y-53995D01*
Y-52005D01*
X-141761Y-50168D01*
X-141101Y-48353D01*
X-140498Y-47750D01*
X-138250Y-47750D01*
X-127250D01*
Y-44334D01*
X-124893D01*
X-123617Y-44080D01*
X-123275Y-43851D01*
X-122941Y-43989D01*
X-120952D01*
X-119114Y-43228D01*
X-117708Y-41822D01*
X-116946Y-39984D01*
Y-37995D01*
X-117708Y-36157D01*
X-119114Y-34750D01*
X-120952Y-33989D01*
X-122941D01*
X-124779Y-34750D01*
X-125250Y-35222D01*
X-127250Y-34393D01*
Y-34250D01*
X-137431D01*
X-138341Y-32444D01*
X-138350Y-32250D01*
X-137923Y-31752D01*
X-137917Y-31750D01*
X-127250D01*
Y-28617D01*
X-125250Y-28551D01*
X-124392Y-29409D01*
X-122554Y-30170D01*
X-120565D01*
X-118728Y-29409D01*
X-117321Y-28002D01*
X-116560Y-26164D01*
Y-24175D01*
X-117321Y-22337D01*
X-118728Y-20931D01*
X-120565Y-20170D01*
X-122554D01*
X-124392Y-20931D01*
X-125250Y-21789D01*
X-127250Y-21722D01*
Y-18250D01*
X-139710D01*
Y-17710D01*
X-145230D01*
Y-25000D01*
X-147770D01*
Y-17710D01*
X-148301D01*
X-153103Y-12909D01*
X-153564Y-12218D01*
X-155053Y-11223D01*
X-156809Y-10874D01*
D02*
G37*
G36*
X77995Y33000D02*
X76005D01*
X74168Y32239D01*
X72761Y30832D01*
X72000Y28995D01*
Y27715D01*
X10642Y-33642D01*
X9920Y-34724D01*
X9827Y-35190D01*
X7747Y-35395D01*
X7239Y-34168D01*
X5832Y-32761D01*
X3995Y-32000D01*
X2005D01*
X168Y-32761D01*
X-1239Y-34168D01*
X-2000Y-36005D01*
Y-37995D01*
X-1239Y-39832D01*
X168Y-41239D01*
X2005Y-42000D01*
X3285D01*
X3666Y-42381D01*
Y-52263D01*
X2761Y-53168D01*
X2000Y-55005D01*
Y-56995D01*
X2761Y-58832D01*
X4168Y-60239D01*
X6005Y-61000D01*
X7994D01*
X8003Y-60996D01*
X9666Y-62108D01*
Y-64263D01*
X8761Y-65168D01*
X8000Y-67005D01*
Y-68995D01*
X8761Y-70832D01*
X10168Y-72239D01*
X12005Y-73000D01*
X13995D01*
X15832Y-72239D01*
X17239Y-70832D01*
X18000Y-68995D01*
Y-67005D01*
X17239Y-65168D01*
X16334Y-64263D01*
Y-59897D01*
X16350Y-59873D01*
X16604Y-58597D01*
Y-53403D01*
X16350Y-52127D01*
X16334Y-52103D01*
Y-37381D01*
X76715Y23000D01*
X77995D01*
X79832Y23761D01*
X81239Y25168D01*
X82000Y27005D01*
Y28995D01*
X81239Y30832D01*
X79832Y32239D01*
X77995Y33000D01*
D02*
G37*
G36*
X163995Y-39000D02*
X162005D01*
X160168Y-39761D01*
X158761Y-41168D01*
X158000Y-43005D01*
Y-44995D01*
X158761Y-46832D01*
X160168Y-48239D01*
X162005Y-49000D01*
X163995D01*
X165832Y-48239D01*
X167239Y-46832D01*
X168000Y-44995D01*
Y-43005D01*
X167239Y-41168D01*
X165832Y-39761D01*
X163995Y-39000D01*
D02*
G37*
G36*
X98995Y-14000D02*
X97005D01*
X95168Y-14761D01*
X93761Y-16168D01*
X93000Y-18005D01*
Y-19285D01*
X85642Y-26642D01*
X84920Y-27724D01*
X84666Y-29000D01*
Y-46263D01*
X83761Y-47168D01*
X83000Y-49005D01*
Y-50995D01*
X83761Y-52832D01*
X85168Y-54239D01*
X87005Y-55000D01*
X88995D01*
X90832Y-54239D01*
X92239Y-52832D01*
X93000Y-50995D01*
Y-49005D01*
X92239Y-47168D01*
X91334Y-46263D01*
Y-30381D01*
X97715Y-24000D01*
X98995D01*
X100832Y-23239D01*
X102239Y-21832D01*
X103000Y-19994D01*
Y-18005D01*
X102239Y-16168D01*
X100832Y-14761D01*
X98995Y-14000D01*
D02*
G37*
G36*
X89995Y-90000D02*
X88005D01*
X86168Y-90761D01*
X84761Y-92168D01*
X84000Y-94005D01*
Y-95285D01*
X72162Y-107122D01*
X72077Y-107250D01*
X60790D01*
Y-106710D01*
X55270D01*
Y-114000D01*
X52730D01*
Y-106710D01*
X47210D01*
Y-109412D01*
X45171D01*
X42515Y-106756D01*
X41026Y-105761D01*
X39271Y-105412D01*
X39000D01*
X37244Y-105761D01*
X35756Y-106756D01*
X34761Y-108244D01*
X34412Y-110000D01*
X34761Y-111756D01*
X35756Y-113244D01*
X36571Y-113789D01*
X40026Y-117244D01*
X41515Y-118239D01*
X43271Y-118588D01*
X45796D01*
X47210Y-120002D01*
X47210Y-121290D01*
X47579Y-123012D01*
X46297Y-124599D01*
X44418D01*
X44239Y-124168D01*
X42832Y-122761D01*
X40995Y-122000D01*
X39005D01*
X37168Y-122761D01*
X35761Y-124168D01*
X35000Y-126005D01*
Y-127040D01*
X33233Y-128018D01*
X32592Y-127576D01*
X32000Y-126990D01*
Y-126005D01*
X31239Y-124168D01*
X29832Y-122761D01*
X27995Y-122000D01*
X26005D01*
X24168Y-122761D01*
X22761Y-124168D01*
X22000Y-126005D01*
Y-127995D01*
X22761Y-129832D01*
X24168Y-131239D01*
X26005Y-132000D01*
X27285D01*
X38666Y-143381D01*
Y-150061D01*
X36725Y-151422D01*
X34735D01*
X32898Y-152183D01*
X31491Y-153589D01*
X30816Y-155219D01*
X29854Y-155719D01*
X28730Y-156093D01*
X27117Y-155425D01*
X25127D01*
X23290Y-156186D01*
X22612Y-156863D01*
X20317Y-156546D01*
X20316Y-156546D01*
X20267Y-156426D01*
X18860Y-155020D01*
X17023Y-154259D01*
X15033D01*
X13196Y-155020D01*
X11789Y-156426D01*
X11650Y-156763D01*
X9485D01*
X9239Y-156168D01*
X7832Y-154761D01*
X5995Y-154000D01*
X4005D01*
X2168Y-154761D01*
X761Y-156168D01*
X0Y-158005D01*
Y-159285D01*
X-9592Y-168876D01*
X-10314Y-169958D01*
X-10568Y-171234D01*
Y-172853D01*
X-20715Y-183000D01*
X-21995D01*
X-23832Y-183761D01*
X-25239Y-185168D01*
X-26000Y-187005D01*
Y-188995D01*
X-25239Y-190832D01*
X-23832Y-192239D01*
X-21995Y-193000D01*
X-20005D01*
X-18168Y-192239D01*
X-17215Y-191287D01*
X-16000Y-191007D01*
X-14785Y-191287D01*
X-13832Y-192239D01*
X-11995Y-193000D01*
X-10005D01*
X-8168Y-192239D01*
X-6761Y-190832D01*
X-6313Y-189750D01*
X-5848Y-189477D01*
X-3428Y-190375D01*
X-3239Y-190832D01*
X-1832Y-192239D01*
X5Y-193000D01*
X1995D01*
X3832Y-192239D01*
X5239Y-190832D01*
X6000Y-188995D01*
Y-187005D01*
X5860Y-186669D01*
X6080Y-186340D01*
X6334Y-185064D01*
Y-184928D01*
X8233Y-183029D01*
X9761Y-184168D01*
X9000Y-186005D01*
Y-187994D01*
X9761Y-189832D01*
X11168Y-191239D01*
X13005Y-192000D01*
X14995D01*
X16832Y-191239D01*
X18239Y-189832D01*
X19000Y-187994D01*
Y-186715D01*
X36666Y-169049D01*
X38666Y-169877D01*
Y-184263D01*
X37761Y-185168D01*
X37000Y-187005D01*
Y-188995D01*
X37761Y-190832D01*
X39168Y-192239D01*
X41005Y-193000D01*
X42995D01*
X44832Y-192239D01*
X46239Y-190832D01*
X47000Y-188995D01*
Y-187005D01*
X46875Y-186703D01*
X47497Y-185999D01*
X48488Y-185371D01*
X50005Y-186000D01*
X51995D01*
X53832Y-185239D01*
X55239Y-183832D01*
X56000Y-181995D01*
Y-180005D01*
X55871Y-179695D01*
X56401Y-178904D01*
X57334Y-178000D01*
X58994D01*
X60832Y-177239D01*
X62239Y-175832D01*
X63000Y-173995D01*
Y-172005D01*
X62239Y-170168D01*
X61334Y-169263D01*
Y-134000D01*
X61080Y-132724D01*
X60357Y-131643D01*
X56000Y-127285D01*
Y-126005D01*
X55239Y-124168D01*
X54361Y-123290D01*
X55109Y-121290D01*
X60790D01*
Y-120750D01*
X64666D01*
Y-124263D01*
X63761Y-125168D01*
X63000Y-127005D01*
Y-128995D01*
X63761Y-130832D01*
X65168Y-132239D01*
X67005Y-133000D01*
X68995D01*
X69186Y-132921D01*
X71186Y-134257D01*
Y-152923D01*
X70069Y-154040D01*
X69308Y-155878D01*
Y-157867D01*
X70069Y-159705D01*
X71476Y-161111D01*
X73313Y-161873D01*
X75303D01*
X77140Y-161111D01*
X78547Y-159705D01*
X79308Y-157867D01*
Y-155878D01*
X78547Y-154040D01*
X77854Y-153348D01*
Y-110861D01*
X88715Y-100000D01*
X89995D01*
X91832Y-99239D01*
X93239Y-97832D01*
X94000Y-95995D01*
Y-94005D01*
X93239Y-92168D01*
X91832Y-90761D01*
X89995Y-90000D01*
D02*
G37*
G36*
X-44000Y-116162D02*
X-45756Y-116511D01*
X-47244Y-117506D01*
X-48239Y-118994D01*
X-48588Y-120750D01*
Y-121000D01*
X-48239Y-122756D01*
X-47244Y-124244D01*
X-45756Y-125239D01*
X-44000Y-125588D01*
X-42244Y-125239D01*
X-40756Y-124244D01*
X-39761Y-122756D01*
X-39412Y-121000D01*
Y-120750D01*
X-39761Y-118994D01*
X-40756Y-117506D01*
X-42244Y-116511D01*
X-44000Y-116162D01*
D02*
G37*
G36*
X-43005Y-129000D02*
X-44995D01*
X-46832Y-129761D01*
X-48239Y-131168D01*
X-49000Y-133005D01*
Y-134994D01*
X-48239Y-136832D01*
X-46832Y-138239D01*
X-44995Y-139000D01*
X-43005D01*
X-41168Y-138239D01*
X-39761Y-136832D01*
X-39000Y-134994D01*
Y-133005D01*
X-39761Y-131168D01*
X-41168Y-129761D01*
X-43005Y-129000D01*
D02*
G37*
G36*
X91995Y-104000D02*
X90005D01*
X88168Y-104761D01*
X86761Y-106168D01*
X86000Y-108005D01*
Y-109994D01*
X86761Y-111832D01*
X88168Y-113239D01*
X90005Y-114000D01*
X91237D01*
X113039Y-135802D01*
Y-137130D01*
X113800Y-138968D01*
X115207Y-140374D01*
X117045Y-141135D01*
X119034D01*
X120871Y-140374D01*
X122278Y-138968D01*
X123039Y-137130D01*
Y-135141D01*
X122278Y-133303D01*
X120871Y-131896D01*
X119034Y-131135D01*
X117802D01*
X96000Y-109333D01*
Y-108005D01*
X95239Y-106168D01*
X93832Y-104761D01*
X91995Y-104000D01*
D02*
G37*
G36*
X135995Y-132000D02*
X134005D01*
X132168Y-132761D01*
X130761Y-134168D01*
X130000Y-136005D01*
Y-137995D01*
X130761Y-139832D01*
X132168Y-141239D01*
X134005Y-142000D01*
X135995D01*
X137832Y-141239D01*
X139239Y-139832D01*
X140000Y-137995D01*
Y-136005D01*
X139239Y-134168D01*
X137832Y-132761D01*
X135995Y-132000D01*
D02*
G37*
G36*
X-141770Y-132710D02*
X-147290D01*
Y-136666D01*
X-152000D01*
X-153276Y-136920D01*
X-154358Y-137642D01*
X-155080Y-138724D01*
X-155334Y-140000D01*
X-155080Y-141276D01*
X-154358Y-142358D01*
X-153276Y-143080D01*
X-152000Y-143334D01*
X-147290D01*
Y-147290D01*
X-141770D01*
Y-140000D01*
Y-132710D01*
D02*
G37*
G36*
X-70152Y-155046D02*
X-75672D01*
Y-161066D01*
X-70152D01*
Y-155046D01*
D02*
G37*
G36*
X112995Y-175000D02*
X111005D01*
X109168Y-175761D01*
X107761Y-177168D01*
X107000Y-179005D01*
Y-180995D01*
X107761Y-182832D01*
X109168Y-184239D01*
X111005Y-185000D01*
X112995D01*
X114832Y-184239D01*
X116239Y-182832D01*
X117000Y-180995D01*
Y-179005D01*
X116239Y-177168D01*
X114832Y-175761D01*
X112995Y-175000D01*
D02*
G37*
G36*
X-254005Y-12000D02*
X-255995D01*
X-257832Y-12761D01*
X-259239Y-14168D01*
X-260000Y-16005D01*
Y-17995D01*
X-259569Y-19036D01*
Y-176000D01*
X-259297Y-177366D01*
X-258523Y-178523D01*
X-252000Y-185047D01*
Y-185994D01*
X-251239Y-187832D01*
X-249832Y-189239D01*
X-247995Y-190000D01*
X-246005D01*
X-244168Y-189239D01*
X-242761Y-187832D01*
X-242000Y-185994D01*
Y-184005D01*
X-242761Y-182168D01*
X-244168Y-180761D01*
X-246005Y-180000D01*
X-246953D01*
X-252431Y-174522D01*
Y-21348D01*
X-252168Y-21239D01*
X-250761Y-19832D01*
X-250000Y-17995D01*
Y-16005D01*
X-250761Y-14168D01*
X-252168Y-12761D01*
X-254005Y-12000D01*
D02*
G37*
G36*
X-194006Y-150000D02*
X-195995D01*
X-197832Y-150761D01*
X-199239Y-152168D01*
X-200000Y-154005D01*
Y-155995D01*
X-199239Y-157832D01*
X-197832Y-159239D01*
X-197799Y-159253D01*
Y-181298D01*
X-198703Y-182202D01*
X-199465Y-184040D01*
Y-186029D01*
X-198703Y-187867D01*
X-197297Y-189273D01*
X-195459Y-190035D01*
X-193470D01*
X-191632Y-189273D01*
X-190226Y-187867D01*
X-189465Y-186029D01*
Y-184040D01*
X-190226Y-182202D01*
X-191131Y-181298D01*
Y-158202D01*
X-190761Y-157832D01*
X-190000Y-155995D01*
Y-154005D01*
X-190761Y-152168D01*
X-192168Y-150761D01*
X-194006Y-150000D01*
D02*
G37*
G36*
X171500Y-172412D02*
X169744Y-172761D01*
X168256Y-173756D01*
X167261Y-175244D01*
X166912Y-177000D01*
Y-177271D01*
X167261Y-179026D01*
X167412Y-179252D01*
Y-182960D01*
X163710D01*
Y-192730D01*
X171000D01*
X178290D01*
Y-182960D01*
X176588D01*
Y-177771D01*
X176239Y-176015D01*
X175745Y-175276D01*
X175739Y-175244D01*
X174744Y-173756D01*
X173256Y-172761D01*
X171500Y-172412D01*
D02*
G37*
G36*
X266995Y-185000D02*
X265005D01*
X263168Y-185761D01*
X261761Y-187168D01*
X261000Y-189006D01*
Y-190995D01*
X261761Y-192832D01*
X263168Y-194239D01*
X265005Y-195000D01*
X266995D01*
X268832Y-194239D01*
X270239Y-192832D01*
X271000Y-190995D01*
Y-189006D01*
X270239Y-187168D01*
X268832Y-185761D01*
X266995Y-185000D01*
D02*
G37*
G36*
X178290Y-195270D02*
X172270D01*
Y-205040D01*
X178290D01*
Y-195270D01*
D02*
G37*
G36*
X169730D02*
X163710D01*
Y-205040D01*
X169730D01*
Y-195270D01*
D02*
G37*
G36*
X129995Y-80000D02*
X128005D01*
X126168Y-80761D01*
X124761Y-82168D01*
X124000Y-84005D01*
Y-85995D01*
X124761Y-87832D01*
X126168Y-89239D01*
X128005Y-90000D01*
X129285D01*
X162666Y-123381D01*
Y-143263D01*
X161761Y-144168D01*
X161000Y-146005D01*
Y-147995D01*
X161761Y-149832D01*
X163168Y-151239D01*
X165005Y-152000D01*
X166995D01*
X168832Y-151239D01*
X169666Y-150405D01*
X171666Y-151215D01*
Y-157619D01*
X145849Y-183436D01*
X139480D01*
X139158Y-183500D01*
X129250D01*
Y-199785D01*
X124143Y-204893D01*
X123420Y-205974D01*
X123166Y-207250D01*
Y-209250D01*
X120290D01*
Y-208710D01*
X114770D01*
Y-216000D01*
Y-223290D01*
X120290D01*
Y-222750D01*
X132750D01*
Y-219334D01*
X139750D01*
Y-222750D01*
X150750D01*
X152250Y-222750D01*
X154250Y-222750D01*
X160535D01*
X165261Y-227476D01*
X165120Y-228381D01*
X164545Y-229476D01*
X161178D01*
X161074Y-229373D01*
X159992Y-228650D01*
X158716Y-228396D01*
X144403D01*
X143127Y-228650D01*
X142699Y-228936D01*
X114730D01*
X113454Y-229190D01*
X112373Y-229912D01*
X108285Y-234000D01*
X108005D01*
X106168Y-234761D01*
X104761Y-236168D01*
X104000Y-238005D01*
Y-239995D01*
X104761Y-241832D01*
X106168Y-243239D01*
X108005Y-244000D01*
X109995D01*
X111832Y-243239D01*
X113239Y-241832D01*
X114000Y-239995D01*
Y-238005D01*
X113915Y-237800D01*
X116111Y-235604D01*
X143863D01*
X145139Y-235350D01*
X145567Y-235064D01*
X157335D01*
X157439Y-235168D01*
X158521Y-235890D01*
X159796Y-236144D01*
X206287D01*
X207562Y-235890D01*
X208644Y-235168D01*
X221103Y-222709D01*
X246875D01*
Y-225835D01*
X246335D01*
Y-231605D01*
X261415D01*
Y-225835D01*
X260875D01*
Y-218840D01*
X265590Y-214125D01*
X266660D01*
X272125Y-219590D01*
Y-225875D01*
X272125Y-227375D01*
X272125Y-229375D01*
Y-240375D01*
X275541D01*
Y-244680D01*
X275043Y-244886D01*
X273636Y-246293D01*
X272875Y-248130D01*
Y-250119D01*
X273636Y-251957D01*
X275043Y-253364D01*
X276880Y-254125D01*
X278870D01*
X280707Y-253364D01*
X282114Y-251957D01*
X282875Y-250119D01*
Y-248130D01*
X282209Y-246523D01*
Y-240375D01*
X285625D01*
Y-229375D01*
X285625Y-227875D01*
X285625Y-225875D01*
Y-214875D01*
X276840D01*
X270875Y-208910D01*
Y-208130D01*
X270114Y-206293D01*
X268707Y-204886D01*
X266870Y-204125D01*
X264880D01*
X263043Y-204886D01*
X261636Y-206293D01*
X260875Y-208130D01*
Y-209410D01*
X257410Y-212875D01*
X246875D01*
Y-216041D01*
X219722D01*
X218446Y-216295D01*
X217364Y-217017D01*
X204905Y-229476D01*
X177137D01*
X175801Y-227476D01*
X176000Y-226995D01*
Y-225005D01*
X175239Y-223168D01*
X173832Y-221761D01*
X171995Y-221000D01*
X170005D01*
X168739Y-221524D01*
X165250Y-218035D01*
Y-209250D01*
X154250D01*
X152750Y-209250D01*
X150750Y-209250D01*
X139750D01*
Y-212666D01*
X132750D01*
Y-209250D01*
X132044D01*
X131215Y-207250D01*
X133965Y-204500D01*
X142750D01*
Y-190104D01*
X147230D01*
X148506Y-189850D01*
X149588Y-189128D01*
X177358Y-161357D01*
X178080Y-160276D01*
X178334Y-159000D01*
Y-113000D01*
X178080Y-111724D01*
X177358Y-110642D01*
X152000Y-85285D01*
Y-85005D01*
X151239Y-83168D01*
X149832Y-81761D01*
X147994Y-81000D01*
X146005D01*
X144168Y-81761D01*
X142761Y-83168D01*
X142000Y-85005D01*
Y-86995D01*
X142761Y-88832D01*
X144168Y-90239D01*
X146005Y-91000D01*
X147994D01*
X148200Y-90915D01*
X171666Y-114381D01*
Y-140731D01*
X169666Y-141795D01*
X169334Y-141571D01*
Y-122000D01*
X169080Y-120724D01*
X168358Y-119642D01*
X134000Y-85285D01*
Y-84005D01*
X133239Y-82168D01*
X131832Y-80761D01*
X129995Y-80000D01*
D02*
G37*
G36*
X-157970Y-188262D02*
X-176350D01*
X-178106Y-188611D01*
X-179594Y-189606D01*
X-183730Y-193741D01*
Y-199730D01*
X-176741D01*
X-174450Y-197438D01*
X-171293D01*
Y-203424D01*
X-174356Y-206487D01*
X-175019Y-207479D01*
X-175251Y-208650D01*
X-175251Y-208650D01*
Y-227531D01*
X-175251Y-227531D01*
X-175144Y-228073D01*
X-175611Y-229201D01*
Y-231190D01*
X-174850Y-233027D01*
X-173443Y-234434D01*
X-171605Y-235195D01*
X-169616D01*
X-167778Y-234434D01*
X-166372Y-233027D01*
X-165611Y-231190D01*
Y-229201D01*
X-166372Y-227363D01*
X-167778Y-225956D01*
X-169134Y-225395D01*
Y-221290D01*
X-165813D01*
Y-214500D01*
X-163273D01*
Y-221290D01*
X-157253D01*
Y-218991D01*
X-152972D01*
Y-221345D01*
X-146702D01*
Y-214305D01*
X-145432D01*
Y-213035D01*
X-137892D01*
Y-207265D01*
X-138432D01*
Y-194305D01*
X-151028D01*
X-151154Y-193672D01*
X-152148Y-192183D01*
X-154726Y-189606D01*
X-156214Y-188611D01*
X-157970Y-188262D01*
D02*
G37*
G36*
X112230Y-208710D02*
X106710D01*
Y-212220D01*
X101691D01*
X99936Y-212570D01*
X98447Y-213564D01*
X98256Y-213756D01*
X97261Y-215244D01*
X96912Y-217000D01*
X97261Y-218756D01*
X98256Y-220244D01*
X99744Y-221239D01*
X101500Y-221588D01*
X102462Y-221397D01*
X106710D01*
Y-223290D01*
X112230D01*
Y-216000D01*
Y-208710D01*
D02*
G37*
G36*
X-137173Y-215575D02*
X-144162D01*
Y-221563D01*
X-141497Y-224228D01*
X-141430Y-224564D01*
X-140436Y-226053D01*
X-140244Y-226244D01*
X-138756Y-227239D01*
X-137151Y-227558D01*
X-136950Y-227659D01*
X-135740Y-229377D01*
X-136000Y-230005D01*
Y-231995D01*
X-135239Y-233832D01*
X-133832Y-235239D01*
X-131995Y-236000D01*
X-130006D01*
X-128168Y-235239D01*
X-126761Y-233832D01*
X-126000Y-231995D01*
Y-230005D01*
X-126761Y-228168D01*
X-128168Y-226761D01*
X-130006Y-226000D01*
X-131187D01*
X-131639Y-225643D01*
X-132537Y-224450D01*
X-132641Y-224152D01*
X-132412Y-223000D01*
X-132761Y-221244D01*
X-132763Y-221241D01*
X-132952Y-220290D01*
X-133947Y-218801D01*
X-137173Y-215575D01*
D02*
G37*
G36*
X261415Y-234145D02*
X246335D01*
Y-239915D01*
X249287D01*
Y-248125D01*
X249636Y-249881D01*
X250631Y-251369D01*
X251631Y-252369D01*
X253119Y-253364D01*
X254875Y-253713D01*
X256631Y-253364D01*
X258119Y-252369D01*
X259114Y-250881D01*
X259463Y-249125D01*
X259114Y-247369D01*
X258463Y-246395D01*
Y-239915D01*
X261415D01*
Y-234145D01*
D02*
G37*
G36*
X45995Y-237500D02*
X44005D01*
X42168Y-238261D01*
X40761Y-239668D01*
X40000Y-241505D01*
Y-243495D01*
X40761Y-245332D01*
X41646Y-246217D01*
Y-256500D01*
X33000D01*
Y-256005D01*
X32239Y-254168D01*
X30832Y-252761D01*
X28995Y-252000D01*
X27005D01*
X25168Y-252761D01*
X23761Y-254168D01*
X23000Y-256005D01*
Y-257995D01*
X23761Y-259832D01*
X24666Y-260737D01*
Y-271874D01*
X24920Y-273150D01*
X25642Y-274232D01*
X31038Y-279627D01*
X32120Y-280350D01*
X32750Y-280476D01*
Y-285500D01*
X48250D01*
Y-277925D01*
X48379Y-277707D01*
X50042Y-276544D01*
X50788Y-276546D01*
X51000Y-276588D01*
X52756Y-276239D01*
X54244Y-275244D01*
X55239Y-273756D01*
X55504Y-272422D01*
X56719Y-271789D01*
X57545Y-271634D01*
X59563Y-273652D01*
X58797Y-275500D01*
X57750D01*
Y-285500D01*
X73250D01*
Y-275500D01*
X68834D01*
Y-274874D01*
X68580Y-273598D01*
X67857Y-272517D01*
X63688Y-268348D01*
X64454Y-266500D01*
X73250D01*
Y-260092D01*
X73314Y-259770D01*
Y-248757D01*
X74239Y-247832D01*
X75000Y-245995D01*
Y-244005D01*
X74239Y-242168D01*
X72832Y-240761D01*
X70995Y-240000D01*
X69005D01*
X67168Y-240761D01*
X65761Y-242168D01*
X65000Y-244005D01*
Y-245995D01*
X65761Y-247832D01*
X66646Y-248717D01*
Y-256500D01*
X59814D01*
Y-248454D01*
X60332Y-248239D01*
X61739Y-246832D01*
X62500Y-244995D01*
Y-243005D01*
X61739Y-241168D01*
X60332Y-239761D01*
X58495Y-239000D01*
X56505D01*
X54668Y-239761D01*
X53261Y-241168D01*
X52500Y-243005D01*
Y-244995D01*
X53146Y-246554D01*
Y-265285D01*
X52550Y-265918D01*
X51953Y-266369D01*
X51268Y-266664D01*
X50000Y-266412D01*
X48790D01*
Y-265460D01*
X48250D01*
Y-260092D01*
X48314Y-259770D01*
Y-246257D01*
X49239Y-245332D01*
X50000Y-243495D01*
Y-241505D01*
X49239Y-239668D01*
X47832Y-238261D01*
X45995Y-237500D01*
D02*
G37*
G36*
X215995Y-257000D02*
X214005D01*
X212168Y-257761D01*
X210761Y-259168D01*
X210000Y-261005D01*
Y-261476D01*
X209250Y-262046D01*
X207250Y-261053D01*
Y-257500D01*
X191750D01*
Y-257500D01*
X189832Y-257761D01*
X187995Y-257000D01*
X186005D01*
X184168Y-257761D01*
X182250Y-257500D01*
Y-257500D01*
X166750D01*
Y-262988D01*
X164750Y-263679D01*
X163832Y-262761D01*
X161995Y-262000D01*
X160005D01*
X158168Y-262761D01*
X156761Y-264168D01*
X156000Y-266005D01*
Y-267994D01*
X156761Y-269832D01*
X158168Y-271239D01*
X158328Y-271305D01*
Y-272395D01*
X158582Y-273671D01*
X159305Y-274753D01*
X165079Y-280527D01*
X166161Y-281250D01*
X166750Y-281367D01*
Y-286500D01*
X182250D01*
Y-281317D01*
X184250Y-280575D01*
X185244Y-281239D01*
X187000Y-281588D01*
X188756Y-281239D01*
X189750Y-280575D01*
X191421Y-281195D01*
X191750Y-281460D01*
Y-286500D01*
X207250D01*
Y-280092D01*
X207314Y-279770D01*
Y-274401D01*
X214715Y-267000D01*
X215995D01*
X217832Y-266239D01*
X219239Y-264832D01*
X220000Y-262994D01*
Y-261005D01*
X219239Y-259168D01*
X217832Y-257761D01*
X215995Y-257000D01*
D02*
G37*
G36*
X336576Y-249000D02*
X333424D01*
X330333Y-249615D01*
X327421Y-250821D01*
X324801Y-252572D01*
X322572Y-254801D01*
X320821Y-257421D01*
X319615Y-260333D01*
X319000Y-263424D01*
Y-266576D01*
X319615Y-269667D01*
X320821Y-272579D01*
X322572Y-275199D01*
X324801Y-277428D01*
X327421Y-279179D01*
X330333Y-280385D01*
X333424Y-281000D01*
X336576D01*
X339667Y-280385D01*
X342579Y-279179D01*
X345199Y-277428D01*
X347428Y-275199D01*
X349179Y-272579D01*
X350385Y-269667D01*
X351000Y-266576D01*
Y-263424D01*
X350385Y-260333D01*
X349179Y-257421D01*
X347428Y-254801D01*
X345199Y-252572D01*
X342579Y-250821D01*
X339667Y-249615D01*
X336576Y-249000D01*
D02*
G37*
%LPD*%
G36*
X245000Y215000D02*
X245000Y197000D01*
X253000D01*
X259000Y191000D01*
Y184000D01*
X256000Y181000D01*
X242000D01*
X234000Y189000D01*
Y201000D01*
X220000Y215000D01*
Y223000D01*
X221000Y224000D01*
X236000D01*
X245000Y215000D01*
D02*
G37*
G36*
X299000Y199000D02*
Y183000D01*
X301000Y181000D01*
X348000D01*
X351000Y178000D01*
Y156000D01*
X347000Y152000D01*
X324000D01*
X317000Y159000D01*
X239000D01*
X237000Y161000D01*
Y171000D01*
X244000Y178000D01*
X258000D01*
X263000Y183000D01*
Y199000D01*
X265000Y201000D01*
X297000D01*
X299000Y199000D01*
D02*
G37*
%LPC*%
G36*
X332631Y32000D02*
X330129D01*
X327713Y31353D01*
X325547Y30102D01*
X323778Y28333D01*
X322527Y26167D01*
X321880Y23751D01*
Y21249D01*
X322527Y18833D01*
X323778Y16667D01*
X325547Y14898D01*
X327713Y13647D01*
X330129Y13000D01*
X332631D01*
X335047Y13647D01*
X337213Y14898D01*
X338982Y16667D01*
X340233Y18833D01*
X340880Y21249D01*
Y23751D01*
X340233Y26167D01*
X338982Y28333D01*
X337213Y30102D01*
X335047Y31353D01*
X332631Y32000D01*
D02*
G37*
G36*
X336251Y-5500D02*
X333749D01*
X331333Y-6147D01*
X329167Y-7398D01*
X327398Y-9167D01*
X326147Y-11333D01*
X325500Y-13749D01*
Y-16251D01*
X326147Y-18667D01*
X327398Y-20833D01*
X329167Y-22602D01*
X331333Y-23853D01*
X333749Y-24500D01*
X336251D01*
X338667Y-23853D01*
X340833Y-22602D01*
X342602Y-20833D01*
X343853Y-18667D01*
X344500Y-16251D01*
Y-13749D01*
X343853Y-11333D01*
X342602Y-9167D01*
X340833Y-7398D01*
X338667Y-6147D01*
X336251Y-5500D01*
D02*
G37*
G36*
Y-115500D02*
X333749D01*
X331333Y-116147D01*
X329167Y-117398D01*
X327398Y-119167D01*
X326147Y-121333D01*
X325500Y-123749D01*
Y-126251D01*
X326147Y-128667D01*
X327398Y-130833D01*
X329167Y-132602D01*
X331333Y-133853D01*
X333749Y-134500D01*
X336251D01*
X338667Y-133853D01*
X340833Y-132602D01*
X342602Y-130833D01*
X343853Y-128667D01*
X344500Y-126251D01*
Y-123749D01*
X343853Y-121333D01*
X342602Y-119167D01*
X340833Y-117398D01*
X338667Y-116147D01*
X336251Y-115500D01*
D02*
G37*
%LPD*%
D11*
X21000Y132750D02*
Y148000D01*
Y132750D02*
X32500Y121250D01*
X33000D01*
Y134750D02*
X36000Y137750D01*
Y150000D01*
X281430Y215794D02*
Y229002D01*
X281176Y229256D02*
X281430Y229002D01*
X-170611Y-230195D02*
Y-229113D01*
X-172193Y-208650D02*
X-165043Y-201500D01*
X-172193Y-227531D02*
X-170611Y-229113D01*
X-165043Y-201500D02*
X-164543D01*
X-172193Y-227531D02*
Y-208650D01*
D13*
X159796Y-232810D02*
X206287D01*
X219722Y-219375D01*
X253875D01*
X143863Y-232270D02*
X144403Y-231730D01*
X158716D01*
X159796Y-232810D01*
X109000Y-238000D02*
X114730Y-232270D01*
X143863D01*
X255000Y-220000D02*
X265875Y-209125D01*
X284254Y-154254D02*
X287520Y-157520D01*
X284190Y-154254D02*
X284254D01*
X279936Y-150000D02*
X284190Y-154254D01*
X279000Y-150000D02*
X279936D01*
X277875Y-249125D02*
X278875Y-248125D01*
Y-234125D01*
X287520Y-164020D02*
Y-157520D01*
X290500Y-167000D02*
X291000D01*
X287520Y-164020D02*
X290500Y-167000D01*
X291000Y-195000D02*
Y-180000D01*
Y-195000D02*
X292000Y-196000D01*
X278375Y-221125D02*
X278875D01*
X266375Y-209125D02*
X278375Y-221125D01*
X129000Y-85000D02*
X166000Y-122000D01*
Y-147000D02*
Y-122000D01*
X74520Y-109480D02*
X89000Y-95000D01*
X28000Y-271874D02*
Y-257000D01*
Y-271874D02*
X33396Y-277270D01*
X34520D01*
X37750Y-280500D01*
X40500D01*
X74520Y-156660D02*
Y-109480D01*
X74308Y-156873D02*
X74520Y-156660D01*
X109000Y-239000D02*
Y-238000D01*
X-210000Y-171000D02*
Y-140000D01*
X7000Y-242500D02*
Y-237500D01*
Y-232500D01*
X14500D01*
X16000Y-231000D01*
X-152000Y-140000D02*
X-140500D01*
X-22000Y-222500D02*
X-14960D01*
X-7500Y-229960D01*
Y-232500D02*
Y-229960D01*
X170338Y-225338D02*
X171000Y-226000D01*
X159000Y-216500D02*
X167838Y-225338D01*
X170338D01*
X159000Y-216500D02*
Y-216000D01*
X126500Y-216000D02*
X126500Y-216000D01*
X146000D01*
X126500Y-216000D02*
Y-207250D01*
X136000Y-197750D01*
Y-194000D01*
Y-190250D01*
X139480Y-186770D01*
X147230D01*
X175000Y-159000D01*
Y-113000D01*
X148000Y-86000D02*
X175000Y-113000D01*
X147000Y-86000D02*
X148000D01*
X171750Y-281500D02*
X174500D01*
X168420Y-278170D02*
X171750Y-281500D01*
X167437Y-278170D02*
X168420D01*
X195000Y-272000D02*
Y-271000D01*
X195020Y-270980D01*
Y-264230D01*
X197250Y-262000D01*
X174500Y-262500D02*
X186500D01*
X187000Y-262000D01*
X197250D02*
X199000D01*
X203980Y-273020D02*
X215000Y-262000D01*
X203980Y-279770D02*
Y-273020D01*
X202250Y-281500D02*
X203980Y-279770D01*
X199500Y-281500D02*
X202250D01*
X199000Y-262000D02*
X199500Y-262500D01*
X161000Y-267000D02*
X161662Y-267662D01*
Y-272395D02*
Y-267662D01*
Y-272395D02*
X167437Y-278170D01*
X16894Y-247170D02*
X36064Y-228000D01*
X11330Y-247170D02*
X16894D01*
X36064Y-228000D02*
X37000D01*
X7000Y-227500D02*
X7230Y-227270D01*
X12213D01*
X16000Y-223483D01*
Y-216000D01*
X-1000Y-259500D02*
X11330Y-247170D01*
X-1000Y-260000D02*
Y-259500D01*
X-13000Y-263000D02*
X-3480Y-272520D01*
Y-273770D02*
Y-272520D01*
Y-273770D02*
X-250Y-277000D01*
X13270Y-58597D02*
Y-53403D01*
X13000Y-53133D02*
X13270Y-53403D01*
X13000Y-68000D02*
Y-58867D01*
Y-36000D02*
X77000Y28000D01*
X13000Y-53133D02*
Y-36000D01*
Y-58867D02*
X13270Y-58597D01*
X-195000Y-155000D02*
X-194465Y-155535D01*
Y-185035D02*
Y-155535D01*
X-286000Y-156000D02*
X-278000Y-148000D01*
X-286000Y-194400D02*
Y-156000D01*
X-296600Y-205000D02*
X-286000Y-194400D01*
X-27000Y128000D02*
X4000D01*
X-41000Y114000D02*
X-27000Y128000D01*
X58000Y100000D02*
X99000Y59000D01*
X99000D01*
X-13989Y-24439D02*
X-10561D01*
X-10000Y-25000D01*
X-33000Y-17000D02*
X-21428D01*
X-13989Y-24439D01*
X-22000Y115000D02*
X-10000D01*
X24000Y81000D01*
X-109662Y-211338D02*
X-109000Y-212000D01*
X-109662Y-211338D02*
Y-208338D01*
X-116500Y-201500D02*
X-109662Y-208338D01*
X-116500Y-201500D02*
Y-201000D01*
X-147000Y-155000D02*
X-126000Y-176000D01*
Y-201000D02*
Y-176000D01*
X-115000Y60000D02*
X-89000D01*
X-297600Y-205000D02*
X-296600D01*
X-278000Y-148000D02*
X-276000D01*
X-218000Y-280000D02*
X-217500Y-280500D01*
X-218000Y-280000D02*
Y-273855D01*
X-227886Y-270839D02*
X-221016D01*
X-218000Y-273855D01*
X35730Y-165270D02*
Y-156422D01*
X14000Y-187000D02*
X35730Y-165270D01*
X1000Y-187064D02*
X3000Y-185064D01*
X1000Y-188000D02*
Y-187064D01*
X-101750Y-280500D02*
X-100020Y-278770D01*
X-104500Y-280500D02*
X-101750D01*
X-94000Y-253000D02*
X-89000Y-248000D01*
X-100020Y-278770D02*
Y-272020D01*
X-94000Y-266000D02*
Y-253000D01*
X-100020Y-272020D02*
X-94000Y-266000D01*
X3000Y-185064D02*
Y-183547D01*
X26122Y-160425D01*
X-11000Y-188000D02*
X-11000D01*
X15366Y-161634D01*
Y-159921D01*
X16028Y-159259D01*
X-21000Y-188000D02*
X-7234Y-174234D01*
X-114000Y-268874D02*
Y-247000D01*
X-122395Y-277270D02*
X-114000Y-268874D01*
X-123520Y-277270D02*
X-122395D01*
X-126750Y-280500D02*
X-123520Y-277270D01*
X-129500Y-280500D02*
X-126750D01*
X-7234Y-171234D02*
X5000Y-159000D01*
X-7234Y-174234D02*
Y-171234D01*
X-260980Y-215480D02*
X-258000Y-212500D01*
X-260980Y-216480D02*
Y-215480D01*
X-258000Y-212500D02*
X-257000D01*
X-282500Y-238000D02*
X-260980Y-216480D01*
X-297600Y-238000D02*
X-282500D01*
X-287658Y-246866D02*
X-278034D01*
X-288292Y-246232D02*
X-287658Y-246866D01*
X-278034D02*
X-277400Y-247500D01*
X91000Y-109048D02*
X118039Y-136087D01*
X91000Y-109048D02*
Y-109000D01*
X118039Y-136135D02*
Y-136087D01*
X-22230Y-227270D02*
X-22000Y-227500D01*
X-27355Y-227270D02*
X-22230D01*
X-29270Y-225354D02*
X-27355Y-227270D01*
X-29270Y-225354D02*
Y-219552D01*
X-24000Y-214282D01*
Y-205000D01*
X-111917Y-164287D02*
X-107204Y-169000D01*
X-113713Y-164287D02*
X-111917D01*
X-107204Y-169000D02*
X-107000D01*
X-127500Y-150500D02*
X-113713Y-164287D01*
X-127500Y-150500D02*
Y-140000D01*
X-194000Y-231000D02*
X-185000Y-222000D01*
Y-214000D01*
X88000Y-29000D02*
X98000Y-19000D01*
X88000Y-50000D02*
Y-29000D01*
X306550Y191880D02*
Y196255D01*
X310000Y199705D01*
Y216500D01*
X3000Y-37000D02*
X7000Y-41000D01*
Y-56000D02*
Y-41000D01*
X-133330Y-25170D02*
X-121560D01*
X-133500Y-25000D02*
X-133330Y-25170D01*
X-124893Y-41000D02*
X-122883Y-38989D01*
X-121946D01*
X-133500Y-41000D02*
X-124893D01*
X-211219Y-212781D02*
X-210000Y-214000D01*
X-221863Y-212781D02*
X-211219D01*
X-218270Y-261500D02*
X-217500D01*
X-220000Y-259770D02*
Y-254000D01*
Y-259770D02*
X-218270Y-261500D01*
X-225662Y-157650D02*
Y-155662D01*
X-225000Y-155000D01*
X-227500Y-186500D02*
Y-159488D01*
X-225662Y-157650D01*
X-227500Y-186500D02*
X-225000Y-189000D01*
X-219000D01*
X-212980Y-186980D02*
X-210000Y-184000D01*
X-216044Y-186980D02*
X-212980D01*
X-218064Y-189000D02*
X-216044Y-186980D01*
X-219000Y-189000D02*
X-218064D01*
X-268000Y-272500D02*
Y-272000D01*
X-259250Y-280750D02*
X-242750D01*
X-265020Y-275480D02*
X-264520D01*
X-268000Y-272500D02*
X-265020Y-275480D01*
X-264520D02*
X-259250Y-280750D01*
X-280130Y-216230D02*
X-278400Y-214500D01*
X-277400D01*
X-281000Y-222064D02*
X-280130Y-221194D01*
Y-216230D01*
X-281000Y-223000D02*
Y-222064D01*
X-268000Y-263000D02*
X-260000Y-255000D01*
X-268000Y-272000D02*
Y-263000D01*
X-245000Y-254000D02*
Y-225500D01*
X-243270Y-261500D02*
X-242500D01*
X-245000Y-259770D02*
Y-254000D01*
Y-259770D02*
X-243270Y-261500D01*
X-254020Y-216480D02*
Y-215480D01*
Y-216480D02*
X-245000Y-225500D01*
X-257000Y-212500D02*
X-254020Y-215480D01*
X-258000Y-199500D02*
X-257500D01*
X-262000Y-195500D02*
X-258000Y-199500D01*
X-277400Y-195500D02*
X-262000D01*
X-297600Y-257000D02*
X-295870Y-258730D01*
X-293770D01*
X-281000Y-271500D01*
Y-272000D02*
Y-271500D01*
X65500Y-261500D02*
X68250D01*
X69980Y-259770D01*
Y-245020D01*
X70000Y-245000D01*
X65500Y-280500D02*
Y-274874D01*
X56480Y-265854D02*
X65500Y-274874D01*
X56480Y-265854D02*
Y-245956D01*
X57500Y-244936D01*
Y-244000D01*
X40500Y-261500D02*
X43250D01*
X44980Y-259770D01*
Y-242520D01*
X45000Y-242500D01*
X27000Y-127000D02*
X42000Y-142000D01*
Y-188000D02*
Y-142000D01*
X40000Y-127000D02*
X51000Y-138000D01*
Y-181000D02*
Y-138000D01*
Y-127000D02*
X58000Y-134000D01*
Y-173000D02*
Y-134000D01*
X67000Y-114000D02*
X68000Y-115000D01*
Y-128000D02*
Y-115000D01*
X-23000Y53000D02*
X-12875Y63125D01*
X29000D01*
X59000Y32000D02*
Y32782D01*
X57512Y34270D02*
X59000Y32782D01*
X15403Y34270D02*
X57512D01*
X14133Y33000D02*
X15403Y34270D01*
X0Y33000D02*
X14133D01*
X18000Y28000D02*
X48000D01*
X-259000Y9000D02*
Y38000D01*
X-188000Y71000D02*
X-169000D01*
X-201000Y59000D02*
X-170000D01*
D19*
X291000Y-167000D02*
D03*
Y-180000D02*
D03*
X278875Y-234125D02*
D03*
Y-221125D02*
D03*
X-210000Y-171000D02*
D03*
X-164543Y-214500D02*
D03*
X-210000Y-201000D02*
D03*
X-185000Y-201000D02*
D03*
X310000Y229500D02*
D03*
X-257500Y-199500D02*
D03*
Y-212500D02*
D03*
X-210000Y-184000D02*
D03*
X-185000Y-214000D02*
D03*
X-210000Y-214000D02*
D03*
X310000Y216500D02*
D03*
X-164543Y-201500D02*
D03*
D20*
X253875Y-219375D02*
D03*
Y-232875D02*
D03*
X33000Y121250D02*
D03*
X-227500Y-200000D02*
D03*
X-145432Y-214305D02*
D03*
X33000Y134750D02*
D03*
X-145432Y-200805D02*
D03*
X-227500Y-186500D02*
D03*
D22*
X-13750Y-277000D02*
D03*
X-250D02*
D03*
D26*
X-146500Y-41000D02*
D03*
X-140500Y-140000D02*
D03*
X-68882Y-153776D02*
D03*
X-146500Y-25000D02*
D03*
X-11000Y-205000D02*
D03*
X54000Y-114000D02*
D03*
X113500Y-216000D02*
D03*
X146000Y-216000D02*
D03*
X126500Y-216000D02*
D03*
X159000Y-216000D02*
D03*
X-1000Y-260000D02*
D03*
X-14000D02*
D03*
X-116500Y-201000D02*
D03*
X-129500D02*
D03*
X-133500Y-25000D02*
D03*
Y-41000D02*
D03*
X-127500Y-140000D02*
D03*
X-55882Y-153776D02*
D03*
X-24000Y-205000D02*
D03*
X-268000Y-272000D02*
D03*
X67000Y-114000D02*
D03*
X-281000Y-272000D02*
D03*
D71*
X253875Y-248125D02*
X254875Y-249125D01*
X253875Y-248125D02*
Y-232875D01*
X-146500Y-52500D02*
Y-41000D01*
Y-52500D02*
X-146000Y-53000D01*
X22000Y-225000D02*
X28809Y-218191D01*
Y-210191D01*
X29000Y-210000D01*
X-256000Y-271000D02*
X-242500D01*
X-227000Y-200500D02*
X-210500D01*
X-210000Y-201000D02*
X-185000D01*
X-164543Y-214500D02*
X-164445Y-214402D01*
X-185000Y-201000D02*
X-185000Y-201000D01*
X-184500D01*
X-164445Y-214402D02*
X-149654D01*
X-155393Y-206567D02*
X-152254Y-209705D01*
X-152254D01*
X-227500Y-200000D02*
X-227000Y-200500D01*
X-210500D02*
X-210000Y-201000D01*
X-184500Y-201000D02*
X-176350Y-192850D01*
X-155393Y-206567D02*
Y-195427D01*
X-176350Y-192850D02*
X-157970D01*
X-155393Y-195427D01*
X-145000Y-260972D02*
X-135472Y-270500D01*
X-145000Y-260972D02*
Y-250000D01*
X-130000Y-270500D02*
X-129500Y-271000D01*
X-135472Y-270500D02*
X-130000D01*
X-31500Y-267750D02*
X-24750Y-274500D01*
X-15750D02*
X-13750Y-276500D01*
X-24750Y-274500D02*
X-15750D01*
X-45809Y-248191D02*
X-31500Y-262500D01*
X-50000Y-248000D02*
X-49809Y-248191D01*
X-45809D01*
X-31500Y-267750D02*
Y-262500D01*
X-137191Y-222809D02*
Y-222045D01*
X-144932Y-214305D02*
X-137191Y-222045D01*
Y-222809D02*
X-137000Y-223000D01*
X-145432Y-214305D02*
X-144932D01*
X-152254Y-209705D02*
X-149654Y-212305D01*
X-44000Y-121000D02*
Y-120750D01*
X-156809Y-15691D02*
Y-15462D01*
X-149750Y-22750D02*
X-148250D01*
X-156809Y-15691D02*
X-149750Y-22750D01*
X-148250D02*
X-146500Y-24500D01*
X-13750Y-277000D02*
Y-276500D01*
X310000Y229500D02*
X321229D01*
X321729Y230000D01*
X322000D01*
X280500Y52500D02*
X285000Y57000D01*
X231380Y52500D02*
X280500D01*
X327500Y-51500D02*
Y-50250D01*
X322250Y-45000D02*
X327500Y-50250D01*
X285000Y-45000D02*
X322250D01*
X101691Y-216809D02*
X112691D01*
X113500Y-216000D01*
X101500Y-217000D02*
X101691Y-216809D01*
X40500Y-271000D02*
X50000D01*
X51000Y-272000D01*
X-7500Y-232500D02*
X-1809Y-226809D01*
Y-213809D02*
X1000Y-211000D01*
X-1809Y-226809D02*
Y-213809D01*
X-9250Y-206803D02*
X-3197D01*
X1000Y-211000D01*
X-11000Y-205053D02*
X-9250Y-206803D01*
X-11000Y-205053D02*
Y-205000D01*
X43271Y-114000D02*
X54000D01*
X39271Y-110000D02*
X43271Y-114000D01*
X39000Y-110000D02*
X39271D01*
X-70000Y-152658D02*
X-68882Y-153776D01*
X-70000Y-152658D02*
Y-142000D01*
X174500Y-272000D02*
X175000Y-272500D01*
X182500D01*
X187000Y-277000D01*
X171500Y-177271D02*
X172000Y-177771D01*
Y-194500D02*
Y-177771D01*
X171500Y-177271D02*
Y-177000D01*
X-55120Y-181630D02*
X-45900Y-190850D01*
X-56240Y-156824D02*
X-55120Y-157944D01*
Y-181630D02*
Y-157944D01*
X340000Y207500D02*
X340500Y208000D01*
X306550Y191880D02*
X324380D01*
X331500Y199000D01*
X334750D01*
X340000Y204250D01*
Y207500D01*
X-45900Y-215240D02*
Y-190850D01*
D72*
X16000Y-231000D02*
X19000Y-228000D01*
X-236000Y-11000D02*
X-235000Y-10000D01*
X-236000Y-228000D02*
Y-11000D01*
X-256000Y-176000D02*
X-247000Y-185000D01*
X-256000Y-18000D02*
X-255000Y-17000D01*
X-256000Y-176000D02*
Y-18000D01*
D73*
X19000Y-228000D02*
X22000Y-225000D01*
Y-225000D01*
D74*
X-335000Y-265000D02*
D03*
X335000Y265000D02*
D03*
Y-265000D02*
D03*
X-335000Y150000D02*
D03*
D75*
X285000Y-45000D02*
D03*
X231380Y52500D02*
D03*
Y102500D02*
D03*
X285000Y-95000D02*
D03*
D76*
X331380Y22500D02*
D03*
Y132500D02*
D03*
X335000Y-125000D02*
D03*
Y-15000D02*
D03*
D77*
X277875Y-249125D02*
D03*
X292000Y-196000D02*
D03*
X254875Y-249125D02*
D03*
X265875Y-225125D02*
D03*
X266000Y-190000D02*
D03*
X279000Y-150000D02*
D03*
X265875Y-209125D02*
D03*
X129000Y-85000D02*
D03*
X166000Y-147000D02*
D03*
X89000Y-95000D02*
D03*
X28000Y-257000D02*
D03*
X74308Y-156873D02*
D03*
X109000Y-239000D02*
D03*
X-300000Y106000D02*
D03*
X-270000Y117000D02*
D03*
X-42000Y128000D02*
D03*
X127000Y160000D02*
D03*
X134000Y153000D02*
D03*
X141000Y160000D02*
D03*
X148000Y153000D02*
D03*
X155000Y160000D02*
D03*
X162000Y153000D02*
D03*
X169000Y160000D02*
D03*
X95000Y136000D02*
D03*
X104000Y152000D02*
D03*
X225000Y163000D02*
D03*
X-305000Y98000D02*
D03*
X294000Y249750D02*
D03*
X180000Y122000D02*
D03*
X-9000Y3000D02*
D03*
X-70000Y38000D02*
D03*
X-146000Y-53000D02*
D03*
X-277000Y-184000D02*
D03*
X-210000Y-140000D02*
D03*
X-275000Y-206000D02*
D03*
X-46000Y-164000D02*
D03*
X-44000Y-134000D02*
D03*
X81000Y9000D02*
D03*
X163000Y-44000D02*
D03*
X135000Y-137000D02*
D03*
X112000Y-180000D02*
D03*
X-34000Y51000D02*
D03*
X10000Y84000D02*
D03*
X29000Y-210000D02*
D03*
X-131000Y-231000D02*
D03*
X-71000Y90000D02*
D03*
X21000Y148000D02*
D03*
X-147000Y170000D02*
D03*
Y159000D02*
D03*
X-256000Y-271000D02*
D03*
X-252684Y-226684D02*
D03*
X-199000Y-241000D02*
D03*
X-299000Y-184000D02*
D03*
X-152000Y-140000D02*
D03*
X-145000Y-250000D02*
D03*
X-50000Y-248000D02*
D03*
X-137000Y-223000D02*
D03*
X-44000Y-120750D02*
D03*
X-157000Y-15000D02*
D03*
X-305000Y61000D02*
D03*
X-300000Y146000D02*
D03*
X-299000Y119000D02*
D03*
X-152000Y42000D02*
D03*
X-77000Y-5000D02*
D03*
X-31000Y87000D02*
D03*
X-147000Y132000D02*
D03*
X-65000Y138000D02*
D03*
X-41000Y142000D02*
D03*
X80000Y-227000D02*
D03*
X93000Y-180000D02*
D03*
X198000Y-168000D02*
D03*
X154730Y-125000D02*
D03*
X164000Y-57000D02*
D03*
X225000Y-55000D02*
D03*
X-8000Y23000D02*
D03*
X11000Y1000D02*
D03*
X93000Y74000D02*
D03*
Y10000D02*
D03*
Y87000D02*
D03*
Y99000D02*
D03*
X120000Y118000D02*
D03*
X198000Y166000D02*
D03*
X253490Y232050D02*
D03*
Y207158D02*
D03*
X253744Y219350D02*
D03*
X203000Y259000D02*
D03*
X261364Y213000D02*
D03*
Y225700D02*
D03*
X322000Y230000D02*
D03*
X267000Y268000D02*
D03*
X-16000Y89000D02*
D03*
X223000Y204000D02*
D03*
X101500Y-217000D02*
D03*
X51000Y-272000D02*
D03*
X1000Y-211000D02*
D03*
X-99318Y-214722D02*
D03*
X39000Y-110000D02*
D03*
X-70000Y-142000D02*
D03*
X-58000Y-10000D02*
D03*
X-285000Y24000D02*
D03*
X-91000Y-140000D02*
D03*
X-178000Y-112000D02*
D03*
Y-84000D02*
D03*
X-221000Y-126000D02*
D03*
X-194000D02*
D03*
X-207000Y-125000D02*
D03*
X-178500Y-97500D02*
D03*
X147000Y-238000D02*
D03*
X187000Y-277000D02*
D03*
X171500Y-177000D02*
D03*
X14000Y-258000D02*
D03*
X171000Y-226000D02*
D03*
X147000Y-86000D02*
D03*
X215000Y-262000D02*
D03*
X195000Y-272000D02*
D03*
X161000Y-267000D02*
D03*
X187000Y-262000D02*
D03*
X36000Y150000D02*
D03*
X341001Y111000D02*
D03*
X351001Y91000D02*
D03*
X341001Y71000D02*
D03*
X351001Y51000D02*
D03*
Y11000D02*
D03*
Y-29000D02*
D03*
Y-69000D02*
D03*
Y-109000D02*
D03*
X321001Y111000D02*
D03*
X331001Y91000D02*
D03*
X321001Y71000D02*
D03*
X331001Y51000D02*
D03*
X321001Y-9000D02*
D03*
X331001Y-29000D02*
D03*
X321001Y-129000D02*
D03*
X301000Y111000D02*
D03*
X311000Y91000D02*
D03*
X301000Y71000D02*
D03*
X311000Y51000D02*
D03*
X301000Y31000D02*
D03*
Y-9000D02*
D03*
X311000Y-109000D02*
D03*
X301000Y-129000D02*
D03*
X281000Y31000D02*
D03*
X291000Y11000D02*
D03*
X281000Y-129000D02*
D03*
X261000Y111000D02*
D03*
Y71000D02*
D03*
X271000Y-109000D02*
D03*
X251000Y91000D02*
D03*
X37000Y-228000D02*
D03*
X16000Y-216000D02*
D03*
X281430Y215794D02*
D03*
X281176Y229256D02*
D03*
X-195000Y-155000D02*
D03*
X4000Y128000D02*
D03*
X58000Y100000D02*
D03*
X99000Y59000D02*
D03*
X-10000Y-25000D02*
D03*
X-33000Y-17000D02*
D03*
X-41000Y114000D02*
D03*
X-22000Y115000D02*
D03*
X24000Y81000D02*
D03*
X77000Y28000D02*
D03*
X-144000Y-201000D02*
D03*
X-109000Y-212000D02*
D03*
X-147000Y-155000D02*
D03*
X-115000Y60000D02*
D03*
X-89000D02*
D03*
X-276000Y-148000D02*
D03*
X-194465Y-185035D02*
D03*
X-235000Y-10000D02*
D03*
X-236000Y-228000D02*
D03*
X-227886Y-270839D02*
D03*
X14000Y-187000D02*
D03*
X-104000Y-261000D02*
D03*
X35730Y-156422D02*
D03*
X1000Y-188000D02*
D03*
X-89000Y-248000D02*
D03*
X26122Y-160425D02*
D03*
X-11000Y-188000D02*
D03*
X-130000Y-261000D02*
D03*
X16028Y-159259D02*
D03*
X-21000Y-188000D02*
D03*
X-114000Y-247000D02*
D03*
X5000Y-159000D02*
D03*
X-288292Y-246232D02*
D03*
X118039Y-136135D02*
D03*
X242000Y188000D02*
D03*
X-107000Y-169000D02*
D03*
X-170611Y-230195D02*
D03*
X-194000Y-231000D02*
D03*
X98000Y-19000D02*
D03*
X225000Y219250D02*
D03*
X13000Y-68000D02*
D03*
X3000Y-37000D02*
D03*
X7000Y-56000D02*
D03*
X88000Y-50000D02*
D03*
X-121560Y-25170D02*
D03*
X-121946Y-38989D02*
D03*
X-221863Y-212781D02*
D03*
X14000Y-269000D02*
D03*
X-220000Y-254000D02*
D03*
X-247000Y-185000D02*
D03*
X-255000Y-17000D02*
D03*
X-225000Y-155000D02*
D03*
X-219000Y-189000D02*
D03*
X-260000Y-255000D02*
D03*
X-281000Y-223000D02*
D03*
X-245000Y-254000D02*
D03*
X70000Y-245000D02*
D03*
X57500Y-244000D02*
D03*
X45000Y-242500D02*
D03*
X27000Y-127000D02*
D03*
X42000Y-188000D02*
D03*
X40000Y-127000D02*
D03*
X51000Y-181000D02*
D03*
Y-127000D02*
D03*
X58000Y-173000D02*
D03*
X68000Y-128000D02*
D03*
X-23000Y53000D02*
D03*
X29000Y63125D02*
D03*
X59000Y32000D02*
D03*
X0Y33000D02*
D03*
X18000Y28000D02*
D03*
X48000D02*
D03*
X91000Y-109000D02*
D03*
X-259000Y38000D02*
D03*
Y9000D02*
D03*
X-188000Y71000D02*
D03*
X-169000D02*
D03*
X-170000Y59000D02*
D03*
X-201000D02*
D03*
D78*
X-204218Y-288904D02*
D03*
D79*
X40500Y-280500D02*
D03*
X-242500Y-271000D02*
D03*
X-129500D02*
D03*
X40500D02*
D03*
X174500Y-272000D02*
D03*
Y-281500D02*
D03*
Y-262500D02*
D03*
X199500D02*
D03*
Y-281500D02*
D03*
X-217500Y-280500D02*
D03*
X-104500Y-261500D02*
D03*
Y-280500D02*
D03*
X-129500Y-261500D02*
D03*
Y-280500D02*
D03*
X65500D02*
D03*
Y-261500D02*
D03*
X40500D02*
D03*
X-217500D02*
D03*
X-242500Y-280500D02*
D03*
Y-261500D02*
D03*
D80*
X7000Y-232500D02*
D03*
Y-242500D02*
D03*
Y-237500D02*
D03*
X-22000Y-222500D02*
D03*
X7000Y-227500D02*
D03*
X-22000Y-237500D02*
D03*
Y-242500D02*
D03*
Y-232500D02*
D03*
Y-227500D02*
D03*
X7000Y-222500D02*
D03*
D81*
X-31000Y-267750D02*
D03*
Y-282250D02*
D03*
D82*
X-7500Y-232500D02*
D03*
D83*
X327500Y-51500D02*
D03*
X285000Y57000D02*
D03*
X327500Y-92500D02*
D03*
X285000Y98000D02*
D03*
X340000Y166500D02*
D03*
Y207500D02*
D03*
D84*
X171000Y-194000D02*
D03*
X136000D02*
D03*
D85*
X-71300Y-215240D02*
D03*
X-84000D02*
D03*
X-58600D02*
D03*
X268450Y138120D02*
D03*
X281150D02*
D03*
X293850D02*
D03*
X306550D02*
D03*
X-58600Y-269000D02*
D03*
X-84000D02*
D03*
X-71300D02*
D03*
X-45900D02*
D03*
Y-215240D02*
D03*
X268450Y191880D02*
D03*
X281150D02*
D03*
X293850D02*
D03*
X306550D02*
D03*
D86*
X-96000Y-185000D02*
D03*
X-55000D02*
D03*
D87*
X-297600Y-257000D02*
D03*
X-277400Y-247500D02*
D03*
X-297600Y-238000D02*
D03*
X-277400Y-195500D02*
D03*
Y-214500D02*
D03*
X-297600Y-205000D02*
D03*
D88*
X245000Y188368D02*
D03*
Y167500D02*
D03*
M02*
