G04*
G04 #@! TF.GenerationSoftware,Altium Limited,Altium Designer,26.3.0 (6)*
G04*
G04 Layer_Physical_Order=1*
G04 Layer_Color=255*
%FSLAX44Y44*%
%MOMM*%
G71*
G04*
G04 #@! TF.SameCoordinates,D57B5760-88B1-4855-907E-DBF2512A65CE*
G04*
G04*
G04 #@! TF.FilePolarity,Positive*
G04*
G01*
G75*
%ADD11C,0.2000*%
%ADD13C,0.2540*%
%ADD19R,0.9500X0.8500*%
%ADD20R,1.0000X0.9000*%
%ADD21R,0.5500X0.5500*%
%ADD22R,0.9000X1.0000*%
%ADD23R,1.4750X0.3000*%
%ADD24R,0.8000X1.6000*%
%ADD25R,1.4000X1.8000*%
%ADD26R,0.8500X0.9500*%
%ADD27R,2.4500X1.0000*%
%ADD28R,0.5750X0.3500*%
%ADD29R,0.3000X1.4750*%
%ADD30R,0.3500X0.5750*%
%ADD31R,0.9000X1.4000*%
%ADD32R,0.4500X0.3000*%
%ADD33R,0.3000X0.4500*%
%ADD34R,0.9000X1.5000*%
%ADD35R,1.6000X3.5000*%
%ADD36R,5.3340X2.4130*%
%ADD37R,0.9000X0.9000*%
%ADD38R,1.5000X0.9000*%
%ADD39R,1.0000X2.4500*%
%ADD40R,0.6000X0.2300*%
%ADD41R,1.7000X3.3000*%
%ADD42R,0.6000X1.5500*%
%ADD43R,2.1000X3.0000*%
%ADD44R,1.2000X1.8000*%
%ADD45R,1.4000X0.9000*%
%ADD71C,0.5000*%
%ADD72C,0.3000*%
%ADD73C,0.4000*%
%ADD74C,2.8000*%
%ADD75C,2.5500*%
%ADD76C,1.5000*%
%ADD77C,0.6000*%
%ADD78C,0.7000*%
G36*
X319825Y270175D02*
X319615Y269667D01*
X319000Y266576D01*
Y263424D01*
X319615Y260333D01*
X320821Y257421D01*
X322572Y254801D01*
X324801Y252572D01*
X327421Y250821D01*
X330333Y249615D01*
X333424Y249000D01*
X336576D01*
X339667Y249615D01*
X340175Y249825D01*
X360000Y230000D01*
Y152000D01*
X342697Y134697D01*
X340466Y135295D01*
X340233Y136167D01*
X338982Y138333D01*
X337213Y140102D01*
X335047Y141353D01*
X332631Y142000D01*
X330129D01*
X327713Y141353D01*
X325547Y140102D01*
X323778Y138333D01*
X322527Y136167D01*
X321880Y133751D01*
Y131249D01*
X320921Y130000D01*
X222000D01*
X199000Y107000D01*
Y90000D01*
X217000Y72000D01*
X244000D01*
X250500Y65500D01*
X250000Y25000D01*
X307000Y-32000D01*
Y-59000D01*
X296000Y-70000D01*
X268000D01*
X256000Y-82000D01*
Y-134000D01*
X271000Y-149000D01*
X273996D01*
X274000Y-149005D01*
Y-150995D01*
X274761Y-152832D01*
X275345Y-153416D01*
X274516Y-155416D01*
X273000D01*
X271724Y-155670D01*
X270643Y-156392D01*
X268285Y-158750D01*
X259000D01*
Y-167035D01*
X234744Y-191291D01*
X215006D01*
X196862Y-173147D01*
X197847Y-171304D01*
X198000Y-171334D01*
X199276Y-171080D01*
X199644Y-170834D01*
X203710D01*
Y-175040D01*
X209480D01*
Y-167500D01*
X212020D01*
Y-175040D01*
X217790D01*
Y-174500D01*
X230750D01*
Y-165215D01*
X231857Y-164107D01*
X232580Y-163026D01*
X232834Y-161750D01*
Y-150500D01*
X238500D01*
Y-128500D01*
X220500D01*
Y-128500D01*
X218859Y-127633D01*
X218630Y-127290D01*
X199839Y-108500D01*
X200668Y-106500D01*
X214500D01*
Y-84500D01*
X208834D01*
Y-74631D01*
X208965Y-74500D01*
X217210D01*
Y-75040D01*
X222980D01*
Y-67500D01*
X224250D01*
Y-66230D01*
X231290D01*
Y-59960D01*
X227584D01*
Y-57018D01*
X228080Y-56276D01*
X228334Y-55000D01*
X228080Y-53724D01*
X227358Y-52642D01*
X226276Y-51920D01*
X225000Y-51666D01*
X223724Y-51920D01*
X222642Y-52642D01*
X221893Y-53393D01*
X221170Y-54474D01*
X220916Y-55750D01*
Y-59960D01*
X217210D01*
Y-60500D01*
X204250D01*
Y-69785D01*
X203143Y-70893D01*
X202420Y-71974D01*
X202166Y-73250D01*
Y-84500D01*
X196500D01*
Y-92166D01*
X186250D01*
Y-88250D01*
X175250D01*
X173750Y-88250D01*
X171750Y-88250D01*
X160750D01*
Y-91666D01*
X151215D01*
X150405Y-89666D01*
X151239Y-88832D01*
X152000Y-86995D01*
Y-85005D01*
X151239Y-83168D01*
X150905Y-82834D01*
X151734Y-80834D01*
X156500D01*
X157776Y-80580D01*
X158857Y-79858D01*
X176357Y-62358D01*
X177080Y-61276D01*
X177334Y-60000D01*
Y-15000D01*
X177080Y-13724D01*
X176357Y-12643D01*
X104000Y59715D01*
Y59995D01*
X103239Y61832D01*
X101832Y63239D01*
X99995Y64000D01*
X98005D01*
X96168Y63239D01*
X94761Y61832D01*
X94000Y59995D01*
Y58005D01*
X94761Y56168D01*
X96168Y54761D01*
X98005Y54000D01*
X99995D01*
X100200Y54085D01*
X170666Y-16381D01*
Y-57042D01*
X170500Y-57141D01*
X170346Y-57130D01*
X168403Y-56067D01*
X168239Y-55244D01*
X167244Y-53756D01*
X165756Y-52761D01*
X164000Y-52412D01*
X162244Y-52761D01*
X160756Y-53756D01*
X159540Y-54971D01*
X157540Y-54710D01*
X157000Y-52934D01*
Y-50838D01*
X160750D01*
X162506Y-50489D01*
X163994Y-49494D01*
X164838Y-48651D01*
X165832Y-48239D01*
X167239Y-46832D01*
X168000Y-44995D01*
Y-43005D01*
X167239Y-41168D01*
X165832Y-39761D01*
X163995Y-39000D01*
X162005D01*
X160168Y-39761D01*
X158761Y-41168D01*
X158557Y-41662D01*
X152000D01*
X151557Y-41750D01*
X143000D01*
Y-44916D01*
X139500D01*
Y-41750D01*
X125500D01*
Y-50035D01*
X124889Y-50646D01*
X124399D01*
X123124Y-50900D01*
X122042Y-51623D01*
X118755Y-54909D01*
X116755Y-54081D01*
Y-44000D01*
X98005D01*
Y-51000D01*
Y-63460D01*
X97465D01*
Y-63756D01*
X95617Y-64522D01*
X91334Y-60238D01*
Y-53737D01*
X92239Y-52832D01*
X93000Y-50995D01*
Y-49005D01*
X92239Y-47168D01*
X90832Y-45761D01*
X88995Y-45000D01*
X87005D01*
X85168Y-45761D01*
X83761Y-47168D01*
X83000Y-49005D01*
Y-50995D01*
X83761Y-52832D01*
X84666Y-53737D01*
Y-61620D01*
X84920Y-62895D01*
X85642Y-63977D01*
X96293Y-74627D01*
X97375Y-75350D01*
X98005Y-75476D01*
Y-81000D01*
Y-89166D01*
X92436D01*
X91160Y-89420D01*
X90178Y-90076D01*
X89995Y-90000D01*
X88005D01*
X86168Y-90761D01*
X84761Y-92168D01*
X84000Y-94005D01*
Y-94457D01*
X82000Y-95285D01*
X71858Y-85142D01*
X70776Y-84420D01*
X69500Y-84166D01*
X1995D01*
Y-76000D01*
Y-65834D01*
X6119D01*
X8000Y-67715D01*
Y-68995D01*
X8761Y-70832D01*
X10168Y-72239D01*
X12005Y-73000D01*
X13995D01*
X15832Y-72239D01*
X17239Y-70832D01*
X18000Y-68995D01*
Y-67005D01*
X17239Y-65168D01*
X15832Y-63761D01*
X13995Y-63000D01*
X12715D01*
X9893Y-60178D01*
X11239Y-58832D01*
X12000Y-56995D01*
Y-55005D01*
X11239Y-53168D01*
X9832Y-51761D01*
X7994Y-51000D01*
X6715D01*
X5857Y-50142D01*
X4776Y-49420D01*
X3500Y-49166D01*
X1995D01*
Y-44000D01*
X-6666D01*
Y-28737D01*
X-5761Y-27832D01*
X-5161Y-26383D01*
X-3799Y-25827D01*
X-3000Y-25715D01*
X-334Y-28381D01*
Y-33263D01*
X-1239Y-34168D01*
X-2000Y-36005D01*
Y-37995D01*
X-1239Y-39832D01*
X168Y-41239D01*
X2005Y-42000D01*
X3995D01*
X5832Y-41239D01*
X7239Y-39832D01*
X7793Y-38495D01*
X9000Y-36995D01*
X9624Y-36995D01*
X13460D01*
Y-37535D01*
X16230D01*
Y-27620D01*
X18770D01*
Y-37535D01*
X21540D01*
Y-36995D01*
X24524D01*
X24650Y-37625D01*
X25373Y-38707D01*
X27288Y-40623D01*
X28370Y-41345D01*
X29646Y-41599D01*
X90354D01*
X91630Y-41345D01*
X92712Y-40623D01*
X119667Y-13667D01*
X120390Y-12586D01*
X120644Y-11310D01*
Y17690D01*
X120390Y18966D01*
X119667Y20048D01*
X91357Y48358D01*
X90276Y49080D01*
X89000Y49334D01*
X84381D01*
X69603Y64112D01*
X70368Y65960D01*
X76730D01*
Y84730D01*
X67460D01*
Y68868D01*
X65612Y68103D01*
X53334Y80381D01*
Y85000D01*
X53080Y86276D01*
X52358Y87358D01*
X29818Y109897D01*
X28736Y110620D01*
X28506Y110666D01*
X28703Y112666D01*
X40619D01*
X53000Y100285D01*
Y99005D01*
X53761Y97168D01*
X55168Y95761D01*
X57005Y95000D01*
X58994D01*
X60832Y95761D01*
X62239Y97168D01*
X63000Y99005D01*
Y100995D01*
X62239Y102832D01*
X60832Y104239D01*
X58994Y105000D01*
X57715D01*
X44358Y118357D01*
X43276Y119080D01*
X42000Y119334D01*
X23631D01*
X19500Y123465D01*
Y128750D01*
Y140750D01*
X19500D01*
X19083Y141757D01*
X23163Y145837D01*
X23826Y146830D01*
X24059Y148000D01*
X23826Y149171D01*
X23163Y150163D01*
X22171Y150826D01*
X21591Y150941D01*
X21788Y152941D01*
X28733D01*
X31000Y150674D01*
Y149005D01*
X31761Y147168D01*
X33168Y145761D01*
X35005Y145000D01*
X36995D01*
X38832Y145761D01*
X40239Y147168D01*
X41000Y149005D01*
Y150995D01*
X40239Y152832D01*
X38832Y154239D01*
X36995Y155000D01*
X35326D01*
X32163Y158163D01*
X31170Y158826D01*
X30000Y159059D01*
X30000Y159059D01*
X10000D01*
X10000Y159059D01*
X8830Y158826D01*
X7837Y158163D01*
X3337Y153663D01*
X2674Y152670D01*
X2441Y151500D01*
X2441Y151500D01*
Y150281D01*
X441Y149452D01*
X80Y149813D01*
X-912Y150476D01*
X-2083Y150709D01*
X-2083Y150709D01*
X-13350D01*
X-13350Y150709D01*
X-14520Y150476D01*
X-15513Y149813D01*
X-19267Y146059D01*
X-21460D01*
Y148790D01*
X-27730D01*
Y141750D01*
X-30270D01*
Y148790D01*
X-36540D01*
Y146338D01*
X-39743D01*
X-41000Y146588D01*
X-42756Y146239D01*
X-44244Y145244D01*
X-45239Y143756D01*
X-45588Y142000D01*
X-45239Y140244D01*
X-44244Y138756D01*
X-43994Y138506D01*
X-42506Y137511D01*
X-40750Y137162D01*
X-36540D01*
Y134710D01*
X-36540D01*
X-36849Y132838D01*
X-40615D01*
X-41006Y133000D01*
X-42995D01*
X-44832Y132239D01*
X-46239Y130832D01*
X-47000Y128995D01*
Y127005D01*
X-46239Y125168D01*
X-44832Y123761D01*
X-42995Y123000D01*
X-41006D01*
X-39408Y123662D01*
X-36000D01*
Y121750D01*
X-25920D01*
X-25507Y121124D01*
X-24832Y119239D01*
X-26239Y117832D01*
X-27000Y115995D01*
Y114005D01*
X-26239Y112168D01*
X-24832Y110761D01*
X-22995Y110000D01*
X-21005D01*
X-19168Y110761D01*
X-17761Y112168D01*
X-17000Y114005D01*
Y115995D01*
X-17761Y117832D01*
X-17974Y118045D01*
X-16348Y119670D01*
X-14500Y118905D01*
Y118750D01*
X-13584D01*
Y106250D01*
X-13330Y104974D01*
X-12608Y103892D01*
X-9358Y100642D01*
X-8276Y99920D01*
X-7000Y99666D01*
X11619D01*
X14437Y96848D01*
X13672Y95000D01*
X3540D01*
Y95540D01*
X-2230D01*
Y88000D01*
X-4770D01*
Y95540D01*
X-10540D01*
Y93397D01*
X-15038D01*
X-16000Y93588D01*
X-17756Y93239D01*
X-19244Y92244D01*
X-20239Y90756D01*
X-20588Y89000D01*
X-20239Y87244D01*
X-19244Y85756D01*
X-19053Y85564D01*
X-17565Y84570D01*
X-15809Y84221D01*
X-10540D01*
Y80460D01*
X-12067Y79319D01*
X-27460D01*
Y82790D01*
X-27460Y82790D01*
X-27150Y84662D01*
X-26761Y85244D01*
X-26412Y87000D01*
X-26761Y88756D01*
X-27756Y90244D01*
X-29244Y91239D01*
X-31000Y91588D01*
X-32756Y91239D01*
X-34244Y90244D01*
X-35666Y88823D01*
X-36002Y88841D01*
X-37666Y89468D01*
Y110263D01*
X-36761Y111168D01*
X-36000Y113005D01*
Y114995D01*
X-36761Y116832D01*
X-38168Y118239D01*
X-40005Y119000D01*
X-41995D01*
X-43832Y118239D01*
X-45239Y116832D01*
X-46000Y114995D01*
Y113005D01*
X-45239Y111168D01*
X-44334Y110263D01*
Y87216D01*
X-45528Y86023D01*
X-46250Y84941D01*
X-46504Y83665D01*
Y-5830D01*
X-46250Y-7106D01*
X-45528Y-8188D01*
X-37915Y-15800D01*
X-38000Y-16005D01*
Y-17995D01*
X-37239Y-19832D01*
X-35832Y-21239D01*
X-33995Y-22000D01*
X-32005D01*
X-30168Y-21239D01*
X-28761Y-19832D01*
X-28334Y-18801D01*
X-26334Y-19199D01*
Y-50379D01*
X-26080Y-51655D01*
X-25357Y-52737D01*
X-18467Y-59627D01*
X-17385Y-60350D01*
X-16755Y-60476D01*
Y-66000D01*
Y-74166D01*
X-48099D01*
X-48820Y-73445D01*
Y-65160D01*
X-66820D01*
Y-78160D01*
X-53535D01*
X-51838Y-79858D01*
X-50756Y-80580D01*
X-49480Y-80834D01*
X-16755D01*
Y-91000D01*
Y-101000D01*
Y-113460D01*
X-17295D01*
Y-114166D01*
X-24960D01*
Y-113710D01*
X-31230D01*
Y-120750D01*
X-33770D01*
Y-113710D01*
X-40040D01*
Y-116162D01*
X-44000D01*
X-45756Y-116511D01*
X-47244Y-117506D01*
X-48239Y-118994D01*
X-48588Y-120750D01*
X-48239Y-122506D01*
X-47244Y-123994D01*
X-45756Y-124989D01*
X-44000Y-125338D01*
X-40040D01*
Y-127790D01*
X-40040Y-127790D01*
X-40040D01*
X-41686Y-128901D01*
X-42521Y-129201D01*
X-43005Y-129000D01*
X-44995D01*
X-46832Y-129761D01*
X-48239Y-131168D01*
X-49000Y-133005D01*
Y-134994D01*
X-48239Y-136832D01*
X-46832Y-138239D01*
X-44995Y-139000D01*
X-43005D01*
X-42313Y-138713D01*
X-39500D01*
Y-140750D01*
X-25500D01*
Y-137584D01*
X-23690D01*
X-22414Y-137330D01*
X-21332Y-136608D01*
X-16230Y-131505D01*
X-15507Y-130423D01*
X-15270Y-129230D01*
X-12040Y-126000D01*
X1995D01*
Y-121540D01*
X2535D01*
Y-118770D01*
X-7380D01*
Y-116230D01*
X2535D01*
Y-115834D01*
X24119D01*
X28437Y-120152D01*
X28378Y-120401D01*
X27457Y-122000D01*
X26005D01*
X24168Y-122761D01*
X23263Y-123666D01*
X19381D01*
X18105Y-123920D01*
X17023Y-124642D01*
X10373Y-131293D01*
X9650Y-132375D01*
X9524Y-133005D01*
X9000D01*
Y-150412D01*
X8618Y-150667D01*
X5285Y-154000D01*
X4005D01*
X2168Y-154761D01*
X761Y-156168D01*
X0Y-158005D01*
Y-159994D01*
X692Y-161666D01*
X390Y-162516D01*
X-234Y-163666D01*
X-7324D01*
X-21867Y-149122D01*
X-22949Y-148400D01*
X-24225Y-148146D01*
X-36434D01*
X-37710Y-148400D01*
X-38791Y-149122D01*
X-42335Y-152666D01*
X-122524D01*
X-123800Y-152920D01*
X-124882Y-153643D01*
X-131728Y-160488D01*
X-131736Y-160500D01*
X-143094D01*
X-143429Y-158500D01*
X-142761Y-157832D01*
X-142000Y-155995D01*
Y-154005D01*
X-142761Y-152168D01*
X-144168Y-150761D01*
X-146005Y-150000D01*
X-147995D01*
X-149832Y-150761D01*
X-151239Y-152168D01*
X-152000Y-154005D01*
Y-155995D01*
X-151239Y-157832D01*
X-150571Y-158500D01*
X-150906Y-160500D01*
X-190600D01*
X-191429Y-158500D01*
X-190761Y-157832D01*
X-190000Y-155995D01*
Y-154005D01*
X-190761Y-152168D01*
X-192168Y-150761D01*
X-194006Y-150000D01*
X-195285D01*
X-199643Y-145642D01*
X-200724Y-144920D01*
X-202000Y-144666D01*
X-204766D01*
X-205390Y-143516D01*
X-205692Y-142666D01*
X-205000Y-140995D01*
Y-139005D01*
X-205761Y-137168D01*
X-207168Y-135761D01*
X-209005Y-135000D01*
X-210995D01*
X-212832Y-135761D01*
X-214239Y-137168D01*
X-215000Y-139005D01*
Y-140995D01*
X-214308Y-142666D01*
X-214610Y-143516D01*
X-215234Y-144666D01*
X-272263D01*
X-272666Y-144263D01*
Y-125457D01*
X-230688Y-83478D01*
X-228840Y-84244D01*
Y-90540D01*
Y-96230D01*
X-221800D01*
Y-98770D01*
X-228840D01*
Y-104540D01*
Y-110230D01*
X-221800D01*
Y-112770D01*
X-228840D01*
Y-118540D01*
X-225134D01*
Y-124264D01*
X-224880Y-125540D01*
X-224233Y-126508D01*
X-224080Y-127276D01*
X-223358Y-128357D01*
X-222276Y-129080D01*
X-221000Y-129334D01*
X-219724Y-129080D01*
X-218643Y-128357D01*
X-217920Y-127276D01*
X-217666Y-126000D01*
Y-125064D01*
X-217920Y-123788D01*
X-218466Y-122970D01*
Y-118540D01*
X-210334D01*
Y-125000D01*
X-210080Y-126276D01*
X-209357Y-127358D01*
X-208276Y-128080D01*
X-207000Y-128334D01*
X-205724Y-128080D01*
X-204643Y-127358D01*
X-203920Y-126276D01*
X-203666Y-125000D01*
Y-118540D01*
X-197334D01*
Y-126000D01*
X-197080Y-127276D01*
X-196357Y-128357D01*
X-195276Y-129080D01*
X-194000Y-129334D01*
X-192724Y-129080D01*
X-191642Y-128357D01*
X-190920Y-127276D01*
X-190666Y-126000D01*
Y-118540D01*
X-186760D01*
Y-114834D01*
X-179644D01*
X-179276Y-115080D01*
X-178000Y-115334D01*
X-176724Y-115080D01*
X-175643Y-114358D01*
X-174920Y-113276D01*
X-174666Y-112000D01*
X-174920Y-110724D01*
X-175643Y-109642D01*
X-176143Y-109143D01*
X-177224Y-108420D01*
X-178500Y-108166D01*
X-186760D01*
Y-100834D01*
X-178500D01*
X-177224Y-100580D01*
X-176143Y-99858D01*
X-175420Y-98776D01*
X-175166Y-97500D01*
X-175420Y-96224D01*
X-176143Y-95142D01*
X-177224Y-94420D01*
X-178500Y-94166D01*
X-186760D01*
Y-86834D01*
X-179644D01*
X-179276Y-87080D01*
X-178000Y-87334D01*
X-176724Y-87080D01*
X-175643Y-86357D01*
X-174920Y-85276D01*
X-174666Y-84000D01*
X-174920Y-82724D01*
X-175643Y-81643D01*
X-176143Y-81143D01*
X-177224Y-80420D01*
X-178500Y-80166D01*
X-186760D01*
Y-76460D01*
X-192530D01*
Y-83500D01*
X-195070D01*
Y-76460D01*
X-206530D01*
Y-83500D01*
X-209070D01*
Y-76460D01*
X-221056D01*
X-221822Y-74612D01*
X-191293Y-44084D01*
X-161726D01*
X-160450Y-43830D01*
X-159368Y-43108D01*
X-122472Y-6212D01*
X-121750Y-5130D01*
X-121624Y-4500D01*
X-113400D01*
Y9785D01*
X-101519Y21666D01*
X-94750D01*
Y18250D01*
X-92084D01*
Y14000D01*
X-95250D01*
Y0D01*
X-82290D01*
Y-540D01*
X-82018D01*
X-80949Y-2540D01*
X-81239Y-2974D01*
X-81588Y-4729D01*
Y-5000D01*
X-81239Y-6756D01*
X-80244Y-8244D01*
X-78756Y-9239D01*
X-77000Y-9588D01*
X-75244Y-9239D01*
X-73756Y-8244D01*
X-73211Y-7429D01*
X-72006Y-6224D01*
X-71011Y-4735D01*
X-70662Y-2979D01*
Y-540D01*
X-68210D01*
Y5730D01*
X-75250D01*
Y7000D01*
X-76520D01*
Y14540D01*
X-82290D01*
Y14000D01*
X-85416D01*
Y16836D01*
X-84002Y18250D01*
X-82250Y18250D01*
X-80250Y18250D01*
X-69250D01*
Y26307D01*
X-69162Y26750D01*
Y32620D01*
X-68624Y33158D01*
X-67168Y33761D01*
X-65761Y35168D01*
X-65000Y37005D01*
Y38995D01*
X-65761Y40832D01*
X-67168Y42239D01*
X-69005Y43000D01*
X-70995D01*
X-72832Y42239D01*
X-74239Y40832D01*
X-74459Y40300D01*
X-75435Y39324D01*
X-75506Y39310D01*
X-76994Y38315D01*
X-77989Y36827D01*
X-78338Y35071D01*
Y33164D01*
X-79752Y31750D01*
X-81750Y31750D01*
X-83750Y31750D01*
X-94750D01*
Y28334D01*
X-102900D01*
X-104176Y28080D01*
X-105258Y27357D01*
X-118115Y14500D01*
X-145096D01*
X-145862Y16348D01*
X-134116Y28093D01*
X-122573D01*
X-121297Y28347D01*
X-120215Y29070D01*
X-98643Y50642D01*
X-97920Y51724D01*
X-97666Y53000D01*
Y122119D01*
X-90796Y128988D01*
X-90074Y130070D01*
X-89839Y131250D01*
X-84290D01*
Y130710D01*
X-78770D01*
Y138000D01*
Y145290D01*
X-84290D01*
Y144750D01*
X-90825D01*
X-91123Y145195D01*
X-93785Y147858D01*
X-94867Y148580D01*
X-96143Y148834D01*
X-110750D01*
Y151960D01*
X-110210D01*
Y158230D01*
X-125000D01*
Y160770D01*
X-110210D01*
Y165960D01*
Y172230D01*
X-125000D01*
Y174770D01*
X-110210D01*
Y177661D01*
X-22950D01*
X-22170Y177816D01*
X-21508Y178258D01*
X-21066Y178920D01*
X-21050Y179000D01*
X49000D01*
X58000Y170000D01*
X97000D01*
X104000Y177000D01*
Y285000D01*
X109000Y290000D01*
X300000D01*
X319825Y270175D01*
D02*
G37*
G36*
X-265150Y168500D02*
X-265150Y166500D01*
X-265150Y164500D01*
Y162059D01*
X-280750D01*
Y165250D01*
X-294250D01*
Y152790D01*
X-294790D01*
Y149334D01*
X-300000D01*
X-300000Y149334D01*
X-301276Y149080D01*
X-302358Y148357D01*
X-303080Y147276D01*
X-303334Y146000D01*
X-303080Y144724D01*
X-302358Y143643D01*
Y143643D01*
X-301276Y142920D01*
X-300000Y142666D01*
X-294790D01*
Y139210D01*
X-288770D01*
Y146000D01*
X-287500D01*
Y147270D01*
X-280210D01*
Y152790D01*
X-280750D01*
Y155941D01*
X-266564D01*
X-265150Y154527D01*
X-265150Y152500D01*
X-265150Y150500D01*
Y140500D01*
X-265150Y138500D01*
X-265150D01*
Y138500D01*
X-265150D01*
X-265150Y123502D01*
X-266564Y122088D01*
X-269500D01*
X-269943Y122000D01*
X-270995D01*
X-272832Y121239D01*
X-274239Y119832D01*
X-275000Y117995D01*
Y116005D01*
X-274239Y114168D01*
X-272832Y112761D01*
X-270995Y112000D01*
X-269006D01*
X-267168Y112761D01*
X-267150Y112779D01*
X-265150Y112591D01*
X-265150Y110500D01*
X-265150D01*
Y110500D01*
X-265150D01*
Y108088D01*
X-280500D01*
Y112210D01*
X-279960D01*
Y117980D01*
X-287500D01*
Y119250D01*
X-288770D01*
Y126290D01*
X-295040D01*
Y123838D01*
X-298750D01*
X-300506Y123489D01*
X-301994Y122494D01*
X-302989Y121006D01*
X-303338Y119250D01*
X-302989Y117494D01*
X-301994Y116006D01*
X-300506Y115011D01*
X-298750Y114662D01*
X-295040D01*
Y112210D01*
X-295040D01*
X-295349Y110338D01*
X-297408D01*
X-299005Y111000D01*
X-300995D01*
X-302832Y110239D01*
X-304239Y108832D01*
X-305000Y106995D01*
Y105006D01*
X-304998Y105000D01*
X-305995Y103000D01*
X-307832Y102239D01*
X-309239Y100832D01*
X-310000Y98995D01*
Y97005D01*
X-309588Y96011D01*
Y93250D01*
X-312000D01*
Y80290D01*
X-312540D01*
Y74520D01*
X-305000D01*
Y71980D01*
X-312540D01*
Y66210D01*
X-309588D01*
Y61000D01*
X-309239Y59244D01*
X-308244Y57756D01*
X-306756Y56761D01*
X-305000Y56412D01*
X-303244Y56761D01*
X-301756Y57756D01*
X-300761Y59244D01*
X-300412Y61000D01*
Y66210D01*
X-297460D01*
Y68662D01*
X-295040D01*
Y66210D01*
X-288770D01*
Y73250D01*
X-286230D01*
Y66210D01*
X-279960D01*
Y70912D01*
X-265690D01*
Y67960D01*
X-252170D01*
Y75500D01*
X-249630D01*
Y67960D01*
X-236583D01*
X-235504Y66211D01*
X-258715Y43000D01*
X-259995D01*
X-261832Y42239D01*
X-263239Y40832D01*
X-264000Y38995D01*
Y37005D01*
X-263239Y35168D01*
X-261832Y33761D01*
X-259995Y33000D01*
X-258006D01*
X-257088Y33380D01*
X-255955Y31685D01*
X-271357Y16282D01*
X-272080Y15200D01*
X-272220Y14500D01*
X-277960D01*
Y15040D01*
X-280412D01*
Y24000D01*
X-280761Y25756D01*
X-281756Y27244D01*
X-283244Y28239D01*
X-285000Y28588D01*
X-286756Y28239D01*
X-288244Y27244D01*
X-289239Y25756D01*
X-289588Y24000D01*
Y15040D01*
X-292040D01*
Y12653D01*
X-293888Y11888D01*
X-316000Y34000D01*
Y165000D01*
X-303339Y177661D01*
X-265150D01*
Y168500D01*
D02*
G37*
G36*
X-147828Y175661D02*
X-150244Y173244D01*
X-151239Y171756D01*
X-151588Y170000D01*
X-151239Y168244D01*
X-150244Y166756D01*
X-148756Y165761D01*
X-148611Y163762D01*
X-148756Y163239D01*
X-150244Y162244D01*
X-151239Y160756D01*
X-151588Y159000D01*
X-151239Y157244D01*
X-150244Y155756D01*
X-148756Y154761D01*
X-147000Y154412D01*
X-146729D01*
X-144974Y154761D01*
X-144748Y154912D01*
X-139790D01*
Y151960D01*
X-139250D01*
Y139040D01*
X-139790D01*
Y136088D01*
X-145019D01*
X-145244Y136239D01*
X-147000Y136588D01*
X-148756Y136239D01*
X-150244Y135244D01*
X-151239Y133756D01*
X-151588Y132000D01*
X-151239Y130244D01*
X-150244Y128756D01*
X-149744Y128256D01*
X-148256Y127261D01*
X-146500Y126912D01*
X-139790D01*
Y123960D01*
X-139250D01*
Y115215D01*
X-139549Y114916D01*
X-139880Y114850D01*
X-140962Y114128D01*
X-181497Y73593D01*
X-183761Y73832D01*
X-185168Y75239D01*
X-187005Y76000D01*
X-188995D01*
X-190832Y75239D01*
X-192239Y73832D01*
X-193000Y71995D01*
Y70715D01*
X-195228Y68488D01*
X-195950Y67406D01*
X-196204Y66130D01*
Y64104D01*
X-198168Y63239D01*
X-200005Y64000D01*
X-201995D01*
X-203832Y63239D01*
X-204737Y62334D01*
X-223925D01*
X-225200Y62080D01*
X-226282Y61358D01*
X-252684Y34955D01*
X-254380Y36088D01*
X-254000Y37005D01*
Y38285D01*
X-225643Y66642D01*
X-224920Y67724D01*
X-224666Y69000D01*
Y138000D01*
X-224920Y139276D01*
X-225643Y140358D01*
X-229412Y144128D01*
X-230494Y144850D01*
X-231770Y145104D01*
X-236650D01*
X-236650Y152500D01*
X-236650Y154500D01*
Y164500D01*
X-236650Y166500D01*
X-236650Y168500D01*
Y177661D01*
X-148656D01*
X-147828Y175661D01*
D02*
G37*
G36*
X61916Y38369D02*
X60783Y36673D01*
X59995Y37000D01*
X58005D01*
X56168Y36239D01*
X54761Y34832D01*
X54000Y32995D01*
Y31684D01*
X53125Y31261D01*
X52000Y31071D01*
X50832Y32239D01*
X48995Y33000D01*
X47005D01*
X45168Y32239D01*
X43761Y30832D01*
X43088Y29206D01*
X42131Y28765D01*
X41000Y28465D01*
X21500Y47965D01*
X21500Y47967D01*
Y59791D01*
X25263D01*
X26168Y58886D01*
X28005Y58125D01*
X29995D01*
X31832Y58886D01*
X33239Y60293D01*
X34000Y62130D01*
Y63457D01*
X35883Y64402D01*
X61916Y38369D01*
D02*
G37*
G36*
X-96814Y141456D02*
Y140980D01*
X-96750Y140658D01*
Y132465D01*
X-103357Y125857D01*
X-104080Y124776D01*
X-104334Y123500D01*
Y54381D01*
X-123954Y34761D01*
X-135497D01*
X-136773Y34508D01*
X-137855Y33785D01*
X-155428Y16212D01*
X-156150Y15130D01*
X-156276Y14500D01*
X-164136D01*
Y44524D01*
X-148338Y60322D01*
X-146490Y59556D01*
Y53820D01*
X-131410D01*
Y67340D01*
X-129864Y68436D01*
X-128730D01*
X-128408Y68500D01*
X-118334D01*
Y63737D01*
X-119239Y62832D01*
X-120000Y60995D01*
Y59005D01*
X-119239Y57168D01*
X-117832Y55761D01*
X-115995Y55000D01*
X-114005D01*
X-112168Y55761D01*
X-110761Y57168D01*
X-110000Y59005D01*
Y60995D01*
X-110761Y62832D01*
X-111666Y63737D01*
Y68500D01*
X-110750D01*
Y82500D01*
X-110750D01*
X-110750Y84500D01*
Y96500D01*
X-110750D01*
X-110750Y98500D01*
Y110500D01*
X-110750D01*
X-110750Y112500D01*
Y123960D01*
X-110210D01*
Y130230D01*
X-125000D01*
Y132770D01*
X-110210D01*
Y139040D01*
X-110750D01*
Y142166D01*
X-97524D01*
X-96814Y141456D01*
D02*
G37*
G36*
X-27071Y49319D02*
X-26334Y48745D01*
Y-14801D01*
X-28334Y-15199D01*
X-28761Y-14168D01*
X-30168Y-12761D01*
X-32005Y-12000D01*
X-32285D01*
X-39836Y-4449D01*
Y47152D01*
X-39712Y47230D01*
X-37836Y47765D01*
X-36832Y46761D01*
X-34995Y46000D01*
X-33005D01*
X-31168Y46761D01*
X-29761Y48168D01*
X-29509Y48777D01*
X-27320Y49472D01*
X-27071Y49319D01*
D02*
G37*
G36*
X54166Y-3506D02*
Y-18245D01*
X25834D01*
Y4599D01*
X25580Y5875D01*
X24857Y6957D01*
X18679Y13135D01*
Y22060D01*
X18679D01*
X18679D01*
X20007Y23356D01*
X20227Y23511D01*
X20832Y23761D01*
X22239Y25168D01*
X22363Y25468D01*
X24722Y25938D01*
X54166Y-3506D01*
D02*
G37*
G36*
X-203832Y54761D02*
X-201995Y54000D01*
X-200005D01*
X-198168Y54761D01*
X-196204Y53896D01*
Y14500D01*
X-261096D01*
X-261862Y16348D01*
X-222543Y55666D01*
X-204737D01*
X-203832Y54761D01*
D02*
G37*
G36*
X46666Y83619D02*
Y79000D01*
X46920Y77724D01*
X47642Y76642D01*
X80642Y43643D01*
X81724Y42920D01*
X83000Y42666D01*
X87619D01*
X113976Y16309D01*
Y-9929D01*
X109219Y-14685D01*
X108509Y-14343D01*
X107570Y-13506D01*
X107754Y-12580D01*
Y11580D01*
X107500Y12856D01*
X106777Y13938D01*
X18357Y102358D01*
X19122Y104206D01*
X26079D01*
X46666Y83619D01*
D02*
G37*
G36*
X360000Y113000D02*
Y-138000D01*
X358000Y-140000D01*
X276000Y-140000D01*
X265000Y-129000D01*
Y-86000D01*
X275000Y-76000D01*
X299000D01*
X313000Y-62000D01*
Y-29000D01*
X257500Y26500D01*
Y65500D01*
X243000Y80000D01*
X225000D01*
X211000Y94000D01*
Y110000D01*
X223000Y122000D01*
X351000D01*
X360000Y113000D01*
D02*
G37*
G36*
X135142Y-112358D02*
X136224Y-113080D01*
X137500Y-113334D01*
X195243D01*
X208022Y-126112D01*
X207256Y-127960D01*
X206770D01*
Y-139500D01*
X205500D01*
Y-140770D01*
X195960D01*
Y-151040D01*
X202166D01*
Y-161750D01*
X202249Y-162166D01*
X201107Y-163936D01*
X200776Y-164166D01*
X198500D01*
X197224Y-164420D01*
X196143Y-165142D01*
X195643Y-165643D01*
X194920Y-166724D01*
X194666Y-168000D01*
X194696Y-168153D01*
X192853Y-169138D01*
X171000Y-147285D01*
Y-146005D01*
X170239Y-144168D01*
X168832Y-142761D01*
X166995Y-142000D01*
X165005D01*
X163168Y-142761D01*
X161761Y-144168D01*
X161000Y-146005D01*
Y-147995D01*
X161761Y-149832D01*
X163168Y-151239D01*
X165005Y-152000D01*
X166285D01*
X211267Y-196982D01*
X212349Y-197705D01*
X213625Y-197959D01*
X236125D01*
X237401Y-197705D01*
X238483Y-196982D01*
X257152Y-178313D01*
X259000Y-179078D01*
Y-185250D01*
X260851D01*
X261761Y-187168D01*
X261000Y-189006D01*
Y-190995D01*
X261761Y-192832D01*
X263168Y-194239D01*
X265005Y-195000D01*
X266995D01*
X268832Y-194239D01*
X270239Y-192832D01*
X271000Y-190995D01*
Y-189006D01*
X270239Y-187168D01*
X271150Y-185250D01*
X273000D01*
Y-172250D01*
X273000Y-172250D01*
Y-171750D01*
X273000D01*
X273000Y-170250D01*
Y-163512D01*
X274428Y-162084D01*
X282500D01*
Y-163500D01*
X299500D01*
Y-154000D01*
X284755D01*
X284632Y-153905D01*
X283584Y-152000D01*
X284000Y-150995D01*
Y-149005D01*
X284004Y-149000D01*
X360000D01*
X363000Y-152000D01*
Y-270000D01*
X341000Y-292000D01*
X230000D01*
Y-271000D01*
X214000D01*
Y-292000D01*
X154000D01*
Y-271000D01*
X138000D01*
Y-292000D01*
X-193037D01*
X-194714Y-291495D01*
X-194961Y-291416D01*
Y-288500D01*
X-172000D01*
Y-254500D01*
X-197000D01*
Y-281120D01*
X-198000Y-282961D01*
X-264961D01*
Y-259939D01*
X-262961Y-259110D01*
X-262832Y-259239D01*
X-260995Y-260000D01*
X-259006D01*
X-257168Y-259239D01*
X-255761Y-257832D01*
X-255000Y-255995D01*
Y-254006D01*
X-253889Y-252500D01*
X-253500D01*
Y-252500D01*
X-250338D01*
X-250000Y-253006D01*
Y-254995D01*
X-249239Y-256832D01*
X-247832Y-258239D01*
X-245995Y-259000D01*
X-244006D01*
X-242168Y-258239D01*
X-240761Y-256832D01*
X-240000Y-254995D01*
Y-253006D01*
X-239662Y-252500D01*
X-235334D01*
Y-266726D01*
X-235080Y-268001D01*
X-234357Y-269083D01*
X-232886Y-270554D01*
Y-271834D01*
X-232125Y-273671D01*
X-230719Y-275078D01*
X-228881Y-275839D01*
X-226892D01*
X-225054Y-275078D01*
X-223648Y-273671D01*
X-222886Y-271834D01*
Y-269845D01*
X-223648Y-268007D01*
X-225054Y-266600D01*
X-226892Y-265839D01*
X-228171D01*
X-228666Y-265345D01*
Y-254431D01*
X-228661Y-254370D01*
X-228007Y-252500D01*
Y-252500D01*
X-225338D01*
X-225000Y-253006D01*
Y-254995D01*
X-224239Y-256832D01*
X-222832Y-258239D01*
X-220995Y-259000D01*
X-219006D01*
X-217168Y-258239D01*
X-215761Y-256832D01*
X-215000Y-254995D01*
Y-253040D01*
X-211270D01*
Y-242500D01*
Y-231960D01*
X-216540D01*
Y-232500D01*
X-221432D01*
Y-231000D01*
X-221703Y-229634D01*
X-222477Y-228477D01*
X-225931Y-225022D01*
Y-218396D01*
X-223931Y-217336D01*
X-222857Y-217781D01*
X-221434D01*
X-218500Y-220715D01*
Y-226000D01*
X-201500D01*
Y-216500D01*
X-213285D01*
X-216863Y-212922D01*
Y-211786D01*
X-217624Y-209949D01*
X-219031Y-208542D01*
X-220868Y-207781D01*
X-222857D01*
X-223931Y-208226D01*
X-225931Y-207165D01*
Y-202500D01*
X-226203Y-201134D01*
X-226977Y-199977D01*
X-242000Y-184953D01*
Y-184005D01*
X-242761Y-182168D01*
X-243429Y-181500D01*
X-242600Y-179500D01*
X-198829D01*
X-198001Y-181500D01*
X-198703Y-182202D01*
X-199465Y-184040D01*
Y-186029D01*
X-198703Y-187867D01*
X-197297Y-189273D01*
X-197106Y-189353D01*
X-196883Y-190473D01*
X-196160Y-191555D01*
X-193500Y-194215D01*
Y-199500D01*
X-176500D01*
Y-191654D01*
X-174500Y-190826D01*
X-168500Y-196826D01*
Y-199500D01*
X-154215D01*
X-151019Y-202696D01*
X-149938Y-203418D01*
X-148662Y-203672D01*
X-148305D01*
X-148239Y-203832D01*
X-146832Y-205239D01*
X-144995Y-206000D01*
X-143006D01*
X-141168Y-205239D01*
X-139761Y-203832D01*
X-139000Y-201995D01*
Y-200005D01*
X-139761Y-198168D01*
X-141168Y-196761D01*
X-143006Y-196000D01*
X-144995D01*
X-146832Y-196761D01*
X-147075Y-197004D01*
X-147281D01*
X-151500Y-192785D01*
Y-190000D01*
X-149552Y-189874D01*
X-119534D01*
X-118000Y-191000D01*
X-118000Y-191874D01*
Y-209000D01*
X-115334D01*
X-113998Y-211000D01*
X-114000Y-211005D01*
Y-212994D01*
X-113239Y-214832D01*
X-111832Y-216239D01*
X-109995Y-217000D01*
X-108005D01*
X-106168Y-216239D01*
X-105730Y-215802D01*
X-103560Y-216460D01*
X-103557Y-216478D01*
X-102562Y-217966D01*
X-101074Y-218961D01*
X-100703Y-219035D01*
X-100045Y-221205D01*
X-109628Y-230788D01*
X-109878Y-231163D01*
X-111215Y-232500D01*
X-118500Y-232500D01*
X-120500Y-232500D01*
X-124511D01*
X-126000Y-231011D01*
Y-230005D01*
X-126761Y-228168D01*
X-128168Y-226761D01*
X-130006Y-226000D01*
X-131995D01*
X-133832Y-226761D01*
X-135239Y-228168D01*
X-136000Y-230005D01*
Y-231995D01*
X-135239Y-233832D01*
X-135153Y-233918D01*
X-135048Y-234447D01*
X-134053Y-235936D01*
X-131000Y-238989D01*
Y-252500D01*
X-120500D01*
X-119000Y-252500D01*
X-117000Y-252500D01*
X-113204D01*
X-112438Y-254348D01*
X-115757Y-257666D01*
X-126263D01*
X-127168Y-256761D01*
X-129005Y-256000D01*
X-130995D01*
X-132832Y-256761D01*
X-134239Y-258168D01*
X-135000Y-260005D01*
Y-261994D01*
X-134239Y-263832D01*
X-132832Y-265239D01*
X-130995Y-266000D01*
X-129005D01*
X-127168Y-265239D01*
X-126263Y-264334D01*
X-114375D01*
X-113100Y-264080D01*
X-112018Y-263358D01*
X-110848Y-262187D01*
X-108656Y-262824D01*
X-108239Y-263832D01*
X-106832Y-265239D01*
X-104995Y-266000D01*
X-103005D01*
X-101168Y-265239D01*
X-100263Y-264334D01*
X-89375D01*
X-88100Y-264080D01*
X-87018Y-263358D01*
X-77873Y-254212D01*
X-77622Y-253837D01*
X-76285Y-252500D01*
X-69040D01*
Y-253040D01*
X-63770D01*
Y-242500D01*
X-61230D01*
Y-253040D01*
X-55960D01*
Y-252588D01*
X-50000D01*
X-48244Y-252239D01*
X-46756Y-251244D01*
X-45761Y-249756D01*
X-45412Y-248000D01*
X-45761Y-246244D01*
X-46756Y-244756D01*
X-48244Y-243761D01*
X-50000Y-243412D01*
X-55960D01*
Y-231960D01*
X-61256D01*
X-62022Y-230112D01*
X-45647Y-213738D01*
X-9404D01*
X-8128Y-213484D01*
X-7046Y-212761D01*
X13715Y-192000D01*
X14995D01*
X16832Y-191239D01*
X18239Y-189832D01*
X18750Y-188598D01*
X20750Y-188996D01*
X20750Y-192250D01*
X20750Y-194250D01*
Y-205250D01*
X23850D01*
X24761Y-207168D01*
X24000Y-209005D01*
Y-210994D01*
X24761Y-212832D01*
X26168Y-214239D01*
X28005Y-215000D01*
X29995D01*
X31832Y-214239D01*
X33239Y-212832D01*
X34000Y-210994D01*
Y-209005D01*
X33239Y-207168D01*
X34149Y-205250D01*
X34250D01*
Y-194250D01*
X34250Y-192750D01*
X34250Y-190750D01*
Y-188632D01*
X35000Y-188222D01*
X36316Y-188730D01*
X37139Y-189330D01*
X37761Y-190832D01*
X39168Y-192239D01*
X41005Y-193000D01*
X41666D01*
Y-222766D01*
X40516Y-223390D01*
X39666Y-223692D01*
X37995Y-223000D01*
X36005D01*
X34168Y-223761D01*
X33263Y-224666D01*
X28381D01*
X20915Y-217200D01*
X21000Y-216995D01*
Y-215005D01*
X20239Y-213168D01*
X18832Y-211761D01*
X16995Y-211000D01*
X15005D01*
X13168Y-211761D01*
X11761Y-213168D01*
X11000Y-215005D01*
Y-216995D01*
X11761Y-218832D01*
X13168Y-220239D01*
X15005Y-221000D01*
X15285D01*
X24643Y-230357D01*
X24856Y-230500D01*
X24249Y-232500D01*
X14000D01*
Y-246011D01*
X10756Y-249256D01*
X9761Y-250744D01*
X9412Y-252500D01*
Y-256011D01*
X9000Y-257005D01*
Y-258995D01*
X9412Y-259989D01*
Y-267011D01*
X9000Y-268005D01*
Y-269995D01*
X9761Y-271832D01*
X11168Y-273239D01*
X13005Y-274000D01*
X14995D01*
X16832Y-273239D01*
X18239Y-271832D01*
X19000Y-269995D01*
Y-268005D01*
X18588Y-267011D01*
Y-259989D01*
X19000Y-258995D01*
Y-257005D01*
X18588Y-256011D01*
Y-254401D01*
X20489Y-252500D01*
X22601D01*
X23114Y-253237D01*
X23624Y-254500D01*
X23000Y-256005D01*
Y-257995D01*
X23761Y-259832D01*
X25168Y-261239D01*
X27005Y-262000D01*
X28995D01*
X30832Y-261239D01*
X32239Y-259832D01*
X33000Y-257995D01*
Y-256005D01*
X32927Y-255828D01*
X33455Y-254926D01*
X34118Y-254679D01*
X35740Y-254579D01*
X37288Y-256127D01*
X38370Y-256850D01*
X39646Y-257104D01*
X87854D01*
X89130Y-256850D01*
X90212Y-256127D01*
X92128Y-254212D01*
X103571Y-242768D01*
X105697D01*
X106168Y-243239D01*
X108005Y-244000D01*
X109995D01*
X111832Y-243239D01*
X113239Y-241832D01*
X114000Y-239995D01*
Y-238005D01*
X113239Y-236168D01*
X111832Y-234761D01*
X109995Y-234000D01*
X108005D01*
X106168Y-234761D01*
X104829Y-236100D01*
X102190D01*
X100914Y-236354D01*
X99832Y-237077D01*
X94952Y-241958D01*
X93104Y-241192D01*
Y-192770D01*
X92850Y-191494D01*
X92128Y-190413D01*
X78257Y-176542D01*
X79584Y-175040D01*
X83912D01*
Y-175500D01*
X84261Y-177256D01*
X85256Y-178744D01*
X89756Y-183244D01*
X91244Y-184239D01*
X93000Y-184588D01*
X94756Y-184239D01*
X96244Y-183244D01*
X97239Y-181756D01*
X97588Y-180000D01*
X97239Y-178244D01*
X96244Y-176756D01*
X95836Y-176348D01*
X96602Y-174500D01*
X100011D01*
X107349Y-181838D01*
X107761Y-182832D01*
X109168Y-184239D01*
X111005Y-185000D01*
X112995D01*
X114832Y-184239D01*
X116239Y-182832D01*
X117000Y-180995D01*
Y-179005D01*
X116239Y-177168D01*
X114832Y-175761D01*
X113838Y-175349D01*
X106500Y-168011D01*
Y-160500D01*
X99143D01*
X99128Y-160477D01*
X91994Y-153343D01*
X91000Y-151755D01*
Y-139701D01*
X92848Y-138936D01*
X95707Y-141795D01*
X95666Y-142000D01*
X95920Y-143276D01*
X96643Y-144358D01*
X171285Y-219000D01*
X170457Y-221000D01*
X170005D01*
X168168Y-221761D01*
X166761Y-223168D01*
X166000Y-225005D01*
Y-226995D01*
X166140Y-227331D01*
X165920Y-227660D01*
X165666Y-228936D01*
Y-231426D01*
X164540Y-232960D01*
X160270D01*
Y-243250D01*
Y-253540D01*
X164540D01*
Y-253000D01*
X172666D01*
Y-255666D01*
X168000D01*
X166724Y-255920D01*
X165642Y-256642D01*
X160285Y-262000D01*
X160005D01*
X158168Y-262761D01*
X156761Y-264168D01*
X156000Y-266005D01*
Y-267994D01*
X156761Y-269832D01*
X158168Y-271239D01*
X160005Y-272000D01*
X161995D01*
X163832Y-271239D01*
X165239Y-269832D01*
X166000Y-267994D01*
Y-266005D01*
X165915Y-265800D01*
X169381Y-262334D01*
X174512D01*
X175788Y-262080D01*
X176870Y-261357D01*
X178358Y-259870D01*
X179080Y-258788D01*
X179334Y-257512D01*
Y-253000D01*
X182218D01*
X182363Y-253078D01*
X183704Y-255000D01*
X183666Y-255190D01*
Y-258263D01*
X182761Y-259168D01*
X182000Y-261005D01*
Y-262994D01*
X182761Y-264832D01*
X184168Y-266239D01*
X186005Y-267000D01*
X187995D01*
X189832Y-266239D01*
X191239Y-264832D01*
X192000Y-262994D01*
Y-261005D01*
X191239Y-259168D01*
X190334Y-258263D01*
Y-256275D01*
X190460Y-256086D01*
X190714Y-254810D01*
Y-253000D01*
X194000D01*
X195666Y-253806D01*
Y-265683D01*
X194349Y-267000D01*
X194005D01*
X192168Y-267761D01*
X190761Y-269168D01*
X190000Y-271005D01*
Y-272995D01*
X190761Y-274832D01*
X192168Y-276239D01*
X194005Y-277000D01*
X195995D01*
X197832Y-276239D01*
X199239Y-274832D01*
X200000Y-272995D01*
Y-271005D01*
X199934Y-270845D01*
X201357Y-269421D01*
X202080Y-268340D01*
X202334Y-267064D01*
Y-253806D01*
X204000Y-253000D01*
X209285D01*
X211666Y-255381D01*
Y-258263D01*
X210761Y-259168D01*
X210000Y-261005D01*
Y-262994D01*
X210761Y-264832D01*
X212168Y-266239D01*
X214005Y-267000D01*
X215995D01*
X217832Y-266239D01*
X219239Y-264832D01*
X220000Y-262994D01*
Y-261005D01*
X219239Y-259168D01*
X218334Y-258263D01*
Y-254000D01*
X218080Y-252724D01*
X217358Y-251642D01*
X214000Y-248285D01*
Y-233500D01*
X212334D01*
Y-228000D01*
X212080Y-226724D01*
X211357Y-225642D01*
X122982Y-137267D01*
X123039Y-137130D01*
Y-135141D01*
X122278Y-133303D01*
X120871Y-131896D01*
X119034Y-131135D01*
X117045D01*
X115207Y-131896D01*
X113800Y-133303D01*
X113228Y-134685D01*
X112121Y-135251D01*
X111981Y-135294D01*
X111039Y-135430D01*
X110276Y-134920D01*
X110238Y-134912D01*
X103174Y-127848D01*
X103939Y-126000D01*
X112040D01*
X113398Y-127358D01*
X114479Y-128080D01*
X115755Y-128334D01*
X123750D01*
Y-132000D01*
X127662D01*
Y-134250D01*
X128011Y-136006D01*
X129006Y-137494D01*
X130349Y-138838D01*
X130761Y-139832D01*
X132168Y-141239D01*
X134005Y-142000D01*
X135995D01*
X137832Y-141239D01*
X139239Y-139832D01*
X140000Y-137995D01*
Y-136005D01*
X139393Y-134540D01*
X139946Y-133209D01*
X140440Y-132540D01*
X142480D01*
Y-125000D01*
Y-117460D01*
X136710D01*
Y-118000D01*
X123750D01*
Y-121666D01*
X117136D01*
X116755Y-121285D01*
Y-116000D01*
Y-105834D01*
X128619D01*
X135142Y-112358D01*
D02*
G37*
G36*
X79643Y-127358D02*
X80724Y-128080D01*
X82000Y-128334D01*
X82205Y-128293D01*
X84529Y-130617D01*
X83770Y-132450D01*
Y-142380D01*
X81230D01*
Y-132465D01*
X78460D01*
Y-133005D01*
X72895D01*
X72066Y-131005D01*
X72239Y-130832D01*
X73000Y-128995D01*
Y-127005D01*
X72239Y-125168D01*
X70832Y-123761D01*
X68995Y-123000D01*
X67005D01*
X65168Y-123761D01*
X63761Y-125168D01*
X63000Y-127005D01*
Y-128995D01*
X63761Y-130832D01*
X63934Y-131005D01*
X63281Y-133005D01*
X54679D01*
X54248Y-132106D01*
X54066Y-131005D01*
X55239Y-129832D01*
X56000Y-127995D01*
Y-126005D01*
X55239Y-124168D01*
X53832Y-122761D01*
X51995Y-122000D01*
X50005D01*
X48168Y-122761D01*
X46761Y-124168D01*
X46582Y-124599D01*
X44615D01*
X44365Y-124472D01*
X44239Y-124168D01*
X42832Y-122761D01*
X40995Y-122000D01*
X39715D01*
X27857Y-110142D01*
X26776Y-109420D01*
X25500Y-109166D01*
X1995D01*
Y-105834D01*
X58119D01*
X79643Y-127358D01*
D02*
G37*
G36*
X-283730Y-5040D02*
X-277960D01*
Y-4500D01*
X-253469D01*
Y-10015D01*
X-255453Y-12000D01*
X-255995D01*
X-257832Y-12761D01*
X-259239Y-14168D01*
X-260000Y-16005D01*
Y-17995D01*
X-259239Y-19832D01*
X-257832Y-21239D01*
X-255995Y-22000D01*
X-254005D01*
X-252168Y-21239D01*
X-250761Y-19832D01*
X-250000Y-17995D01*
Y-16640D01*
X-247377Y-14017D01*
X-246603Y-12859D01*
X-246332Y-11493D01*
Y-4500D01*
X-238575D01*
X-238571Y-6500D01*
X-239239Y-7168D01*
X-240000Y-9005D01*
Y-10995D01*
X-239239Y-12832D01*
X-237832Y-14239D01*
X-235995Y-15000D01*
X-234006D01*
X-232168Y-14239D01*
X-230761Y-12832D01*
X-230000Y-10995D01*
Y-9005D01*
X-230761Y-7168D01*
X-231429Y-6500D01*
X-231425Y-4500D01*
X-132804D01*
X-132038Y-6348D01*
X-163107Y-37416D01*
X-192674D01*
X-193950Y-37670D01*
X-195032Y-38393D01*
X-278358Y-121718D01*
X-279080Y-122800D01*
X-279334Y-124076D01*
Y-144263D01*
X-280239Y-145168D01*
X-281000Y-147005D01*
Y-148995D01*
X-280239Y-150832D01*
X-278832Y-152239D01*
X-276995Y-153000D01*
X-275005D01*
X-273168Y-152239D01*
X-272263Y-151334D01*
X-257878D01*
X-257049Y-153334D01*
X-261535Y-157820D01*
X-262258Y-158902D01*
X-262512Y-160178D01*
Y-160500D01*
X-277960D01*
Y-159960D01*
X-283730D01*
Y-170000D01*
Y-180040D01*
X-282724D01*
X-281600Y-182040D01*
X-282000Y-183005D01*
Y-184995D01*
X-281239Y-186832D01*
X-279832Y-188239D01*
X-277995Y-189000D01*
X-277418D01*
X-276590Y-191000D01*
X-290650Y-205060D01*
X-291372Y-206142D01*
X-291626Y-207418D01*
Y-242495D01*
X-292531Y-243400D01*
X-293292Y-245237D01*
Y-247227D01*
X-292531Y-249064D01*
X-291124Y-250471D01*
X-289287Y-251232D01*
X-287297D01*
X-285460Y-250471D01*
X-284053Y-249064D01*
X-283292Y-247227D01*
Y-245237D01*
X-284053Y-243400D01*
X-284958Y-242495D01*
Y-228726D01*
X-282958Y-227601D01*
X-281995Y-228000D01*
X-280005D01*
X-278168Y-227239D01*
X-277925Y-226996D01*
X-268719D01*
X-266433Y-229282D01*
X-266969Y-231574D01*
X-267122Y-231626D01*
X-267733Y-231441D01*
X-268220Y-231116D01*
X-269000Y-230961D01*
X-276000D01*
X-276780Y-231116D01*
X-277442Y-231558D01*
X-278384Y-232500D01*
X-278500D01*
Y-232616D01*
X-279442Y-233558D01*
X-279884Y-234220D01*
X-280039Y-235000D01*
Y-291000D01*
X-281880Y-292000D01*
X-301000D01*
X-302652Y-290348D01*
X-301887Y-288500D01*
X-285500D01*
Y-254500D01*
X-310500D01*
Y-279887D01*
X-312348Y-280652D01*
X-314000Y-279000D01*
Y-189000D01*
X-302000Y-177000D01*
X-299979D01*
X-298780Y-179000D01*
X-298853Y-179136D01*
X-299247Y-179461D01*
X-300756Y-179761D01*
X-302244Y-180756D01*
X-303239Y-182244D01*
X-303588Y-184000D01*
X-303239Y-185756D01*
X-302244Y-187244D01*
X-300756Y-188239D01*
X-299000Y-188588D01*
X-296000D01*
X-294244Y-188239D01*
X-292756Y-187244D01*
X-286270Y-180759D01*
Y-170000D01*
Y-159960D01*
X-290000D01*
Y-5040D01*
X-286270D01*
Y5000D01*
X-283730D01*
Y-5040D01*
D02*
G37*
G36*
X-50610Y-160484D02*
X-50308Y-161334D01*
X-51000Y-163005D01*
Y-164995D01*
X-50308Y-166666D01*
X-50610Y-167516D01*
X-51234Y-168666D01*
X-96000D01*
X-97276Y-168920D01*
X-98357Y-169643D01*
X-100631Y-171916D01*
X-102327Y-170783D01*
X-102000Y-169995D01*
Y-168005D01*
X-102761Y-166168D01*
X-104168Y-164761D01*
X-106005Y-164000D01*
X-107995D01*
X-109832Y-164761D01*
X-110737Y-165666D01*
X-113400D01*
Y-160500D01*
X-111883Y-159334D01*
X-51234D01*
X-50610Y-160484D01*
D02*
G37*
G36*
X-37079Y-178250D02*
X-31578D01*
X-30813Y-180098D01*
X-33921Y-183206D01*
X-99878D01*
X-100643Y-181358D01*
X-94619Y-175334D01*
X-37079D01*
Y-178250D01*
D02*
G37*
G36*
X86436Y-194151D02*
Y-224119D01*
X84436Y-224947D01*
X83244Y-223756D01*
X81756Y-222761D01*
X80000Y-222412D01*
X78244Y-222761D01*
X76756Y-223756D01*
X75761Y-225244D01*
X75412Y-227000D01*
X75761Y-228756D01*
X76566Y-229960D01*
X76502Y-230184D01*
X75960Y-231960D01*
X75334Y-232150D01*
X73334Y-230807D01*
Y-185000D01*
X73080Y-183724D01*
X72878Y-183422D01*
X74432Y-182147D01*
X86436Y-194151D01*
D02*
G37*
G36*
X-267000Y-235000D02*
Y-284000D01*
X-266000Y-285000D01*
X-198000D01*
X-197000Y-286000D01*
Y-291416D01*
X-198587Y-292997D01*
X-236717Y-292782D01*
X-276000Y-293000D01*
X-278000Y-291000D01*
Y-235000D01*
X-276000Y-233000D01*
X-269000D01*
X-267000Y-235000D01*
D02*
G37*
%LPC*%
G36*
X267000Y272588D02*
X265244Y272239D01*
X263756Y271244D01*
X262761Y269756D01*
X262412Y268000D01*
Y265150D01*
X260520Y263259D01*
Y256270D01*
X266509D01*
X270244Y260006D01*
X271239Y261494D01*
X271588Y263250D01*
Y268000D01*
X271239Y269756D01*
X270244Y271244D01*
X268756Y272239D01*
X267000Y272588D01*
D02*
G37*
G36*
X203000Y263588D02*
X201244Y263239D01*
X199756Y262244D01*
X198761Y260756D01*
X198412Y259000D01*
X198603Y258038D01*
Y254309D01*
X198952Y252553D01*
X199947Y251064D01*
X202241Y248770D01*
X208230D01*
Y255759D01*
X207780Y256209D01*
Y258809D01*
X207430Y260564D01*
X206436Y262053D01*
X206244Y262244D01*
X204756Y263239D01*
X203000Y263588D01*
D02*
G37*
G36*
X266290Y253730D02*
X260520D01*
Y247460D01*
X266290D01*
Y253730D01*
D02*
G37*
G36*
X208230Y246230D02*
X202710D01*
Y240210D01*
X208230D01*
Y246230D01*
D02*
G37*
G36*
X173480Y273205D02*
X119378D01*
X118598Y273050D01*
X117936Y272608D01*
X117936Y272608D01*
X111840Y266512D01*
X111398Y265850D01*
X111243Y265070D01*
Y234336D01*
X111398Y233556D01*
X111840Y232894D01*
X132414Y212320D01*
X133076Y211878D01*
X133856Y211723D01*
X166031D01*
X187532Y190222D01*
X188194Y189780D01*
X188974Y189625D01*
X200750D01*
Y178790D01*
X200210D01*
Y173270D01*
X214790D01*
Y178790D01*
X214250D01*
Y181666D01*
X216836D01*
X218250Y180252D01*
X218250Y178750D01*
X218250Y176750D01*
Y165750D01*
X218562D01*
X220000Y163995D01*
Y162005D01*
X220761Y160168D01*
X222168Y158761D01*
X224005Y158000D01*
X225994D01*
X227832Y158761D01*
X229239Y160168D01*
X230000Y162005D01*
Y163995D01*
X231438Y165750D01*
X231750D01*
Y176750D01*
X231750Y178250D01*
X231750Y181350D01*
X233750Y181535D01*
X243642Y171642D01*
X244724Y170920D01*
X246000Y170666D01*
X277000D01*
X278276Y170920D01*
X279357Y171642D01*
X306357Y198643D01*
X307080Y199724D01*
X307334Y201000D01*
Y212666D01*
X307080Y213942D01*
X306357Y215023D01*
X302000Y219381D01*
Y230250D01*
X302000Y231750D01*
X302000Y233750D01*
Y245250D01*
X298588D01*
Y247761D01*
X299000Y248755D01*
Y250745D01*
X298239Y252582D01*
X296832Y253989D01*
X294995Y254750D01*
X293005D01*
X291168Y253989D01*
X289761Y252582D01*
X289000Y250745D01*
Y248755D01*
X289412Y247761D01*
Y245250D01*
X288000D01*
X288000Y231073D01*
X286000Y230675D01*
X285415Y232088D01*
X284008Y233495D01*
X282171Y234256D01*
X280181D01*
X279643Y234033D01*
X279163Y234513D01*
X278275Y235106D01*
X278170Y235176D01*
X276500Y235650D01*
X274585Y235854D01*
X273104Y237355D01*
X272850Y238630D01*
X272128Y239712D01*
X269214Y242626D01*
X268132Y243348D01*
X266856Y243602D01*
X249084D01*
Y248000D01*
X252210D01*
Y247460D01*
X257980D01*
Y255000D01*
Y262540D01*
X252210D01*
Y262000D01*
X239250D01*
Y248000D01*
X242416D01*
Y240268D01*
X242427Y240213D01*
X242150Y239798D01*
X241896Y238522D01*
X242069Y237650D01*
X240994Y235650D01*
X238500D01*
Y235650D01*
X236938Y235003D01*
X228814Y243127D01*
Y244520D01*
X228750Y244842D01*
Y254250D01*
X216290D01*
Y254790D01*
X210770D01*
Y247500D01*
Y240210D01*
X216290D01*
Y240750D01*
X222344D01*
X222400Y240470D01*
X223123Y239388D01*
X230156Y232354D01*
X229328Y230354D01*
X215770D01*
X214494Y230100D01*
X213412Y229377D01*
X209785Y225750D01*
X200500D01*
Y216584D01*
X198500Y215756D01*
X182377Y231879D01*
Y264308D01*
X182377Y264308D01*
X182222Y265088D01*
X181780Y265750D01*
X181780Y265750D01*
X174922Y272608D01*
X174260Y273050D01*
X173480Y273205D01*
D02*
G37*
G36*
X214790Y170730D02*
X208770D01*
Y165210D01*
X214790D01*
Y170730D01*
D02*
G37*
G36*
X206230D02*
X199241D01*
X199100Y170588D01*
X198000D01*
X196244Y170239D01*
X194756Y169244D01*
X193761Y167756D01*
X193412Y166000D01*
X193761Y164244D01*
X194756Y162756D01*
X196244Y161761D01*
X198000Y161412D01*
X201000D01*
X202756Y161761D01*
X204244Y162756D01*
X206230Y164741D01*
Y170730D01*
D02*
G37*
G36*
X174000Y194039D02*
X121000D01*
X120220Y193884D01*
X119558Y193442D01*
X119176Y192870D01*
X118830D01*
Y164740D01*
X118961D01*
Y162039D01*
X72000Y162039D01*
X71220Y161884D01*
X70645Y161500D01*
X68000D01*
Y158884D01*
X67558Y158442D01*
X67116Y157780D01*
X66961Y157000D01*
Y127000D01*
X67116Y126220D01*
X67558Y125558D01*
X67558Y125558D01*
X68000Y125116D01*
Y122500D01*
X70645D01*
X71220Y122116D01*
X72000Y121961D01*
X95000D01*
X95000Y121961D01*
X95780Y122116D01*
X96442Y122558D01*
X96442Y122558D01*
X114845Y140961D01*
X141500D01*
X141500Y140961D01*
X142280Y141116D01*
X142942Y141558D01*
X147345Y145961D01*
X165000D01*
X165780Y146116D01*
X166442Y146558D01*
X166442Y146558D01*
X175442Y155558D01*
X175884Y156220D01*
X176039Y157000D01*
Y164740D01*
X176170D01*
Y192870D01*
X175824D01*
X175442Y193442D01*
X174780Y193884D01*
X174000Y194039D01*
D02*
G37*
G36*
X-70710Y145290D02*
X-76230D01*
Y138000D01*
Y130710D01*
X-70710D01*
Y134666D01*
X-65000D01*
X-63724Y134920D01*
X-62642Y135642D01*
X-61920Y136724D01*
X-61666Y138000D01*
X-61920Y139276D01*
X-62642Y140358D01*
X-63724Y141080D01*
X-65000Y141334D01*
X-70710D01*
Y145290D01*
D02*
G37*
G36*
X168000Y115500D02*
X155000D01*
Y109834D01*
X145250D01*
Y113250D01*
X132790D01*
Y113790D01*
X127270D01*
Y106500D01*
Y99210D01*
X132790D01*
Y99750D01*
X145250D01*
Y103166D01*
X155000D01*
Y97500D01*
X168000D01*
Y115500D01*
D02*
G37*
G36*
X120000Y122588D02*
X118244Y122239D01*
X116756Y121244D01*
X115761Y119756D01*
X115412Y118000D01*
Y113000D01*
X115761Y111244D01*
X116756Y109756D01*
X118741Y107770D01*
X124730D01*
Y114759D01*
X124588Y114901D01*
Y118000D01*
X124239Y119756D01*
X123244Y121244D01*
X121756Y122239D01*
X120000Y122588D01*
D02*
G37*
G36*
X124730Y105230D02*
X119210D01*
Y99210D01*
X124730D01*
Y105230D01*
D02*
G37*
G36*
X180995Y127000D02*
X179005D01*
X177168Y126239D01*
X175761Y124832D01*
X175000Y122995D01*
Y121005D01*
X175761Y119168D01*
X175912Y119017D01*
Y115500D01*
X174000D01*
Y97500D01*
X187000D01*
Y115500D01*
X185088D01*
Y121500D01*
X185000Y121943D01*
Y122995D01*
X184239Y124832D01*
X182832Y126239D01*
X180995Y127000D01*
D02*
G37*
G36*
X88540Y106040D02*
X79270D01*
Y87270D01*
X88540D01*
Y106040D01*
D02*
G37*
G36*
X76730D02*
X67460D01*
Y87270D01*
X76730D01*
Y106040D01*
D02*
G37*
G36*
X-70005Y95000D02*
X-71995D01*
X-73832Y94239D01*
X-75239Y92832D01*
X-76000Y90995D01*
Y89005D01*
X-75588Y88011D01*
Y85664D01*
X-77002Y84250D01*
X-79250Y84250D01*
X-90250D01*
Y74842D01*
X-90314Y74520D01*
Y64868D01*
X-91832Y64239D01*
X-93239Y62832D01*
X-94000Y60995D01*
Y59005D01*
X-93239Y57168D01*
X-91832Y55761D01*
X-89995Y55000D01*
X-88005D01*
X-86168Y55761D01*
X-84761Y57168D01*
X-84000Y59005D01*
Y60995D01*
X-84137Y61325D01*
X-83900Y61680D01*
X-83646Y62956D01*
Y70750D01*
X-77750Y70750D01*
X-75750Y70750D01*
X-64750D01*
Y84250D01*
X-66412D01*
Y88011D01*
X-66000Y89005D01*
Y90995D01*
X-66761Y92832D01*
X-68168Y94239D01*
X-70005Y95000D01*
D02*
G37*
G36*
X88540Y84730D02*
X79270D01*
Y65960D01*
X88540D01*
Y67000D01*
Y84730D01*
D02*
G37*
G36*
X-68210Y14540D02*
X-73980D01*
Y8270D01*
X-68210D01*
Y14540D01*
D02*
G37*
G36*
X-58000Y-6666D02*
X-59276Y-6920D01*
X-60357Y-7642D01*
X-61080Y-8724D01*
X-61334Y-10000D01*
Y-14710D01*
X-65290D01*
Y-20230D01*
X-58000D01*
X-50710D01*
Y-14710D01*
X-54666D01*
Y-10000D01*
X-54920Y-8724D01*
X-55642Y-7642D01*
X-56724Y-6920D01*
X-58000Y-6666D01*
D02*
G37*
G36*
X-97900Y-18850D02*
X-116900D01*
Y-19930D01*
X-118030Y-20549D01*
X-118900Y-20859D01*
X-120565Y-20170D01*
X-122554D01*
X-124392Y-20931D01*
X-125799Y-22337D01*
X-126560Y-24175D01*
Y-26164D01*
X-125799Y-28002D01*
X-124392Y-29409D01*
X-122554Y-30170D01*
X-120565D01*
X-118900Y-29480D01*
X-118030Y-29791D01*
X-116900Y-30409D01*
Y-34136D01*
X-118900Y-34965D01*
X-119114Y-34750D01*
X-120952Y-33989D01*
X-122941D01*
X-124779Y-34750D01*
X-126185Y-36157D01*
X-126946Y-37995D01*
Y-39984D01*
X-126185Y-41822D01*
X-124779Y-43228D01*
X-122941Y-43989D01*
X-120952D01*
X-119114Y-43228D01*
X-118900Y-43014D01*
X-116900Y-43842D01*
Y-57250D01*
Y-69950D01*
Y-82650D01*
Y-95350D01*
Y-108050D01*
Y-120750D01*
Y-132610D01*
X-117440D01*
Y-138380D01*
X-107400D01*
Y-139650D01*
X-106130D01*
Y-146690D01*
X-97360D01*
Y-144238D01*
X-92757D01*
X-92756Y-144239D01*
X-91000Y-144588D01*
X-89244Y-144239D01*
X-87756Y-143244D01*
X-86761Y-141756D01*
X-86412Y-140000D01*
X-86761Y-138244D01*
X-87756Y-136756D01*
X-88106Y-136406D01*
X-89594Y-135411D01*
X-91350Y-135062D01*
X-97360D01*
Y-132610D01*
X-97900D01*
Y-120750D01*
Y-108050D01*
Y-95350D01*
Y-82650D01*
Y-69950D01*
Y-57250D01*
Y-44550D01*
Y-31850D01*
Y-18850D01*
D02*
G37*
G36*
X-145006Y-48000D02*
X-146995D01*
X-148832Y-48761D01*
X-150239Y-50168D01*
X-151000Y-52005D01*
Y-53995D01*
X-150239Y-55832D01*
X-148832Y-57239D01*
X-146995Y-58000D01*
X-145006D01*
X-143168Y-57239D01*
X-141761Y-55832D01*
X-141000Y-53995D01*
Y-52005D01*
X-141761Y-50168D01*
X-143168Y-48761D01*
X-145006Y-48000D01*
D02*
G37*
G36*
X-50710Y-22770D02*
X-58000D01*
X-65290D01*
Y-28290D01*
X-64750D01*
Y-40750D01*
X-61654D01*
Y-46160D01*
X-66820D01*
Y-59160D01*
X-48820D01*
Y-46160D01*
X-54986D01*
Y-40750D01*
X-51250D01*
Y-28290D01*
X-50710D01*
Y-22770D01*
D02*
G37*
G36*
X231290Y-68770D02*
X225520D01*
Y-75040D01*
X226166D01*
Y-83960D01*
X219960D01*
Y-94230D01*
X229500D01*
X239040D01*
Y-83960D01*
X232834D01*
Y-73250D01*
X232580Y-71974D01*
X231857Y-70893D01*
X231290Y-70325D01*
Y-68770D01*
D02*
G37*
G36*
X239040Y-96770D02*
X230770D01*
Y-107040D01*
X239040D01*
Y-96770D01*
D02*
G37*
G36*
X228230D02*
X219960D01*
Y-107040D01*
X228230D01*
Y-96770D01*
D02*
G37*
G36*
X-108670Y-140920D02*
X-117440D01*
Y-146690D01*
X-108670D01*
Y-140920D01*
D02*
G37*
%LPD*%
G36*
X234381Y218647D02*
X246378D01*
Y216357D01*
X236268Y216352D01*
X234694Y214778D01*
X229360Y214778D01*
X219962D01*
Y223668D01*
X229360D01*
X234381Y218647D01*
D02*
G37*
G36*
X300666Y211285D02*
Y202381D01*
X275619Y177334D01*
X275371D01*
X273750Y178250D01*
Y191750D01*
X271348D01*
X271047Y193750D01*
X273881Y196584D01*
X274604Y197666D01*
X274858Y198942D01*
Y204350D01*
X276500D01*
Y210824D01*
X278500Y211653D01*
X278598Y211555D01*
X280435Y210794D01*
X282425D01*
X284262Y211555D01*
X285669Y212962D01*
X286430Y214799D01*
Y216789D01*
X286274Y217166D01*
X286510Y217519D01*
X288000Y218750D01*
X293201D01*
X300666Y211285D01*
D02*
G37*
G36*
X180338Y264308D02*
Y231034D01*
X199134Y212238D01*
X212850D01*
X214628Y210460D01*
Y200300D01*
X216152Y198776D01*
X231646Y198776D01*
X232408Y199538D01*
Y212209D01*
X232907Y212708D01*
X235598D01*
X236434Y213509D01*
X236704Y213508D01*
X237482Y213502D01*
X237742Y213762D01*
X246518D01*
Y211362D01*
Y211122D01*
X240436D01*
X240082Y210768D01*
X238634Y210777D01*
X238507Y210650D01*
X238500D01*
Y204350D01*
X238504D01*
Y203765D01*
X238758Y203511D01*
Y195220D01*
X235202Y191664D01*
X188974D01*
X166876Y213762D01*
X133856D01*
X113282Y234336D01*
Y265070D01*
X119378Y271166D01*
X173480D01*
X180338Y264308D01*
D02*
G37*
G36*
X174000Y157000D02*
X165000Y148000D01*
X146500D01*
X141500Y143000D01*
X114000D01*
X95000Y124000D01*
X72000D01*
X69000Y127000D01*
Y157000D01*
X72000Y160000D01*
X120000Y160000D01*
X121000Y161000D01*
Y192000D01*
X174000D01*
Y157000D01*
D02*
G37*
%LPC*%
G36*
X-280210Y144730D02*
X-286230D01*
Y139210D01*
X-280210D01*
Y144730D01*
D02*
G37*
G36*
X-279960Y126290D02*
X-286230D01*
Y120520D01*
X-279960D01*
Y126290D01*
D02*
G37*
G36*
X-140220Y51280D02*
X-146490D01*
Y46388D01*
X-149200D01*
X-149488Y46331D01*
X-150706D01*
X-152000Y46588D01*
X-153756Y46239D01*
X-155244Y45244D01*
X-156239Y43756D01*
X-156588Y42000D01*
X-156239Y40244D01*
X-155244Y38756D01*
X-154987Y38498D01*
X-153498Y37504D01*
X-151743Y37155D01*
X-149257D01*
X-148969Y37212D01*
X-142450D01*
X-140694Y37561D01*
X-140396Y37760D01*
X-140220D01*
Y51280D01*
D02*
G37*
G36*
X-131410D02*
X-137680D01*
Y37760D01*
X-131410D01*
Y51280D01*
D02*
G37*
G36*
X332631Y32000D02*
X330129D01*
X327713Y31353D01*
X325547Y30102D01*
X323778Y28333D01*
X322527Y26167D01*
X321880Y23751D01*
Y21249D01*
X322527Y18833D01*
X323778Y16667D01*
X325547Y14898D01*
X327713Y13647D01*
X330129Y13000D01*
X332631D01*
X335047Y13647D01*
X337213Y14898D01*
X338982Y16667D01*
X340233Y18833D01*
X340880Y21249D01*
Y23751D01*
X340233Y26167D01*
X338982Y28333D01*
X337213Y30102D01*
X335047Y31353D01*
X332631Y32000D01*
D02*
G37*
G36*
X336251Y-5500D02*
X333749D01*
X331333Y-6147D01*
X329167Y-7398D01*
X327398Y-9167D01*
X326147Y-11333D01*
X325500Y-13749D01*
Y-16251D01*
X326147Y-18667D01*
X327398Y-20833D01*
X329167Y-22602D01*
X331333Y-23853D01*
X333749Y-24500D01*
X336251D01*
X338667Y-23853D01*
X340833Y-22602D01*
X342602Y-20833D01*
X343853Y-18667D01*
X344500Y-16251D01*
Y-13749D01*
X343853Y-11333D01*
X342602Y-9167D01*
X340833Y-7398D01*
X338667Y-6147D01*
X336251Y-5500D01*
D02*
G37*
G36*
Y-115500D02*
X333749D01*
X331333Y-116147D01*
X329167Y-117398D01*
X327398Y-119167D01*
X326147Y-121333D01*
X325500Y-123749D01*
Y-126251D01*
X326147Y-128667D01*
X327398Y-130833D01*
X329167Y-132602D01*
X331333Y-133853D01*
X333749Y-134500D01*
X336251D01*
X338667Y-133853D01*
X340833Y-132602D01*
X342602Y-130833D01*
X343853Y-128667D01*
X344500Y-126251D01*
Y-123749D01*
X343853Y-121333D01*
X342602Y-119167D01*
X340833Y-117398D01*
X338667Y-116147D01*
X336251Y-115500D01*
D02*
G37*
G36*
X150790Y-117460D02*
X145020D01*
Y-125000D01*
Y-132540D01*
X150790D01*
Y-129588D01*
X154730D01*
X156486Y-129239D01*
X157974Y-128244D01*
X158969Y-126756D01*
X159318Y-125000D01*
X158969Y-123244D01*
X157974Y-121756D01*
X156486Y-120761D01*
X154730Y-120412D01*
X150790D01*
Y-117460D01*
D02*
G37*
G36*
X204230Y-127960D02*
X195960D01*
Y-138230D01*
X204230D01*
Y-127960D01*
D02*
G37*
G36*
X-218006Y-184000D02*
X-219995D01*
X-221832Y-184761D01*
X-223239Y-186168D01*
X-224000Y-188005D01*
Y-189995D01*
X-223239Y-191832D01*
X-221832Y-193239D01*
X-219995Y-194000D01*
X-218715D01*
X-218500Y-194215D01*
Y-199500D01*
X-201500D01*
Y-190000D01*
X-213285D01*
X-214000Y-189285D01*
Y-188005D01*
X-214761Y-186168D01*
X-216168Y-184761D01*
X-218006Y-184000D01*
D02*
G37*
G36*
X299500Y-180500D02*
X282500D01*
Y-190000D01*
X288316D01*
X288739Y-190875D01*
X288929Y-192000D01*
X287761Y-193168D01*
X287000Y-195005D01*
Y-196995D01*
X287761Y-198832D01*
X289168Y-200239D01*
X291005Y-201000D01*
X292995D01*
X294832Y-200239D01*
X296239Y-198832D01*
X297000Y-196995D01*
Y-195005D01*
X296934Y-194845D01*
X297108Y-194671D01*
X297830Y-193590D01*
X298084Y-192314D01*
Y-190000D01*
X299500D01*
Y-180500D01*
D02*
G37*
G36*
X266870Y-204125D02*
X264880D01*
X263043Y-204886D01*
X261636Y-206293D01*
X260875Y-208130D01*
Y-210119D01*
X261173Y-210838D01*
X259901Y-212835D01*
X255145D01*
Y-219625D01*
X253875D01*
Y-220895D01*
X246585D01*
Y-226415D01*
X247125D01*
Y-238875D01*
X255910D01*
X258768Y-241733D01*
X259849Y-242455D01*
X261125Y-242709D01*
X270375D01*
Y-244125D01*
X272976D01*
X273804Y-246125D01*
X273636Y-246293D01*
X272875Y-248130D01*
Y-250119D01*
X273636Y-251957D01*
X275043Y-253364D01*
X276880Y-254125D01*
X278870D01*
X280707Y-253364D01*
X282114Y-251957D01*
X282875Y-250119D01*
Y-248130D01*
X282114Y-246293D01*
X281946Y-246125D01*
X282775Y-244125D01*
X287375D01*
Y-234625D01*
X270375D01*
Y-236041D01*
X262506D01*
X260625Y-234160D01*
Y-229098D01*
X262625Y-228546D01*
X263849Y-229364D01*
X265604Y-229713D01*
X265875D01*
X267631Y-229364D01*
X269119Y-228369D01*
X270114Y-226881D01*
X270463Y-225125D01*
X270114Y-223369D01*
X269119Y-221881D01*
X268304Y-221336D01*
X265099Y-218131D01*
X263610Y-217136D01*
X261854Y-216787D01*
X261165D01*
Y-214314D01*
X263043Y-213364D01*
X264880Y-214125D01*
X266160D01*
X267267Y-215233D01*
X268349Y-215955D01*
X269625Y-216209D01*
X270375D01*
Y-217625D01*
X287375D01*
Y-208125D01*
X270873D01*
X270114Y-206293D01*
X268707Y-204886D01*
X266870Y-204125D01*
D02*
G37*
G36*
X252605Y-212835D02*
X246585D01*
Y-218355D01*
X252605D01*
Y-212835D01*
D02*
G37*
G36*
X-151500Y-216500D02*
X-168500D01*
Y-223674D01*
X-170021Y-225195D01*
X-171605D01*
X-173443Y-225956D01*
X-174850Y-227363D01*
X-175611Y-229201D01*
Y-231190D01*
X-174850Y-233027D01*
X-173443Y-234434D01*
X-171605Y-235195D01*
X-169616D01*
X-167778Y-234434D01*
X-166372Y-233027D01*
X-165611Y-231190D01*
Y-229436D01*
X-162174Y-226000D01*
X-151500D01*
Y-223020D01*
X-151170Y-222526D01*
X-150916Y-221250D01*
X-151170Y-219974D01*
X-151500Y-219480D01*
Y-216500D01*
D02*
G37*
G36*
X-176500D02*
X-193500D01*
Y-225785D01*
X-193715Y-226000D01*
X-194995D01*
X-196832Y-226761D01*
X-198239Y-228168D01*
X-199000Y-230005D01*
Y-231995D01*
X-198239Y-233832D01*
X-197375Y-234696D01*
X-198361Y-236539D01*
X-199000Y-236412D01*
X-200756Y-236761D01*
X-201460Y-237232D01*
X-203460Y-236249D01*
Y-231960D01*
X-208730D01*
Y-242500D01*
Y-253040D01*
X-203460D01*
Y-248588D01*
X-202000D01*
X-200244Y-248239D01*
X-198756Y-247244D01*
X-195756Y-244244D01*
X-194761Y-242756D01*
X-194412Y-241000D01*
X-194761Y-239244D01*
X-195694Y-237848D01*
X-195511Y-237192D01*
X-195246Y-236580D01*
X-194783Y-236000D01*
X-193006D01*
X-191168Y-235239D01*
X-189761Y-233832D01*
X-189000Y-231995D01*
Y-230715D01*
X-184285Y-226000D01*
X-176500D01*
Y-216500D01*
D02*
G37*
G36*
X157730Y-232960D02*
X153460D01*
Y-233412D01*
X147000D01*
X145244Y-233761D01*
X143756Y-234756D01*
X142761Y-236244D01*
X142412Y-238000D01*
X142761Y-239756D01*
X143756Y-241244D01*
X145244Y-242239D01*
X147000Y-242588D01*
X153460D01*
Y-253540D01*
X157730D01*
Y-243250D01*
Y-232960D01*
D02*
G37*
G36*
X336576Y-249000D02*
X333424D01*
X330333Y-249615D01*
X327421Y-250821D01*
X324801Y-252572D01*
X322572Y-254801D01*
X320821Y-257421D01*
X319615Y-260333D01*
X319000Y-263424D01*
Y-266576D01*
X319615Y-269667D01*
X320821Y-272579D01*
X322572Y-275199D01*
X324801Y-277428D01*
X327421Y-279179D01*
X330333Y-280385D01*
X333424Y-281000D01*
X336576D01*
X339667Y-280385D01*
X342579Y-279179D01*
X345199Y-277428D01*
X347428Y-275199D01*
X349179Y-272579D01*
X350385Y-269667D01*
X351000Y-266576D01*
Y-263424D01*
X350385Y-260333D01*
X349179Y-257421D01*
X347428Y-254801D01*
X345199Y-252572D01*
X342579Y-250821D01*
X339667Y-249615D01*
X336576Y-249000D01*
D02*
G37*
G36*
X120500Y-254500D02*
X95500D01*
Y-288500D01*
X120500D01*
Y-254500D01*
D02*
G37*
G36*
X7000D02*
X-18000D01*
Y-288500D01*
X7000D01*
Y-254500D01*
D02*
G37*
G36*
X-24500D02*
X-49500D01*
Y-288500D01*
X-24500D01*
Y-254500D01*
D02*
G37*
G36*
X-138000D02*
X-163000D01*
Y-288500D01*
X-138000D01*
Y-254500D01*
D02*
G37*
%LPD*%
D11*
X-35000Y62250D02*
X-34125Y63125D01*
X-6625D01*
X16625Y53125D02*
Y58125D01*
X10000Y64750D02*
X10750Y64000D01*
X16375Y58375D02*
X16625Y58125D01*
X10750Y60132D02*
Y64000D01*
X12507Y58375D02*
X16375D01*
X10750Y60132D02*
X12507Y58375D01*
X-9750Y136750D02*
X-6899D01*
X-10250Y137250D02*
X-9750Y136750D01*
X-10250Y137250D02*
X-10250Y137250D01*
X-15500Y137250D02*
X-10250D01*
X-24500Y128250D02*
X-15500Y137250D01*
X-29000Y128250D02*
X-24500D01*
X-6899Y136750D02*
X-4000Y133851D01*
X-500Y117500D02*
X-0Y117000D01*
X-500Y117500D02*
Y119322D01*
X-600Y119422D02*
X-500Y119322D01*
X-600Y119422D02*
Y120451D01*
X-4000Y123851D02*
X-600Y120451D01*
X-4000Y123851D02*
Y133851D01*
X15500Y142500D02*
X21000Y148000D01*
X10000Y142500D02*
X15500D01*
X-26703Y139953D02*
Y141297D01*
X-25000Y143000D02*
X-18000D01*
X-26703Y141297D02*
X-25000Y143000D01*
X-18000D02*
X-13350Y147650D01*
X-9875Y75750D02*
X-0Y65875D01*
Y64750D02*
X5000D01*
X-0Y65875D02*
Y88000D01*
Y64750D02*
Y65875D01*
X500Y139149D02*
X2299Y137350D01*
X500Y139149D02*
Y142000D01*
X2299Y137350D02*
X7701D01*
X9500Y139149D01*
X-463Y142963D02*
Y146030D01*
X-13350Y147650D02*
X-2083D01*
X-463Y146030D01*
X-0Y142500D02*
X500Y142000D01*
X-463Y142963D02*
X-0Y142500D01*
X9500Y139149D02*
Y142000D01*
X10000Y142500D01*
X-1750Y89750D02*
X-0Y88000D01*
X82000Y-125000D02*
X83238D01*
X90243Y-132005D01*
X90243D01*
X99000Y-142000D02*
Y-140762D01*
X90243Y-132005D02*
X99000Y-140762D01*
X84000Y-120000D02*
X84588D01*
X103922Y-140056D02*
Y-139334D01*
Y-140056D02*
X104112Y-140247D01*
X84588Y-120000D02*
X103922Y-139334D01*
X10000Y156000D02*
X30000D01*
X36000Y150000D01*
X5500Y151500D02*
X10000Y156000D01*
X5500Y143000D02*
Y151500D01*
X5000Y142500D02*
X5500Y143000D01*
X280094Y229256D02*
X281176D01*
X278338Y227500D02*
X280094Y229256D01*
X271500Y227500D02*
X278338D01*
X269770Y232650D02*
Y237354D01*
Y232650D02*
X269920Y232500D01*
X271500D01*
X277000Y232350D02*
X280094Y229256D01*
X271650Y232350D02*
X277000D01*
X271500Y232500D02*
X271650Y232350D01*
X243500Y232500D02*
X245080D01*
X245230Y232650D01*
Y238522D01*
X236500Y222500D02*
X243500D01*
X236000Y223000D02*
X236500Y222500D01*
X271524Y205380D02*
Y207476D01*
X271500Y207500D02*
X271524Y207476D01*
X-119900Y-170000D02*
X-118900Y-169000D01*
X-169000Y-230000D02*
Y-228500D01*
X-161750Y-221250D01*
X-166328Y-194671D02*
X-161828D01*
X-178100Y-182900D02*
X-166328Y-194671D01*
X-161828D02*
X-161750Y-194750D01*
X-178100Y-182900D02*
Y-178300D01*
X-183400Y-173000D02*
X-178100Y-178300D01*
X-183400Y-173000D02*
Y-170000D01*
X5000Y40000D02*
Y46500D01*
X-13770Y52770D02*
Y56953D01*
X-12599Y58125D01*
X-6625D01*
X89000Y-118000D02*
Y-118000D01*
Y-118000D02*
X109000Y-138000D01*
X-251400Y159000D02*
X-250900Y159500D01*
X-287500Y159000D02*
X-251400D01*
D13*
X213625Y-194625D02*
X236125D01*
X266500Y-165250D02*
X273000Y-158750D01*
X236125Y-194625D02*
X265500Y-165250D01*
X266000Y-190000D02*
Y-178750D01*
X265500Y-165250D02*
X266000D01*
X275125Y-212875D02*
X282625D01*
X269625D02*
X275125D01*
X261125Y-239375D02*
X275125D01*
X265875Y-209125D02*
X269625Y-212875D01*
X273000Y-158750D02*
X287250D01*
X292000Y-195064D02*
X294750Y-192314D01*
Y-185250D01*
X287250D02*
X294750D01*
X292000Y-196000D02*
Y-195064D01*
X287250Y-158750D02*
X294750D01*
X253875Y-232625D02*
X254375D01*
X261125Y-239375D01*
X275125D02*
X282625D01*
X128064Y-85000D02*
X129000D01*
X125564Y-82500D02*
X128064Y-85000D01*
X107380Y-82500D02*
X125564D01*
X166000Y-147000D02*
X213625Y-194625D01*
X32500Y-246500D02*
Y-242500D01*
Y-246500D02*
X37730Y-251730D01*
Y-251854D02*
Y-251730D01*
Y-251854D02*
X39646Y-253770D01*
X87854D01*
X89000Y-95000D02*
X89936D01*
X92436Y-92500D01*
X107380D01*
X89770Y-251854D02*
Y-192770D01*
X74000Y-177000D02*
X89770Y-192770D01*
X29770Y-245230D02*
X32500Y-242500D01*
X29770Y-254294D02*
Y-245230D01*
X28000Y-256064D02*
X29770Y-254294D01*
X28000Y-257000D02*
Y-256064D01*
X74000Y-157180D02*
X74308Y-156873D01*
X74000Y-177000D02*
Y-157180D01*
X87854Y-253770D02*
X89770Y-251854D01*
X102190Y-239434D01*
X108566D01*
X109000Y-239000D01*
X229500Y-161750D02*
Y-139500D01*
X224250Y-167000D02*
X229500Y-161750D01*
X224250Y-167500D02*
Y-167000D01*
X218690Y-139500D02*
X229500D01*
X216272Y-137082D02*
X218690Y-139500D01*
X216272Y-137082D02*
Y-129648D01*
X196624Y-110000D02*
X216272Y-129648D01*
X137500Y-110000D02*
X196624D01*
X130000Y-102500D02*
X137500Y-110000D01*
X107380Y-102500D02*
X130000D01*
X-32500Y-134250D02*
X-23690D01*
X-18587Y-129148D01*
Y-127832D01*
X-13255Y-122500D01*
X-7380D01*
X3000Y-11000D02*
Y-7000D01*
Y-11000D02*
X12270Y-20270D01*
X-1000Y-3000D02*
X3000Y-7000D01*
X87500Y-153565D02*
Y-142380D01*
X96770Y-164270D02*
X100000Y-167500D01*
X87500Y-153565D02*
X96770Y-162835D01*
Y-164270D02*
Y-162835D01*
X12270Y-27390D02*
X12500Y-27620D01*
X107380Y-62500D02*
X107610Y-62270D01*
X107380Y-122500D02*
X113255D01*
X115755Y-125000D02*
X130250D01*
X113255Y-122500D02*
X115755Y-125000D01*
X116110Y-62270D02*
X124399Y-53980D01*
X107610Y-62270D02*
X116110D01*
X124399Y-53980D02*
X126270D01*
X132000Y-48250D01*
X132500D01*
X150000D01*
X12270Y-27390D02*
Y-20270D01*
X77730Y-27390D02*
Y-16830D01*
X77500Y-27620D02*
X77730Y-27390D01*
X83250Y-11310D02*
Y-2500D01*
X10000Y64750D02*
Y84000D01*
X77730Y-16830D02*
X83250Y-11310D01*
X-300000Y106000D02*
X-299750Y105750D01*
X-270000Y117000D02*
X-269500Y117500D01*
X-33309Y-161980D02*
X-30329Y-159000D01*
X-44512Y-161980D02*
X-33309D01*
X-46000Y-163468D02*
X-44512Y-161980D01*
X-46000Y-164000D02*
Y-163468D01*
X28809Y-209809D02*
Y-200309D01*
X-28750Y-117500D02*
X-7380D01*
X-32000Y-120750D02*
X-28750Y-117500D01*
X-299000Y119000D02*
X-298750Y119250D01*
X-300000Y146000D02*
X-300000Y146000D01*
X-287500D01*
X-77500Y138000D02*
X-65000D01*
X86500Y-167500D02*
Y-167000D01*
X82500Y-163000D02*
Y-142380D01*
Y-163000D02*
X86500Y-167000D01*
X17448Y-27568D02*
X17500Y-27620D01*
X82500D02*
X82730Y-27390D01*
X12500Y-11487D02*
Y-2500D01*
X17448Y-27568D02*
Y-16435D01*
X12500Y-11487D02*
X17448Y-16435D01*
X82730Y-18891D02*
X91020Y-10601D01*
X107380Y-67500D02*
X126250D01*
X132000Y-61750D02*
X132500D01*
X126250Y-67500D02*
X132000Y-61750D01*
X82730Y-27390D02*
Y-18891D01*
X91020Y-10601D02*
Y-8730D01*
X96750Y-3000D02*
Y-2500D01*
X91020Y-8730D02*
X96750Y-3000D01*
X198500Y-167500D02*
X210750D01*
X198000Y-168000D02*
X198500Y-167500D01*
X210750D02*
Y-167000D01*
X205500Y-161750D02*
X210750Y-167000D01*
X205500Y-161750D02*
Y-139500D01*
X132500Y-61750D02*
X150000D01*
X224250Y-68000D02*
X229500Y-73250D01*
X224250Y-67500D02*
Y-55750D01*
X229500Y-95500D02*
Y-73250D01*
X224250Y-55750D02*
X225000Y-55000D01*
X-58000Y-21500D02*
Y-10000D01*
X243500Y207500D02*
X253490D01*
Y207158D02*
Y207500D01*
X-207800Y-97500D02*
X-193800D01*
X-207800Y-111500D02*
Y-97500D01*
X-221800Y-83500D02*
X-207800D01*
X-221800Y-97500D02*
Y-83500D01*
X-207800D02*
X-193800D01*
X-207800Y-111500D02*
X-193800D01*
Y-97500D02*
X-178500D01*
X-193800Y-83500D02*
X-178500D01*
X-178000Y-84000D01*
X-193800Y-97500D02*
Y-83500D01*
X-178500Y-111500D02*
X-178000Y-112000D01*
X-193800Y-111500D02*
X-178500D01*
X-221000Y-126000D02*
Y-125064D01*
X-221800Y-124264D02*
X-221000Y-125064D01*
X-221800Y-124264D02*
Y-97500D01*
X-194000Y-126000D02*
Y-111700D01*
X-193800Y-111500D01*
X-207800D02*
X-207000Y-112300D01*
Y-125000D02*
Y-112300D01*
X169000Y-243250D02*
Y-228936D01*
X171000Y-226936D02*
Y-226000D01*
X169000Y-228936D02*
X171000Y-226936D01*
X209000Y-243250D02*
Y-228000D01*
X199000Y-243250D02*
Y-228000D01*
X109000Y-138000D02*
X199000Y-228000D01*
X189000Y-243250D02*
Y-225135D01*
X104112Y-140247D02*
X189000Y-225135D01*
X99000Y-142000D02*
X179000Y-222000D01*
Y-243250D02*
Y-222000D01*
X209000Y-248000D02*
Y-243250D01*
Y-248000D02*
X215000Y-254000D01*
Y-262000D02*
Y-254000D01*
X137822Y-86000D02*
X147000D01*
X132552Y-91270D02*
X137822Y-86000D01*
X124311Y-91270D02*
X132552D01*
X120541Y-87500D02*
X124311Y-91270D01*
X107380Y-87500D02*
X120541D01*
X176000Y-257512D02*
Y-251000D01*
X187000Y-255190D02*
X187380Y-254810D01*
X161000Y-267000D02*
X161662Y-266338D01*
Y-265338D01*
X174512Y-259000D02*
X176000Y-257512D01*
X168000Y-259000D02*
X174512D01*
X161662Y-265338D02*
X168000Y-259000D01*
X187000Y-262000D02*
Y-255190D01*
X176000Y-251000D02*
X179000Y-248000D01*
X187380Y-254810D02*
Y-244870D01*
X189000Y-243250D01*
X199000Y-267064D02*
Y-243250D01*
X195000Y-272000D02*
Y-271064D01*
X199000Y-267064D01*
X59500Y-102500D02*
X82000Y-125000D01*
X-7380Y-102500D02*
X59500D01*
X61500Y-97500D02*
X84000Y-120000D01*
X-7380Y-97500D02*
X61500D01*
X27000Y-228000D02*
X37000D01*
X16000Y-217000D02*
Y-216000D01*
Y-217000D02*
X27000Y-228000D01*
X271500Y222500D02*
X290000D01*
X290000Y222500D01*
X207500Y185000D02*
X225000D01*
X293622Y222544D02*
X294122D01*
X225000Y185000D02*
X235000D01*
X246000Y174000D01*
X277000D01*
X304000Y201000D01*
X294122Y222544D02*
X304000Y212666D01*
Y201000D02*
Y212666D01*
X280494Y215794D02*
X281430D01*
X271500Y217500D02*
X278788D01*
X280494Y215794D01*
X246976Y240268D02*
X266856D01*
X269770Y237354D01*
X245750Y240268D02*
Y255000D01*
X245230Y238522D02*
X246976Y240268D01*
X231980Y227020D02*
X236000Y223000D01*
X215770Y227020D02*
X231980D01*
X208000Y219250D02*
X215770Y227020D01*
X207500Y219250D02*
X208000D01*
X243380Y227620D02*
X243500Y227500D01*
X239606Y227620D02*
X243380D01*
X225480Y241745D02*
X239606Y227620D01*
X225480Y241745D02*
Y244520D01*
X222500Y247500D02*
X225480Y244520D01*
X267500Y185000D02*
Y194918D01*
X271524Y198942D01*
Y205380D01*
X174000Y-60000D02*
Y-15000D01*
X156500Y-77500D02*
X174000Y-60000D01*
X100000Y59000D02*
X174000Y-15000D01*
X107380Y-77500D02*
X156500D01*
X-122524Y-156000D02*
X-40954D01*
X-129370Y-162845D02*
X-122524Y-156000D01*
X-40954D02*
X-36434Y-151480D01*
X-202000Y-148000D02*
X-195000Y-155000D01*
X-276000Y-148000D02*
X-202000D01*
X-16000Y50540D02*
X-13770Y52770D01*
X-16000Y-8000D02*
Y50540D01*
Y-8000D02*
X3000Y-27000D01*
Y-37000D02*
Y-27000D01*
X4000Y128000D02*
X9770Y122230D01*
Y117230D02*
Y122230D01*
Y117230D02*
X10000Y117000D01*
X42000Y116000D02*
X58000Y100000D01*
X16000Y122250D02*
X22250Y116000D01*
X42000D01*
X15250Y122250D02*
X16000D01*
X99000Y59000D02*
X100000D01*
X-9770Y-47500D02*
X-7380D01*
X-10000Y-47270D02*
X-9770Y-47500D01*
X-10000Y-47270D02*
Y-25000D01*
X-33000Y-17000D02*
Y-16000D01*
X-43170Y-5830D02*
X-33000Y-16000D01*
X-43170Y-5830D02*
Y83665D01*
X-41000Y85835D01*
Y114000D01*
X50000Y79000D02*
X83000Y46000D01*
X89000D01*
X50000Y79000D02*
Y85000D01*
X27460Y107540D02*
X50000Y85000D01*
X89000Y46000D02*
X117310Y17690D01*
Y-11310D02*
Y17690D01*
X1227Y107540D02*
X27460D01*
X-5000Y117000D02*
X-4770Y116770D01*
Y113537D02*
Y116770D01*
Y113537D02*
X1227Y107540D01*
X13000Y103000D02*
X104420Y11580D01*
X-7000Y103000D02*
X13000D01*
X104420Y-12580D02*
Y11580D01*
X-10250Y106250D02*
Y122250D01*
Y106250D02*
X-7000Y103000D01*
X-10480Y127020D02*
X-10250Y127250D01*
X-13713Y127020D02*
X-10480D01*
X-21338Y119395D02*
X-13713Y127020D01*
X-21338Y115662D02*
Y119395D01*
X-22000Y115000D02*
X-21338Y115662D01*
X24000Y81000D02*
Y81000D01*
Y81000D02*
X77000Y28000D01*
X98000Y-19000D02*
X104420Y-12580D01*
X-108270Y-211730D02*
X-108000Y-212000D01*
X-108270Y-211730D02*
Y-203230D01*
X-111500Y-200000D02*
X-108270Y-203230D01*
X-147000Y-168300D02*
X-145300Y-170000D01*
X-147000Y-168300D02*
Y-155000D01*
X-128730Y71770D02*
X-125000Y75500D01*
X-141604Y71770D02*
X-128730D01*
X-167470Y45904D02*
X-141604Y71770D01*
X-167470Y8230D02*
Y45904D01*
X-170700Y5000D02*
X-167470Y8230D01*
X-125000Y75500D02*
X-118730D01*
X-115000Y71770D01*
Y60000D02*
Y71770D01*
X-89000Y60000D02*
Y60936D01*
X-86980Y62956D01*
Y74520D01*
X-84000Y77500D01*
X-161000Y-173000D02*
X-158000Y-170000D01*
X-161000Y-177512D02*
Y-173000D01*
Y-177512D02*
X-156512Y-182000D01*
X-106000D01*
X-96000Y-172000D01*
X-30329D01*
X38000D01*
X57500Y-152500D01*
Y-142380D01*
X-276000Y-148000D02*
Y-124076D01*
X-192674Y-40750D01*
X-161726D01*
X-188750Y-194250D02*
X-181250D01*
X-161726Y-40750D02*
X-124830Y-3854D01*
Y-2930D01*
X-119900Y2000D01*
Y5000D02*
Y8000D01*
Y2000D02*
Y5000D01*
Y8000D02*
X-102900Y25000D01*
X-88750Y7000D02*
Y24750D01*
X-102900Y25000D02*
X-88500D01*
X-88750Y24750D02*
X-88500Y25000D01*
X-193803Y-189197D02*
Y-185697D01*
X-194465Y-185035D02*
X-193803Y-185697D01*
Y-189197D02*
X-188750Y-194250D01*
X-236000Y-241500D02*
Y-228000D01*
Y-241500D02*
X-232270Y-245230D01*
X-232000Y-266726D02*
Y-250718D01*
X-232270Y-250448D02*
Y-245230D01*
X-232000Y-266726D02*
X-227886Y-270839D01*
X-232270Y-250448D02*
X-232000Y-250718D01*
X-9404Y-210404D02*
X14000Y-187000D01*
X-47028Y-210404D02*
X-9404D01*
X-69770Y-233146D02*
X-47028Y-210404D01*
X-69770Y-233270D02*
Y-233146D01*
X-75000Y-238500D02*
X-69770Y-233270D01*
X-75000Y-242500D02*
Y-238500D01*
X32500Y-142380D02*
X32730Y-142610D01*
X-75000Y-246500D02*
Y-242500D01*
X-80230Y-251730D02*
X-75000Y-246500D01*
X-80230Y-251854D02*
Y-251730D01*
X-89375Y-261000D02*
X-80230Y-251854D01*
X-104000Y-261000D02*
X-89375D01*
X32730Y-152486D02*
X35730Y-155485D01*
X32730Y-152486D02*
Y-142610D01*
X35730Y-156422D02*
Y-155485D01*
X-16864Y-205864D02*
X1000Y-188000D01*
X-54988Y-205864D02*
X-16864D01*
X-82270Y-233146D02*
X-54988Y-205864D01*
X-82270Y-233270D02*
Y-233146D01*
X-87500Y-238500D02*
X-82270Y-233270D01*
X-87500Y-242500D02*
Y-238500D01*
Y-246500D02*
Y-242500D01*
X-89000Y-248000D02*
X-87500Y-246500D01*
X26122Y-159488D02*
X27500Y-158111D01*
Y-142380D01*
X26122Y-160425D02*
Y-159488D01*
X-24324Y-201324D02*
X-11000Y-188000D01*
X-62948Y-201324D02*
X-24324D01*
X-94770Y-233146D02*
X-62948Y-201324D01*
X-94770Y-233270D02*
Y-233146D01*
X-100000Y-238500D02*
X-94770Y-233270D01*
X-100000Y-242500D02*
Y-238500D01*
X22500Y-153869D02*
Y-142380D01*
X-100000Y-246500D02*
Y-242500D01*
X-105230Y-251730D02*
X-100000Y-246500D01*
X-105230Y-251854D02*
Y-251730D01*
X-114375Y-261000D02*
X-105230Y-251854D01*
X-130000Y-261000D02*
X-114375D01*
X16028Y-159259D02*
X16964D01*
X20558Y-155665D01*
X20704D01*
X22500Y-153869D01*
X17270Y-142610D02*
X17500Y-142380D01*
X17270Y-151110D02*
Y-142610D01*
X15354Y-153025D02*
X17270Y-151110D01*
X-107270Y-233146D02*
X-70908Y-196784D01*
X-107270Y-233270D02*
Y-233146D01*
X-112500Y-238500D02*
X-107270Y-233270D01*
X-112500Y-242500D02*
Y-238500D01*
X-70908Y-196784D02*
X-29784D01*
X-21000Y-188000D01*
X-112500Y-245500D02*
Y-242500D01*
X-114000Y-247000D02*
X-112500Y-245500D01*
X10975Y-153025D02*
X15354D01*
X5000Y-159000D02*
X10975Y-153025D01*
X-288292Y-246232D02*
Y-207418D01*
X-262830Y-181956D01*
X118039Y-137039D02*
X209000Y-228000D01*
X118039Y-137039D02*
Y-136135D01*
X-57820Y-71660D02*
X-55320D01*
X-49480Y-77500D01*
X-7380D01*
X242000Y188000D02*
X251520D01*
X254500Y185000D02*
Y185020D01*
X251520Y188000D02*
X254500Y185020D01*
X-118900Y-169000D02*
X-107000D01*
X-58320Y-52160D02*
X-57820Y-52660D01*
X-58320Y-52160D02*
Y-36160D01*
X-144662Y-200338D02*
X-144000Y-201000D01*
X-154250Y-194750D02*
X-148662Y-200338D01*
X-161750Y-221250D02*
X-154250D01*
X-148662Y-200338D02*
X-144662D01*
X-129370Y-166770D02*
Y-162845D01*
X-132600Y-170000D02*
X-129370Y-166770D01*
X-183750Y-220750D02*
X-181250D01*
X-188750D02*
X-183750D01*
X-194000Y-231000D02*
X-183750Y-220750D01*
X-161682Y-196055D02*
X-154182D01*
X139000Y106500D02*
X161500D01*
X5000Y40000D02*
X10261Y34739D01*
X-7380Y-62500D02*
X7500D01*
X13000Y-68000D01*
X3500Y-52500D02*
X7000Y-56000D01*
X-7380Y-52500D02*
X3500D01*
X107150Y-72270D02*
X107380Y-72500D01*
X98651Y-72270D02*
X107150D01*
X88000Y-61620D02*
X98651Y-72270D01*
X88000Y-61620D02*
Y-50000D01*
X27500Y-27620D02*
X27730Y-27850D01*
Y-36349D02*
Y-27850D01*
Y-36349D02*
X29646Y-38265D01*
X90354D01*
X117310Y-11310D01*
X-121560Y-25170D02*
X-107580D01*
X-107400Y-25350D01*
X-121946Y-38989D02*
X-108339D01*
X-107400Y-38050D01*
X-221719Y-212781D02*
X-213750Y-220750D01*
X-221863Y-212781D02*
X-221719D01*
X-222500Y-242500D02*
X-220000Y-245000D01*
Y-254000D02*
Y-245000D01*
X-32540Y-186540D02*
X-25822Y-179822D01*
X21322D01*
X-159264Y-186540D02*
X-32540D01*
X-172178Y-171478D02*
X-167470Y-176186D01*
Y-178334D02*
Y-176186D01*
X24020Y-183020D02*
Y-182520D01*
Y-183020D02*
X27000Y-186000D01*
X-167470Y-178334D02*
X-159264Y-186540D01*
X21322Y-179822D02*
X24020Y-182520D01*
X27000Y-186000D02*
X27500D01*
X29904Y-183596D02*
X34404D01*
X-172178Y-171478D02*
X-170700Y-170000D01*
X34404Y-183596D02*
X62500Y-155500D01*
Y-142380D01*
X-259178Y-160178D02*
X-254000Y-155000D01*
X-225000D01*
X-259178Y-169578D02*
Y-160178D01*
X-262830Y-173230D02*
X-259178Y-169578D01*
X-219000Y-189000D02*
X-219000D01*
X-213750Y-194250D01*
X-206250D01*
X-213750Y-220750D02*
X-206250D01*
X-267338Y-223662D02*
X-260000Y-231000D01*
Y-255000D02*
Y-231000D01*
X-280338Y-223662D02*
X-267338D01*
X-281000Y-223000D02*
X-280338Y-223662D01*
X-247500Y-242500D02*
X-245000Y-245000D01*
Y-254000D02*
Y-245000D01*
X-262830Y-181956D02*
Y-173230D01*
X70000Y-245000D02*
Y-242500D01*
X57500Y-244000D02*
Y-242500D01*
X12500Y-142380D02*
X12730Y-142150D01*
Y-133651D01*
X19381Y-127000D01*
X27000D01*
X42000Y-188000D02*
X45000Y-191000D01*
Y-242500D02*
Y-191000D01*
X-7380Y-112500D02*
X25500D01*
X40000Y-127000D01*
X51000Y-181000D02*
X57500Y-187500D01*
Y-242500D02*
Y-187500D01*
X42500Y-142380D02*
X42730Y-142150D01*
Y-133651D01*
X48719Y-127662D01*
X50338D01*
X51000Y-127000D01*
X58000Y-173000D02*
X70000Y-185000D01*
Y-242500D02*
Y-185000D01*
X67730Y-128270D02*
X68000Y-128000D01*
X67730Y-142150D02*
Y-128270D01*
X67500Y-142380D02*
X67730Y-142150D01*
X-7610Y-57270D02*
X-7380Y-57500D01*
X-16109Y-57270D02*
X-7610D01*
X-23000Y-50379D02*
X-16109Y-57270D01*
X-23000Y-50379D02*
Y53000D01*
X16625Y63125D02*
X29000D01*
X72500Y-27620D02*
Y18500D01*
X59000Y32000D02*
X72500Y18500D01*
X0Y33000D02*
Y34000D01*
X-0Y34000D02*
X0Y34000D01*
X-0Y34000D02*
Y46500D01*
X15334Y29730D02*
X17064Y28000D01*
X15279Y29730D02*
X15334D01*
X17064Y28000D02*
X18000D01*
X10261Y34739D02*
X10270D01*
X15279Y29730D01*
X48000Y28000D02*
X67500Y8500D01*
Y-27620D02*
Y8500D01*
X57500Y-27620D02*
Y-2125D01*
X10000Y45375D02*
X57500Y-2125D01*
X10000Y45375D02*
Y46500D01*
X62500Y-27620D02*
Y2250D01*
X18230Y46520D02*
X62500Y2250D01*
X18230Y46520D02*
Y47645D01*
X17750Y48125D02*
X18230Y47645D01*
X16625Y48125D02*
X17750D01*
X-7380Y-87500D02*
X69500D01*
X91000Y-109000D01*
X-7380Y-92500D02*
X63500D01*
X89000Y-118000D01*
X36379Y-167000D02*
X52270Y-151110D01*
X-8705Y-167000D02*
X36379D01*
X-24225Y-151480D02*
X-8705Y-167000D01*
X52270Y-142610D02*
X52500Y-142380D01*
X52270Y-151110D02*
Y-142610D01*
X-36434Y-151480D02*
X-24225D01*
X-259000Y38000D02*
X-228000Y69000D01*
Y138000D01*
X-231770Y141770D02*
X-228000Y138000D01*
X-247170Y141770D02*
X-231770D01*
X-250900Y145500D02*
X-247170Y141770D01*
X-101000Y53000D02*
Y123500D01*
X-93154Y131346D01*
X-122573Y31427D02*
X-101000Y53000D01*
X-125000Y145500D02*
X-96143D01*
X-93480Y140980D02*
Y142837D01*
Y140980D02*
X-90500Y138000D01*
X-96143Y145500D02*
X-93480Y142837D01*
X-93154Y135346D02*
X-90500Y138000D01*
X-93154Y131346D02*
Y135346D01*
X-169338Y59662D02*
X-166338D01*
X-170000Y59000D02*
X-169338Y59662D01*
X-140230Y85770D02*
X-128730D01*
X-166338Y59662D02*
X-140230Y85770D01*
X-196100Y5000D02*
X-192870Y8230D01*
Y66130D01*
X-188000Y71000D01*
X-169000D02*
X-140230Y99770D01*
X-128730D01*
X-125000Y103500D01*
X-135497Y31427D02*
X-122573D01*
X-153070Y13855D02*
X-135497Y31427D01*
X-153070Y12930D02*
Y13855D01*
X-158000Y8000D02*
X-153070Y12930D01*
X-158000Y5000D02*
Y8000D01*
X-183400Y5000D02*
X-180170Y8230D01*
Y70205D01*
X-138604Y111770D01*
X-137980D01*
X-132250Y117500D01*
X-125000D01*
X-269070Y8230D02*
Y12930D01*
X-223925Y59000D02*
X-201000D01*
X-269070Y12930D02*
X-269000Y13000D01*
Y13924D02*
X-223925Y59000D01*
X-269000Y13000D02*
Y13924D01*
X-272300Y5000D02*
X-269070Y8230D01*
X-128730Y85770D02*
X-125000Y89500D01*
X107380Y-97500D02*
X137388D01*
X139888Y-95000D01*
X167000D01*
X180000D02*
X180500Y-95500D01*
X205500D01*
X210750Y-68000D02*
Y-67500D01*
X205500Y-73250D02*
X210750Y-68000D01*
X205500Y-95500D02*
Y-73250D01*
X12179Y14920D02*
Y15420D01*
Y14920D02*
X22500Y4599D01*
Y-27620D02*
Y4599D01*
D19*
X253875Y-232625D02*
D03*
Y-219625D02*
D03*
X-30329Y-159000D02*
D03*
X27500Y-199000D02*
D03*
X225000Y172000D02*
D03*
X-287500Y146000D02*
D03*
X-58000Y-21500D02*
D03*
X207500Y172000D02*
D03*
X225000Y185000D02*
D03*
X207500D02*
D03*
X-30329Y-172000D02*
D03*
X27500Y-186000D02*
D03*
X-287500Y159000D02*
D03*
X-58000Y-34500D02*
D03*
D20*
X266000Y-178750D02*
D03*
Y-165250D02*
D03*
X-32500Y-134250D02*
D03*
X-305000Y86750D02*
D03*
X-287500D02*
D03*
Y105750D02*
D03*
X-35000Y62250D02*
D03*
X150000Y-48250D02*
D03*
X132500D02*
D03*
X-29000Y128250D02*
D03*
X295000Y238750D02*
D03*
X-32500Y-120750D02*
D03*
X-305000Y73250D02*
D03*
X-287500D02*
D03*
Y119250D02*
D03*
X-35000Y75750D02*
D03*
X-29000Y141750D02*
D03*
X132500Y-61750D02*
D03*
X150000D02*
D03*
X225000Y205750D02*
D03*
Y219250D02*
D03*
X207500Y205750D02*
D03*
X295000Y225250D02*
D03*
X207500Y219250D02*
D03*
D21*
X294750Y-158750D02*
D03*
Y-185250D02*
D03*
X287250Y-158750D02*
D03*
Y-185250D02*
D03*
X282625Y-212875D02*
D03*
Y-239375D02*
D03*
X275125Y-212875D02*
D03*
Y-239375D02*
D03*
X-181250Y-221250D02*
D03*
X-188750D02*
D03*
Y-194750D02*
D03*
X-181250D02*
D03*
X-206250Y-221250D02*
D03*
X-213750D02*
D03*
X-206250Y-194750D02*
D03*
X-213750D02*
D03*
X-156250D02*
D03*
X-163750D02*
D03*
Y-221250D02*
D03*
X-156250D02*
D03*
D22*
X224250Y-167500D02*
D03*
X210750D02*
D03*
X-264250Y-197500D02*
D03*
Y-215000D02*
D03*
X-1000Y-2500D02*
D03*
X10000Y88000D02*
D03*
X100000Y-167500D02*
D03*
X130250Y-125000D02*
D03*
X83250Y-2500D02*
D03*
X-250750Y-215000D02*
D03*
Y-197500D02*
D03*
X-75250Y7000D02*
D03*
X86500Y-167500D02*
D03*
X12500Y-2500D02*
D03*
X96750D02*
D03*
X143750Y-125000D02*
D03*
X224250Y-67500D02*
D03*
X-1321Y15420D02*
D03*
X-3500Y88000D02*
D03*
X259250Y255000D02*
D03*
X245750D02*
D03*
X-88750Y7000D02*
D03*
X210750Y-67500D02*
D03*
X12179Y15420D02*
D03*
D23*
X107380Y-82500D02*
D03*
Y-92500D02*
D03*
Y-102500D02*
D03*
X-7380Y-122500D02*
D03*
X107380D02*
D03*
Y-62500D02*
D03*
X-7380Y-117500D02*
D03*
X107380Y-67500D02*
D03*
Y-87500D02*
D03*
X-7380Y-102500D02*
D03*
Y-97500D02*
D03*
Y-112500D02*
D03*
Y-107500D02*
D03*
Y-92500D02*
D03*
Y-87500D02*
D03*
Y-82500D02*
D03*
Y-77500D02*
D03*
Y-72500D02*
D03*
Y-67500D02*
D03*
Y-62500D02*
D03*
Y-57500D02*
D03*
Y-52500D02*
D03*
Y-47500D02*
D03*
X107380D02*
D03*
Y-52500D02*
D03*
Y-57500D02*
D03*
Y-72500D02*
D03*
Y-77500D02*
D03*
Y-97500D02*
D03*
Y-107500D02*
D03*
Y-112500D02*
D03*
Y-117500D02*
D03*
D24*
X32500Y-242500D02*
D03*
X-125000D02*
D03*
X-210000D02*
D03*
X-62500D02*
D03*
X82500D02*
D03*
X20000D02*
D03*
X45000D02*
D03*
X70000D02*
D03*
X57500D02*
D03*
X-75000D02*
D03*
X-87500D02*
D03*
X-100000D02*
D03*
X-112500D02*
D03*
X-235000D02*
D03*
X-222500D02*
D03*
X-247500D02*
D03*
X-260000D02*
D03*
X-272500D02*
D03*
D25*
X229500Y-139500D02*
D03*
X205500D02*
D03*
X229500Y-95500D02*
D03*
X205500D02*
D03*
D26*
X-75500Y25000D02*
D03*
X-71000Y77500D02*
D03*
X-77500Y138000D02*
D03*
X126000Y106500D02*
D03*
X209500Y247500D02*
D03*
X222500D02*
D03*
X267500Y185000D02*
D03*
X-84000Y77500D02*
D03*
X-88500Y25000D02*
D03*
X167000Y-95000D02*
D03*
X180000D02*
D03*
X139000Y106500D02*
D03*
X-90500Y138000D02*
D03*
X254500Y185000D02*
D03*
D27*
X-250900Y89500D02*
D03*
Y103500D02*
D03*
Y117500D02*
D03*
Y75500D02*
D03*
X-125000Y131500D02*
D03*
Y159500D02*
D03*
Y173500D02*
D03*
Y145500D02*
D03*
Y117500D02*
D03*
Y103500D02*
D03*
Y89500D02*
D03*
X-250900Y131500D02*
D03*
Y145500D02*
D03*
Y159500D02*
D03*
Y173500D02*
D03*
X-125000Y75500D02*
D03*
D28*
X-6625Y63125D02*
D03*
X16625Y53125D02*
D03*
Y58125D02*
D03*
Y48125D02*
D03*
Y63125D02*
D03*
X-6625Y58125D02*
D03*
Y53125D02*
D03*
Y48125D02*
D03*
D29*
X77500Y-27620D02*
D03*
X12500D02*
D03*
X87500Y-142380D02*
D03*
X82500D02*
D03*
X17500Y-27620D02*
D03*
X82500D02*
D03*
X57500Y-142380D02*
D03*
X32500D02*
D03*
X27500D02*
D03*
X22500D02*
D03*
X17500D02*
D03*
X62500D02*
D03*
X52500D02*
D03*
X77500D02*
D03*
X72500D02*
D03*
X67500D02*
D03*
X47500D02*
D03*
X42500D02*
D03*
X37500D02*
D03*
X12500D02*
D03*
X22500Y-27620D02*
D03*
X27500D02*
D03*
X32500D02*
D03*
X37500D02*
D03*
X42500D02*
D03*
X47500D02*
D03*
X52500D02*
D03*
X57500D02*
D03*
X62500D02*
D03*
X67500D02*
D03*
X72500D02*
D03*
X87500D02*
D03*
D30*
X10000Y64750D02*
D03*
X-0D02*
D03*
X5000D02*
D03*
X-0Y46500D02*
D03*
X5000D02*
D03*
X10000D02*
D03*
D31*
X180500Y106500D02*
D03*
X-92500Y-200000D02*
D03*
X-111500D02*
D03*
X161500Y106500D02*
D03*
D32*
X-10250Y137250D02*
D03*
X15250Y122250D02*
D03*
Y127250D02*
D03*
Y132250D02*
D03*
Y137250D02*
D03*
X-10250Y132250D02*
D03*
Y127250D02*
D03*
Y122250D02*
D03*
D33*
X-0Y117000D02*
D03*
X10000Y142500D02*
D03*
X-0D02*
D03*
X5000D02*
D03*
X-5000Y117000D02*
D03*
X5000D02*
D03*
X10000D02*
D03*
X-5000Y142500D02*
D03*
D34*
X-272300Y-170000D02*
D03*
X-285000D02*
D03*
Y5000D02*
D03*
X-119900D02*
D03*
X-170700D02*
D03*
X-158000D02*
D03*
X-196100D02*
D03*
X-183400D02*
D03*
X-145300D02*
D03*
X-132600D02*
D03*
X-183400Y-170000D02*
D03*
X-170700D02*
D03*
X-196100D02*
D03*
X-132600D02*
D03*
X-119900D02*
D03*
X-158000D02*
D03*
X-221500Y5000D02*
D03*
X-208800D02*
D03*
X-259600D02*
D03*
X-246900D02*
D03*
X-272300D02*
D03*
X-234200D02*
D03*
X-246900Y-170000D02*
D03*
X-234200D02*
D03*
X-259600D02*
D03*
X-221500D02*
D03*
X-208800D02*
D03*
X-145300D02*
D03*
D35*
X78000Y142000D02*
D03*
Y86000D02*
D03*
D36*
X147500Y178805D02*
D03*
Y251195D02*
D03*
D37*
X-221800Y-111500D02*
D03*
X-207800D02*
D03*
X-193800D02*
D03*
X-221800Y-97500D02*
D03*
X-207800D02*
D03*
X-221800Y-83500D02*
D03*
X-207800D02*
D03*
X-193800D02*
D03*
Y-97500D02*
D03*
D38*
X-107400Y-139650D02*
D03*
Y-38050D02*
D03*
Y-25350D02*
D03*
Y-76150D02*
D03*
Y-88850D02*
D03*
Y-50750D02*
D03*
Y-63450D02*
D03*
Y-101550D02*
D03*
Y-114250D02*
D03*
Y-126950D02*
D03*
D39*
X-138950Y52550D02*
D03*
D40*
X243500Y207500D02*
D03*
Y212500D02*
D03*
X271500Y222500D02*
D03*
X243500Y232500D02*
D03*
X271500Y217500D02*
D03*
Y227500D02*
D03*
Y232500D02*
D03*
X243500Y222500D02*
D03*
Y227500D02*
D03*
X271500Y207500D02*
D03*
Y212500D02*
D03*
X243500Y217500D02*
D03*
D41*
X257500Y220000D02*
D03*
D42*
X159000Y-243250D02*
D03*
X169000D02*
D03*
X179000D02*
D03*
X189000D02*
D03*
X199000D02*
D03*
X209000D02*
D03*
D43*
X108000Y-271500D02*
D03*
X-5500D02*
D03*
X-37000D02*
D03*
X-150500D02*
D03*
X-184500D02*
D03*
X-298000D02*
D03*
D44*
X222000Y-282000D02*
D03*
X146000D02*
D03*
D45*
X-57820Y-71660D02*
D03*
Y-52660D02*
D03*
D71*
X265604Y-225125D02*
X265875D01*
X261854Y-221375D02*
X265604Y-225125D01*
X255625Y-221375D02*
X261854D01*
X253875Y-219625D02*
X255625Y-221375D01*
X-305000Y86750D02*
X-287500D01*
X-285625Y88125D02*
X-284250Y89500D01*
X-250900D01*
X-284750Y103500D02*
X-250900D01*
X-287000Y105750D02*
X-284750Y103500D01*
X-250900D02*
Y117500D01*
X-299750Y105750D02*
X-287500D01*
X-269500Y117500D02*
X-250900D01*
X-41750Y128250D02*
X-29000D01*
X-42000Y128000D02*
X-41750Y128250D01*
X225000Y163000D02*
Y172000D01*
X225000Y163000D02*
X225000Y163000D01*
X-305000Y86750D02*
Y98000D01*
X294000Y239750D02*
X295000Y238750D01*
X294000Y239750D02*
Y249750D01*
X180500Y106500D02*
Y121500D01*
X180000Y122000D02*
X180500Y121500D01*
X-1000Y-2500D02*
Y-2000D01*
X-9000Y3000D02*
X-8809Y2809D01*
X-5809D02*
X-1000Y-2000D01*
X-8809Y2809D02*
X-5809D01*
X-75500Y25000D02*
X-73750Y26750D01*
Y35071D01*
X-73200D01*
X-70271Y38000D01*
X-70000D01*
X-274300Y-172000D02*
X-272300Y-170000D01*
X-274300Y-181300D02*
Y-172000D01*
X-277000Y-184000D02*
X-274300Y-181300D01*
X-264250Y-215000D02*
Y-197500D01*
Y-215000D02*
Y-214500D01*
X-274809Y-206191D02*
X-272559D01*
X-264250Y-214500D01*
X-275000Y-206000D02*
X-274809Y-206191D01*
X-44000Y-134000D02*
X-43875Y-134125D01*
X-32625D02*
X-32500Y-134250D01*
X-43875Y-134125D02*
X-32625D01*
X83250Y-2500D02*
Y6750D01*
X81000Y9000D02*
X83250Y6750D01*
X150000Y-48250D02*
X152000Y-46250D01*
X160750D01*
X163000Y-44000D01*
X130250Y-125000D02*
X132250Y-127000D01*
Y-134250D02*
Y-127000D01*
Y-134250D02*
X135000Y-137000D01*
X100000Y-168000D02*
Y-167500D01*
Y-168000D02*
X112000Y-180000D01*
X-35000Y52000D02*
Y62250D01*
Y52000D02*
X-34000Y51000D01*
X10000Y88000D02*
X10000Y88000D01*
X10000Y84000D02*
Y88000D01*
X10000Y84000D02*
X10000Y84000D01*
X27500Y-199000D02*
X28809Y-200309D01*
X-125000Y-242500D02*
Y-238500D01*
X-130809Y-232691D02*
X-125000Y-238500D01*
X-130809Y-232691D02*
Y-231191D01*
X-131000Y-231000D02*
X-130809Y-231191D01*
X-71000Y77500D02*
X-71000Y77500D01*
X-71000Y77500D02*
Y90000D01*
X-147000Y170000D02*
X-143500Y173500D01*
X-125000D01*
X-147000Y159000D02*
X-146729D01*
X-146229Y159500D02*
X-125000D01*
X-146729Y159000D02*
X-146229Y159500D01*
X-252684Y-226684D02*
X-252492Y-226492D01*
Y-216742D02*
X-250750Y-215000D01*
X-252492Y-226492D02*
Y-216742D01*
X-208500Y-244000D02*
X-202000D01*
X-210000Y-242500D02*
X-208500Y-244000D01*
X-202000D02*
X-199000Y-241000D01*
X-250750Y-215000D02*
Y-197500D01*
X-299000Y-184000D02*
X-296000D01*
X-285000Y-173000D01*
Y-170000D01*
X-62500Y-246500D02*
Y-242500D01*
Y-246500D02*
X-61000Y-248000D01*
X-50000D01*
X-44000Y-120750D02*
X-32500D01*
X-305000Y61000D02*
Y73250D01*
X-287500D01*
X-298750Y119250D02*
X-287500D01*
X-152000Y42000D02*
X-151743Y41743D01*
X-149257D01*
X-149200Y41800D01*
X-286375Y74375D02*
X-285875D01*
X-284750Y75500D01*
X-250900D01*
X-77000Y-5000D02*
Y-4729D01*
X-75250Y-2979D01*
X-149200Y41800D02*
X-142450D01*
X-138950Y45300D01*
Y52550D01*
X-146500Y131500D02*
X-125000D01*
X-75250Y-2979D02*
Y7000D01*
X-34500Y75750D02*
X-32500Y77750D01*
X-35000Y75750D02*
X-34500D01*
X-32500Y85500D02*
X-31000Y87000D01*
X-32500Y77750D02*
Y85500D01*
X-147000Y132000D02*
X-146500Y131500D01*
X-40750Y141750D02*
X-29000D01*
X-41000Y142000D02*
X-40750Y141750D01*
X80000Y-227000D02*
X82500Y-229500D01*
Y-242500D02*
Y-229500D01*
X88500Y-175500D02*
X93000Y-180000D01*
X88500Y-175500D02*
Y-169500D01*
X86500Y-167500D02*
X88500Y-169500D01*
X94750Y-500D02*
X96750Y-2500D01*
X143750Y-125000D02*
X154730D01*
X150000Y-61750D02*
X152000Y-59750D01*
X161250D01*
X164000Y-57000D01*
X-7809Y22408D02*
Y22809D01*
X-1321Y15420D02*
Y15920D01*
X-7809Y22408D02*
X-1321Y15920D01*
X-8000Y23000D02*
X-7809Y22809D01*
X93000Y9729D02*
Y10000D01*
X94750Y-500D02*
Y7979D01*
X93000Y9729D02*
X94750Y7979D01*
X120000Y113000D02*
Y118000D01*
Y113000D02*
X126000Y107000D01*
Y106500D02*
Y107000D01*
X198000Y166000D02*
X201000D01*
X207000Y172000D01*
X207500D01*
X203191Y254309D02*
Y258809D01*
X203000Y259000D02*
X203191Y258809D01*
X209500Y247500D02*
Y248000D01*
X203191Y254309D02*
X209500Y248000D01*
X259250Y255000D02*
Y255500D01*
X267000Y263250D02*
Y268000D01*
X259250Y255500D02*
X267000Y263250D01*
X-16000Y89000D02*
X-15809Y88809D01*
X-4309D01*
X-3500Y88000D01*
X224750Y205750D02*
X225000D01*
X223000Y204000D02*
X224750Y205750D01*
X-92500Y-202500D02*
Y-200000D01*
X-99318Y-214722D02*
X-99127Y-214531D01*
Y-209126D02*
X-92500Y-202500D01*
X-99127Y-214531D02*
Y-209126D01*
X-285000Y5000D02*
Y24000D01*
X-107400Y-139650D02*
X-91350D01*
X-91000Y-140000D01*
X158500Y-238000D02*
X159000Y-238500D01*
Y-243250D02*
Y-238500D01*
X147000Y-238000D02*
X158500D01*
X14000Y-269000D02*
Y-252500D01*
X20000Y-246500D01*
Y-242500D01*
D72*
X-35000Y75750D02*
X-9875D01*
X-235000Y-10000D02*
Y4200D01*
X-234200Y5000D01*
X-225000Y-240000D02*
X-222500Y-242500D01*
X-229500Y-226500D02*
X-225000Y-231000D01*
X-229500Y-226500D02*
Y-202500D01*
X-225000Y-240000D02*
Y-231000D01*
X-249900Y2000D02*
X-246900Y5000D01*
X-249900Y-11493D02*
Y2000D01*
X-255000Y-16593D02*
X-249900Y-11493D01*
X-255000Y-17000D02*
Y-16593D01*
X-247000Y-185000D02*
X-229500Y-202500D01*
D73*
X11000Y-1000D02*
X12500Y-2500D01*
X-1321Y15420D02*
X1179Y12920D01*
X11000Y-1000D02*
Y1000D01*
D74*
X-335000Y-265000D02*
D03*
X335000Y265000D02*
D03*
Y-265000D02*
D03*
X-335000Y150000D02*
D03*
D75*
X285000Y-45000D02*
D03*
X231380Y52500D02*
D03*
Y102500D02*
D03*
X285000Y-95000D02*
D03*
D76*
X331380Y22500D02*
D03*
Y132500D02*
D03*
X335000Y-125000D02*
D03*
Y-15000D02*
D03*
D77*
X277875Y-249125D02*
D03*
X292000Y-196000D02*
D03*
X254875Y-249125D02*
D03*
X265875Y-225125D02*
D03*
X266000Y-190000D02*
D03*
X279000Y-150000D02*
D03*
X265875Y-209125D02*
D03*
X129000Y-85000D02*
D03*
X166000Y-147000D02*
D03*
X89000Y-95000D02*
D03*
X28000Y-257000D02*
D03*
X74308Y-156873D02*
D03*
X109000Y-239000D02*
D03*
X-300000Y106000D02*
D03*
X-270000Y117000D02*
D03*
X-42000Y128000D02*
D03*
X127000Y160000D02*
D03*
X134000Y153000D02*
D03*
X141000Y160000D02*
D03*
X148000Y153000D02*
D03*
X155000Y160000D02*
D03*
X162000Y153000D02*
D03*
X169000Y160000D02*
D03*
X95000Y136000D02*
D03*
X104000Y152000D02*
D03*
X225000Y163000D02*
D03*
X-305000Y98000D02*
D03*
X294000Y249750D02*
D03*
X180000Y122000D02*
D03*
X-9000Y3000D02*
D03*
X-70000Y38000D02*
D03*
X-146000Y-53000D02*
D03*
X-277000Y-184000D02*
D03*
X-210000Y-140000D02*
D03*
X-275000Y-206000D02*
D03*
X-46000Y-164000D02*
D03*
X-44000Y-134000D02*
D03*
X81000Y9000D02*
D03*
X163000Y-44000D02*
D03*
X135000Y-137000D02*
D03*
X112000Y-180000D02*
D03*
X-34000Y51000D02*
D03*
X10000Y84000D02*
D03*
X29000Y-210000D02*
D03*
X-131000Y-231000D02*
D03*
X-71000Y90000D02*
D03*
X21000Y148000D02*
D03*
X-147000Y170000D02*
D03*
Y159000D02*
D03*
X-256000Y-271000D02*
D03*
X-252684Y-226684D02*
D03*
X-199000Y-241000D02*
D03*
X-299000Y-184000D02*
D03*
X-152000Y-140000D02*
D03*
X-145000Y-250000D02*
D03*
X-50000Y-248000D02*
D03*
X-137000Y-223000D02*
D03*
X-44000Y-120750D02*
D03*
X-157000Y-15000D02*
D03*
X-305000Y61000D02*
D03*
X-300000Y146000D02*
D03*
X-299000Y119000D02*
D03*
X-152000Y42000D02*
D03*
X-77000Y-5000D02*
D03*
X-31000Y87000D02*
D03*
X-147000Y132000D02*
D03*
X-65000Y138000D02*
D03*
X-41000Y142000D02*
D03*
X80000Y-227000D02*
D03*
X93000Y-180000D02*
D03*
X198000Y-168000D02*
D03*
X154730Y-125000D02*
D03*
X164000Y-57000D02*
D03*
X225000Y-55000D02*
D03*
X-8000Y23000D02*
D03*
X11000Y1000D02*
D03*
X93000Y74000D02*
D03*
Y10000D02*
D03*
Y87000D02*
D03*
Y99000D02*
D03*
X120000Y118000D02*
D03*
X198000Y166000D02*
D03*
X253490Y232050D02*
D03*
Y207158D02*
D03*
X253744Y219350D02*
D03*
X203000Y259000D02*
D03*
X261364Y213000D02*
D03*
Y225700D02*
D03*
X322000Y230000D02*
D03*
X267000Y268000D02*
D03*
X-16000Y89000D02*
D03*
X223000Y204000D02*
D03*
X101500Y-217000D02*
D03*
X51000Y-272000D02*
D03*
X1000Y-211000D02*
D03*
X-99318Y-214722D02*
D03*
X39000Y-110000D02*
D03*
X-70000Y-142000D02*
D03*
X-58000Y-10000D02*
D03*
X-285000Y24000D02*
D03*
X-91000Y-140000D02*
D03*
X-178000Y-112000D02*
D03*
Y-84000D02*
D03*
X-221000Y-126000D02*
D03*
X-194000D02*
D03*
X-207000Y-125000D02*
D03*
X-178500Y-97500D02*
D03*
X147000Y-238000D02*
D03*
X187000Y-277000D02*
D03*
X171500Y-177000D02*
D03*
X14000Y-258000D02*
D03*
X171000Y-226000D02*
D03*
X147000Y-86000D02*
D03*
X215000Y-262000D02*
D03*
X195000Y-272000D02*
D03*
X161000Y-267000D02*
D03*
X187000Y-262000D02*
D03*
X36000Y150000D02*
D03*
X341001Y111000D02*
D03*
X351001Y91000D02*
D03*
X341001Y71000D02*
D03*
X351001Y51000D02*
D03*
Y11000D02*
D03*
Y-29000D02*
D03*
Y-69000D02*
D03*
Y-109000D02*
D03*
X321001Y111000D02*
D03*
X331001Y91000D02*
D03*
X321001Y71000D02*
D03*
X331001Y51000D02*
D03*
X321001Y-9000D02*
D03*
X331001Y-29000D02*
D03*
X321001Y-129000D02*
D03*
X301000Y111000D02*
D03*
X311000Y91000D02*
D03*
X301000Y71000D02*
D03*
X311000Y51000D02*
D03*
X301000Y31000D02*
D03*
Y-9000D02*
D03*
X311000Y-109000D02*
D03*
X301000Y-129000D02*
D03*
X281000Y31000D02*
D03*
X291000Y11000D02*
D03*
X281000Y-129000D02*
D03*
X261000Y111000D02*
D03*
Y71000D02*
D03*
X271000Y-109000D02*
D03*
X251000Y91000D02*
D03*
X37000Y-228000D02*
D03*
X16000Y-216000D02*
D03*
X281430Y215794D02*
D03*
X281176Y229256D02*
D03*
X-195000Y-155000D02*
D03*
X4000Y128000D02*
D03*
X58000Y100000D02*
D03*
X99000Y59000D02*
D03*
X-10000Y-25000D02*
D03*
X-33000Y-17000D02*
D03*
X-41000Y114000D02*
D03*
X-22000Y115000D02*
D03*
X24000Y81000D02*
D03*
X77000Y28000D02*
D03*
X-144000Y-201000D02*
D03*
X-109000Y-212000D02*
D03*
X-147000Y-155000D02*
D03*
X-115000Y60000D02*
D03*
X-89000D02*
D03*
X-276000Y-148000D02*
D03*
X-194465Y-185035D02*
D03*
X-235000Y-10000D02*
D03*
X-236000Y-228000D02*
D03*
X-227886Y-270839D02*
D03*
X14000Y-187000D02*
D03*
X-104000Y-261000D02*
D03*
X35730Y-156422D02*
D03*
X1000Y-188000D02*
D03*
X-89000Y-248000D02*
D03*
X26122Y-160425D02*
D03*
X-11000Y-188000D02*
D03*
X-130000Y-261000D02*
D03*
X16028Y-159259D02*
D03*
X-21000Y-188000D02*
D03*
X-114000Y-247000D02*
D03*
X5000Y-159000D02*
D03*
X-288292Y-246232D02*
D03*
X118039Y-136135D02*
D03*
X242000Y188000D02*
D03*
X-107000Y-169000D02*
D03*
X-170611Y-230195D02*
D03*
X-194000Y-231000D02*
D03*
X98000Y-19000D02*
D03*
X225000Y219250D02*
D03*
X13000Y-68000D02*
D03*
X3000Y-37000D02*
D03*
X7000Y-56000D02*
D03*
X88000Y-50000D02*
D03*
X-121560Y-25170D02*
D03*
X-121946Y-38989D02*
D03*
X-221863Y-212781D02*
D03*
X14000Y-269000D02*
D03*
X-220000Y-254000D02*
D03*
X-247000Y-185000D02*
D03*
X-255000Y-17000D02*
D03*
X-225000Y-155000D02*
D03*
X-219000Y-189000D02*
D03*
X-260000Y-255000D02*
D03*
X-281000Y-223000D02*
D03*
X-245000Y-254000D02*
D03*
X70000Y-245000D02*
D03*
X57500Y-244000D02*
D03*
X45000Y-242500D02*
D03*
X27000Y-127000D02*
D03*
X42000Y-188000D02*
D03*
X40000Y-127000D02*
D03*
X51000Y-181000D02*
D03*
Y-127000D02*
D03*
X58000Y-173000D02*
D03*
X68000Y-128000D02*
D03*
X-23000Y53000D02*
D03*
X29000Y63125D02*
D03*
X59000Y32000D02*
D03*
X0Y33000D02*
D03*
X18000Y28000D02*
D03*
X48000D02*
D03*
X91000Y-109000D02*
D03*
X-259000Y38000D02*
D03*
Y9000D02*
D03*
X-188000Y71000D02*
D03*
X-169000D02*
D03*
X-170000Y59000D02*
D03*
X-201000D02*
D03*
D78*
X-204218Y-288904D02*
D03*
M02*
