G04*
G04 #@! TF.GenerationSoftware,Altium Limited,Altium Designer,26.3.0 (6)*
G04*
G04 Layer_Physical_Order=2*
G04 Layer_Color=36540*
%FSLAX44Y44*%
%MOMM*%
G71*
G04*
G04 #@! TF.SameCoordinates,D57B5760-88B1-4855-907E-DBF2512A65CE*
G04*
G04*
G04 #@! TF.FilePolarity,Positive*
G04*
G01*
G75*
%ADD74C,2.8000*%
%ADD75C,2.5500*%
%ADD76C,1.5000*%
%ADD77C,0.6000*%
%ADD78C,0.7000*%
G36*
X319825Y270175D02*
X319615Y269667D01*
X319000Y266576D01*
Y263424D01*
X319615Y260333D01*
X320821Y257421D01*
X322572Y254801D01*
X324801Y252572D01*
X327421Y250821D01*
X330333Y249615D01*
X333424Y249000D01*
X336576D01*
X339667Y249615D01*
X340175Y249825D01*
X360000Y230000D01*
Y152000D01*
X342697Y134697D01*
X340466Y135295D01*
X340233Y136167D01*
X338982Y138333D01*
X337213Y140102D01*
X335047Y141353D01*
X332631Y142000D01*
X330129D01*
X327713Y141353D01*
X325547Y140102D01*
X323778Y138333D01*
X322527Y136167D01*
X321880Y133751D01*
Y131249D01*
X320921Y130000D01*
X222000D01*
X199000Y107000D01*
Y90000D01*
X217000Y72000D01*
X244000D01*
X250500Y65500D01*
X250000Y25000D01*
X307000Y-32000D01*
Y-59000D01*
X296000Y-70000D01*
X268000D01*
X256000Y-82000D01*
Y-134000D01*
X271000Y-149000D01*
X273996D01*
X274000Y-149005D01*
Y-150995D01*
X274761Y-152832D01*
X276168Y-154239D01*
X278006Y-155000D01*
X279995D01*
X281832Y-154239D01*
X283239Y-152832D01*
X284000Y-150995D01*
Y-149005D01*
X284004Y-149000D01*
X360000D01*
X363000Y-152000D01*
Y-270000D01*
X341000Y-292000D01*
X-197747D01*
X-198859Y-290337D01*
X-198718Y-289998D01*
Y-287810D01*
X-199555Y-285788D01*
X-201103Y-284241D01*
X-203124Y-283404D01*
X-205312D01*
X-207334Y-284241D01*
X-208881Y-285788D01*
X-209718Y-287810D01*
Y-289998D01*
X-209578Y-290337D01*
X-210689Y-292000D01*
X-301000D01*
X-314000Y-279000D01*
Y-189000D01*
X-302000Y-177000D01*
X-293000D01*
X-290000Y-174000D01*
Y8000D01*
X-316000Y34000D01*
Y165000D01*
X-303339Y177661D01*
X-22950D01*
X-22170Y177816D01*
X-21508Y178258D01*
X-21066Y178920D01*
X-21050Y179000D01*
X49000D01*
X58000Y170000D01*
X97000D01*
X104000Y177000D01*
Y285000D01*
X109000Y290000D01*
X300000D01*
X319825Y270175D01*
D02*
G37*
G36*
X360000Y113000D02*
Y-138000D01*
X358000Y-140000D01*
X276000Y-140000D01*
X265000Y-129000D01*
Y-86000D01*
X275000Y-76000D01*
X299000D01*
X313000Y-62000D01*
Y-29000D01*
X257500Y26500D01*
Y65500D01*
X243000Y80000D01*
X225000D01*
X211000Y94000D01*
Y110000D01*
X223000Y122000D01*
X351000D01*
X360000Y113000D01*
D02*
G37*
%LPC*%
G36*
X294995Y254750D02*
X293005D01*
X291168Y253989D01*
X289761Y252582D01*
X289000Y250745D01*
Y248755D01*
X289761Y246918D01*
X291168Y245511D01*
X293005Y244750D01*
X294995D01*
X296832Y245511D01*
X298239Y246918D01*
X299000Y248755D01*
Y250745D01*
X298239Y252582D01*
X296832Y253989D01*
X294995Y254750D01*
D02*
G37*
G36*
X282171Y234256D02*
X280181D01*
X278344Y233495D01*
X276937Y232088D01*
X276176Y230251D01*
Y228261D01*
X276937Y226424D01*
X278344Y225017D01*
X280181Y224256D01*
X282171D01*
X284008Y225017D01*
X285415Y226424D01*
X286176Y228261D01*
Y230251D01*
X285415Y232088D01*
X284008Y233495D01*
X282171Y234256D01*
D02*
G37*
G36*
X225995Y224250D02*
X224006D01*
X222168Y223489D01*
X220761Y222082D01*
X220000Y220245D01*
Y218255D01*
X220761Y216418D01*
X222168Y215011D01*
X224006Y214250D01*
X225995D01*
X227832Y215011D01*
X229239Y216418D01*
X230000Y218255D01*
Y220245D01*
X229239Y222082D01*
X227832Y223489D01*
X225995Y224250D01*
D02*
G37*
G36*
X282425Y220794D02*
X280435D01*
X278598Y220033D01*
X277191Y218626D01*
X276430Y216789D01*
Y214799D01*
X277191Y212962D01*
X278598Y211555D01*
X280435Y210794D01*
X282425D01*
X284262Y211555D01*
X285669Y212962D01*
X286430Y214799D01*
Y216789D01*
X285669Y218626D01*
X284262Y220033D01*
X282425Y220794D01*
D02*
G37*
G36*
X242995Y193000D02*
X241005D01*
X239168Y192239D01*
X237761Y190832D01*
X237000Y188995D01*
Y187005D01*
X237761Y185168D01*
X239168Y183761D01*
X241005Y183000D01*
X242995D01*
X244832Y183761D01*
X246239Y185168D01*
X247000Y187005D01*
Y188995D01*
X246239Y190832D01*
X244832Y192239D01*
X242995Y193000D01*
D02*
G37*
G36*
X169995Y165000D02*
X168005D01*
X166168Y164239D01*
X164761Y162832D01*
X164000Y160995D01*
Y159748D01*
X163459Y158807D01*
X162000Y158353D01*
X160541Y158807D01*
X160000Y159748D01*
Y160995D01*
X159239Y162832D01*
X157832Y164239D01*
X155995Y165000D01*
X154005D01*
X152168Y164239D01*
X150761Y162832D01*
X150000Y160995D01*
Y159748D01*
X149459Y158807D01*
X148000Y158353D01*
X146541Y158807D01*
X146000Y159748D01*
Y160995D01*
X145239Y162832D01*
X143832Y164239D01*
X141995Y165000D01*
X140005D01*
X138168Y164239D01*
X136761Y162832D01*
X136000Y160995D01*
Y159748D01*
X135362Y158638D01*
X134561Y158178D01*
X132541Y158807D01*
X132000Y159748D01*
Y160995D01*
X131239Y162832D01*
X129832Y164239D01*
X127995Y165000D01*
X126005D01*
X124168Y164239D01*
X122761Y162832D01*
X122000Y160995D01*
Y159005D01*
X122761Y157168D01*
X124168Y155761D01*
X126005Y155000D01*
X127252D01*
X128362Y154362D01*
X129000Y153252D01*
Y152005D01*
X129761Y150168D01*
X131168Y148761D01*
X133005Y148000D01*
X134994D01*
X136832Y148761D01*
X138239Y150168D01*
X139000Y152005D01*
Y153252D01*
X139541Y154193D01*
X141000Y154647D01*
X142459Y154193D01*
X143000Y153252D01*
Y152005D01*
X143761Y150168D01*
X145168Y148761D01*
X147005Y148000D01*
X148995D01*
X150832Y148761D01*
X152239Y150168D01*
X153000Y152005D01*
Y153252D01*
X153541Y154193D01*
X155000Y154647D01*
X156459Y154193D01*
X157000Y153252D01*
Y152005D01*
X157761Y150168D01*
X159168Y148761D01*
X161005Y148000D01*
X162994D01*
X164832Y148761D01*
X166239Y150168D01*
X167000Y152005D01*
Y153252D01*
X167638Y154362D01*
X168748Y155000D01*
X169995D01*
X171832Y155761D01*
X173239Y157168D01*
X174000Y159005D01*
Y160995D01*
X173239Y162832D01*
X171832Y164239D01*
X169995Y165000D01*
D02*
G37*
G36*
X225994Y168000D02*
X224005D01*
X222168Y167239D01*
X220761Y165832D01*
X220000Y163995D01*
Y162005D01*
X220761Y160168D01*
X222168Y158761D01*
X224005Y158000D01*
X225994D01*
X227832Y158761D01*
X229239Y160168D01*
X230000Y162005D01*
Y163995D01*
X229239Y165832D01*
X227832Y167239D01*
X225994Y168000D01*
D02*
G37*
G36*
X104995Y157000D02*
X103005D01*
X101168Y156239D01*
X99761Y154832D01*
X99000Y152995D01*
Y151005D01*
X99761Y149168D01*
X101168Y147761D01*
X103005Y147000D01*
X104995D01*
X106832Y147761D01*
X108239Y149168D01*
X109000Y151005D01*
Y152995D01*
X108239Y154832D01*
X106832Y156239D01*
X104995Y157000D01*
D02*
G37*
G36*
X36995Y155000D02*
X35005D01*
X33168Y154239D01*
X31761Y152832D01*
X31000Y150995D01*
Y149005D01*
X31761Y147168D01*
X33168Y145761D01*
X35005Y145000D01*
X36995D01*
X38832Y145761D01*
X40239Y147168D01*
X41000Y149005D01*
Y150995D01*
X40239Y152832D01*
X38832Y154239D01*
X36995Y155000D01*
D02*
G37*
G36*
X95995Y141000D02*
X94005D01*
X92168Y140239D01*
X90761Y138832D01*
X90000Y136995D01*
Y135005D01*
X90761Y133168D01*
X92168Y131761D01*
X94005Y131000D01*
X95995D01*
X97832Y131761D01*
X99239Y133168D01*
X100000Y135005D01*
Y136995D01*
X99239Y138832D01*
X97832Y140239D01*
X95995Y141000D01*
D02*
G37*
G36*
X4995Y133000D02*
X3005D01*
X1168Y132239D01*
X-239Y130832D01*
X-1000Y128995D01*
Y127005D01*
X-239Y125168D01*
X1168Y123761D01*
X3005Y123000D01*
X4995D01*
X6832Y123761D01*
X8239Y125168D01*
X9000Y127005D01*
Y128995D01*
X8239Y130832D01*
X6832Y132239D01*
X4995Y133000D01*
D02*
G37*
G36*
X-41006D02*
X-42995D01*
X-44832Y132239D01*
X-46239Y130832D01*
X-47000Y128995D01*
Y127005D01*
X-46239Y125168D01*
X-44832Y123761D01*
X-42995Y123000D01*
X-41006D01*
X-39168Y123761D01*
X-37761Y125168D01*
X-37000Y127005D01*
Y128995D01*
X-37761Y130832D01*
X-39168Y132239D01*
X-41006Y133000D01*
D02*
G37*
G36*
X180995Y127000D02*
X179005D01*
X177168Y126239D01*
X175761Y124832D01*
X175000Y122995D01*
Y121005D01*
X175761Y119168D01*
X177168Y117761D01*
X179005Y117000D01*
X180995D01*
X182832Y117761D01*
X184239Y119168D01*
X185000Y121005D01*
Y122995D01*
X184239Y124832D01*
X182832Y126239D01*
X180995Y127000D01*
D02*
G37*
G36*
X-269006Y122000D02*
X-270995D01*
X-272832Y121239D01*
X-274239Y119832D01*
X-275000Y117995D01*
Y116005D01*
X-274239Y114168D01*
X-272832Y112761D01*
X-270995Y112000D01*
X-269006D01*
X-267168Y112761D01*
X-265761Y114168D01*
X-265000Y116005D01*
Y117995D01*
X-265761Y119832D01*
X-267168Y121239D01*
X-269006Y122000D01*
D02*
G37*
G36*
X-21005Y120000D02*
X-22995D01*
X-24832Y119239D01*
X-26239Y117832D01*
X-27000Y115995D01*
Y114005D01*
X-26239Y112168D01*
X-24832Y110761D01*
X-22995Y110000D01*
X-21005D01*
X-19168Y110761D01*
X-17761Y112168D01*
X-17000Y114005D01*
Y115995D01*
X-17761Y117832D01*
X-19168Y119239D01*
X-21005Y120000D01*
D02*
G37*
G36*
X-40005Y119000D02*
X-41995D01*
X-43832Y118239D01*
X-45239Y116832D01*
X-46000Y114995D01*
Y113005D01*
X-45239Y111168D01*
X-43832Y109761D01*
X-41995Y109000D01*
X-40005D01*
X-38168Y109761D01*
X-36761Y111168D01*
X-36000Y113005D01*
Y114995D01*
X-36761Y116832D01*
X-38168Y118239D01*
X-40005Y119000D01*
D02*
G37*
G36*
X58994Y105000D02*
X57005D01*
X55168Y104239D01*
X53761Y102832D01*
X53000Y100995D01*
Y99005D01*
X53761Y97168D01*
X55168Y95761D01*
X57005Y95000D01*
X58994D01*
X60832Y95761D01*
X62239Y97168D01*
X63000Y99005D01*
Y100995D01*
X62239Y102832D01*
X60832Y104239D01*
X58994Y105000D01*
D02*
G37*
G36*
X-299005Y111000D02*
X-300995D01*
X-302832Y110239D01*
X-304239Y108832D01*
X-305000Y106995D01*
Y105006D01*
X-304998Y105000D01*
X-305995Y103000D01*
X-307832Y102239D01*
X-309239Y100832D01*
X-310000Y98995D01*
Y97005D01*
X-309239Y95168D01*
X-307832Y93761D01*
X-305995Y93000D01*
X-304005D01*
X-302168Y93761D01*
X-300761Y95168D01*
X-300000Y97005D01*
Y98995D01*
X-300002Y99000D01*
X-299005Y101000D01*
X-297168Y101761D01*
X-295761Y103168D01*
X-295000Y105006D01*
Y106995D01*
X-295761Y108832D01*
X-297168Y110239D01*
X-299005Y111000D01*
D02*
G37*
G36*
X-70005Y95000D02*
X-71995D01*
X-73832Y94239D01*
X-75239Y92832D01*
X-76000Y90995D01*
Y89005D01*
X-75239Y87168D01*
X-73832Y85761D01*
X-71995Y85000D01*
X-70005D01*
X-68168Y85761D01*
X-66761Y87168D01*
X-66000Y89005D01*
Y90995D01*
X-66761Y92832D01*
X-68168Y94239D01*
X-70005Y95000D01*
D02*
G37*
G36*
X10994Y89000D02*
X9005D01*
X7168Y88239D01*
X5761Y86832D01*
X5000Y84995D01*
Y83005D01*
X5761Y81168D01*
X7168Y79761D01*
X9005Y79000D01*
X10994D01*
X12832Y79761D01*
X14239Y81168D01*
X15000Y83005D01*
Y84995D01*
X14239Y86832D01*
X12832Y88239D01*
X10994Y89000D01*
D02*
G37*
G36*
X24995Y86000D02*
X23005D01*
X21168Y85239D01*
X19761Y83832D01*
X19000Y81995D01*
Y80006D01*
X19761Y78168D01*
X21168Y76761D01*
X23005Y76000D01*
X24995D01*
X26832Y76761D01*
X28239Y78168D01*
X29000Y80006D01*
Y81995D01*
X28239Y83832D01*
X26832Y85239D01*
X24995Y86000D01*
D02*
G37*
G36*
X-168006Y76000D02*
X-169995D01*
X-171832Y75239D01*
X-173239Y73832D01*
X-174000Y71995D01*
Y70005D01*
X-173239Y68168D01*
X-171832Y66761D01*
X-169995Y66000D01*
X-168006D01*
X-166168Y66761D01*
X-164761Y68168D01*
X-164000Y70005D01*
Y71995D01*
X-164761Y73832D01*
X-166168Y75239D01*
X-168006Y76000D01*
D02*
G37*
G36*
X-187005D02*
X-188995D01*
X-190832Y75239D01*
X-192239Y73832D01*
X-193000Y71995D01*
Y70005D01*
X-192239Y68168D01*
X-190832Y66761D01*
X-188995Y66000D01*
X-187005D01*
X-185168Y66761D01*
X-183761Y68168D01*
X-183000Y70005D01*
Y71995D01*
X-183761Y73832D01*
X-185168Y75239D01*
X-187005Y76000D01*
D02*
G37*
G36*
X29995Y68125D02*
X28005D01*
X26168Y67364D01*
X24761Y65957D01*
X24000Y64120D01*
Y62130D01*
X24761Y60293D01*
X26168Y58886D01*
X28005Y58125D01*
X29995D01*
X31832Y58886D01*
X33239Y60293D01*
X34000Y62130D01*
Y64120D01*
X33239Y65957D01*
X31832Y67364D01*
X29995Y68125D01*
D02*
G37*
G36*
X-88005Y65000D02*
X-89995D01*
X-91832Y64239D01*
X-93239Y62832D01*
X-94000Y60995D01*
Y59005D01*
X-93239Y57168D01*
X-91832Y55761D01*
X-89995Y55000D01*
X-88005D01*
X-86168Y55761D01*
X-84761Y57168D01*
X-84000Y59005D01*
Y60995D01*
X-84761Y62832D01*
X-86168Y64239D01*
X-88005Y65000D01*
D02*
G37*
G36*
X-114005D02*
X-115995D01*
X-117832Y64239D01*
X-119239Y62832D01*
X-120000Y60995D01*
Y59005D01*
X-119239Y57168D01*
X-117832Y55761D01*
X-115995Y55000D01*
X-114005D01*
X-112168Y55761D01*
X-110761Y57168D01*
X-110000Y59005D01*
Y60995D01*
X-110761Y62832D01*
X-112168Y64239D01*
X-114005Y65000D01*
D02*
G37*
G36*
X-22005Y58000D02*
X-23995D01*
X-25832Y57239D01*
X-27239Y55832D01*
X-27832Y54401D01*
X-29092Y54029D01*
X-29121Y54025D01*
X-29978Y54049D01*
X-31168Y55239D01*
X-33005Y56000D01*
X-34995D01*
X-36832Y55239D01*
X-38239Y53832D01*
X-39000Y51995D01*
Y50005D01*
X-38239Y48168D01*
X-36832Y46761D01*
X-34995Y46000D01*
X-33005D01*
X-31168Y46761D01*
X-29761Y48168D01*
X-29168Y49599D01*
X-27908Y49971D01*
X-27880Y49975D01*
X-27022Y49951D01*
X-25832Y48761D01*
X-23995Y48000D01*
X-22005D01*
X-20168Y48761D01*
X-18761Y50168D01*
X-18000Y52005D01*
Y53995D01*
X-18761Y55832D01*
X-20168Y57239D01*
X-22005Y58000D01*
D02*
G37*
G36*
X99995Y64000D02*
X98005D01*
X96168Y63239D01*
X94761Y61832D01*
X94000Y59995D01*
Y58005D01*
X94761Y56168D01*
X96168Y54761D01*
X98005Y54000D01*
X99995D01*
X101832Y54761D01*
X103239Y56168D01*
X104000Y58005D01*
Y59995D01*
X103239Y61832D01*
X101832Y63239D01*
X99995Y64000D01*
D02*
G37*
G36*
X-169006D02*
X-170995D01*
X-172832Y63239D01*
X-174239Y61832D01*
X-175000Y59995D01*
Y58005D01*
X-174239Y56168D01*
X-172832Y54761D01*
X-170995Y54000D01*
X-169006D01*
X-167168Y54761D01*
X-165761Y56168D01*
X-165000Y58005D01*
Y59995D01*
X-165761Y61832D01*
X-167168Y63239D01*
X-169006Y64000D01*
D02*
G37*
G36*
X-200005D02*
X-201995D01*
X-203832Y63239D01*
X-205239Y61832D01*
X-206000Y59995D01*
Y58005D01*
X-205239Y56168D01*
X-203832Y54761D01*
X-201995Y54000D01*
X-200005D01*
X-198168Y54761D01*
X-196761Y56168D01*
X-196000Y58005D01*
Y59995D01*
X-196761Y61832D01*
X-198168Y63239D01*
X-200005Y64000D01*
D02*
G37*
G36*
X-69005Y43000D02*
X-70995D01*
X-72832Y42239D01*
X-74239Y40832D01*
X-75000Y38995D01*
Y37005D01*
X-74239Y35168D01*
X-72832Y33761D01*
X-70995Y33000D01*
X-69005D01*
X-67168Y33761D01*
X-65761Y35168D01*
X-65000Y37005D01*
Y38995D01*
X-65761Y40832D01*
X-67168Y42239D01*
X-69005Y43000D01*
D02*
G37*
G36*
X-258006D02*
X-259995D01*
X-261832Y42239D01*
X-263239Y40832D01*
X-264000Y38995D01*
Y37005D01*
X-263239Y35168D01*
X-261832Y33761D01*
X-259995Y33000D01*
X-258006D01*
X-256168Y33761D01*
X-254761Y35168D01*
X-254000Y37005D01*
Y38995D01*
X-254761Y40832D01*
X-256168Y42239D01*
X-258006Y43000D01*
D02*
G37*
G36*
X59995Y37000D02*
X58005D01*
X56168Y36239D01*
X54761Y34832D01*
X54000Y32995D01*
Y31684D01*
X53125Y31261D01*
X52000Y31071D01*
X50832Y32239D01*
X48995Y33000D01*
X47005D01*
X45168Y32239D01*
X43761Y30832D01*
X43000Y28995D01*
Y27005D01*
X43761Y25168D01*
X45168Y23761D01*
X47005Y23000D01*
X48995D01*
X50832Y23761D01*
X52239Y25168D01*
X53000Y27005D01*
Y28316D01*
X53875Y28739D01*
X55000Y28929D01*
X56168Y27761D01*
X58005Y27000D01*
X59995D01*
X61832Y27761D01*
X63239Y29168D01*
X64000Y31005D01*
Y32995D01*
X63239Y34832D01*
X61832Y36239D01*
X59995Y37000D01*
D02*
G37*
G36*
X995Y38000D02*
X-995D01*
X-2832Y37239D01*
X-4239Y35832D01*
X-5000Y33995D01*
Y32005D01*
X-4239Y30168D01*
X-2832Y28761D01*
X-995Y28000D01*
X995D01*
X2832Y28761D01*
X4239Y30168D01*
X5000Y32005D01*
Y33995D01*
X4239Y35832D01*
X2832Y37239D01*
X995Y38000D01*
D02*
G37*
G36*
X77995Y33000D02*
X76005D01*
X74168Y32239D01*
X72761Y30832D01*
X72000Y28995D01*
Y27005D01*
X72761Y25168D01*
X74168Y23761D01*
X76005Y23000D01*
X77995D01*
X79832Y23761D01*
X81239Y25168D01*
X82000Y27005D01*
Y28995D01*
X81239Y30832D01*
X79832Y32239D01*
X77995Y33000D01*
D02*
G37*
G36*
X18995D02*
X17005D01*
X15168Y32239D01*
X13761Y30832D01*
X13000Y28995D01*
Y27005D01*
X13761Y25168D01*
X15168Y23761D01*
X17005Y23000D01*
X18995D01*
X20832Y23761D01*
X22239Y25168D01*
X23000Y27005D01*
Y28995D01*
X22239Y30832D01*
X20832Y32239D01*
X18995Y33000D01*
D02*
G37*
G36*
X81995Y14000D02*
X80005D01*
X78168Y13239D01*
X76761Y11832D01*
X76000Y9995D01*
Y8005D01*
X76761Y6168D01*
X78168Y4761D01*
X80005Y4000D01*
X81995D01*
X83832Y4761D01*
X85239Y6168D01*
X86000Y8005D01*
Y9995D01*
X85239Y11832D01*
X83832Y13239D01*
X81995Y14000D01*
D02*
G37*
G36*
X-258006D02*
X-259995D01*
X-261832Y13239D01*
X-263239Y11832D01*
X-264000Y9995D01*
Y8005D01*
X-263239Y6168D01*
X-261832Y4761D01*
X-259995Y4000D01*
X-258006D01*
X-256168Y4761D01*
X-254761Y6168D01*
X-254000Y8005D01*
Y9995D01*
X-254761Y11832D01*
X-256168Y13239D01*
X-258006Y14000D01*
D02*
G37*
G36*
X-8005Y8000D02*
X-9995D01*
X-11832Y7239D01*
X-13239Y5832D01*
X-14000Y3995D01*
Y2005D01*
X-13239Y168D01*
X-11832Y-1239D01*
X-9995Y-2000D01*
X-8005D01*
X-6168Y-1239D01*
X-4761Y168D01*
X-4000Y2005D01*
Y3995D01*
X-4761Y5832D01*
X-6168Y7239D01*
X-8005Y8000D01*
D02*
G37*
G36*
X-234006Y-5000D02*
X-235995D01*
X-237832Y-5761D01*
X-239239Y-7168D01*
X-240000Y-9005D01*
Y-10995D01*
X-239239Y-12832D01*
X-237832Y-14239D01*
X-235995Y-15000D01*
X-234006D01*
X-232168Y-14239D01*
X-230761Y-12832D01*
X-230000Y-10995D01*
Y-9005D01*
X-230761Y-7168D01*
X-232168Y-5761D01*
X-234006Y-5000D01*
D02*
G37*
G36*
X-32005Y-12000D02*
X-33995D01*
X-35832Y-12761D01*
X-37239Y-14168D01*
X-38000Y-16005D01*
Y-17995D01*
X-37239Y-19832D01*
X-35832Y-21239D01*
X-33995Y-22000D01*
X-32005D01*
X-30168Y-21239D01*
X-28761Y-19832D01*
X-28000Y-17995D01*
Y-16005D01*
X-28761Y-14168D01*
X-30168Y-12761D01*
X-32005Y-12000D01*
D02*
G37*
G36*
X-254005D02*
X-255995D01*
X-257832Y-12761D01*
X-259239Y-14168D01*
X-260000Y-16005D01*
Y-17995D01*
X-259239Y-19832D01*
X-257832Y-21239D01*
X-255995Y-22000D01*
X-254005D01*
X-252168Y-21239D01*
X-250761Y-19832D01*
X-250000Y-17995D01*
Y-16005D01*
X-250761Y-14168D01*
X-252168Y-12761D01*
X-254005Y-12000D01*
D02*
G37*
G36*
X98995Y-14000D02*
X97005D01*
X95168Y-14761D01*
X93761Y-16168D01*
X93000Y-18005D01*
Y-19994D01*
X93761Y-21832D01*
X95168Y-23239D01*
X97005Y-24000D01*
X98995D01*
X100832Y-23239D01*
X102239Y-21832D01*
X103000Y-19994D01*
Y-18005D01*
X102239Y-16168D01*
X100832Y-14761D01*
X98995Y-14000D01*
D02*
G37*
G36*
X-9005Y-20000D02*
X-10995D01*
X-12832Y-20761D01*
X-14239Y-22168D01*
X-15000Y-24005D01*
Y-25995D01*
X-14239Y-27832D01*
X-12832Y-29239D01*
X-10995Y-30000D01*
X-9005D01*
X-7168Y-29239D01*
X-5761Y-27832D01*
X-5000Y-25995D01*
Y-24005D01*
X-5761Y-22168D01*
X-7168Y-20761D01*
X-9005Y-20000D01*
D02*
G37*
G36*
X-120565Y-20170D02*
X-122554D01*
X-124392Y-20931D01*
X-125799Y-22337D01*
X-126560Y-24175D01*
Y-26164D01*
X-125799Y-28002D01*
X-124392Y-29409D01*
X-122554Y-30170D01*
X-120565D01*
X-118728Y-29409D01*
X-117321Y-28002D01*
X-116560Y-26164D01*
Y-24175D01*
X-117321Y-22337D01*
X-118728Y-20931D01*
X-120565Y-20170D01*
D02*
G37*
G36*
X3995Y-32000D02*
X2005D01*
X168Y-32761D01*
X-1239Y-34168D01*
X-2000Y-36005D01*
Y-37995D01*
X-1239Y-39832D01*
X168Y-41239D01*
X2005Y-42000D01*
X3995D01*
X5832Y-41239D01*
X7239Y-39832D01*
X8000Y-37995D01*
Y-36005D01*
X7239Y-34168D01*
X5832Y-32761D01*
X3995Y-32000D01*
D02*
G37*
G36*
X-120952Y-33989D02*
X-122941D01*
X-124779Y-34750D01*
X-126185Y-36157D01*
X-126946Y-37995D01*
Y-39984D01*
X-126185Y-41822D01*
X-124779Y-43228D01*
X-122941Y-43989D01*
X-120952D01*
X-119114Y-43228D01*
X-117708Y-41822D01*
X-116946Y-39984D01*
Y-37995D01*
X-117708Y-36157D01*
X-119114Y-34750D01*
X-120952Y-33989D01*
D02*
G37*
G36*
X163995Y-39000D02*
X162005D01*
X160168Y-39761D01*
X158761Y-41168D01*
X158000Y-43005D01*
Y-44995D01*
X158761Y-46832D01*
X160168Y-48239D01*
X162005Y-49000D01*
X163995D01*
X165832Y-48239D01*
X167239Y-46832D01*
X168000Y-44995D01*
Y-43005D01*
X167239Y-41168D01*
X165832Y-39761D01*
X163995Y-39000D01*
D02*
G37*
G36*
X88995Y-45000D02*
X87005D01*
X85168Y-45761D01*
X83761Y-47168D01*
X83000Y-49005D01*
Y-50995D01*
X83761Y-52832D01*
X85168Y-54239D01*
X87005Y-55000D01*
X88995D01*
X90832Y-54239D01*
X92239Y-52832D01*
X93000Y-50995D01*
Y-49005D01*
X92239Y-47168D01*
X90832Y-45761D01*
X88995Y-45000D01*
D02*
G37*
G36*
X-145006Y-48000D02*
X-146995D01*
X-148832Y-48761D01*
X-150239Y-50168D01*
X-151000Y-52005D01*
Y-53995D01*
X-150239Y-55832D01*
X-148832Y-57239D01*
X-146995Y-58000D01*
X-145006D01*
X-143168Y-57239D01*
X-141761Y-55832D01*
X-141000Y-53995D01*
Y-52005D01*
X-141761Y-50168D01*
X-143168Y-48761D01*
X-145006Y-48000D01*
D02*
G37*
G36*
X7994Y-51000D02*
X6005D01*
X4168Y-51761D01*
X2761Y-53168D01*
X2000Y-55005D01*
Y-56995D01*
X2761Y-58832D01*
X4168Y-60239D01*
X6005Y-61000D01*
X7994D01*
X9832Y-60239D01*
X11239Y-58832D01*
X12000Y-56995D01*
Y-55005D01*
X11239Y-53168D01*
X9832Y-51761D01*
X7994Y-51000D01*
D02*
G37*
G36*
X13995Y-63000D02*
X12005D01*
X10168Y-63761D01*
X8761Y-65168D01*
X8000Y-67005D01*
Y-68995D01*
X8761Y-70832D01*
X10168Y-72239D01*
X12005Y-73000D01*
X13995D01*
X15832Y-72239D01*
X17239Y-70832D01*
X18000Y-68995D01*
Y-67005D01*
X17239Y-65168D01*
X15832Y-63761D01*
X13995Y-63000D01*
D02*
G37*
G36*
X129995Y-80000D02*
X128005D01*
X126168Y-80761D01*
X124761Y-82168D01*
X124000Y-84005D01*
Y-85995D01*
X124761Y-87832D01*
X126168Y-89239D01*
X128005Y-90000D01*
X129995D01*
X131832Y-89239D01*
X133239Y-87832D01*
X134000Y-85995D01*
Y-84005D01*
X133239Y-82168D01*
X131832Y-80761D01*
X129995Y-80000D01*
D02*
G37*
G36*
X147994Y-81000D02*
X146005D01*
X144168Y-81761D01*
X142761Y-83168D01*
X142000Y-85005D01*
Y-86995D01*
X142761Y-88832D01*
X144168Y-90239D01*
X146005Y-91000D01*
X147994D01*
X149832Y-90239D01*
X151239Y-88832D01*
X152000Y-86995D01*
Y-85005D01*
X151239Y-83168D01*
X149832Y-81761D01*
X147994Y-81000D01*
D02*
G37*
G36*
X89995Y-90000D02*
X88005D01*
X86168Y-90761D01*
X84761Y-92168D01*
X84000Y-94005D01*
Y-95995D01*
X84761Y-97832D01*
X86168Y-99239D01*
X88005Y-100000D01*
X89995D01*
X91832Y-99239D01*
X93239Y-97832D01*
X94000Y-95995D01*
Y-94005D01*
X93239Y-92168D01*
X91832Y-90761D01*
X89995Y-90000D01*
D02*
G37*
G36*
X91995Y-104000D02*
X90005D01*
X88168Y-104761D01*
X86761Y-106168D01*
X86000Y-108005D01*
Y-109994D01*
X86761Y-111832D01*
X88168Y-113239D01*
X90005Y-114000D01*
X91995D01*
X93832Y-113239D01*
X95239Y-111832D01*
X96000Y-109994D01*
Y-108005D01*
X95239Y-106168D01*
X93832Y-104761D01*
X91995Y-104000D01*
D02*
G37*
G36*
X51995Y-122000D02*
X50005D01*
X48168Y-122761D01*
X46761Y-124168D01*
X46582Y-124599D01*
X44418D01*
X44239Y-124168D01*
X42832Y-122761D01*
X40995Y-122000D01*
X39005D01*
X37168Y-122761D01*
X35761Y-124168D01*
X35000Y-126005D01*
Y-127995D01*
X35761Y-129832D01*
X37168Y-131239D01*
X39005Y-132000D01*
X40995D01*
X42832Y-131239D01*
X44239Y-129832D01*
X44418Y-129401D01*
X46582D01*
X46761Y-129832D01*
X48168Y-131239D01*
X50005Y-132000D01*
X51995D01*
X53832Y-131239D01*
X55239Y-129832D01*
X56000Y-127995D01*
Y-126005D01*
X55239Y-124168D01*
X53832Y-122761D01*
X51995Y-122000D01*
D02*
G37*
G36*
X27995D02*
X26005D01*
X24168Y-122761D01*
X22761Y-124168D01*
X22000Y-126005D01*
Y-127995D01*
X22761Y-129832D01*
X24168Y-131239D01*
X26005Y-132000D01*
X27995D01*
X29832Y-131239D01*
X31239Y-129832D01*
X32000Y-127995D01*
Y-126005D01*
X31239Y-124168D01*
X29832Y-122761D01*
X27995Y-122000D01*
D02*
G37*
G36*
X68995Y-123000D02*
X67005D01*
X65168Y-123761D01*
X63761Y-125168D01*
X63000Y-127005D01*
Y-128995D01*
X63761Y-130832D01*
X65168Y-132239D01*
X67005Y-133000D01*
X68995D01*
X70832Y-132239D01*
X72239Y-130832D01*
X73000Y-128995D01*
Y-127005D01*
X72239Y-125168D01*
X70832Y-123761D01*
X68995Y-123000D01*
D02*
G37*
G36*
X-43005Y-129000D02*
X-44995D01*
X-46832Y-129761D01*
X-48239Y-131168D01*
X-49000Y-133005D01*
Y-134994D01*
X-48239Y-136832D01*
X-46832Y-138239D01*
X-44995Y-139000D01*
X-43005D01*
X-41168Y-138239D01*
X-39761Y-136832D01*
X-39000Y-134994D01*
Y-133005D01*
X-39761Y-131168D01*
X-41168Y-129761D01*
X-43005Y-129000D01*
D02*
G37*
G36*
X119034Y-131135D02*
X117045D01*
X115207Y-131896D01*
X113800Y-133303D01*
X113039Y-135141D01*
Y-137130D01*
X113800Y-138968D01*
X115207Y-140374D01*
X117045Y-141135D01*
X119034D01*
X120871Y-140374D01*
X122278Y-138968D01*
X123039Y-137130D01*
Y-135141D01*
X122278Y-133303D01*
X120871Y-131896D01*
X119034Y-131135D01*
D02*
G37*
G36*
X135995Y-132000D02*
X134005D01*
X132168Y-132761D01*
X130761Y-134168D01*
X130000Y-136005D01*
Y-137995D01*
X130761Y-139832D01*
X132168Y-141239D01*
X134005Y-142000D01*
X135995D01*
X137832Y-141239D01*
X139239Y-139832D01*
X140000Y-137995D01*
Y-136005D01*
X139239Y-134168D01*
X137832Y-132761D01*
X135995Y-132000D01*
D02*
G37*
G36*
X-209005Y-135000D02*
X-210995D01*
X-212832Y-135761D01*
X-214239Y-137168D01*
X-215000Y-139005D01*
Y-140995D01*
X-214239Y-142832D01*
X-212832Y-144239D01*
X-210995Y-145000D01*
X-209005D01*
X-207168Y-144239D01*
X-205761Y-142832D01*
X-205000Y-140995D01*
Y-139005D01*
X-205761Y-137168D01*
X-207168Y-135761D01*
X-209005Y-135000D01*
D02*
G37*
G36*
X166995Y-142000D02*
X165005D01*
X163168Y-142761D01*
X161761Y-144168D01*
X161000Y-146005D01*
Y-147995D01*
X161761Y-149832D01*
X163168Y-151239D01*
X165005Y-152000D01*
X166995D01*
X168832Y-151239D01*
X170239Y-149832D01*
X171000Y-147995D01*
Y-146005D01*
X170239Y-144168D01*
X168832Y-142761D01*
X166995Y-142000D01*
D02*
G37*
G36*
X-275005Y-143000D02*
X-276995D01*
X-278832Y-143761D01*
X-280239Y-145168D01*
X-281000Y-147005D01*
Y-148995D01*
X-280239Y-150832D01*
X-278832Y-152239D01*
X-276995Y-153000D01*
X-275005D01*
X-273168Y-152239D01*
X-271761Y-150832D01*
X-271000Y-148995D01*
Y-147005D01*
X-271761Y-145168D01*
X-273168Y-143761D01*
X-275005Y-143000D01*
D02*
G37*
G36*
X36725Y-151422D02*
X34735D01*
X32898Y-152183D01*
X31491Y-153589D01*
X30816Y-155219D01*
X29854Y-155719D01*
X28730Y-156093D01*
X27117Y-155425D01*
X25127D01*
X23290Y-156186D01*
X22612Y-156863D01*
X20317Y-156546D01*
X20316Y-156546D01*
X20267Y-156426D01*
X18860Y-155020D01*
X17023Y-154259D01*
X15033D01*
X13196Y-155020D01*
X11789Y-156426D01*
X11650Y-156763D01*
X9485D01*
X9239Y-156168D01*
X7832Y-154761D01*
X5995Y-154000D01*
X4005D01*
X2168Y-154761D01*
X761Y-156168D01*
X0Y-158005D01*
Y-159994D01*
X761Y-161832D01*
X2168Y-163239D01*
X4005Y-164000D01*
X5995D01*
X7832Y-163239D01*
X9239Y-161832D01*
X9378Y-161496D01*
X11543D01*
X11789Y-162091D01*
X13196Y-163498D01*
X15033Y-164259D01*
X17023D01*
X18860Y-163498D01*
X19538Y-162820D01*
X21833Y-163137D01*
X21834Y-163137D01*
X21883Y-163257D01*
X23290Y-164664D01*
X25127Y-165425D01*
X27117D01*
X28954Y-164664D01*
X30361Y-163257D01*
X31036Y-161627D01*
X31998Y-161128D01*
X33122Y-160753D01*
X34735Y-161422D01*
X36725D01*
X38562Y-160660D01*
X39969Y-159254D01*
X40730Y-157416D01*
Y-155427D01*
X39969Y-153589D01*
X38562Y-152183D01*
X36725Y-151422D01*
D02*
G37*
G36*
X-146005Y-150000D02*
X-147995D01*
X-149832Y-150761D01*
X-151239Y-152168D01*
X-152000Y-154005D01*
Y-155995D01*
X-151239Y-157832D01*
X-149832Y-159239D01*
X-147995Y-160000D01*
X-146005D01*
X-144168Y-159239D01*
X-142761Y-157832D01*
X-142000Y-155995D01*
Y-154005D01*
X-142761Y-152168D01*
X-144168Y-150761D01*
X-146005Y-150000D01*
D02*
G37*
G36*
X-194006D02*
X-195995D01*
X-197832Y-150761D01*
X-199239Y-152168D01*
X-200000Y-154005D01*
Y-155995D01*
X-199239Y-157832D01*
X-197832Y-159239D01*
X-195995Y-160000D01*
X-194006D01*
X-192168Y-159239D01*
X-190761Y-157832D01*
X-190000Y-155995D01*
Y-154005D01*
X-190761Y-152168D01*
X-192168Y-150761D01*
X-194006Y-150000D01*
D02*
G37*
G36*
X-224005D02*
X-225995D01*
X-227832Y-150761D01*
X-229239Y-152168D01*
X-230000Y-154005D01*
Y-155995D01*
X-229239Y-157832D01*
X-227832Y-159239D01*
X-225995Y-160000D01*
X-224005D01*
X-222168Y-159239D01*
X-220761Y-157832D01*
X-220000Y-155995D01*
Y-154005D01*
X-220761Y-152168D01*
X-222168Y-150761D01*
X-224005Y-150000D01*
D02*
G37*
G36*
X75303Y-151873D02*
X73313D01*
X71476Y-152634D01*
X70069Y-154040D01*
X69308Y-155878D01*
Y-157867D01*
X70069Y-159705D01*
X71476Y-161111D01*
X73313Y-161873D01*
X75303D01*
X77140Y-161111D01*
X78547Y-159705D01*
X79308Y-157867D01*
Y-155878D01*
X78547Y-154040D01*
X77140Y-152634D01*
X75303Y-151873D01*
D02*
G37*
G36*
X-45005Y-159000D02*
X-46995D01*
X-48832Y-159761D01*
X-50239Y-161168D01*
X-51000Y-163005D01*
Y-164995D01*
X-50239Y-166832D01*
X-48832Y-168239D01*
X-46995Y-169000D01*
X-45005D01*
X-43168Y-168239D01*
X-41761Y-166832D01*
X-41000Y-164995D01*
Y-163005D01*
X-41761Y-161168D01*
X-43168Y-159761D01*
X-45005Y-159000D01*
D02*
G37*
G36*
X-106005Y-164000D02*
X-107995D01*
X-109832Y-164761D01*
X-111239Y-166168D01*
X-112000Y-168005D01*
Y-169995D01*
X-111239Y-171832D01*
X-109832Y-173239D01*
X-107995Y-174000D01*
X-106005D01*
X-104168Y-173239D01*
X-102761Y-171832D01*
X-102000Y-169995D01*
Y-168005D01*
X-102761Y-166168D01*
X-104168Y-164761D01*
X-106005Y-164000D01*
D02*
G37*
G36*
X58994Y-168000D02*
X57005D01*
X55168Y-168761D01*
X53761Y-170168D01*
X53000Y-172005D01*
Y-173995D01*
X53128Y-174305D01*
X52599Y-175096D01*
X51666Y-176000D01*
X50005D01*
X48168Y-176761D01*
X46761Y-178168D01*
X46000Y-180005D01*
Y-181995D01*
X46125Y-182297D01*
X45503Y-183001D01*
X44512Y-183629D01*
X42995Y-183000D01*
X41005D01*
X39168Y-183761D01*
X37761Y-185168D01*
X37000Y-187005D01*
Y-188995D01*
X37761Y-190832D01*
X39168Y-192239D01*
X41005Y-193000D01*
X42995D01*
X44832Y-192239D01*
X46239Y-190832D01*
X47000Y-188995D01*
Y-187005D01*
X46875Y-186703D01*
X47497Y-185999D01*
X48488Y-185371D01*
X50005Y-186000D01*
X51995D01*
X53832Y-185239D01*
X55239Y-183832D01*
X56000Y-181995D01*
Y-180005D01*
X55871Y-179695D01*
X56401Y-178904D01*
X57334Y-178000D01*
X58994D01*
X60832Y-177239D01*
X62239Y-175832D01*
X63000Y-173995D01*
Y-172005D01*
X62239Y-170168D01*
X60832Y-168761D01*
X58994Y-168000D01*
D02*
G37*
G36*
X-10005Y-183000D02*
X-11995D01*
X-13832Y-183761D01*
X-14785Y-184713D01*
X-16000Y-184993D01*
X-17215Y-184713D01*
X-18168Y-183761D01*
X-20005Y-183000D01*
X-21995D01*
X-23832Y-183761D01*
X-25239Y-185168D01*
X-26000Y-187005D01*
Y-188995D01*
X-25239Y-190832D01*
X-23832Y-192239D01*
X-21995Y-193000D01*
X-20005D01*
X-18168Y-192239D01*
X-17215Y-191287D01*
X-16000Y-191007D01*
X-14785Y-191287D01*
X-13832Y-192239D01*
X-11995Y-193000D01*
X-10005D01*
X-8168Y-192239D01*
X-6761Y-190832D01*
X-6000Y-188995D01*
Y-187005D01*
X-6761Y-185168D01*
X-8168Y-183761D01*
X-10005Y-183000D01*
D02*
G37*
G36*
X112995Y-175000D02*
X111005D01*
X109168Y-175761D01*
X107761Y-177168D01*
X107000Y-179005D01*
Y-180995D01*
X107761Y-182832D01*
X109168Y-184239D01*
X111005Y-185000D01*
X112995D01*
X114832Y-184239D01*
X116239Y-182832D01*
X117000Y-180995D01*
Y-179005D01*
X116239Y-177168D01*
X114832Y-175761D01*
X112995Y-175000D01*
D02*
G37*
G36*
X-276005Y-179000D02*
X-277995D01*
X-279832Y-179761D01*
X-281239Y-181168D01*
X-282000Y-183005D01*
Y-184995D01*
X-281239Y-186832D01*
X-279832Y-188239D01*
X-277995Y-189000D01*
X-276005D01*
X-274168Y-188239D01*
X-272761Y-186832D01*
X-272000Y-184995D01*
Y-183005D01*
X-272761Y-181168D01*
X-274168Y-179761D01*
X-276005Y-179000D01*
D02*
G37*
G36*
X-246005Y-180000D02*
X-247995D01*
X-249832Y-180761D01*
X-251239Y-182168D01*
X-252000Y-184005D01*
Y-185994D01*
X-251239Y-187832D01*
X-249832Y-189239D01*
X-247995Y-190000D01*
X-246005D01*
X-244168Y-189239D01*
X-242761Y-187832D01*
X-242000Y-185994D01*
Y-184005D01*
X-242761Y-182168D01*
X-244168Y-180761D01*
X-246005Y-180000D01*
D02*
G37*
G36*
X-193470Y-180035D02*
X-195459D01*
X-197297Y-180796D01*
X-198703Y-182202D01*
X-199465Y-184040D01*
Y-186029D01*
X-198703Y-187867D01*
X-197297Y-189273D01*
X-195459Y-190035D01*
X-193470D01*
X-191632Y-189273D01*
X-190226Y-187867D01*
X-189465Y-186029D01*
Y-184040D01*
X-190226Y-182202D01*
X-191632Y-180796D01*
X-193470Y-180035D01*
D02*
G37*
G36*
X14995Y-182000D02*
X13005D01*
X11168Y-182761D01*
X9761Y-184168D01*
X9000Y-186005D01*
Y-187994D01*
X9761Y-189832D01*
X11168Y-191239D01*
X13005Y-192000D01*
X14995D01*
X16832Y-191239D01*
X18239Y-189832D01*
X19000Y-187994D01*
Y-186005D01*
X18239Y-184168D01*
X16832Y-182761D01*
X14995Y-182000D01*
D02*
G37*
G36*
X1995Y-183000D02*
X5D01*
X-1832Y-183761D01*
X-3239Y-185168D01*
X-4000Y-187005D01*
Y-188995D01*
X-3239Y-190832D01*
X-1832Y-192239D01*
X5Y-193000D01*
X1995D01*
X3832Y-192239D01*
X5239Y-190832D01*
X6000Y-188995D01*
Y-187005D01*
X5239Y-185168D01*
X3832Y-183761D01*
X1995Y-183000D01*
D02*
G37*
G36*
X-218006Y-184000D02*
X-219995D01*
X-221832Y-184761D01*
X-223239Y-186168D01*
X-224000Y-188005D01*
Y-189995D01*
X-223239Y-191832D01*
X-221832Y-193239D01*
X-219995Y-194000D01*
X-218006D01*
X-216168Y-193239D01*
X-214761Y-191832D01*
X-214000Y-189995D01*
Y-188005D01*
X-214761Y-186168D01*
X-216168Y-184761D01*
X-218006Y-184000D01*
D02*
G37*
G36*
X266995Y-185000D02*
X265005D01*
X263168Y-185761D01*
X261761Y-187168D01*
X261000Y-189006D01*
Y-190995D01*
X261761Y-192832D01*
X263168Y-194239D01*
X265005Y-195000D01*
X266995D01*
X268832Y-194239D01*
X270239Y-192832D01*
X271000Y-190995D01*
Y-189006D01*
X270239Y-187168D01*
X268832Y-185761D01*
X266995Y-185000D01*
D02*
G37*
G36*
X292995Y-191000D02*
X291005D01*
X289168Y-191761D01*
X287761Y-193168D01*
X287000Y-195005D01*
Y-196995D01*
X287761Y-198832D01*
X289168Y-200239D01*
X291005Y-201000D01*
X292995D01*
X294832Y-200239D01*
X296239Y-198832D01*
X297000Y-196995D01*
Y-195005D01*
X296239Y-193168D01*
X294832Y-191761D01*
X292995Y-191000D01*
D02*
G37*
G36*
X-143006Y-196000D02*
X-144995D01*
X-146832Y-196761D01*
X-148239Y-198168D01*
X-149000Y-200005D01*
Y-201995D01*
X-148239Y-203832D01*
X-146832Y-205239D01*
X-144995Y-206000D01*
X-143006D01*
X-141168Y-205239D01*
X-139761Y-203832D01*
X-139000Y-201995D01*
Y-200005D01*
X-139761Y-198168D01*
X-141168Y-196761D01*
X-143006Y-196000D01*
D02*
G37*
G36*
X-274005Y-201000D02*
X-275995D01*
X-277832Y-201761D01*
X-279239Y-203168D01*
X-280000Y-205005D01*
Y-206995D01*
X-279239Y-208832D01*
X-277832Y-210239D01*
X-275995Y-211000D01*
X-274005D01*
X-272168Y-210239D01*
X-270761Y-208832D01*
X-270000Y-206995D01*
Y-205005D01*
X-270761Y-203168D01*
X-272168Y-201761D01*
X-274005Y-201000D01*
D02*
G37*
G36*
X266870Y-204125D02*
X264880D01*
X263043Y-204886D01*
X261636Y-206293D01*
X260875Y-208130D01*
Y-210119D01*
X261636Y-211957D01*
X263043Y-213364D01*
X264880Y-214125D01*
X266870D01*
X268707Y-213364D01*
X270114Y-211957D01*
X270875Y-210119D01*
Y-208130D01*
X270114Y-206293D01*
X268707Y-204886D01*
X266870Y-204125D01*
D02*
G37*
G36*
X29995Y-205000D02*
X28005D01*
X26168Y-205761D01*
X24761Y-207168D01*
X24000Y-209005D01*
Y-210994D01*
X24761Y-212832D01*
X26168Y-214239D01*
X28005Y-215000D01*
X29995D01*
X31832Y-214239D01*
X33239Y-212832D01*
X34000Y-210994D01*
Y-209005D01*
X33239Y-207168D01*
X31832Y-205761D01*
X29995Y-205000D01*
D02*
G37*
G36*
X-108005Y-207000D02*
X-109995D01*
X-111832Y-207761D01*
X-113239Y-209168D01*
X-114000Y-211005D01*
Y-212994D01*
X-113239Y-214832D01*
X-111832Y-216239D01*
X-109995Y-217000D01*
X-108005D01*
X-106168Y-216239D01*
X-104761Y-214832D01*
X-104000Y-212994D01*
Y-211005D01*
X-104761Y-209168D01*
X-106168Y-207761D01*
X-108005Y-207000D01*
D02*
G37*
G36*
X-220868Y-207781D02*
X-222857D01*
X-224695Y-208542D01*
X-226102Y-209949D01*
X-226863Y-211786D01*
Y-213776D01*
X-226102Y-215613D01*
X-224695Y-217020D01*
X-222857Y-217781D01*
X-220868D01*
X-219031Y-217020D01*
X-217624Y-215613D01*
X-216863Y-213776D01*
Y-211786D01*
X-217624Y-209949D01*
X-219031Y-208542D01*
X-220868Y-207781D01*
D02*
G37*
G36*
X16995Y-211000D02*
X15005D01*
X13168Y-211761D01*
X11761Y-213168D01*
X11000Y-215005D01*
Y-216995D01*
X11761Y-218832D01*
X13168Y-220239D01*
X15005Y-221000D01*
X16995D01*
X18832Y-220239D01*
X20239Y-218832D01*
X21000Y-216995D01*
Y-215005D01*
X20239Y-213168D01*
X18832Y-211761D01*
X16995Y-211000D01*
D02*
G37*
G36*
X-280005Y-218000D02*
X-281995D01*
X-283832Y-218761D01*
X-285239Y-220168D01*
X-286000Y-222005D01*
Y-223995D01*
X-285239Y-225832D01*
X-283832Y-227239D01*
X-281995Y-228000D01*
X-280005D01*
X-278168Y-227239D01*
X-276761Y-225832D01*
X-276000Y-223995D01*
Y-222005D01*
X-276761Y-220168D01*
X-278168Y-218761D01*
X-280005Y-218000D01*
D02*
G37*
G36*
X171995Y-221000D02*
X170005D01*
X168168Y-221761D01*
X166761Y-223168D01*
X166000Y-225005D01*
Y-226995D01*
X166761Y-228832D01*
X168168Y-230239D01*
X170005Y-231000D01*
X171995D01*
X173832Y-230239D01*
X175239Y-228832D01*
X176000Y-226995D01*
Y-225005D01*
X175239Y-223168D01*
X173832Y-221761D01*
X171995Y-221000D01*
D02*
G37*
G36*
X37995Y-223000D02*
X36005D01*
X34168Y-223761D01*
X32761Y-225168D01*
X32000Y-227005D01*
Y-228995D01*
X32761Y-230832D01*
X34168Y-232239D01*
X36005Y-233000D01*
X37995D01*
X39832Y-232239D01*
X41239Y-230832D01*
X42000Y-228995D01*
Y-227005D01*
X41239Y-225168D01*
X39832Y-223761D01*
X37995Y-223000D01*
D02*
G37*
G36*
X-235005D02*
X-236995D01*
X-238832Y-223761D01*
X-240239Y-225168D01*
X-241000Y-227005D01*
Y-228995D01*
X-240239Y-230832D01*
X-238832Y-232239D01*
X-236995Y-233000D01*
X-235005D01*
X-233168Y-232239D01*
X-231761Y-230832D01*
X-231000Y-228995D01*
Y-227005D01*
X-231761Y-225168D01*
X-233168Y-223761D01*
X-235005Y-223000D01*
D02*
G37*
G36*
X-169616Y-225195D02*
X-171605D01*
X-173443Y-225956D01*
X-174850Y-227363D01*
X-175611Y-229201D01*
Y-231190D01*
X-174850Y-233027D01*
X-173443Y-234434D01*
X-171605Y-235195D01*
X-169616D01*
X-167778Y-234434D01*
X-166372Y-233027D01*
X-165611Y-231190D01*
Y-229201D01*
X-166372Y-227363D01*
X-167778Y-225956D01*
X-169616Y-225195D01*
D02*
G37*
G36*
X-130006Y-226000D02*
X-131995D01*
X-133832Y-226761D01*
X-135239Y-228168D01*
X-136000Y-230005D01*
Y-231995D01*
X-135239Y-233832D01*
X-133832Y-235239D01*
X-131995Y-236000D01*
X-130006D01*
X-128168Y-235239D01*
X-126761Y-233832D01*
X-126000Y-231995D01*
Y-230005D01*
X-126761Y-228168D01*
X-128168Y-226761D01*
X-130006Y-226000D01*
D02*
G37*
G36*
X-193006D02*
X-194995D01*
X-196832Y-226761D01*
X-198239Y-228168D01*
X-199000Y-230005D01*
Y-231995D01*
X-198239Y-233832D01*
X-196832Y-235239D01*
X-194995Y-236000D01*
X-193006D01*
X-191168Y-235239D01*
X-189761Y-233832D01*
X-189000Y-231995D01*
Y-230005D01*
X-189761Y-228168D01*
X-191168Y-226761D01*
X-193006Y-226000D01*
D02*
G37*
G36*
X109995Y-234000D02*
X108005D01*
X106168Y-234761D01*
X104761Y-236168D01*
X104000Y-238005D01*
Y-239995D01*
X104761Y-241832D01*
X106168Y-243239D01*
X108005Y-244000D01*
X109995D01*
X111832Y-243239D01*
X113239Y-241832D01*
X114000Y-239995D01*
Y-238005D01*
X113239Y-236168D01*
X111832Y-234761D01*
X109995Y-234000D01*
D02*
G37*
G36*
X45995Y-237500D02*
X44005D01*
X42168Y-238261D01*
X40761Y-239668D01*
X40000Y-241505D01*
Y-243495D01*
X40761Y-245332D01*
X42168Y-246739D01*
X44005Y-247500D01*
X45995D01*
X47832Y-246739D01*
X49239Y-245332D01*
X50000Y-243495D01*
Y-241505D01*
X49239Y-239668D01*
X47832Y-238261D01*
X45995Y-237500D01*
D02*
G37*
G36*
X58495Y-239000D02*
X56505D01*
X54668Y-239761D01*
X53261Y-241168D01*
X52500Y-243005D01*
Y-244995D01*
X53261Y-246832D01*
X54668Y-248239D01*
X56505Y-249000D01*
X58495D01*
X60332Y-248239D01*
X61739Y-246832D01*
X62500Y-244995D01*
Y-243005D01*
X61739Y-241168D01*
X60332Y-239761D01*
X58495Y-239000D01*
D02*
G37*
G36*
X70995Y-240000D02*
X69005D01*
X67168Y-240761D01*
X65761Y-242168D01*
X65000Y-244005D01*
Y-245995D01*
X65761Y-247832D01*
X67168Y-249239D01*
X69005Y-250000D01*
X70995D01*
X72832Y-249239D01*
X74239Y-247832D01*
X75000Y-245995D01*
Y-244005D01*
X74239Y-242168D01*
X72832Y-240761D01*
X70995Y-240000D01*
D02*
G37*
G36*
X-287297Y-241232D02*
X-289287D01*
X-291124Y-241993D01*
X-292531Y-243400D01*
X-293292Y-245237D01*
Y-247227D01*
X-292531Y-249064D01*
X-291124Y-250471D01*
X-289287Y-251232D01*
X-287297D01*
X-285460Y-250471D01*
X-284053Y-249064D01*
X-283292Y-247227D01*
Y-245237D01*
X-284053Y-243400D01*
X-285460Y-241993D01*
X-287297Y-241232D01*
D02*
G37*
G36*
X-113005Y-242000D02*
X-114995D01*
X-116832Y-242761D01*
X-118239Y-244168D01*
X-119000Y-246005D01*
Y-247995D01*
X-118239Y-249832D01*
X-116832Y-251239D01*
X-114995Y-252000D01*
X-113005D01*
X-111168Y-251239D01*
X-109761Y-249832D01*
X-109000Y-247995D01*
Y-246005D01*
X-109761Y-244168D01*
X-111168Y-242761D01*
X-113005Y-242000D01*
D02*
G37*
G36*
X-88005Y-243000D02*
X-89995D01*
X-91832Y-243761D01*
X-93239Y-245168D01*
X-94000Y-247005D01*
Y-248995D01*
X-93239Y-250832D01*
X-91832Y-252239D01*
X-89995Y-253000D01*
X-88005D01*
X-86168Y-252239D01*
X-84761Y-250832D01*
X-84000Y-248995D01*
Y-247005D01*
X-84761Y-245168D01*
X-86168Y-243761D01*
X-88005Y-243000D01*
D02*
G37*
G36*
X278870Y-244125D02*
X276880D01*
X275043Y-244886D01*
X273636Y-246293D01*
X272875Y-248130D01*
Y-250119D01*
X273636Y-251957D01*
X275043Y-253364D01*
X276880Y-254125D01*
X278870D01*
X280707Y-253364D01*
X282114Y-251957D01*
X282875Y-250119D01*
Y-248130D01*
X282114Y-246293D01*
X280707Y-244886D01*
X278870Y-244125D01*
D02*
G37*
G36*
X-219006Y-249000D02*
X-220995D01*
X-222832Y-249761D01*
X-224239Y-251168D01*
X-225000Y-253005D01*
Y-254995D01*
X-224239Y-256832D01*
X-222832Y-258239D01*
X-220995Y-259000D01*
X-219006D01*
X-217168Y-258239D01*
X-215761Y-256832D01*
X-215000Y-254995D01*
Y-253005D01*
X-215761Y-251168D01*
X-217168Y-249761D01*
X-219006Y-249000D01*
D02*
G37*
G36*
X-244006D02*
X-245995D01*
X-247832Y-249761D01*
X-249239Y-251168D01*
X-250000Y-253005D01*
Y-254995D01*
X-249239Y-256832D01*
X-247832Y-258239D01*
X-245995Y-259000D01*
X-244006D01*
X-242168Y-258239D01*
X-240761Y-256832D01*
X-240000Y-254995D01*
Y-253005D01*
X-240761Y-251168D01*
X-242168Y-249761D01*
X-244006Y-249000D01*
D02*
G37*
G36*
X-259006Y-250000D02*
X-260995D01*
X-262832Y-250761D01*
X-264239Y-252168D01*
X-265000Y-254005D01*
Y-255995D01*
X-264239Y-257832D01*
X-262832Y-259239D01*
X-260995Y-260000D01*
X-259006D01*
X-257168Y-259239D01*
X-255761Y-257832D01*
X-255000Y-255995D01*
Y-254005D01*
X-255761Y-252168D01*
X-257168Y-250761D01*
X-259006Y-250000D01*
D02*
G37*
G36*
X28995Y-252000D02*
X27005D01*
X25168Y-252761D01*
X23761Y-254168D01*
X23000Y-256005D01*
Y-257995D01*
X23761Y-259832D01*
X25168Y-261239D01*
X27005Y-262000D01*
X28995D01*
X30832Y-261239D01*
X32239Y-259832D01*
X33000Y-257995D01*
Y-256005D01*
X32239Y-254168D01*
X30832Y-252761D01*
X28995Y-252000D01*
D02*
G37*
G36*
X-103005Y-256000D02*
X-104995D01*
X-106832Y-256761D01*
X-108239Y-258168D01*
X-109000Y-260005D01*
Y-261994D01*
X-108239Y-263832D01*
X-106832Y-265239D01*
X-104995Y-266000D01*
X-103005D01*
X-101168Y-265239D01*
X-99761Y-263832D01*
X-99000Y-261994D01*
Y-260005D01*
X-99761Y-258168D01*
X-101168Y-256761D01*
X-103005Y-256000D01*
D02*
G37*
G36*
X-129005D02*
X-130995D01*
X-132832Y-256761D01*
X-134239Y-258168D01*
X-135000Y-260005D01*
Y-261994D01*
X-134239Y-263832D01*
X-132832Y-265239D01*
X-130995Y-266000D01*
X-129005D01*
X-127168Y-265239D01*
X-125761Y-263832D01*
X-125000Y-261994D01*
Y-260005D01*
X-125761Y-258168D01*
X-127168Y-256761D01*
X-129005Y-256000D01*
D02*
G37*
G36*
X215995Y-257000D02*
X214005D01*
X212168Y-257761D01*
X210761Y-259168D01*
X210000Y-261005D01*
Y-262994D01*
X210761Y-264832D01*
X212168Y-266239D01*
X214005Y-267000D01*
X215995D01*
X217832Y-266239D01*
X219239Y-264832D01*
X220000Y-262994D01*
Y-261005D01*
X219239Y-259168D01*
X217832Y-257761D01*
X215995Y-257000D01*
D02*
G37*
G36*
X187995D02*
X186005D01*
X184168Y-257761D01*
X182761Y-259168D01*
X182000Y-261005D01*
Y-262994D01*
X182761Y-264832D01*
X184168Y-266239D01*
X186005Y-267000D01*
X187995D01*
X189832Y-266239D01*
X191239Y-264832D01*
X192000Y-262994D01*
Y-261005D01*
X191239Y-259168D01*
X189832Y-257761D01*
X187995Y-257000D01*
D02*
G37*
G36*
X161995Y-262000D02*
X160005D01*
X158168Y-262761D01*
X156761Y-264168D01*
X156000Y-266005D01*
Y-267994D01*
X156761Y-269832D01*
X158168Y-271239D01*
X160005Y-272000D01*
X161995D01*
X163832Y-271239D01*
X165239Y-269832D01*
X166000Y-267994D01*
Y-266005D01*
X165239Y-264168D01*
X163832Y-262761D01*
X161995Y-262000D01*
D02*
G37*
G36*
X14995Y-253000D02*
X13005D01*
X11168Y-253761D01*
X9761Y-255168D01*
X9000Y-257005D01*
Y-258995D01*
X9761Y-260832D01*
X11168Y-262239D01*
X11599Y-262418D01*
Y-264582D01*
X11168Y-264761D01*
X9761Y-266168D01*
X9000Y-268005D01*
Y-269995D01*
X9761Y-271832D01*
X11168Y-273239D01*
X13005Y-274000D01*
X14995D01*
X16832Y-273239D01*
X18239Y-271832D01*
X19000Y-269995D01*
Y-268005D01*
X18239Y-266168D01*
X16832Y-264761D01*
X16401Y-264582D01*
Y-262418D01*
X16832Y-262239D01*
X18239Y-260832D01*
X19000Y-258995D01*
Y-257005D01*
X18239Y-255168D01*
X16832Y-253761D01*
X14995Y-253000D01*
D02*
G37*
G36*
X-226892Y-265839D02*
X-228881D01*
X-230719Y-266600D01*
X-232125Y-268007D01*
X-232886Y-269845D01*
Y-271834D01*
X-232125Y-273671D01*
X-230719Y-275078D01*
X-228881Y-275839D01*
X-226892D01*
X-225054Y-275078D01*
X-223648Y-273671D01*
X-222886Y-271834D01*
Y-269845D01*
X-223648Y-268007D01*
X-225054Y-266600D01*
X-226892Y-265839D01*
D02*
G37*
G36*
X195995Y-267000D02*
X194005D01*
X192168Y-267761D01*
X190761Y-269168D01*
X190000Y-271005D01*
Y-272995D01*
X190761Y-274832D01*
X192168Y-276239D01*
X194005Y-277000D01*
X195995D01*
X197832Y-276239D01*
X199239Y-274832D01*
X200000Y-272995D01*
Y-271005D01*
X199239Y-269168D01*
X197832Y-267761D01*
X195995Y-267000D01*
D02*
G37*
G36*
X336576Y-249000D02*
X333424D01*
X330333Y-249615D01*
X327421Y-250821D01*
X324801Y-252572D01*
X322572Y-254801D01*
X320821Y-257421D01*
X319615Y-260333D01*
X319000Y-263424D01*
Y-266576D01*
X319615Y-269667D01*
X320821Y-272579D01*
X322572Y-275199D01*
X324801Y-277428D01*
X327421Y-279179D01*
X330333Y-280385D01*
X333424Y-281000D01*
X336576D01*
X339667Y-280385D01*
X342579Y-279179D01*
X345199Y-277428D01*
X347428Y-275199D01*
X349179Y-272579D01*
X350385Y-269667D01*
X351000Y-266576D01*
Y-263424D01*
X350385Y-260333D01*
X349179Y-257421D01*
X347428Y-254801D01*
X345199Y-252572D01*
X342579Y-250821D01*
X339667Y-249615D01*
X336576Y-249000D01*
D02*
G37*
G36*
X332631Y32000D02*
X330129D01*
X327713Y31353D01*
X325547Y30102D01*
X323778Y28333D01*
X322527Y26167D01*
X321880Y23751D01*
Y21249D01*
X322527Y18833D01*
X323778Y16667D01*
X325547Y14898D01*
X327713Y13647D01*
X330129Y13000D01*
X332631D01*
X335047Y13647D01*
X337213Y14898D01*
X338982Y16667D01*
X340233Y18833D01*
X340880Y21249D01*
Y23751D01*
X340233Y26167D01*
X338982Y28333D01*
X337213Y30102D01*
X335047Y31353D01*
X332631Y32000D01*
D02*
G37*
G36*
X336251Y-5500D02*
X333749D01*
X331333Y-6147D01*
X329167Y-7398D01*
X327398Y-9167D01*
X326147Y-11333D01*
X325500Y-13749D01*
Y-16251D01*
X326147Y-18667D01*
X327398Y-20833D01*
X329167Y-22602D01*
X331333Y-23853D01*
X333749Y-24500D01*
X336251D01*
X338667Y-23853D01*
X340833Y-22602D01*
X342602Y-20833D01*
X343853Y-18667D01*
X344500Y-16251D01*
Y-13749D01*
X343853Y-11333D01*
X342602Y-9167D01*
X340833Y-7398D01*
X338667Y-6147D01*
X336251Y-5500D01*
D02*
G37*
G36*
Y-115500D02*
X333749D01*
X331333Y-116147D01*
X329167Y-117398D01*
X327398Y-119167D01*
X326147Y-121333D01*
X325500Y-123749D01*
Y-126251D01*
X326147Y-128667D01*
X327398Y-130833D01*
X329167Y-132602D01*
X331333Y-133853D01*
X333749Y-134500D01*
X336251D01*
X338667Y-133853D01*
X340833Y-132602D01*
X342602Y-130833D01*
X343853Y-128667D01*
X344500Y-126251D01*
Y-123749D01*
X343853Y-121333D01*
X342602Y-119167D01*
X340833Y-117398D01*
X338667Y-116147D01*
X336251Y-115500D01*
D02*
G37*
%LPD*%
D74*
X-335000Y-265000D02*
D03*
X335000Y265000D02*
D03*
Y-265000D02*
D03*
X-335000Y150000D02*
D03*
D75*
X285000Y-45000D02*
D03*
X231380Y52500D02*
D03*
Y102500D02*
D03*
X285000Y-95000D02*
D03*
D76*
X331380Y22500D02*
D03*
Y132500D02*
D03*
X335000Y-125000D02*
D03*
Y-15000D02*
D03*
D77*
X277875Y-249125D02*
D03*
X292000Y-196000D02*
D03*
X254875Y-249125D02*
D03*
X265875Y-225125D02*
D03*
X266000Y-190000D02*
D03*
X279000Y-150000D02*
D03*
X265875Y-209125D02*
D03*
X129000Y-85000D02*
D03*
X166000Y-147000D02*
D03*
X89000Y-95000D02*
D03*
X28000Y-257000D02*
D03*
X74308Y-156873D02*
D03*
X109000Y-239000D02*
D03*
X-300000Y106000D02*
D03*
X-270000Y117000D02*
D03*
X-42000Y128000D02*
D03*
X127000Y160000D02*
D03*
X134000Y153000D02*
D03*
X141000Y160000D02*
D03*
X148000Y153000D02*
D03*
X155000Y160000D02*
D03*
X162000Y153000D02*
D03*
X169000Y160000D02*
D03*
X95000Y136000D02*
D03*
X104000Y152000D02*
D03*
X225000Y163000D02*
D03*
X-305000Y98000D02*
D03*
X294000Y249750D02*
D03*
X180000Y122000D02*
D03*
X-9000Y3000D02*
D03*
X-70000Y38000D02*
D03*
X-146000Y-53000D02*
D03*
X-277000Y-184000D02*
D03*
X-210000Y-140000D02*
D03*
X-275000Y-206000D02*
D03*
X-46000Y-164000D02*
D03*
X-44000Y-134000D02*
D03*
X81000Y9000D02*
D03*
X163000Y-44000D02*
D03*
X135000Y-137000D02*
D03*
X112000Y-180000D02*
D03*
X-34000Y51000D02*
D03*
X10000Y84000D02*
D03*
X29000Y-210000D02*
D03*
X-131000Y-231000D02*
D03*
X-71000Y90000D02*
D03*
X21000Y148000D02*
D03*
X-147000Y170000D02*
D03*
Y159000D02*
D03*
X-256000Y-271000D02*
D03*
X-252684Y-226684D02*
D03*
X-199000Y-241000D02*
D03*
X-299000Y-184000D02*
D03*
X-152000Y-140000D02*
D03*
X-145000Y-250000D02*
D03*
X-50000Y-248000D02*
D03*
X-137000Y-223000D02*
D03*
X-44000Y-120750D02*
D03*
X-157000Y-15000D02*
D03*
X-305000Y61000D02*
D03*
X-300000Y146000D02*
D03*
X-299000Y119000D02*
D03*
X-152000Y42000D02*
D03*
X-77000Y-5000D02*
D03*
X-31000Y87000D02*
D03*
X-147000Y132000D02*
D03*
X-65000Y138000D02*
D03*
X-41000Y142000D02*
D03*
X80000Y-227000D02*
D03*
X93000Y-180000D02*
D03*
X198000Y-168000D02*
D03*
X154730Y-125000D02*
D03*
X164000Y-57000D02*
D03*
X225000Y-55000D02*
D03*
X-8000Y23000D02*
D03*
X11000Y1000D02*
D03*
X93000Y74000D02*
D03*
Y10000D02*
D03*
Y87000D02*
D03*
Y99000D02*
D03*
X120000Y118000D02*
D03*
X198000Y166000D02*
D03*
X253490Y232050D02*
D03*
Y207158D02*
D03*
X253744Y219350D02*
D03*
X203000Y259000D02*
D03*
X261364Y213000D02*
D03*
Y225700D02*
D03*
X322000Y230000D02*
D03*
X267000Y268000D02*
D03*
X-16000Y89000D02*
D03*
X223000Y204000D02*
D03*
X101500Y-217000D02*
D03*
X51000Y-272000D02*
D03*
X1000Y-211000D02*
D03*
X-99318Y-214722D02*
D03*
X39000Y-110000D02*
D03*
X-70000Y-142000D02*
D03*
X-58000Y-10000D02*
D03*
X-285000Y24000D02*
D03*
X-91000Y-140000D02*
D03*
X-178000Y-112000D02*
D03*
Y-84000D02*
D03*
X-221000Y-126000D02*
D03*
X-194000D02*
D03*
X-207000Y-125000D02*
D03*
X-178500Y-97500D02*
D03*
X147000Y-238000D02*
D03*
X187000Y-277000D02*
D03*
X171500Y-177000D02*
D03*
X14000Y-258000D02*
D03*
X171000Y-226000D02*
D03*
X147000Y-86000D02*
D03*
X215000Y-262000D02*
D03*
X195000Y-272000D02*
D03*
X161000Y-267000D02*
D03*
X187000Y-262000D02*
D03*
X36000Y150000D02*
D03*
X341001Y111000D02*
D03*
X351001Y91000D02*
D03*
X341001Y71000D02*
D03*
X351001Y51000D02*
D03*
Y11000D02*
D03*
Y-29000D02*
D03*
Y-69000D02*
D03*
Y-109000D02*
D03*
X321001Y111000D02*
D03*
X331001Y91000D02*
D03*
X321001Y71000D02*
D03*
X331001Y51000D02*
D03*
X321001Y-9000D02*
D03*
X331001Y-29000D02*
D03*
X321001Y-129000D02*
D03*
X301000Y111000D02*
D03*
X311000Y91000D02*
D03*
X301000Y71000D02*
D03*
X311000Y51000D02*
D03*
X301000Y31000D02*
D03*
Y-9000D02*
D03*
X311000Y-109000D02*
D03*
X301000Y-129000D02*
D03*
X281000Y31000D02*
D03*
X291000Y11000D02*
D03*
X281000Y-129000D02*
D03*
X261000Y111000D02*
D03*
Y71000D02*
D03*
X271000Y-109000D02*
D03*
X251000Y91000D02*
D03*
X37000Y-228000D02*
D03*
X16000Y-216000D02*
D03*
X281430Y215794D02*
D03*
X281176Y229256D02*
D03*
X-195000Y-155000D02*
D03*
X4000Y128000D02*
D03*
X58000Y100000D02*
D03*
X99000Y59000D02*
D03*
X-10000Y-25000D02*
D03*
X-33000Y-17000D02*
D03*
X-41000Y114000D02*
D03*
X-22000Y115000D02*
D03*
X24000Y81000D02*
D03*
X77000Y28000D02*
D03*
X-144000Y-201000D02*
D03*
X-109000Y-212000D02*
D03*
X-147000Y-155000D02*
D03*
X-115000Y60000D02*
D03*
X-89000D02*
D03*
X-276000Y-148000D02*
D03*
X-194465Y-185035D02*
D03*
X-235000Y-10000D02*
D03*
X-236000Y-228000D02*
D03*
X-227886Y-270839D02*
D03*
X14000Y-187000D02*
D03*
X-104000Y-261000D02*
D03*
X35730Y-156422D02*
D03*
X1000Y-188000D02*
D03*
X-89000Y-248000D02*
D03*
X26122Y-160425D02*
D03*
X-11000Y-188000D02*
D03*
X-130000Y-261000D02*
D03*
X16028Y-159259D02*
D03*
X-21000Y-188000D02*
D03*
X-114000Y-247000D02*
D03*
X5000Y-159000D02*
D03*
X-288292Y-246232D02*
D03*
X118039Y-136135D02*
D03*
X242000Y188000D02*
D03*
X-107000Y-169000D02*
D03*
X-170611Y-230195D02*
D03*
X-194000Y-231000D02*
D03*
X98000Y-19000D02*
D03*
X225000Y219250D02*
D03*
X13000Y-68000D02*
D03*
X3000Y-37000D02*
D03*
X7000Y-56000D02*
D03*
X88000Y-50000D02*
D03*
X-121560Y-25170D02*
D03*
X-121946Y-38989D02*
D03*
X-221863Y-212781D02*
D03*
X14000Y-269000D02*
D03*
X-220000Y-254000D02*
D03*
X-247000Y-185000D02*
D03*
X-255000Y-17000D02*
D03*
X-225000Y-155000D02*
D03*
X-219000Y-189000D02*
D03*
X-260000Y-255000D02*
D03*
X-281000Y-223000D02*
D03*
X-245000Y-254000D02*
D03*
X70000Y-245000D02*
D03*
X57500Y-244000D02*
D03*
X45000Y-242500D02*
D03*
X27000Y-127000D02*
D03*
X42000Y-188000D02*
D03*
X40000Y-127000D02*
D03*
X51000Y-181000D02*
D03*
Y-127000D02*
D03*
X58000Y-173000D02*
D03*
X68000Y-128000D02*
D03*
X-23000Y53000D02*
D03*
X29000Y63125D02*
D03*
X59000Y32000D02*
D03*
X0Y33000D02*
D03*
X18000Y28000D02*
D03*
X48000D02*
D03*
X91000Y-109000D02*
D03*
X-259000Y38000D02*
D03*
Y9000D02*
D03*
X-188000Y71000D02*
D03*
X-169000D02*
D03*
X-170000Y59000D02*
D03*
X-201000D02*
D03*
D78*
X-204218Y-288904D02*
D03*
M02*
