M48
;Layer_Color=9474304
;FILE_FORMAT=4:4
METRIC,LZ
;TYPE=PLATED
T01F00S00C0.3000
T02F00S00C0.4000
T03F00S00C1.0000
T04F00S00C1.7000
;TYPE=NON_PLATED
T05F00S00C2.8000
%
T01
X-00288292Y-00246232
X-00281Y-00223
X-00275Y-00206
X-00277Y-00184
X-00299
X-00247Y-00185
X-00252684Y-00226684
X-00236Y-00228
X-00245Y-00254
X-0026Y-00255
X-00256Y-00271
X-00227886Y-00270839
X-00225Y-00155
X-00195
X-00194465Y-00185035
X-00219Y-00189
X-00221863Y-00212781
X-0022Y-00254
X-00199Y-00241
X-00194Y-00231
X-00170611Y-00230195
X-00131Y-00231
X-00137Y-00223
X-00144Y-00201
X-00109Y-00212
X-00099318Y-00214722
X-00089Y-00248
X-00114Y-00247
X-00104Y-00261
X-0013
X-00145Y-0025
X-00147Y-00155
X-00107Y-00169
X-00046Y-00164
X-00021Y-00188
X-00011
X00001
X00014Y-00187
X00042Y-00188
X00051Y-00181
X00058Y-00173
X00074308Y-00156873
X0003573Y-00156422
X00026122Y-00160425
X00016028Y-00159259
X00005Y-00159
X00001Y-00211
X00016Y-00216
X00029Y-0021
X00037Y-00228
X00045Y-002425
X000575Y-00244
X0007Y-00245
X0008Y-00227
X001015Y-00217
X00109Y-00239
X00147Y-00238
X00171Y-00226
X001715Y-00177
X00112Y-0018
X00093
X00051Y-00272
X00028Y-00257
X00014Y-00258
Y-00269
X-0005Y-00248
X00161Y-00267
X00187Y-00262
Y-00277
X00195Y-00272
X00215Y-00262
X00254875Y-00249125
X00277875
X00265875Y-00225125
Y-00209125
X00266Y-0019
X00292Y-00196
X00198Y-00168
X00279Y-0015
X00281Y-00129
X00301
X00321001
X00311Y-00109
X00351001
Y-00069
Y-00029
X00331001
X00321001Y-00009
X00301
X00291Y00011
X00301Y00031
X00281
X00311Y00051
X00331001
X00351001
X00341001Y00071
X00321001
X00301
X00311Y00091
X00331001
X00351001
X00341001Y00111
X00321001
X00301
X00261
X00251Y00091
X00261Y00071
X00225Y00163
X00198Y00166
X0018Y00122
X00223Y00204
X00225Y0021925
X00253744Y0021935
X0025349Y00207158
X00261364Y00213
Y002257
X0025349Y0023205
X00281176Y00229256
X0028143Y00215794
X00322Y0023
X00242Y00188
X00225Y-00055
X00271Y-00109
X00351001Y00011
X00163Y-00044
X00164Y-00057
X00147Y-00086
X00129Y-00085
X00089Y-00095
X00091Y-00109
X00068Y-00128
X00051Y-00127
X0004
X00027
X00039Y-0011
X00013Y-00068
X00007Y-00056
X00003Y-00037
X-0001Y-00025
X-00009Y00003
X-00008Y00023
X0Y00033
X00018Y00028
X00048
X00059Y00032
X00077Y00028
X00081Y00009
X00093Y0001
X00098Y-00019
X00088Y-0005
X00118039Y-00136135
X00135Y-00137
X0015473Y-00125
X00166Y-00147
X-00044Y-00134
Y-0012075
X-0007Y-00142
X-00091Y-0014
X-00152
X-00178Y-00112
X-001785Y-000975
X-00178Y-00084
X-00194Y-00126
X-00207Y-00125
X-00221Y-00126
X-0021Y-0014
X-00146Y-00053
X-00121946Y-00038989
X-0012156Y-0002517
X-00157Y-00015
X-00152Y00042
X-0017Y00059
X-00169Y00071
X-00188
X-00201Y00059
X-00115Y0006
X-00089
X-0007Y00038
X-00034Y00051
X-00023Y00053
X-00031Y00087
X-00016Y00089
X0001Y00084
X00024Y00081
X00029Y00063125
X00058Y001
X00093Y00099
Y00087
Y00074
X00099Y00059
X0012Y00118
X00095Y00136
X00104Y00152
X00134Y00153
X00127Y0016
X00141
X00148Y00153
X00162
X00155Y0016
X00169
X00036Y0015
X00021Y00148
X00004Y00128
X-00022Y00115
X-00041Y00114
X-00042Y00128
X-00041Y00142
X-00065Y00138
X-00071Y0009
X-00077Y-00005
X-00058Y-0001
X-00033Y-00017
X00011Y00001
X-00147Y00132
Y00159
Y0017
X-0027Y00117
X-00299Y00119
X-003Y00106
X-00305Y00098
Y00061
X-00285Y00024
X-00259Y00038
Y00009
X-00255Y-00017
X-00235Y-0001
X-00276Y-00148
X-003Y00146
X00203Y00259
X00267Y00268
X00294Y0024975
T02
X-00204218Y-00288904
T03
X00335Y-00125
Y-00015
X0033138Y000225
Y001325
T04
X00285Y-00095
Y-00045
X0023138Y000525
Y001025
T05
X-00335Y-00265
X00335
X-00335Y0015
X00335Y00265
M30
