ISO-10303-21;
HEADER;
/* Generated by software containing ST-Developer
 * from STEP Tools, Inc. (www.steptools.com) 
 */

FILE_DESCRIPTION(
/* description */ (''),
/* implementation_level */ '2;1');

FILE_NAME(
/* name */ 'Propeller_2218_3Blade.step',
/* time_stamp */ '2026-03-13T16:50:29+01:00',
/* author */ (''),
/* organization */ (''),
/* preprocessor_version */ 'ST-DEVELOPER v20.1',
/* originating_system */ 'Autodesk Translation Framework v14.24.0.0',
/* authorisation */ '');

FILE_SCHEMA (('AUTOMOTIVE_DESIGN { 1 0 10303 214 3 1 1 }'));
ENDSEC;

DATA;
#10=MECHANICAL_DESIGN_GEOMETRIC_PRESENTATION_REPRESENTATION('',(#13),#545);
#11=SHAPE_REPRESENTATION_RELATIONSHIP('SRR','None',#552,#12);
#12=ADVANCED_BREP_SHAPE_REPRESENTATION('',(#14),#544);
#13=STYLED_ITEM('',(#562),#14);
#14=MANIFOLD_SOLID_BREP('Propeller',#293);
#15=FACE_BOUND('',#74,.T.);
#16=FACE_BOUND('',#76,.T.);
#17=PLANE('',#310);
#18=PLANE('',#323);
#19=PLANE('',#327);
#20=PLANE('',#331);
#21=PLANE('',#332);
#22=CIRCLE('',#308,27.95);
#23=CIRCLE('',#309,27.95);
#24=CIRCLE('',#311,3.15);
#25=CIRCLE('',#312,3.15);
#26=CIRCLE('',#314,3.15);
#27=CIRCLE('',#315,3.15);
#28=CIRCLE('',#316,3.15);
#29=CIRCLE('',#317,3.15);
#30=CIRCLE('',#318,3.15);
#31=CIRCLE('',#319,3.15);
#32=CIRCLE('',#321,27.95);
#33=CIRCLE('',#322,27.95);
#34=CIRCLE('',#325,27.95);
#35=CIRCLE('',#326,27.95);
#36=CIRCLE('',#329,0.75);
#37=CIRCLE('',#330,0.75);
#38=CYLINDRICAL_SURFACE('',#307,27.95);
#39=CYLINDRICAL_SURFACE('',#313,3.15);
#40=CYLINDRICAL_SURFACE('',#320,27.95);
#41=CYLINDRICAL_SURFACE('',#324,27.95);
#42=CYLINDRICAL_SURFACE('',#328,0.75);
#43=FACE_OUTER_BOUND('',#59,.T.);
#44=FACE_OUTER_BOUND('',#60,.T.);
#45=FACE_OUTER_BOUND('',#61,.T.);
#46=FACE_OUTER_BOUND('',#62,.T.);
#47=FACE_OUTER_BOUND('',#63,.T.);
#48=FACE_OUTER_BOUND('',#64,.T.);
#49=FACE_OUTER_BOUND('',#65,.T.);
#50=FACE_OUTER_BOUND('',#66,.T.);
#51=FACE_OUTER_BOUND('',#67,.T.);
#52=FACE_OUTER_BOUND('',#68,.T.);
#53=FACE_OUTER_BOUND('',#69,.T.);
#54=FACE_OUTER_BOUND('',#70,.T.);
#55=FACE_OUTER_BOUND('',#71,.T.);
#56=FACE_OUTER_BOUND('',#72,.T.);
#57=FACE_OUTER_BOUND('',#73,.T.);
#58=FACE_OUTER_BOUND('',#75,.T.);
#59=EDGE_LOOP('',(#187,#188,#189,#190));
#60=EDGE_LOOP('',(#191,#192,#193,#194));
#61=EDGE_LOOP('',(#195,#196,#197,#198));
#62=EDGE_LOOP('',(#199,#200,#201,#202,#203));
#63=EDGE_LOOP('',(#204,#205,#206,#207,#208,#209,#210,#211,#212,#213,#214,
#215,#216,#217,#218,#219));
#64=EDGE_LOOP('',(#220,#221,#222,#223));
#65=EDGE_LOOP('',(#224,#225,#226,#227));
#66=EDGE_LOOP('',(#228,#229,#230,#231));
#67=EDGE_LOOP('',(#232,#233,#234,#235));
#68=EDGE_LOOP('',(#236,#237,#238,#239));
#69=EDGE_LOOP('',(#240,#241,#242,#243));
#70=EDGE_LOOP('',(#244,#245,#246,#247));
#71=EDGE_LOOP('',(#248,#249,#250,#251));
#72=EDGE_LOOP('',(#252,#253,#254,#255));
#73=EDGE_LOOP('',(#256));
#74=EDGE_LOOP('',(#257));
#75=EDGE_LOOP('',(#258,#259,#260,#261,#262,#263,#264,#265,#266,#267,#268,
#269));
#76=EDGE_LOOP('',(#270));
#77=LINE('',#414,#91);
#78=LINE('',#419,#92);
#79=LINE('',#425,#93);
#80=LINE('',#440,#94);
#81=LINE('',#448,#95);
#82=LINE('',#452,#96);
#83=LINE('',#456,#97);
#84=LINE('',#460,#98);
#85=LINE('',#464,#99);
#86=LINE('',#480,#100);
#87=LINE('',#486,#101);
#88=LINE('',#514,#102);
#89=LINE('',#520,#103);
#90=LINE('',#538,#104);
#91=VECTOR('',#335,10.);
#92=VECTOR('',#336,10.);
#93=VECTOR('',#343,10.);
#94=VECTOR('',#344,10.);
#95=VECTOR('',#355,3.15);
#96=VECTOR('',#358,10.);
#97=VECTOR('',#361,10.);
#98=VECTOR('',#364,10.);
#99=VECTOR('',#367,10.);
#100=VECTOR('',#370,10.);
#101=VECTOR('',#377,10.);
#102=VECTOR('',#380,10.);
#103=VECTOR('',#387,10.);
#104=VECTOR('',#394,0.75);
#105=(
BOUNDED_CURVE()
B_SPLINE_CURVE(2,(#410,#411,#412),.UNSPECIFIED.,.F.,.F.)
B_SPLINE_CURVE_WITH_KNOTS((3,3),(0.,2.51350244493061),.UNSPECIFIED.)
CURVE()
GEOMETRIC_REPRESENTATION_ITEM()
RATIONAL_B_SPLINE_CURVE((1.,3.,1.))
REPRESENTATION_ITEM('')
);
#106=(
BOUNDED_CURVE()
B_SPLINE_CURVE(2,(#416,#417,#418),.UNSPECIFIED.,.F.,.F.)
B_SPLINE_CURVE_WITH_KNOTS((3,3),(-2.51350244493061,0.),.UNSPECIFIED.)
CURVE()
GEOMETRIC_REPRESENTATION_ITEM()
RATIONAL_B_SPLINE_CURVE((1.,3.,1.))
REPRESENTATION_ITEM('')
);
#107=(
BOUNDED_CURVE()
B_SPLINE_CURVE(2,(#433,#434,#435),.UNSPECIFIED.,.F.,.F.)
B_SPLINE_CURVE_WITH_KNOTS((3,3),(0.,2.8774603665916),.UNSPECIFIED.)
CURVE()
GEOMETRIC_REPRESENTATION_ITEM()
RATIONAL_B_SPLINE_CURVE((1.,3.,1.))
REPRESENTATION_ITEM('')
);
#108=(
BOUNDED_CURVE()
B_SPLINE_CURVE(2,(#437,#438,#439),.UNSPECIFIED.,.F.,.F.)
B_SPLINE_CURVE_WITH_KNOTS((3,3),(0.,2.8774603665916),.UNSPECIFIED.)
CURVE()
GEOMETRIC_REPRESENTATION_ITEM()
RATIONAL_B_SPLINE_CURVE((1.,3.,1.))
REPRESENTATION_ITEM('')
);
#109=(
BOUNDED_CURVE()
B_SPLINE_CURVE(2,(#473,#474,#475),.UNSPECIFIED.,.F.,.F.)
B_SPLINE_CURVE_WITH_KNOTS((3,3),(0.,2.51350244493061),.UNSPECIFIED.)
CURVE()
GEOMETRIC_REPRESENTATION_ITEM()
RATIONAL_B_SPLINE_CURVE((1.,3.,1.))
REPRESENTATION_ITEM('')
);
#110=(
BOUNDED_CURVE()
B_SPLINE_CURVE(2,(#477,#478,#479),.UNSPECIFIED.,.F.,.F.)
B_SPLINE_CURVE_WITH_KNOTS((3,3),(-2.51350244493061,0.),.UNSPECIFIED.)
CURVE()
GEOMETRIC_REPRESENTATION_ITEM()
RATIONAL_B_SPLINE_CURVE((1.,3.,1.))
REPRESENTATION_ITEM('')
);
#111=(
BOUNDED_CURVE()
B_SPLINE_CURVE(2,(#493,#494,#495),.UNSPECIFIED.,.F.,.F.)
B_SPLINE_CURVE_WITH_KNOTS((3,3),(0.,2.8774603665916),.UNSPECIFIED.)
CURVE()
GEOMETRIC_REPRESENTATION_ITEM()
RATIONAL_B_SPLINE_CURVE((1.,3.,1.))
REPRESENTATION_ITEM('')
);
#112=(
BOUNDED_CURVE()
B_SPLINE_CURVE(2,(#496,#497,#498),.UNSPECIFIED.,.F.,.F.)
B_SPLINE_CURVE_WITH_KNOTS((3,3),(0.,2.8774603665916),.UNSPECIFIED.)
CURVE()
GEOMETRIC_REPRESENTATION_ITEM()
RATIONAL_B_SPLINE_CURVE((1.,3.,1.))
REPRESENTATION_ITEM('')
);
#113=(
BOUNDED_CURVE()
B_SPLINE_CURVE(2,(#507,#508,#509),.UNSPECIFIED.,.F.,.F.)
B_SPLINE_CURVE_WITH_KNOTS((3,3),(0.,2.51350244493061),.UNSPECIFIED.)
CURVE()
GEOMETRIC_REPRESENTATION_ITEM()
RATIONAL_B_SPLINE_CURVE((1.,3.,1.))
REPRESENTATION_ITEM('')
);
#114=(
BOUNDED_CURVE()
B_SPLINE_CURVE(2,(#511,#512,#513),.UNSPECIFIED.,.F.,.F.)
B_SPLINE_CURVE_WITH_KNOTS((3,3),(-2.51350244493061,0.),.UNSPECIFIED.)
CURVE()
GEOMETRIC_REPRESENTATION_ITEM()
RATIONAL_B_SPLINE_CURVE((1.,3.,1.))
REPRESENTATION_ITEM('')
);
#115=(
BOUNDED_CURVE()
B_SPLINE_CURVE(2,(#527,#528,#529),.UNSPECIFIED.,.F.,.F.)
B_SPLINE_CURVE_WITH_KNOTS((3,3),(0.,2.8774603665916),.UNSPECIFIED.)
CURVE()
GEOMETRIC_REPRESENTATION_ITEM()
RATIONAL_B_SPLINE_CURVE((1.,3.,1.))
REPRESENTATION_ITEM('')
);
#116=(
BOUNDED_CURVE()
B_SPLINE_CURVE(2,(#530,#531,#532),.UNSPECIFIED.,.F.,.F.)
B_SPLINE_CURVE_WITH_KNOTS((3,3),(0.,2.8774603665916),.UNSPECIFIED.)
CURVE()
GEOMETRIC_REPRESENTATION_ITEM()
RATIONAL_B_SPLINE_CURVE((1.,3.,1.))
REPRESENTATION_ITEM('')
);
#117=VERTEX_POINT('',#408);
#118=VERTEX_POINT('',#409);
#119=VERTEX_POINT('',#413);
#120=VERTEX_POINT('',#415);
#121=VERTEX_POINT('',#421);
#122=VERTEX_POINT('',#423);
#123=VERTEX_POINT('',#432);
#124=VERTEX_POINT('',#436);
#125=VERTEX_POINT('',#442);
#126=VERTEX_POINT('',#446);
#127=VERTEX_POINT('',#449);
#128=VERTEX_POINT('',#451);
#129=VERTEX_POINT('',#453);
#130=VERTEX_POINT('',#455);
#131=VERTEX_POINT('',#457);
#132=VERTEX_POINT('',#459);
#133=VERTEX_POINT('',#461);
#134=VERTEX_POINT('',#463);
#135=VERTEX_POINT('',#472);
#136=VERTEX_POINT('',#476);
#137=VERTEX_POINT('',#482);
#138=VERTEX_POINT('',#484);
#139=VERTEX_POINT('',#506);
#140=VERTEX_POINT('',#510);
#141=VERTEX_POINT('',#516);
#142=VERTEX_POINT('',#518);
#143=VERTEX_POINT('',#535);
#144=VERTEX_POINT('',#537);
#145=EDGE_CURVE('',#117,#118,#105,.T.);
#146=EDGE_CURVE('',#119,#117,#77,.T.);
#147=EDGE_CURVE('',#120,#119,#106,.T.);
#148=EDGE_CURVE('',#118,#120,#78,.T.);
#149=EDGE_CURVE('',#121,#118,#22,.T.);
#150=EDGE_CURVE('',#122,#120,#23,.T.);
#151=EDGE_CURVE('',#121,#122,#79,.T.);
#152=EDGE_CURVE('',#123,#121,#107,.T.);
#153=EDGE_CURVE('',#124,#122,#108,.T.);
#154=EDGE_CURVE('',#123,#124,#80,.T.);
#155=EDGE_CURVE('',#125,#119,#24,.T.);
#156=EDGE_CURVE('',#124,#125,#25,.T.);
#157=EDGE_CURVE('',#126,#126,#26,.T.);
#158=EDGE_CURVE('',#126,#125,#81,.T.);
#159=EDGE_CURVE('',#117,#127,#27,.T.);
#160=EDGE_CURVE('',#127,#128,#82,.T.);
#161=EDGE_CURVE('',#128,#129,#28,.T.);
#162=EDGE_CURVE('',#129,#130,#83,.T.);
#163=EDGE_CURVE('',#130,#131,#29,.T.);
#164=EDGE_CURVE('',#131,#132,#84,.T.);
#165=EDGE_CURVE('',#132,#133,#30,.T.);
#166=EDGE_CURVE('',#133,#134,#85,.T.);
#167=EDGE_CURVE('',#134,#123,#31,.T.);
#168=EDGE_CURVE('',#130,#135,#109,.T.);
#169=EDGE_CURVE('',#136,#129,#110,.T.);
#170=EDGE_CURVE('',#135,#136,#86,.T.);
#171=EDGE_CURVE('',#137,#135,#32,.T.);
#172=EDGE_CURVE('',#138,#136,#33,.T.);
#173=EDGE_CURVE('',#137,#138,#87,.T.);
#174=EDGE_CURVE('',#127,#137,#111,.T.);
#175=EDGE_CURVE('',#128,#138,#112,.T.);
#176=EDGE_CURVE('',#134,#139,#113,.T.);
#177=EDGE_CURVE('',#140,#133,#114,.T.);
#178=EDGE_CURVE('',#139,#140,#88,.T.);
#179=EDGE_CURVE('',#141,#139,#34,.T.);
#180=EDGE_CURVE('',#142,#140,#35,.T.);
#181=EDGE_CURVE('',#141,#142,#89,.T.);
#182=EDGE_CURVE('',#131,#141,#115,.T.);
#183=EDGE_CURVE('',#132,#142,#116,.T.);
#184=EDGE_CURVE('',#143,#143,#36,.T.);
#185=EDGE_CURVE('',#143,#144,#90,.T.);
#186=EDGE_CURVE('',#144,#144,#37,.T.);
#187=ORIENTED_EDGE('',*,*,#145,.F.);
#188=ORIENTED_EDGE('',*,*,#146,.F.);
#189=ORIENTED_EDGE('',*,*,#147,.F.);
#190=ORIENTED_EDGE('',*,*,#148,.F.);
#191=ORIENTED_EDGE('',*,*,#149,.T.);
#192=ORIENTED_EDGE('',*,*,#148,.T.);
#193=ORIENTED_EDGE('',*,*,#150,.F.);
#194=ORIENTED_EDGE('',*,*,#151,.F.);
#195=ORIENTED_EDGE('',*,*,#152,.T.);
#196=ORIENTED_EDGE('',*,*,#151,.T.);
#197=ORIENTED_EDGE('',*,*,#153,.F.);
#198=ORIENTED_EDGE('',*,*,#154,.F.);
#199=ORIENTED_EDGE('',*,*,#153,.T.);
#200=ORIENTED_EDGE('',*,*,#150,.T.);
#201=ORIENTED_EDGE('',*,*,#147,.T.);
#202=ORIENTED_EDGE('',*,*,#155,.F.);
#203=ORIENTED_EDGE('',*,*,#156,.F.);
#204=ORIENTED_EDGE('',*,*,#157,.F.);
#205=ORIENTED_EDGE('',*,*,#158,.T.);
#206=ORIENTED_EDGE('',*,*,#155,.T.);
#207=ORIENTED_EDGE('',*,*,#146,.T.);
#208=ORIENTED_EDGE('',*,*,#159,.T.);
#209=ORIENTED_EDGE('',*,*,#160,.T.);
#210=ORIENTED_EDGE('',*,*,#161,.T.);
#211=ORIENTED_EDGE('',*,*,#162,.T.);
#212=ORIENTED_EDGE('',*,*,#163,.T.);
#213=ORIENTED_EDGE('',*,*,#164,.T.);
#214=ORIENTED_EDGE('',*,*,#165,.T.);
#215=ORIENTED_EDGE('',*,*,#166,.T.);
#216=ORIENTED_EDGE('',*,*,#167,.T.);
#217=ORIENTED_EDGE('',*,*,#154,.T.);
#218=ORIENTED_EDGE('',*,*,#156,.T.);
#219=ORIENTED_EDGE('',*,*,#158,.F.);
#220=ORIENTED_EDGE('',*,*,#168,.F.);
#221=ORIENTED_EDGE('',*,*,#162,.F.);
#222=ORIENTED_EDGE('',*,*,#169,.F.);
#223=ORIENTED_EDGE('',*,*,#170,.F.);
#224=ORIENTED_EDGE('',*,*,#171,.T.);
#225=ORIENTED_EDGE('',*,*,#170,.T.);
#226=ORIENTED_EDGE('',*,*,#172,.F.);
#227=ORIENTED_EDGE('',*,*,#173,.F.);
#228=ORIENTED_EDGE('',*,*,#174,.T.);
#229=ORIENTED_EDGE('',*,*,#173,.T.);
#230=ORIENTED_EDGE('',*,*,#175,.F.);
#231=ORIENTED_EDGE('',*,*,#160,.F.);
#232=ORIENTED_EDGE('',*,*,#175,.T.);
#233=ORIENTED_EDGE('',*,*,#172,.T.);
#234=ORIENTED_EDGE('',*,*,#169,.T.);
#235=ORIENTED_EDGE('',*,*,#161,.F.);
#236=ORIENTED_EDGE('',*,*,#176,.F.);
#237=ORIENTED_EDGE('',*,*,#166,.F.);
#238=ORIENTED_EDGE('',*,*,#177,.F.);
#239=ORIENTED_EDGE('',*,*,#178,.F.);
#240=ORIENTED_EDGE('',*,*,#179,.T.);
#241=ORIENTED_EDGE('',*,*,#178,.T.);
#242=ORIENTED_EDGE('',*,*,#180,.F.);
#243=ORIENTED_EDGE('',*,*,#181,.F.);
#244=ORIENTED_EDGE('',*,*,#182,.T.);
#245=ORIENTED_EDGE('',*,*,#181,.T.);
#246=ORIENTED_EDGE('',*,*,#183,.F.);
#247=ORIENTED_EDGE('',*,*,#164,.F.);
#248=ORIENTED_EDGE('',*,*,#183,.T.);
#249=ORIENTED_EDGE('',*,*,#180,.T.);
#250=ORIENTED_EDGE('',*,*,#177,.T.);
#251=ORIENTED_EDGE('',*,*,#165,.F.);
#252=ORIENTED_EDGE('',*,*,#184,.F.);
#253=ORIENTED_EDGE('',*,*,#185,.T.);
#254=ORIENTED_EDGE('',*,*,#186,.T.);
#255=ORIENTED_EDGE('',*,*,#185,.F.);
#256=ORIENTED_EDGE('',*,*,#157,.T.);
#257=ORIENTED_EDGE('',*,*,#184,.T.);
#258=ORIENTED_EDGE('',*,*,#167,.F.);
#259=ORIENTED_EDGE('',*,*,#176,.T.);
#260=ORIENTED_EDGE('',*,*,#179,.F.);
#261=ORIENTED_EDGE('',*,*,#182,.F.);
#262=ORIENTED_EDGE('',*,*,#163,.F.);
#263=ORIENTED_EDGE('',*,*,#168,.T.);
#264=ORIENTED_EDGE('',*,*,#171,.F.);
#265=ORIENTED_EDGE('',*,*,#174,.F.);
#266=ORIENTED_EDGE('',*,*,#159,.F.);
#267=ORIENTED_EDGE('',*,*,#145,.T.);
#268=ORIENTED_EDGE('',*,*,#149,.F.);
#269=ORIENTED_EDGE('',*,*,#152,.F.);
#270=ORIENTED_EDGE('',*,*,#186,.F.);
#271=(
BOUNDED_SURFACE()
B_SPLINE_SURFACE(2,1,((#402,#403),(#404,#405),(#406,#407)),
 .UNSPECIFIED.,.F.,.F.,.F.)
B_SPLINE_SURFACE_WITH_KNOTS((3,3),(2,2),(-2.51350244493061,0.),(0.,0.3),
 .UNSPECIFIED.)
GEOMETRIC_REPRESENTATION_ITEM()
RATIONAL_B_SPLINE_SURFACE(((1.,1.),(3.,3.),(1.,1.)))
REPRESENTATION_ITEM('')
SURFACE()
);
#272=(
BOUNDED_SURFACE()
B_SPLINE_SURFACE(2,1,((#426,#427),(#428,#429),(#430,#431)),
 .UNSPECIFIED.,.F.,.F.,.F.)
B_SPLINE_SURFACE_WITH_KNOTS((3,3),(2,2),(0.,2.8774603665916),(0.,0.3),
 .UNSPECIFIED.)
GEOMETRIC_REPRESENTATION_ITEM()
RATIONAL_B_SPLINE_SURFACE(((1.,1.),(3.,3.),(1.,1.)))
REPRESENTATION_ITEM('')
SURFACE()
);
#273=(
BOUNDED_SURFACE()
B_SPLINE_SURFACE(2,1,((#466,#467),(#468,#469),(#470,#471)),
 .UNSPECIFIED.,.F.,.F.,.F.)
B_SPLINE_SURFACE_WITH_KNOTS((3,3),(2,2),(-2.51350244493061,0.),(0.,0.3),
 .UNSPECIFIED.)
GEOMETRIC_REPRESENTATION_ITEM()
RATIONAL_B_SPLINE_SURFACE(((1.,1.),(3.,3.),(1.,1.)))
REPRESENTATION_ITEM('')
SURFACE()
);
#274=(
BOUNDED_SURFACE()
B_SPLINE_SURFACE(2,1,((#487,#488),(#489,#490),(#491,#492)),
 .UNSPECIFIED.,.F.,.F.,.F.)
B_SPLINE_SURFACE_WITH_KNOTS((3,3),(2,2),(0.,2.8774603665916),(0.,0.3),
 .UNSPECIFIED.)
GEOMETRIC_REPRESENTATION_ITEM()
RATIONAL_B_SPLINE_SURFACE(((1.,1.),(3.,3.),(1.,1.)))
REPRESENTATION_ITEM('')
SURFACE()
);
#275=(
BOUNDED_SURFACE()
B_SPLINE_SURFACE(2,1,((#500,#501),(#502,#503),(#504,#505)),
 .UNSPECIFIED.,.F.,.F.,.F.)
B_SPLINE_SURFACE_WITH_KNOTS((3,3),(2,2),(-2.51350244493061,0.),(0.,0.3),
 .UNSPECIFIED.)
GEOMETRIC_REPRESENTATION_ITEM()
RATIONAL_B_SPLINE_SURFACE(((1.,1.),(3.,3.),(1.,1.)))
REPRESENTATION_ITEM('')
SURFACE()
);
#276=(
BOUNDED_SURFACE()
B_SPLINE_SURFACE(2,1,((#521,#522),(#523,#524),(#525,#526)),
 .UNSPECIFIED.,.F.,.F.,.F.)
B_SPLINE_SURFACE_WITH_KNOTS((3,3),(2,2),(0.,2.8774603665916),(0.,0.3),
 .UNSPECIFIED.)
GEOMETRIC_REPRESENTATION_ITEM()
RATIONAL_B_SPLINE_SURFACE(((1.,1.),(3.,3.),(1.,1.)))
REPRESENTATION_ITEM('')
SURFACE()
);
#277=ADVANCED_FACE('',(#43),#271,.T.);
#278=ADVANCED_FACE('',(#44),#38,.T.);
#279=ADVANCED_FACE('',(#45),#272,.T.);
#280=ADVANCED_FACE('',(#46),#17,.T.);
#281=ADVANCED_FACE('',(#47),#39,.T.);
#282=ADVANCED_FACE('',(#48),#273,.T.);
#283=ADVANCED_FACE('',(#49),#40,.T.);
#284=ADVANCED_FACE('',(#50),#274,.T.);
#285=ADVANCED_FACE('',(#51),#18,.T.);
#286=ADVANCED_FACE('',(#52),#275,.T.);
#287=ADVANCED_FACE('',(#53),#41,.T.);
#288=ADVANCED_FACE('',(#54),#276,.T.);
#289=ADVANCED_FACE('',(#55),#19,.T.);
#290=ADVANCED_FACE('',(#56),#42,.F.);
#291=ADVANCED_FACE('',(#57,#15),#20,.T.);
#292=ADVANCED_FACE('',(#58,#16),#21,.F.);
#293=CLOSED_SHELL('',(#277,#278,#279,#280,#281,#282,#283,#284,#285,#286,
#287,#288,#289,#290,#291,#292));
#294=DERIVED_UNIT_ELEMENT(#296,1.);
#295=DERIVED_UNIT_ELEMENT(#547,-3.);
#296=(
MASS_UNIT()
NAMED_UNIT(*)
SI_UNIT(.KILO.,.GRAM.)
);
#297=DERIVED_UNIT((#294,#295));
#298=MEASURE_REPRESENTATION_ITEM('density measure',
POSITIVE_RATIO_MEASURE(7850.),#297);
#299=PROPERTY_DEFINITION_REPRESENTATION(#304,#301);
#300=PROPERTY_DEFINITION_REPRESENTATION(#305,#302);
#301=REPRESENTATION('material name',(#303),#544);
#302=REPRESENTATION('density',(#298),#544);
#303=DESCRIPTIVE_REPRESENTATION_ITEM('Steel','Steel');
#304=PROPERTY_DEFINITION('material property','material name',#554);
#305=PROPERTY_DEFINITION('material property','density of part',#554);
#306=AXIS2_PLACEMENT_3D('',#401,#333,#334);
#307=AXIS2_PLACEMENT_3D('',#420,#337,#338);
#308=AXIS2_PLACEMENT_3D('',#422,#339,#340);
#309=AXIS2_PLACEMENT_3D('',#424,#341,#342);
#310=AXIS2_PLACEMENT_3D('',#441,#345,#346);
#311=AXIS2_PLACEMENT_3D('',#443,#347,#348);
#312=AXIS2_PLACEMENT_3D('',#444,#349,#350);
#313=AXIS2_PLACEMENT_3D('',#445,#351,#352);
#314=AXIS2_PLACEMENT_3D('',#447,#353,#354);
#315=AXIS2_PLACEMENT_3D('',#450,#356,#357);
#316=AXIS2_PLACEMENT_3D('',#454,#359,#360);
#317=AXIS2_PLACEMENT_3D('',#458,#362,#363);
#318=AXIS2_PLACEMENT_3D('',#462,#365,#366);
#319=AXIS2_PLACEMENT_3D('',#465,#368,#369);
#320=AXIS2_PLACEMENT_3D('',#481,#371,#372);
#321=AXIS2_PLACEMENT_3D('',#483,#373,#374);
#322=AXIS2_PLACEMENT_3D('',#485,#375,#376);
#323=AXIS2_PLACEMENT_3D('',#499,#378,#379);
#324=AXIS2_PLACEMENT_3D('',#515,#381,#382);
#325=AXIS2_PLACEMENT_3D('',#517,#383,#384);
#326=AXIS2_PLACEMENT_3D('',#519,#385,#386);
#327=AXIS2_PLACEMENT_3D('',#533,#388,#389);
#328=AXIS2_PLACEMENT_3D('',#534,#390,#391);
#329=AXIS2_PLACEMENT_3D('',#536,#392,#393);
#330=AXIS2_PLACEMENT_3D('',#539,#395,#396);
#331=AXIS2_PLACEMENT_3D('',#540,#397,#398);
#332=AXIS2_PLACEMENT_3D('',#541,#399,#400);
#333=DIRECTION('axis',(0.,0.,1.));
#334=DIRECTION('refdir',(1.,0.,0.));
#335=DIRECTION('',(0.,0.,-1.));
#336=DIRECTION('',(0.,0.,1.));
#337=DIRECTION('center_axis',(0.,0.,1.));
#338=DIRECTION('ref_axis',(1.,0.,0.));
#339=DIRECTION('center_axis',(0.,0.,1.));
#340=DIRECTION('ref_axis',(1.,0.,0.));
#341=DIRECTION('center_axis',(0.,0.,1.));
#342=DIRECTION('ref_axis',(1.,0.,0.));
#343=DIRECTION('',(0.,0.,1.));
#344=DIRECTION('',(0.,0.,1.));
#345=DIRECTION('center_axis',(0.,0.,1.));
#346=DIRECTION('ref_axis',(1.,0.,0.));
#347=DIRECTION('center_axis',(0.,0.,1.));
#348=DIRECTION('ref_axis',(1.,0.,0.));
#349=DIRECTION('center_axis',(0.,0.,1.));
#350=DIRECTION('ref_axis',(1.,0.,0.));
#351=DIRECTION('center_axis',(0.,0.,1.));
#352=DIRECTION('ref_axis',(1.,0.,0.));
#353=DIRECTION('center_axis',(0.,0.,1.));
#354=DIRECTION('ref_axis',(1.,0.,0.));
#355=DIRECTION('',(0.,0.,-1.));
#356=DIRECTION('center_axis',(0.,0.,1.));
#357=DIRECTION('ref_axis',(1.,0.,0.));
#358=DIRECTION('',(0.,0.,1.));
#359=DIRECTION('center_axis',(0.,0.,1.));
#360=DIRECTION('ref_axis',(1.,0.,0.));
#361=DIRECTION('',(0.,0.,-1.));
#362=DIRECTION('center_axis',(0.,0.,1.));
#363=DIRECTION('ref_axis',(1.,0.,0.));
#364=DIRECTION('',(0.,0.,1.));
#365=DIRECTION('center_axis',(0.,0.,1.));
#366=DIRECTION('ref_axis',(1.,0.,0.));
#367=DIRECTION('',(0.,0.,-1.));
#368=DIRECTION('center_axis',(0.,0.,1.));
#369=DIRECTION('ref_axis',(1.,0.,0.));
#370=DIRECTION('',(0.,0.,1.));
#371=DIRECTION('center_axis',(0.,0.,1.));
#372=DIRECTION('ref_axis',(1.,0.,0.));
#373=DIRECTION('center_axis',(0.,0.,1.));
#374=DIRECTION('ref_axis',(1.,0.,0.));
#375=DIRECTION('center_axis',(0.,0.,1.));
#376=DIRECTION('ref_axis',(1.,0.,0.));
#377=DIRECTION('',(0.,0.,1.));
#378=DIRECTION('center_axis',(0.,0.,1.));
#379=DIRECTION('ref_axis',(1.,0.,0.));
#380=DIRECTION('',(0.,0.,1.));
#381=DIRECTION('center_axis',(0.,0.,1.));
#382=DIRECTION('ref_axis',(1.,0.,0.));
#383=DIRECTION('center_axis',(0.,0.,1.));
#384=DIRECTION('ref_axis',(1.,0.,0.));
#385=DIRECTION('center_axis',(0.,0.,1.));
#386=DIRECTION('ref_axis',(1.,0.,0.));
#387=DIRECTION('',(0.,0.,1.));
#388=DIRECTION('center_axis',(0.,0.,1.));
#389=DIRECTION('ref_axis',(1.,0.,0.));
#390=DIRECTION('center_axis',(0.,0.,1.));
#391=DIRECTION('ref_axis',(1.,0.,0.));
#392=DIRECTION('center_axis',(0.,0.,-1.));
#393=DIRECTION('ref_axis',(1.,0.,0.));
#394=DIRECTION('',(0.,0.,-1.));
#395=DIRECTION('center_axis',(0.,0.,-1.));
#396=DIRECTION('ref_axis',(1.,0.,0.));
#397=DIRECTION('center_axis',(0.,0.,1.));
#398=DIRECTION('ref_axis',(1.,0.,0.));
#399=DIRECTION('center_axis',(0.,0.,1.));
#400=DIRECTION('ref_axis',(1.,0.,0.));
#401=CARTESIAN_POINT('',(0.,0.,0.));
#402=CARTESIAN_POINT('Ctrl Pts',(-21.6539273307035,-17.6722927532511,0.));
#403=CARTESIAN_POINT('Ctrl Pts',(-21.6539273307035,-17.6722927532511,3.));
#404=CARTESIAN_POINT('Ctrl Pts',(-12.4903812428878,-8.36602552844793,0.));
#405=CARTESIAN_POINT('Ctrl Pts',(-12.4903812428878,-8.36602552844793,3.));
#406=CARTESIAN_POINT('Ctrl Pts',(-1.71325425048746,-2.64334255691287,0.));
#407=CARTESIAN_POINT('Ctrl Pts',(-1.71325425048746,-2.64334255691287,3.));
#408=CARTESIAN_POINT('',(-1.71325425048746,-2.64334255691287,0.));
#409=CARTESIAN_POINT('',(-21.6539273307035,-17.6722927532511,0.));
#410=CARTESIAN_POINT('Ctrl Pts',(-1.71325425048746,-2.64334255691287,0.));
#411=CARTESIAN_POINT('Ctrl Pts',(-12.4903812428878,-8.36602552844793,0.));
#412=CARTESIAN_POINT('Ctrl Pts',(-21.6539273307035,-17.6722927532511,0.));
#413=CARTESIAN_POINT('',(-1.71325425048746,-2.64334255691287,3.));
#414=CARTESIAN_POINT('',(-1.71325425048746,-2.64334255691287,0.));
#415=CARTESIAN_POINT('',(-21.6539273307035,-17.6722927532511,3.));
#416=CARTESIAN_POINT('Ctrl Pts',(-21.6539273307035,-17.6722927532511,3.));
#417=CARTESIAN_POINT('Ctrl Pts',(-12.4903812428878,-8.36602552844793,3.));
#418=CARTESIAN_POINT('Ctrl Pts',(-1.71325425048746,-2.64334255691287,3.));
#419=CARTESIAN_POINT('',(-21.6539273307035,-17.6722927532511,0.));
#420=CARTESIAN_POINT('Origin',(0.,0.,0.));
#421=CARTESIAN_POINT('',(-24.7821603404868,-12.9246674563952,0.));
#422=CARTESIAN_POINT('Origin',(0.,0.,0.));
#423=CARTESIAN_POINT('',(-24.7821603404868,-12.9246674563952,3.));
#424=CARTESIAN_POINT('Origin',(0.,0.,3.));
#425=CARTESIAN_POINT('',(-24.7821603404868,-12.9246674563952,0.));
#426=CARTESIAN_POINT('Ctrl Pts',(-2.88301525460212,1.26914264041969,0.));
#427=CARTESIAN_POINT('Ctrl Pts',(-2.88301525460212,1.26914264041969,3.));
#428=CARTESIAN_POINT('Ctrl Pts',(-16.2583304914657,2.16025407003469,0.));
#429=CARTESIAN_POINT('Ctrl Pts',(-16.2583304914657,2.16025407003469,3.));
#430=CARTESIAN_POINT('Ctrl Pts',(-24.7821603404868,-12.9246674563952,0.));
#431=CARTESIAN_POINT('Ctrl Pts',(-24.7821603404868,-12.9246674563952,3.));
#432=CARTESIAN_POINT('',(-2.88301525460212,1.26914264041969,0.));
#433=CARTESIAN_POINT('Ctrl Pts',(-2.88301525460212,1.26914264041969,0.));
#434=CARTESIAN_POINT('Ctrl Pts',(-16.2583304914657,2.16025407003468,0.));
#435=CARTESIAN_POINT('Ctrl Pts',(-24.7821603404868,-12.9246674563952,0.));
#436=CARTESIAN_POINT('',(-2.88301525460212,1.26914264041969,3.));
#437=CARTESIAN_POINT('Ctrl Pts',(-2.88301525460212,1.26914264041969,3.));
#438=CARTESIAN_POINT('Ctrl Pts',(-16.2583304914657,2.16025407003468,3.));
#439=CARTESIAN_POINT('Ctrl Pts',(-24.7821603404868,-12.9246674563952,3.));
#440=CARTESIAN_POINT('',(-2.88301525460212,1.26914264041969,0.));
#441=CARTESIAN_POINT('Origin',(-13.2477072954872,-7.75601934160821,3.));
#442=CARTESIAN_POINT('',(-3.15,-3.85763741731416E-16,3.));
#443=CARTESIAN_POINT('Origin',(0.,0.,3.));
#444=CARTESIAN_POINT('Origin',(0.,0.,3.));
#445=CARTESIAN_POINT('Origin',(0.,0.,0.));
#446=CARTESIAN_POINT('',(-3.15,-3.85763741731416E-16,4.));
#447=CARTESIAN_POINT('Origin',(0.,0.,4.));
#448=CARTESIAN_POINT('',(-3.15,-3.85763741731416E-16,0.));
#449=CARTESIAN_POINT('',(0.342397859671548,-3.13133577019334,0.));
#450=CARTESIAN_POINT('Origin',(0.,0.,0.));
#451=CARTESIAN_POINT('',(0.342397859671548,-3.13133577019334,3.));
#452=CARTESIAN_POINT('',(0.342397859671548,-3.13133577019334,0.));
#453=CARTESIAN_POINT('',(3.14582893043479,-0.162050425607371,3.));
#454=CARTESIAN_POINT('Origin',(0.,0.,3.));
#455=CARTESIAN_POINT('',(3.14582893043479,-0.162050425607371,0.));
#456=CARTESIAN_POINT('',(3.14582893043479,-0.162050425607371,0.));
#457=CARTESIAN_POINT('',(2.54061739493057,1.86219312977365,0.));
#458=CARTESIAN_POINT('Origin',(0.,0.,0.));
#459=CARTESIAN_POINT('',(2.54061739493057,1.86219312977365,3.));
#460=CARTESIAN_POINT('',(2.54061739493057,1.86219312977365,0.));
#461=CARTESIAN_POINT('',(-1.43257467994733,2.80539298252024,3.));
#462=CARTESIAN_POINT('Origin',(0.,0.,3.));
#463=CARTESIAN_POINT('',(-1.43257467994733,2.80539298252024,0.));
#464=CARTESIAN_POINT('',(-1.43257467994733,2.80539298252024,0.));
#465=CARTESIAN_POINT('Origin',(0.,0.,0.));
#466=CARTESIAN_POINT('Ctrl Pts',(26.1316181327828,-9.91670478346584,0.));
#467=CARTESIAN_POINT('Ctrl Pts',(26.1316181327828,-9.91670478346584,3.));
#468=CARTESIAN_POINT('Ctrl Pts',(13.4903812577889,-6.63397469506949,0.));
#469=CARTESIAN_POINT('Ctrl Pts',(13.4903812577889,-6.63397469506949,3.));
#470=CARTESIAN_POINT('Ctrl Pts',(3.14582893043479,-0.162050425607371,0.));
#471=CARTESIAN_POINT('Ctrl Pts',(3.14582893043479,-0.162050425607371,3.));
#472=CARTESIAN_POINT('',(26.1316181327828,-9.91670478346584,0.));
#473=CARTESIAN_POINT('Ctrl Pts',(3.14582893043479,-0.162050425607371,0.));
#474=CARTESIAN_POINT('Ctrl Pts',(13.4903812577889,-6.63397469506949,0.));
#475=CARTESIAN_POINT('Ctrl Pts',(26.1316181327828,-9.91670478346584,0.));
#476=CARTESIAN_POINT('',(26.1316181327828,-9.91670478346584,3.));
#477=CARTESIAN_POINT('Ctrl Pts',(26.1316181327828,-9.91670478346584,3.));
#478=CARTESIAN_POINT('Ctrl Pts',(13.4903812577889,-6.63397469506949,3.));
#479=CARTESIAN_POINT('Ctrl Pts',(3.14582893043479,-0.162050425607371,3.));
#480=CARTESIAN_POINT('',(26.1316181327828,-9.91670478346584,0.));
#481=CARTESIAN_POINT('Origin',(0.,0.,0.));
#482=CARTESIAN_POINT('',(23.5841705229477,-14.9996466873232,0.));
#483=CARTESIAN_POINT('Origin',(0.,0.,0.));
#484=CARTESIAN_POINT('',(23.5841705229477,-14.9996466873232,3.));
#485=CARTESIAN_POINT('Origin',(0.,0.,3.));
#486=CARTESIAN_POINT('',(23.5841705229477,-14.9996466873232,0.));
#487=CARTESIAN_POINT('Ctrl Pts',(0.342397859671548,-3.13133577019334,0.));
#488=CARTESIAN_POINT('Ctrl Pts',(0.342397859671548,-3.13133577019334,3.));
#489=CARTESIAN_POINT('Ctrl Pts',(6.25833034245408,-15.1602542637498,0.));
#490=CARTESIAN_POINT('Ctrl Pts',(6.25833034245408,-15.1602542637498,3.));
#491=CARTESIAN_POINT('Ctrl Pts',(23.5841705229477,-14.9996466873232,0.));
#492=CARTESIAN_POINT('Ctrl Pts',(23.5841705229477,-14.9996466873232,3.));
#493=CARTESIAN_POINT('Ctrl Pts',(0.342397859671548,-3.13133577019334,0.));
#494=CARTESIAN_POINT('Ctrl Pts',(6.25833034245408,-15.1602542637498,0.));
#495=CARTESIAN_POINT('Ctrl Pts',(23.5841705229477,-14.9996466873232,0.));
#496=CARTESIAN_POINT('Ctrl Pts',(0.342397859671548,-3.13133577019334,3.));
#497=CARTESIAN_POINT('Ctrl Pts',(6.25833034245408,-15.1602542637498,3.));
#498=CARTESIAN_POINT('Ctrl Pts',(23.5841705229477,-14.9996466873232,3.));
#499=CARTESIAN_POINT('Origin',(13.2370079962272,-7.66115234467857,3.));
#500=CARTESIAN_POINT('Ctrl Pts',(-4.47769080207935,27.5889975367169,0.));
#501=CARTESIAN_POINT('Ctrl Pts',(-4.47769080207935,27.5889975367169,3.));
#502=CARTESIAN_POINT('Ctrl Pts',(-1.00000001490116,15.0000002235174,0.));
#503=CARTESIAN_POINT('Ctrl Pts',(-1.00000001490116,15.0000002235174,3.));
#504=CARTESIAN_POINT('Ctrl Pts',(-1.43257467994733,2.80539298252024,0.));
#505=CARTESIAN_POINT('Ctrl Pts',(-1.43257467994733,2.80539298252024,3.));
#506=CARTESIAN_POINT('',(-4.47769080207935,27.5889975367169,0.));
#507=CARTESIAN_POINT('Ctrl Pts',(-1.43257467994733,2.80539298252024,0.));
#508=CARTESIAN_POINT('Ctrl Pts',(-1.00000001490116,15.0000002235174,0.));
#509=CARTESIAN_POINT('Ctrl Pts',(-4.47769080207935,27.5889975367169,0.));
#510=CARTESIAN_POINT('',(-4.47769080207936,27.5889975367169,3.));
#511=CARTESIAN_POINT('Ctrl Pts',(-4.47769080207935,27.5889975367169,3.));
#512=CARTESIAN_POINT('Ctrl Pts',(-1.00000001490116,15.0000002235174,3.));
#513=CARTESIAN_POINT('Ctrl Pts',(-1.43257467994733,2.80539298252024,3.));
#514=CARTESIAN_POINT('',(-4.47769080207935,27.5889975367169,0.));
#515=CARTESIAN_POINT('Origin',(0.,0.,0.));
#516=CARTESIAN_POINT('',(1.19798981753918,27.9243141437184,0.));
#517=CARTESIAN_POINT('Origin',(0.,0.,0.));
#518=CARTESIAN_POINT('',(1.19798981753918,27.9243141437184,3.));
#519=CARTESIAN_POINT('Origin',(0.,0.,3.));
#520=CARTESIAN_POINT('',(1.19798981753918,27.9243141437184,0.));
#521=CARTESIAN_POINT('Ctrl Pts',(2.54061739493057,1.86219312977365,0.));
#522=CARTESIAN_POINT('Ctrl Pts',(2.54061739493057,1.86219312977365,3.));
#523=CARTESIAN_POINT('Ctrl Pts',(10.0000001490116,13.0000001937151,0.));
#524=CARTESIAN_POINT('Ctrl Pts',(10.0000001490116,13.0000001937151,3.));
#525=CARTESIAN_POINT('Ctrl Pts',(1.19798981753918,27.9243141437184,0.));
#526=CARTESIAN_POINT('Ctrl Pts',(1.19798981753918,27.9243141437184,3.));
#527=CARTESIAN_POINT('Ctrl Pts',(2.54061739493057,1.86219312977365,0.));
#528=CARTESIAN_POINT('Ctrl Pts',(10.0000001490116,13.0000001937151,0.));
#529=CARTESIAN_POINT('Ctrl Pts',(1.19798981753918,27.9243141437184,0.));
#530=CARTESIAN_POINT('Ctrl Pts',(2.54061739493057,1.86219312977365,3.));
#531=CARTESIAN_POINT('Ctrl Pts',(10.0000001490116,13.0000001937151,3.));
#532=CARTESIAN_POINT('Ctrl Pts',(1.19798981753918,27.9243141437184,3.));
#533=CARTESIAN_POINT('Origin',(2.76115467346613,14.9060965648868,3.));
#534=CARTESIAN_POINT('Origin',(0.,0.,0.));
#535=CARTESIAN_POINT('',(-0.75,-9.18485099360515E-17,4.));
#536=CARTESIAN_POINT('Origin',(0.,0.,4.));
#537=CARTESIAN_POINT('',(-0.75,-9.18485099360515E-17,0.));
#538=CARTESIAN_POINT('',(-0.75,-9.18485099360515E-17,0.));
#539=CARTESIAN_POINT('Origin',(0.,0.,0.));
#540=CARTESIAN_POINT('Origin',(0.,0.,4.));
#541=CARTESIAN_POINT('Origin',(0.,0.,0.));
#542=UNCERTAINTY_MEASURE_WITH_UNIT(LENGTH_MEASURE(0.01),#546,
'DISTANCE_ACCURACY_VALUE',
'Maximum model space distance between geometric entities at asserted c
onnectivities');
#543=UNCERTAINTY_MEASURE_WITH_UNIT(LENGTH_MEASURE(0.01),#546,
'DISTANCE_ACCURACY_VALUE',
'Maximum model space distance between geometric entities at asserted c
onnectivities');
#544=(
GEOMETRIC_REPRESENTATION_CONTEXT(3)
GLOBAL_UNCERTAINTY_ASSIGNED_CONTEXT((#542))
GLOBAL_UNIT_ASSIGNED_CONTEXT((#546,#548,#549))
REPRESENTATION_CONTEXT('','3D')
);
#545=(
GEOMETRIC_REPRESENTATION_CONTEXT(3)
GLOBAL_UNCERTAINTY_ASSIGNED_CONTEXT((#543))
GLOBAL_UNIT_ASSIGNED_CONTEXT((#546,#548,#549))
REPRESENTATION_CONTEXT('','3D')
);
#546=(
LENGTH_UNIT()
NAMED_UNIT(*)
SI_UNIT(.MILLI.,.METRE.)
);
#547=(
LENGTH_UNIT()
NAMED_UNIT(*)
SI_UNIT($,.METRE.)
);
#548=(
NAMED_UNIT(*)
PLANE_ANGLE_UNIT()
SI_UNIT($,.RADIAN.)
);
#549=(
NAMED_UNIT(*)
SI_UNIT($,.STERADIAN.)
SOLID_ANGLE_UNIT()
);
#550=SHAPE_DEFINITION_REPRESENTATION(#551,#552);
#551=PRODUCT_DEFINITION_SHAPE('',$,#554);
#552=SHAPE_REPRESENTATION('',(#306),#544);
#553=PRODUCT_DEFINITION_CONTEXT('part definition',#558,'design');
#554=PRODUCT_DEFINITION('2026-03-09-19-35-59-212',
'Propeller_2218_3Blade',#555,#553);
#555=PRODUCT_DEFINITION_FORMATION('',$,#560);
#556=PRODUCT_RELATED_PRODUCT_CATEGORY('Propeller_2218_3Blade',
'Propeller_2218_3Blade',(#560));
#557=APPLICATION_PROTOCOL_DEFINITION('international standard',
'automotive_design',2009,#558);
#558=APPLICATION_CONTEXT(
'Core Data for Automotive Mechanical Design Process');
#559=PRODUCT_CONTEXT('part definition',#558,'mechanical');
#560=PRODUCT('2026-03-09-19-35-59-212','Propeller_2218_3Blade',$,(#559));
#561=PRESENTATION_STYLE_ASSIGNMENT((#563));
#562=PRESENTATION_STYLE_ASSIGNMENT((#564));
#563=SURFACE_STYLE_USAGE(.BOTH.,#565);
#564=SURFACE_STYLE_USAGE(.BOTH.,#566);
#565=SURFACE_SIDE_STYLE('',(#567));
#566=SURFACE_SIDE_STYLE('',(#568));
#567=SURFACE_STYLE_FILL_AREA(#569);
#568=SURFACE_STYLE_FILL_AREA(#570);
#569=FILL_AREA_STYLE('Steel - Satin',(#571));
#570=FILL_AREA_STYLE('Paint - Metallic (Black)',(#572));
#571=FILL_AREA_STYLE_COLOUR('Steel - Satin',#573);
#572=FILL_AREA_STYLE_COLOUR('Paint - Metallic (Black)',#574);
#573=COLOUR_RGB('Steel - Satin',0.627450980392157,0.627450980392157,0.627450980392157);
#574=COLOUR_RGB('Paint - Metallic (Black)',0.0980392156862745,0.0980392156862745,
0.0980392156862745);
ENDSEC;
END-ISO-10303-21;
