ISO-10303-21;
HEADER;
/* Generated by software containing ST-Developer
 * from STEP Tools, Inc. (www.steptools.com) 
 */

FILE_DESCRIPTION(
/* description */ (''),
/* implementation_level */ '2;1');

FILE_NAME(
/* name */ 'Propeller_4025_2Blade.step',
/* time_stamp */ '2026-03-13T16:50:45+01:00',
/* author */ (''),
/* organization */ (''),
/* preprocessor_version */ 'ST-DEVELOPER v20.1',
/* originating_system */ 'Autodesk Translation Framework v14.24.0.0',
/* authorisation */ '');

FILE_SCHEMA (('AUTOMOTIVE_DESIGN { 1 0 10303 214 3 1 1 }'));
ENDSEC;

DATA;
#10=MECHANICAL_DESIGN_GEOMETRIC_PRESENTATION_REPRESENTATION('',(#13),#483);
#11=SHAPE_REPRESENTATION_RELATIONSHIP('SRR','None',#490,#12);
#12=ADVANCED_BREP_SHAPE_REPRESENTATION('',(#14),#482);
#13=STYLED_ITEM('',(#500),#14);
#14=MANIFOLD_SOLID_BREP('Propeller',#263);
#15=FACE_BOUND('',#74,.T.);
#16=FACE_BOUND('',#75,.T.);
#17=FACE_BOUND('',#76,.T.);
#18=FACE_BOUND('',#78,.T.);
#19=FACE_BOUND('',#79,.T.);
#20=FACE_BOUND('',#80,.T.);
#21=PLANE('',#280);
#22=PLANE('',#291);
#23=PLANE('',#301);
#24=PLANE('',#302);
#25=CIRCLE('',#278,50.8);
#26=CIRCLE('',#279,50.8);
#27=CIRCLE('',#281,5.);
#28=CIRCLE('',#283,5.);
#29=CIRCLE('',#284,5.);
#30=CIRCLE('',#285,5.);
#31=CIRCLE('',#286,5.);
#32=CIRCLE('',#287,5.);
#33=CIRCLE('',#289,50.8);
#34=CIRCLE('',#290,50.8);
#35=CIRCLE('',#293,1.);
#36=CIRCLE('',#294,1.);
#37=CIRCLE('',#296,1.);
#38=CIRCLE('',#297,1.);
#39=CIRCLE('',#299,0.75);
#40=CIRCLE('',#300,0.75);
#41=CYLINDRICAL_SURFACE('',#277,50.8);
#42=CYLINDRICAL_SURFACE('',#282,5.);
#43=CYLINDRICAL_SURFACE('',#288,50.8);
#44=CYLINDRICAL_SURFACE('',#292,1.);
#45=CYLINDRICAL_SURFACE('',#295,1.);
#46=CYLINDRICAL_SURFACE('',#298,0.75);
#47=FACE_OUTER_BOUND('',#61,.T.);
#48=FACE_OUTER_BOUND('',#62,.T.);
#49=FACE_OUTER_BOUND('',#63,.T.);
#50=FACE_OUTER_BOUND('',#64,.T.);
#51=FACE_OUTER_BOUND('',#65,.T.);
#52=FACE_OUTER_BOUND('',#66,.T.);
#53=FACE_OUTER_BOUND('',#67,.T.);
#54=FACE_OUTER_BOUND('',#68,.T.);
#55=FACE_OUTER_BOUND('',#69,.T.);
#56=FACE_OUTER_BOUND('',#70,.T.);
#57=FACE_OUTER_BOUND('',#71,.T.);
#58=FACE_OUTER_BOUND('',#72,.T.);
#59=FACE_OUTER_BOUND('',#73,.T.);
#60=FACE_OUTER_BOUND('',#77,.T.);
#61=EDGE_LOOP('',(#173,#174,#175,#176));
#62=EDGE_LOOP('',(#177,#178,#179,#180));
#63=EDGE_LOOP('',(#181,#182,#183,#184));
#64=EDGE_LOOP('',(#185,#186,#187,#188));
#65=EDGE_LOOP('',(#189,#190,#191,#192,#193,#194,#195,#196,#197,#198,#199,
#200));
#66=EDGE_LOOP('',(#201,#202,#203,#204));
#67=EDGE_LOOP('',(#205,#206,#207,#208));
#68=EDGE_LOOP('',(#209,#210,#211,#212));
#69=EDGE_LOOP('',(#213,#214,#215,#216));
#70=EDGE_LOOP('',(#217,#218,#219,#220));
#71=EDGE_LOOP('',(#221,#222,#223,#224));
#72=EDGE_LOOP('',(#225,#226,#227,#228));
#73=EDGE_LOOP('',(#229));
#74=EDGE_LOOP('',(#230));
#75=EDGE_LOOP('',(#231));
#76=EDGE_LOOP('',(#232));
#77=EDGE_LOOP('',(#233,#234,#235,#236,#237,#238,#239,#240,#241));
#78=EDGE_LOOP('',(#242));
#79=EDGE_LOOP('',(#243));
#80=EDGE_LOOP('',(#244));
#81=LINE('',#382,#93);
#82=LINE('',#387,#94);
#83=LINE('',#393,#95);
#84=LINE('',#408,#96);
#85=LINE('',#415,#97);
#86=LINE('',#419,#98);
#87=LINE('',#423,#99);
#88=LINE('',#440,#100);
#89=LINE('',#446,#101);
#90=LINE('',#464,#102);
#91=LINE('',#470,#103);
#92=LINE('',#476,#104);
#93=VECTOR('',#305,10.);
#94=VECTOR('',#306,10.);
#95=VECTOR('',#313,10.);
#96=VECTOR('',#314,10.);
#97=VECTOR('',#323,5.);
#98=VECTOR('',#326,10.);
#99=VECTOR('',#329,10.);
#100=VECTOR('',#334,10.);
#101=VECTOR('',#341,10.);
#102=VECTOR('',#348,1.);
#103=VECTOR('',#355,1.);
#104=VECTOR('',#362,0.75);
#105=(
BOUNDED_CURVE()
B_SPLINE_CURVE(2,(#378,#379,#380),.UNSPECIFIED.,.F.,.F.)
B_SPLINE_CURVE_WITH_KNOTS((3,3),(0.,4.7762606558146),.UNSPECIFIED.)
CURVE()
GEOMETRIC_REPRESENTATION_ITEM()
RATIONAL_B_SPLINE_CURVE((1.,3.,1.))
REPRESENTATION_ITEM('')
);
#106=(
BOUNDED_CURVE()
B_SPLINE_CURVE(2,(#384,#385,#386),.UNSPECIFIED.,.F.,.F.)
B_SPLINE_CURVE_WITH_KNOTS((3,3),(-4.7762606558146,0.),.UNSPECIFIED.)
CURVE()
GEOMETRIC_REPRESENTATION_ITEM()
RATIONAL_B_SPLINE_CURVE((1.,3.,1.))
REPRESENTATION_ITEM('')
);
#107=(
BOUNDED_CURVE()
B_SPLINE_CURVE(2,(#401,#402,#403),.UNSPECIFIED.,.F.,.F.)
B_SPLINE_CURVE_WITH_KNOTS((3,3),(0.,4.7735972866383),.UNSPECIFIED.)
CURVE()
GEOMETRIC_REPRESENTATION_ITEM()
RATIONAL_B_SPLINE_CURVE((1.,3.,1.))
REPRESENTATION_ITEM('')
);
#108=(
BOUNDED_CURVE()
B_SPLINE_CURVE(2,(#405,#406,#407),.UNSPECIFIED.,.F.,.F.)
B_SPLINE_CURVE_WITH_KNOTS((3,3),(0.,4.7735972866383),.UNSPECIFIED.)
CURVE()
GEOMETRIC_REPRESENTATION_ITEM()
RATIONAL_B_SPLINE_CURVE((1.,3.,1.))
REPRESENTATION_ITEM('')
);
#109=(
BOUNDED_CURVE()
B_SPLINE_CURVE(2,(#433,#434,#435),.UNSPECIFIED.,.F.,.F.)
B_SPLINE_CURVE_WITH_KNOTS((3,3),(0.,4.7762606558146),.UNSPECIFIED.)
CURVE()
GEOMETRIC_REPRESENTATION_ITEM()
RATIONAL_B_SPLINE_CURVE((1.,3.,1.))
REPRESENTATION_ITEM('')
);
#110=(
BOUNDED_CURVE()
B_SPLINE_CURVE(2,(#437,#438,#439),.UNSPECIFIED.,.F.,.F.)
B_SPLINE_CURVE_WITH_KNOTS((3,3),(-4.7762606558146,0.),.UNSPECIFIED.)
CURVE()
GEOMETRIC_REPRESENTATION_ITEM()
RATIONAL_B_SPLINE_CURVE((1.,3.,1.))
REPRESENTATION_ITEM('')
);
#111=(
BOUNDED_CURVE()
B_SPLINE_CURVE(2,(#453,#454,#455),.UNSPECIFIED.,.F.,.F.)
B_SPLINE_CURVE_WITH_KNOTS((3,3),(0.,4.7735972866383),.UNSPECIFIED.)
CURVE()
GEOMETRIC_REPRESENTATION_ITEM()
RATIONAL_B_SPLINE_CURVE((1.,3.,1.))
REPRESENTATION_ITEM('')
);
#112=(
BOUNDED_CURVE()
B_SPLINE_CURVE(2,(#456,#457,#458),.UNSPECIFIED.,.F.,.F.)
B_SPLINE_CURVE_WITH_KNOTS((3,3),(0.,4.7735972866383),.UNSPECIFIED.)
CURVE()
GEOMETRIC_REPRESENTATION_ITEM()
RATIONAL_B_SPLINE_CURVE((1.,3.,1.))
REPRESENTATION_ITEM('')
);
#113=VERTEX_POINT('',#376);
#114=VERTEX_POINT('',#377);
#115=VERTEX_POINT('',#381);
#116=VERTEX_POINT('',#383);
#117=VERTEX_POINT('',#389);
#118=VERTEX_POINT('',#391);
#119=VERTEX_POINT('',#400);
#120=VERTEX_POINT('',#404);
#121=VERTEX_POINT('',#412);
#122=VERTEX_POINT('',#414);
#123=VERTEX_POINT('',#416);
#124=VERTEX_POINT('',#418);
#125=VERTEX_POINT('',#420);
#126=VERTEX_POINT('',#422);
#127=VERTEX_POINT('',#432);
#128=VERTEX_POINT('',#436);
#129=VERTEX_POINT('',#442);
#130=VERTEX_POINT('',#444);
#131=VERTEX_POINT('',#461);
#132=VERTEX_POINT('',#463);
#133=VERTEX_POINT('',#467);
#134=VERTEX_POINT('',#469);
#135=VERTEX_POINT('',#473);
#136=VERTEX_POINT('',#475);
#137=EDGE_CURVE('',#113,#114,#105,.T.);
#138=EDGE_CURVE('',#115,#113,#81,.T.);
#139=EDGE_CURVE('',#116,#115,#106,.T.);
#140=EDGE_CURVE('',#114,#116,#82,.T.);
#141=EDGE_CURVE('',#117,#114,#25,.T.);
#142=EDGE_CURVE('',#118,#116,#26,.T.);
#143=EDGE_CURVE('',#117,#118,#83,.T.);
#144=EDGE_CURVE('',#119,#117,#107,.T.);
#145=EDGE_CURVE('',#120,#118,#108,.T.);
#146=EDGE_CURVE('',#119,#120,#84,.T.);
#147=EDGE_CURVE('',#120,#115,#27,.T.);
#148=EDGE_CURVE('',#121,#121,#28,.T.);
#149=EDGE_CURVE('',#121,#122,#85,.T.);
#150=EDGE_CURVE('',#122,#123,#29,.T.);
#151=EDGE_CURVE('',#123,#124,#86,.T.);
#152=EDGE_CURVE('',#124,#125,#30,.T.);
#153=EDGE_CURVE('',#125,#126,#87,.T.);
#154=EDGE_CURVE('',#126,#119,#31,.T.);
#155=EDGE_CURVE('',#113,#122,#32,.T.);
#156=EDGE_CURVE('',#126,#127,#109,.T.);
#157=EDGE_CURVE('',#128,#125,#110,.T.);
#158=EDGE_CURVE('',#127,#128,#88,.T.);
#159=EDGE_CURVE('',#129,#127,#33,.T.);
#160=EDGE_CURVE('',#130,#128,#34,.T.);
#161=EDGE_CURVE('',#129,#130,#89,.T.);
#162=EDGE_CURVE('',#123,#129,#111,.T.);
#163=EDGE_CURVE('',#124,#130,#112,.T.);
#164=EDGE_CURVE('',#131,#131,#35,.T.);
#165=EDGE_CURVE('',#131,#132,#90,.T.);
#166=EDGE_CURVE('',#132,#132,#36,.T.);
#167=EDGE_CURVE('',#133,#133,#37,.T.);
#168=EDGE_CURVE('',#133,#134,#91,.T.);
#169=EDGE_CURVE('',#134,#134,#38,.T.);
#170=EDGE_CURVE('',#135,#135,#39,.T.);
#171=EDGE_CURVE('',#135,#136,#92,.T.);
#172=EDGE_CURVE('',#136,#136,#40,.T.);
#173=ORIENTED_EDGE('',*,*,#137,.F.);
#174=ORIENTED_EDGE('',*,*,#138,.F.);
#175=ORIENTED_EDGE('',*,*,#139,.F.);
#176=ORIENTED_EDGE('',*,*,#140,.F.);
#177=ORIENTED_EDGE('',*,*,#141,.T.);
#178=ORIENTED_EDGE('',*,*,#140,.T.);
#179=ORIENTED_EDGE('',*,*,#142,.F.);
#180=ORIENTED_EDGE('',*,*,#143,.F.);
#181=ORIENTED_EDGE('',*,*,#144,.T.);
#182=ORIENTED_EDGE('',*,*,#143,.T.);
#183=ORIENTED_EDGE('',*,*,#145,.F.);
#184=ORIENTED_EDGE('',*,*,#146,.F.);
#185=ORIENTED_EDGE('',*,*,#145,.T.);
#186=ORIENTED_EDGE('',*,*,#142,.T.);
#187=ORIENTED_EDGE('',*,*,#139,.T.);
#188=ORIENTED_EDGE('',*,*,#147,.F.);
#189=ORIENTED_EDGE('',*,*,#148,.F.);
#190=ORIENTED_EDGE('',*,*,#149,.T.);
#191=ORIENTED_EDGE('',*,*,#150,.T.);
#192=ORIENTED_EDGE('',*,*,#151,.T.);
#193=ORIENTED_EDGE('',*,*,#152,.T.);
#194=ORIENTED_EDGE('',*,*,#153,.T.);
#195=ORIENTED_EDGE('',*,*,#154,.T.);
#196=ORIENTED_EDGE('',*,*,#146,.T.);
#197=ORIENTED_EDGE('',*,*,#147,.T.);
#198=ORIENTED_EDGE('',*,*,#138,.T.);
#199=ORIENTED_EDGE('',*,*,#155,.T.);
#200=ORIENTED_EDGE('',*,*,#149,.F.);
#201=ORIENTED_EDGE('',*,*,#156,.F.);
#202=ORIENTED_EDGE('',*,*,#153,.F.);
#203=ORIENTED_EDGE('',*,*,#157,.F.);
#204=ORIENTED_EDGE('',*,*,#158,.F.);
#205=ORIENTED_EDGE('',*,*,#159,.T.);
#206=ORIENTED_EDGE('',*,*,#158,.T.);
#207=ORIENTED_EDGE('',*,*,#160,.F.);
#208=ORIENTED_EDGE('',*,*,#161,.F.);
#209=ORIENTED_EDGE('',*,*,#162,.T.);
#210=ORIENTED_EDGE('',*,*,#161,.T.);
#211=ORIENTED_EDGE('',*,*,#163,.F.);
#212=ORIENTED_EDGE('',*,*,#151,.F.);
#213=ORIENTED_EDGE('',*,*,#163,.T.);
#214=ORIENTED_EDGE('',*,*,#160,.T.);
#215=ORIENTED_EDGE('',*,*,#157,.T.);
#216=ORIENTED_EDGE('',*,*,#152,.F.);
#217=ORIENTED_EDGE('',*,*,#164,.F.);
#218=ORIENTED_EDGE('',*,*,#165,.T.);
#219=ORIENTED_EDGE('',*,*,#166,.T.);
#220=ORIENTED_EDGE('',*,*,#165,.F.);
#221=ORIENTED_EDGE('',*,*,#167,.F.);
#222=ORIENTED_EDGE('',*,*,#168,.T.);
#223=ORIENTED_EDGE('',*,*,#169,.T.);
#224=ORIENTED_EDGE('',*,*,#168,.F.);
#225=ORIENTED_EDGE('',*,*,#170,.F.);
#226=ORIENTED_EDGE('',*,*,#171,.T.);
#227=ORIENTED_EDGE('',*,*,#172,.T.);
#228=ORIENTED_EDGE('',*,*,#171,.F.);
#229=ORIENTED_EDGE('',*,*,#148,.T.);
#230=ORIENTED_EDGE('',*,*,#170,.T.);
#231=ORIENTED_EDGE('',*,*,#167,.T.);
#232=ORIENTED_EDGE('',*,*,#164,.T.);
#233=ORIENTED_EDGE('',*,*,#154,.F.);
#234=ORIENTED_EDGE('',*,*,#156,.T.);
#235=ORIENTED_EDGE('',*,*,#159,.F.);
#236=ORIENTED_EDGE('',*,*,#162,.F.);
#237=ORIENTED_EDGE('',*,*,#150,.F.);
#238=ORIENTED_EDGE('',*,*,#155,.F.);
#239=ORIENTED_EDGE('',*,*,#137,.T.);
#240=ORIENTED_EDGE('',*,*,#141,.F.);
#241=ORIENTED_EDGE('',*,*,#144,.F.);
#242=ORIENTED_EDGE('',*,*,#172,.F.);
#243=ORIENTED_EDGE('',*,*,#169,.F.);
#244=ORIENTED_EDGE('',*,*,#166,.F.);
#245=(
BOUNDED_SURFACE()
B_SPLINE_SURFACE(2,1,((#370,#371),(#372,#373),(#374,#375)),
 .UNSPECIFIED.,.F.,.F.,.F.)
B_SPLINE_SURFACE_WITH_KNOTS((3,3),(2,2),(-4.7762606558146,0.),(0.,0.3),
 .UNSPECIFIED.)
GEOMETRIC_REPRESENTATION_ITEM()
RATIONAL_B_SPLINE_SURFACE(((1.,1.),(3.,3.),(1.,1.)))
REPRESENTATION_ITEM('')
SURFACE()
);
#246=(
BOUNDED_SURFACE()
B_SPLINE_SURFACE(2,1,((#394,#395),(#396,#397),(#398,#399)),
 .UNSPECIFIED.,.F.,.F.,.F.)
B_SPLINE_SURFACE_WITH_KNOTS((3,3),(2,2),(0.,4.7735972866383),(0.,0.3),
 .UNSPECIFIED.)
GEOMETRIC_REPRESENTATION_ITEM()
RATIONAL_B_SPLINE_SURFACE(((1.,1.),(3.,3.),(1.,1.)))
REPRESENTATION_ITEM('')
SURFACE()
);
#247=(
BOUNDED_SURFACE()
B_SPLINE_SURFACE(2,1,((#426,#427),(#428,#429),(#430,#431)),
 .UNSPECIFIED.,.F.,.F.,.F.)
B_SPLINE_SURFACE_WITH_KNOTS((3,3),(2,2),(-4.7762606558146,0.),(0.,0.3),
 .UNSPECIFIED.)
GEOMETRIC_REPRESENTATION_ITEM()
RATIONAL_B_SPLINE_SURFACE(((1.,1.),(3.,3.),(1.,1.)))
REPRESENTATION_ITEM('')
SURFACE()
);
#248=(
BOUNDED_SURFACE()
B_SPLINE_SURFACE(2,1,((#447,#448),(#449,#450),(#451,#452)),
 .UNSPECIFIED.,.F.,.F.,.F.)
B_SPLINE_SURFACE_WITH_KNOTS((3,3),(2,2),(0.,4.7735972866383),(0.,0.3),
 .UNSPECIFIED.)
GEOMETRIC_REPRESENTATION_ITEM()
RATIONAL_B_SPLINE_SURFACE(((1.,1.),(3.,3.),(1.,1.)))
REPRESENTATION_ITEM('')
SURFACE()
);
#249=ADVANCED_FACE('',(#47),#245,.T.);
#250=ADVANCED_FACE('',(#48),#41,.T.);
#251=ADVANCED_FACE('',(#49),#246,.T.);
#252=ADVANCED_FACE('',(#50),#21,.T.);
#253=ADVANCED_FACE('',(#51),#42,.T.);
#254=ADVANCED_FACE('',(#52),#247,.T.);
#255=ADVANCED_FACE('',(#53),#43,.T.);
#256=ADVANCED_FACE('',(#54),#248,.T.);
#257=ADVANCED_FACE('',(#55),#22,.T.);
#258=ADVANCED_FACE('',(#56),#44,.F.);
#259=ADVANCED_FACE('',(#57),#45,.F.);
#260=ADVANCED_FACE('',(#58),#46,.F.);
#261=ADVANCED_FACE('',(#59,#15,#16,#17),#23,.T.);
#262=ADVANCED_FACE('',(#60,#18,#19,#20),#24,.F.);
#263=CLOSED_SHELL('',(#249,#250,#251,#252,#253,#254,#255,#256,#257,#258,
#259,#260,#261,#262));
#264=DERIVED_UNIT_ELEMENT(#266,1.);
#265=DERIVED_UNIT_ELEMENT(#485,-3.);
#266=(
MASS_UNIT()
NAMED_UNIT(*)
SI_UNIT(.KILO.,.GRAM.)
);
#267=DERIVED_UNIT((#264,#265));
#268=MEASURE_REPRESENTATION_ITEM('density measure',
POSITIVE_RATIO_MEASURE(7850.),#267);
#269=PROPERTY_DEFINITION_REPRESENTATION(#274,#271);
#270=PROPERTY_DEFINITION_REPRESENTATION(#275,#272);
#271=REPRESENTATION('material name',(#273),#482);
#272=REPRESENTATION('density',(#268),#482);
#273=DESCRIPTIVE_REPRESENTATION_ITEM('Steel','Steel');
#274=PROPERTY_DEFINITION('material property','material name',#492);
#275=PROPERTY_DEFINITION('material property','density of part',#492);
#276=AXIS2_PLACEMENT_3D('',#369,#303,#304);
#277=AXIS2_PLACEMENT_3D('',#388,#307,#308);
#278=AXIS2_PLACEMENT_3D('',#390,#309,#310);
#279=AXIS2_PLACEMENT_3D('',#392,#311,#312);
#280=AXIS2_PLACEMENT_3D('',#409,#315,#316);
#281=AXIS2_PLACEMENT_3D('',#410,#317,#318);
#282=AXIS2_PLACEMENT_3D('',#411,#319,#320);
#283=AXIS2_PLACEMENT_3D('',#413,#321,#322);
#284=AXIS2_PLACEMENT_3D('',#417,#324,#325);
#285=AXIS2_PLACEMENT_3D('',#421,#327,#328);
#286=AXIS2_PLACEMENT_3D('',#424,#330,#331);
#287=AXIS2_PLACEMENT_3D('',#425,#332,#333);
#288=AXIS2_PLACEMENT_3D('',#441,#335,#336);
#289=AXIS2_PLACEMENT_3D('',#443,#337,#338);
#290=AXIS2_PLACEMENT_3D('',#445,#339,#340);
#291=AXIS2_PLACEMENT_3D('',#459,#342,#343);
#292=AXIS2_PLACEMENT_3D('',#460,#344,#345);
#293=AXIS2_PLACEMENT_3D('',#462,#346,#347);
#294=AXIS2_PLACEMENT_3D('',#465,#349,#350);
#295=AXIS2_PLACEMENT_3D('',#466,#351,#352);
#296=AXIS2_PLACEMENT_3D('',#468,#353,#354);
#297=AXIS2_PLACEMENT_3D('',#471,#356,#357);
#298=AXIS2_PLACEMENT_3D('',#472,#358,#359);
#299=AXIS2_PLACEMENT_3D('',#474,#360,#361);
#300=AXIS2_PLACEMENT_3D('',#477,#363,#364);
#301=AXIS2_PLACEMENT_3D('',#478,#365,#366);
#302=AXIS2_PLACEMENT_3D('',#479,#367,#368);
#303=DIRECTION('axis',(0.,0.,1.));
#304=DIRECTION('refdir',(1.,0.,0.));
#305=DIRECTION('',(0.,0.,-1.));
#306=DIRECTION('',(0.,0.,1.));
#307=DIRECTION('center_axis',(0.,0.,1.));
#308=DIRECTION('ref_axis',(1.,0.,0.));
#309=DIRECTION('center_axis',(0.,0.,1.));
#310=DIRECTION('ref_axis',(1.,0.,0.));
#311=DIRECTION('center_axis',(0.,0.,1.));
#312=DIRECTION('ref_axis',(1.,0.,0.));
#313=DIRECTION('',(0.,0.,1.));
#314=DIRECTION('',(0.,0.,1.));
#315=DIRECTION('center_axis',(0.,0.,1.));
#316=DIRECTION('ref_axis',(1.,0.,0.));
#317=DIRECTION('center_axis',(0.,0.,1.));
#318=DIRECTION('ref_axis',(1.,0.,0.));
#319=DIRECTION('center_axis',(0.,0.,1.));
#320=DIRECTION('ref_axis',(1.,0.,0.));
#321=DIRECTION('center_axis',(0.,0.,1.));
#322=DIRECTION('ref_axis',(1.,0.,0.));
#323=DIRECTION('',(0.,0.,-1.));
#324=DIRECTION('center_axis',(0.,0.,1.));
#325=DIRECTION('ref_axis',(1.,0.,0.));
#326=DIRECTION('',(0.,0.,1.));
#327=DIRECTION('center_axis',(0.,0.,1.));
#328=DIRECTION('ref_axis',(1.,0.,0.));
#329=DIRECTION('',(0.,0.,-1.));
#330=DIRECTION('center_axis',(0.,0.,1.));
#331=DIRECTION('ref_axis',(1.,0.,0.));
#332=DIRECTION('center_axis',(0.,0.,1.));
#333=DIRECTION('ref_axis',(1.,0.,0.));
#334=DIRECTION('',(0.,0.,1.));
#335=DIRECTION('center_axis',(0.,0.,1.));
#336=DIRECTION('ref_axis',(1.,0.,0.));
#337=DIRECTION('center_axis',(0.,0.,1.));
#338=DIRECTION('ref_axis',(1.,0.,0.));
#339=DIRECTION('center_axis',(0.,0.,1.));
#340=DIRECTION('ref_axis',(1.,0.,0.));
#341=DIRECTION('',(0.,0.,1.));
#342=DIRECTION('center_axis',(0.,0.,1.));
#343=DIRECTION('ref_axis',(1.,0.,0.));
#344=DIRECTION('center_axis',(0.,0.,1.));
#345=DIRECTION('ref_axis',(1.,0.,0.));
#346=DIRECTION('center_axis',(0.,0.,-1.));
#347=DIRECTION('ref_axis',(1.,0.,0.));
#348=DIRECTION('',(0.,0.,-1.));
#349=DIRECTION('center_axis',(0.,0.,-1.));
#350=DIRECTION('ref_axis',(1.,0.,0.));
#351=DIRECTION('center_axis',(0.,0.,1.));
#352=DIRECTION('ref_axis',(1.,0.,0.));
#353=DIRECTION('center_axis',(0.,0.,-1.));
#354=DIRECTION('ref_axis',(1.,0.,0.));
#355=DIRECTION('',(0.,0.,-1.));
#356=DIRECTION('center_axis',(0.,0.,-1.));
#357=DIRECTION('ref_axis',(1.,0.,0.));
#358=DIRECTION('center_axis',(0.,0.,1.));
#359=DIRECTION('ref_axis',(1.,0.,0.));
#360=DIRECTION('center_axis',(0.,0.,-1.));
#361=DIRECTION('ref_axis',(1.,0.,0.));
#362=DIRECTION('',(0.,0.,-1.));
#363=DIRECTION('center_axis',(0.,0.,-1.));
#364=DIRECTION('ref_axis',(1.,0.,0.));
#365=DIRECTION('center_axis',(0.,0.,1.));
#366=DIRECTION('ref_axis',(1.,0.,0.));
#367=DIRECTION('center_axis',(0.,0.,1.));
#368=DIRECTION('ref_axis',(1.,0.,0.));
#369=CARTESIAN_POINT('',(0.,0.,0.));
#370=CARTESIAN_POINT('Ctrl Pts',(-5.42132523308156,50.5098924243277,0.));
#371=CARTESIAN_POINT('Ctrl Pts',(-5.42132523308156,50.5098924243277,3.));
#372=CARTESIAN_POINT('Ctrl Pts',(-8.03437807091852,16.8344861722707,0.));
#373=CARTESIAN_POINT('Ctrl Pts',(-8.03437807091852,16.8344861722707,3.));
#374=CARTESIAN_POINT('Ctrl Pts',(-3.90054734788453,3.12821520789587,0.));
#375=CARTESIAN_POINT('Ctrl Pts',(-3.90054734788453,3.12821520789587,3.));
#376=CARTESIAN_POINT('',(-3.90054734788453,3.12821520789587,0.));
#377=CARTESIAN_POINT('',(-5.42132523308156,50.5098924243277,0.));
#378=CARTESIAN_POINT('Ctrl Pts',(-3.90054734788453,3.12821520789587,0.));
#379=CARTESIAN_POINT('Ctrl Pts',(-8.03437807091852,16.8344861722707,0.));
#380=CARTESIAN_POINT('Ctrl Pts',(-5.42132523308156,50.5098924243277,0.));
#381=CARTESIAN_POINT('',(-3.90054734788453,3.12821520789587,3.));
#382=CARTESIAN_POINT('',(-3.90054734788453,3.12821520789587,0.));
#383=CARTESIAN_POINT('',(-5.42132523308156,50.5098924243277,3.));
#384=CARTESIAN_POINT('Ctrl Pts',(-5.42132523308156,50.5098924243277,3.));
#385=CARTESIAN_POINT('Ctrl Pts',(-8.03437807091852,16.8344861722707,3.));
#386=CARTESIAN_POINT('Ctrl Pts',(-3.90054734788453,3.12821520789587,3.));
#387=CARTESIAN_POINT('',(-5.42132523308156,50.5098924243277,0.));
#388=CARTESIAN_POINT('Origin',(0.,0.,0.));
#389=CARTESIAN_POINT('',(0.,50.8,0.));
#390=CARTESIAN_POINT('Origin',(0.,0.,0.));
#391=CARTESIAN_POINT('',(0.,50.8,3.));
#392=CARTESIAN_POINT('Origin',(0.,0.,3.));
#393=CARTESIAN_POINT('',(0.,50.8,0.));
#394=CARTESIAN_POINT('Ctrl Pts',(3.21641571437006,3.8281418406785,0.));
#395=CARTESIAN_POINT('Ctrl Pts',(3.21641571437006,3.8281418406785,3.));
#396=CARTESIAN_POINT('Ctrl Pts',(7.27941340235338,15.3250524731815,0.));
#397=CARTESIAN_POINT('Ctrl Pts',(7.27941340235338,15.3250524731815,3.));
#398=CARTESIAN_POINT('Ctrl Pts',(0.,50.8,0.));
#399=CARTESIAN_POINT('Ctrl Pts',(0.,50.8,3.));
#400=CARTESIAN_POINT('',(3.21641571437006,3.8281418406785,0.));
#401=CARTESIAN_POINT('Ctrl Pts',(3.21641571437006,3.8281418406785,0.));
#402=CARTESIAN_POINT('Ctrl Pts',(7.27941340235338,15.3250524731815,0.));
#403=CARTESIAN_POINT('Ctrl Pts',(0.,50.8,0.));
#404=CARTESIAN_POINT('',(3.21641571437006,3.8281418406785,3.));
#405=CARTESIAN_POINT('Ctrl Pts',(3.21641571437006,3.8281418406785,3.));
#406=CARTESIAN_POINT('Ctrl Pts',(7.27941340235338,15.3250524731815,3.));
#407=CARTESIAN_POINT('Ctrl Pts',(0.,50.8,3.));
#408=CARTESIAN_POINT('',(3.21641571437006,3.8281418406785,0.));
#409=CARTESIAN_POINT('Origin',(-0.377482334282566,26.9641076039479,3.));
#410=CARTESIAN_POINT('Origin',(0.,0.,3.));
#411=CARTESIAN_POINT('Origin',(0.,0.,0.));
#412=CARTESIAN_POINT('',(-5.,-6.12323399573677E-16,4.));
#413=CARTESIAN_POINT('Origin',(0.,0.,4.));
#414=CARTESIAN_POINT('',(-5.,-6.12323399573677E-16,0.));
#415=CARTESIAN_POINT('',(-5.,-6.12323399573677E-16,0.));
#416=CARTESIAN_POINT('',(-3.21641571437006,-3.8281418406785,0.));
#417=CARTESIAN_POINT('Origin',(0.,0.,0.));
#418=CARTESIAN_POINT('',(-3.21641571437006,-3.8281418406785,3.));
#419=CARTESIAN_POINT('',(-3.21641571437006,-3.8281418406785,0.));
#420=CARTESIAN_POINT('',(3.90054734788453,-3.12821520789587,3.));
#421=CARTESIAN_POINT('Origin',(0.,0.,3.));
#422=CARTESIAN_POINT('',(3.90054734788453,-3.12821520789587,0.));
#423=CARTESIAN_POINT('',(3.90054734788453,-3.12821520789587,0.));
#424=CARTESIAN_POINT('Origin',(0.,0.,0.));
#425=CARTESIAN_POINT('Origin',(0.,0.,0.));
#426=CARTESIAN_POINT('Ctrl Pts',(5.42132523308155,-50.5098924243277,0.));
#427=CARTESIAN_POINT('Ctrl Pts',(5.42132523308155,-50.5098924243277,3.));
#428=CARTESIAN_POINT('Ctrl Pts',(8.03437807091852,-16.8344861722707,0.));
#429=CARTESIAN_POINT('Ctrl Pts',(8.03437807091852,-16.8344861722707,3.));
#430=CARTESIAN_POINT('Ctrl Pts',(3.90054734788453,-3.12821520789587,0.));
#431=CARTESIAN_POINT('Ctrl Pts',(3.90054734788453,-3.12821520789587,3.));
#432=CARTESIAN_POINT('',(5.42132523308155,-50.5098924243277,0.));
#433=CARTESIAN_POINT('Ctrl Pts',(3.90054734788453,-3.12821520789587,0.));
#434=CARTESIAN_POINT('Ctrl Pts',(8.03437807091851,-16.8344861722707,0.));
#435=CARTESIAN_POINT('Ctrl Pts',(5.42132523308155,-50.5098924243277,0.));
#436=CARTESIAN_POINT('',(5.42132523308155,-50.5098924243277,3.));
#437=CARTESIAN_POINT('Ctrl Pts',(5.42132523308155,-50.5098924243277,3.));
#438=CARTESIAN_POINT('Ctrl Pts',(8.03437807091851,-16.8344861722707,3.));
#439=CARTESIAN_POINT('Ctrl Pts',(3.90054734788453,-3.12821520789587,3.));
#440=CARTESIAN_POINT('',(5.42132523308155,-50.5098924243277,0.));
#441=CARTESIAN_POINT('Origin',(0.,0.,0.));
#442=CARTESIAN_POINT('',(-6.22120573966856E-15,-50.8,0.));
#443=CARTESIAN_POINT('Origin',(0.,0.,0.));
#444=CARTESIAN_POINT('',(-6.10622663543836E-15,-50.8,3.));
#445=CARTESIAN_POINT('Origin',(0.,0.,3.));
#446=CARTESIAN_POINT('',(-6.22120573966856E-15,-50.8,0.));
#447=CARTESIAN_POINT('Ctrl Pts',(-3.21641571437006,-3.8281418406785,0.));
#448=CARTESIAN_POINT('Ctrl Pts',(-3.21641571437006,-3.8281418406785,3.));
#449=CARTESIAN_POINT('Ctrl Pts',(-7.27941340235339,-15.3250524731815,0.));
#450=CARTESIAN_POINT('Ctrl Pts',(-7.27941340235339,-15.3250524731815,3.));
#451=CARTESIAN_POINT('Ctrl Pts',(-6.22120573966856E-15,-50.8,0.));
#452=CARTESIAN_POINT('Ctrl Pts',(-6.22120573966856E-15,-50.8,3.));
#453=CARTESIAN_POINT('Ctrl Pts',(-3.21641571437006,-3.8281418406785,0.));
#454=CARTESIAN_POINT('Ctrl Pts',(-7.27941340235339,-15.3250524731815,0.));
#455=CARTESIAN_POINT('Ctrl Pts',(-6.22120573966856E-15,-50.8,0.));
#456=CARTESIAN_POINT('Ctrl Pts',(-3.21641571437006,-3.8281418406785,3.));
#457=CARTESIAN_POINT('Ctrl Pts',(-7.27941340235339,-15.3250524731815,3.));
#458=CARTESIAN_POINT('Ctrl Pts',(-6.22120573966856E-15,-50.8,3.));
#459=CARTESIAN_POINT('Origin',(0.377482334282564,-26.9641076039479,3.));
#460=CARTESIAN_POINT('Origin',(0.,-2.5,0.));
#461=CARTESIAN_POINT('',(-1.,-2.5,4.));
#462=CARTESIAN_POINT('Origin',(0.,-2.5,4.));
#463=CARTESIAN_POINT('',(-1.,-2.5,0.));
#464=CARTESIAN_POINT('',(-1.,-2.5,0.));
#465=CARTESIAN_POINT('Origin',(0.,-2.5,0.));
#466=CARTESIAN_POINT('Origin',(0.,2.5,0.));
#467=CARTESIAN_POINT('',(-1.,2.5,4.));
#468=CARTESIAN_POINT('Origin',(0.,2.5,4.));
#469=CARTESIAN_POINT('',(-1.,2.5,0.));
#470=CARTESIAN_POINT('',(-1.,2.5,0.));
#471=CARTESIAN_POINT('Origin',(0.,2.5,0.));
#472=CARTESIAN_POINT('Origin',(0.,0.,0.));
#473=CARTESIAN_POINT('',(-0.75,-9.18485099360515E-17,4.));
#474=CARTESIAN_POINT('Origin',(0.,0.,4.));
#475=CARTESIAN_POINT('',(-0.75,-9.18485099360515E-17,0.));
#476=CARTESIAN_POINT('',(-0.75,-9.18485099360515E-17,0.));
#477=CARTESIAN_POINT('Origin',(0.,0.,0.));
#478=CARTESIAN_POINT('Origin',(0.,0.,4.));
#479=CARTESIAN_POINT('Origin',(0.,0.,0.));
#480=UNCERTAINTY_MEASURE_WITH_UNIT(LENGTH_MEASURE(0.01),#484,
'DISTANCE_ACCURACY_VALUE',
'Maximum model space distance between geometric entities at asserted c
onnectivities');
#481=UNCERTAINTY_MEASURE_WITH_UNIT(LENGTH_MEASURE(0.01),#484,
'DISTANCE_ACCURACY_VALUE',
'Maximum model space distance between geometric entities at asserted c
onnectivities');
#482=(
GEOMETRIC_REPRESENTATION_CONTEXT(3)
GLOBAL_UNCERTAINTY_ASSIGNED_CONTEXT((#480))
GLOBAL_UNIT_ASSIGNED_CONTEXT((#484,#486,#487))
REPRESENTATION_CONTEXT('','3D')
);
#483=(
GEOMETRIC_REPRESENTATION_CONTEXT(3)
GLOBAL_UNCERTAINTY_ASSIGNED_CONTEXT((#481))
GLOBAL_UNIT_ASSIGNED_CONTEXT((#484,#486,#487))
REPRESENTATION_CONTEXT('','3D')
);
#484=(
LENGTH_UNIT()
NAMED_UNIT(*)
SI_UNIT(.MILLI.,.METRE.)
);
#485=(
LENGTH_UNIT()
NAMED_UNIT(*)
SI_UNIT($,.METRE.)
);
#486=(
NAMED_UNIT(*)
PLANE_ANGLE_UNIT()
SI_UNIT($,.RADIAN.)
);
#487=(
NAMED_UNIT(*)
SI_UNIT($,.STERADIAN.)
SOLID_ANGLE_UNIT()
);
#488=SHAPE_DEFINITION_REPRESENTATION(#489,#490);
#489=PRODUCT_DEFINITION_SHAPE('',$,#492);
#490=SHAPE_REPRESENTATION('',(#276),#482);
#491=PRODUCT_DEFINITION_CONTEXT('part definition',#496,'design');
#492=PRODUCT_DEFINITION('2026-03-09-20-07-12-986',
'Propeller_4025_2Blade',#493,#491);
#493=PRODUCT_DEFINITION_FORMATION('',$,#498);
#494=PRODUCT_RELATED_PRODUCT_CATEGORY('Propeller_4025_2Blade',
'Propeller_4025_2Blade',(#498));
#495=APPLICATION_PROTOCOL_DEFINITION('international standard',
'automotive_design',2009,#496);
#496=APPLICATION_CONTEXT(
'Core Data for Automotive Mechanical Design Process');
#497=PRODUCT_CONTEXT('part definition',#496,'mechanical');
#498=PRODUCT('2026-03-09-20-07-12-986','Propeller_4025_2Blade',$,(#497));
#499=PRESENTATION_STYLE_ASSIGNMENT((#501));
#500=PRESENTATION_STYLE_ASSIGNMENT((#502));
#501=SURFACE_STYLE_USAGE(.BOTH.,#503);
#502=SURFACE_STYLE_USAGE(.BOTH.,#504);
#503=SURFACE_SIDE_STYLE('',(#505));
#504=SURFACE_SIDE_STYLE('',(#506));
#505=SURFACE_STYLE_FILL_AREA(#507);
#506=SURFACE_STYLE_FILL_AREA(#508);
#507=FILL_AREA_STYLE('Steel - Satin',(#509));
#508=FILL_AREA_STYLE('Paint - Metallic (Black)',(#510));
#509=FILL_AREA_STYLE_COLOUR('Steel - Satin',#511);
#510=FILL_AREA_STYLE_COLOUR('Paint - Metallic (Black)',#512);
#511=COLOUR_RGB('Steel - Satin',0.627450980392157,0.627450980392157,0.627450980392157);
#512=COLOUR_RGB('Paint - Metallic (Black)',0.0980392156862745,0.0980392156862745,
0.0980392156862745);
ENDSEC;
END-ISO-10303-21;
