G04*
G04 #@! TF.GenerationSoftware,Altium Limited,Altium Designer,26.3.0 (6)*
G04*
G04 Layer_Color=32896*
%FSLAX44Y44*%
%MOMM*%
G71*
G04*
G04 #@! TF.SameCoordinates,56274C70-5272-4D43-B975-0071192F6068*
G04*
G04*
G04 #@! TF.FilePolarity,Positive*
G04*
G01*
G75*
%ADD13C,0.1200*%
%ADD14C,0.2032*%
D13*
X541020Y318770D02*
Y325120D01*
X581660Y393700D02*
X596900D01*
X581660Y342900D02*
X596900D01*
X659130D02*
X673100D01*
X659130Y394970D02*
X673100D01*
X514350Y450850D02*
Y453390D01*
X541020Y450850D02*
Y453390D01*
X514350D02*
X541020D01*
D14*
X679812Y267457D02*
Y264072D01*
X681505Y262379D01*
X673041Y267457D02*
Y264072D01*
X674734Y262379D01*
X667963Y265764D02*
Y255608D01*
X662884D01*
X661191Y257300D01*
Y264072D01*
X662884Y265764D01*
X667963D01*
X656113Y262379D02*
X652728D01*
X651035Y260686D01*
Y255608D01*
X656113D01*
X657806Y257300D01*
X656113Y258993D01*
X651035D01*
X647649Y262379D02*
Y257300D01*
X645956Y255608D01*
X640878D01*
Y253915D01*
X642571Y252222D01*
X644264D01*
X640878Y255608D02*
Y262379D01*
X622257Y265764D02*
X625643D01*
X627336Y264072D01*
Y257300D01*
X625643Y255608D01*
X622257D01*
X620565Y257300D01*
Y264072D01*
X622257Y265764D01*
X617179Y255608D02*
Y262379D01*
X612101D01*
X610408Y260686D01*
Y255608D01*
X601944D02*
X605330D01*
X607022Y257300D01*
Y260686D01*
X605330Y262379D01*
X601944D01*
X600251Y260686D01*
Y258993D01*
X607022D01*
X595173Y267457D02*
Y264072D01*
X596866Y262379D01*
X588402Y267457D02*
Y264072D01*
X590094Y262379D01*
X573167Y255608D02*
Y265764D01*
X568088D01*
X566395Y264072D01*
Y260686D01*
X568088Y258993D01*
X573167D01*
X563010Y262379D02*
Y255608D01*
Y258993D01*
X561317Y260686D01*
X559624Y262379D01*
X557932D01*
X551160Y255608D02*
X547775D01*
X546082Y257300D01*
Y260686D01*
X547775Y262379D01*
X551160D01*
X552853Y260686D01*
Y257300D01*
X551160Y255608D01*
X539311Y252222D02*
X537618D01*
X535925Y253915D01*
Y262379D01*
X541004D01*
X542696Y260686D01*
Y257300D01*
X541004Y255608D01*
X535925D01*
X532540Y262379D02*
Y255608D01*
Y258993D01*
X530847Y260686D01*
X529154Y262379D01*
X527461D01*
X520690D02*
X517305D01*
X515612Y260686D01*
Y255608D01*
X520690D01*
X522383Y257300D01*
X520690Y258993D01*
X515612D01*
X512226Y255608D02*
Y262379D01*
X510533D01*
X508841Y260686D01*
Y255608D01*
Y260686D01*
X507148Y262379D01*
X505455Y260686D01*
Y255608D01*
X502070D02*
Y262379D01*
X500377D01*
X498684Y260686D01*
Y255608D01*
Y260686D01*
X496991Y262379D01*
X495298Y260686D01*
Y255608D01*
X491913D02*
X488527D01*
X490220D01*
Y262379D01*
X491913D01*
X483449Y255608D02*
Y262379D01*
X478371D01*
X476678Y260686D01*
Y255608D01*
X469907Y252222D02*
X468214D01*
X466521Y253915D01*
Y262379D01*
X471599D01*
X473292Y260686D01*
Y257300D01*
X471599Y255608D01*
X466521D01*
X452979D02*
Y262379D01*
X449593Y265764D01*
X446208Y262379D01*
Y255608D01*
Y260686D01*
X452979D01*
X436051Y265764D02*
Y255608D01*
X441129D01*
X442822Y257300D01*
Y260686D01*
X441129Y262379D01*
X436051D01*
X430973D02*
X427587D01*
X425894Y260686D01*
Y255608D01*
X430973D01*
X432665Y257300D01*
X430973Y258993D01*
X425894D01*
X422509Y252222D02*
Y262379D01*
X417430D01*
X415737Y260686D01*
Y257300D01*
X417430Y255608D01*
X422509D01*
X410659Y264072D02*
Y262379D01*
X412352D01*
X408966D01*
X410659D01*
Y257300D01*
X408966Y255608D01*
X398810D02*
X402195D01*
X403888Y257300D01*
Y260686D01*
X402195Y262379D01*
X398810D01*
X397117Y260686D01*
Y258993D01*
X403888D01*
X393731Y262379D02*
Y255608D01*
Y258993D01*
X392038Y260686D01*
X390346Y262379D01*
X388653D01*
X383574Y255608D02*
Y257300D01*
X381882D01*
Y255608D01*
X383574D01*
X364954Y264072D02*
X363261Y265764D01*
X359875D01*
X358183Y264072D01*
Y257300D01*
X359875Y255608D01*
X363261D01*
X364954Y257300D01*
Y264072D01*
X348026Y265764D02*
X351412Y264072D01*
X354797Y260686D01*
Y257300D01*
X353104Y255608D01*
X349719D01*
X348026Y257300D01*
Y258993D01*
X349719Y260686D01*
X354797D01*
X344640Y255608D02*
Y257300D01*
X342948D01*
Y255608D01*
X344640D01*
X329405D02*
X336176D01*
X329405Y262379D01*
Y264072D01*
X331098Y265764D01*
X334484D01*
X336176Y264072D01*
X326020D02*
X324327Y265764D01*
X320941D01*
X319249Y264072D01*
Y257300D01*
X320941Y255608D01*
X324327D01*
X326020Y257300D01*
Y264072D01*
X309092Y255608D02*
X315863D01*
X309092Y262379D01*
Y264072D01*
X310785Y265764D01*
X314170D01*
X315863Y264072D01*
X298935Y265764D02*
X302321Y264072D01*
X305706Y260686D01*
Y257300D01*
X304013Y255608D01*
X300628D01*
X298935Y257300D01*
Y258993D01*
X300628Y260686D01*
X305706D01*
X681107Y272118D02*
Y278889D01*
X677721Y282274D01*
X674336Y278889D01*
Y272118D01*
Y277196D01*
X681107D01*
X670950Y278889D02*
Y272118D01*
Y275503D01*
X669257Y277196D01*
X667564Y278889D01*
X665872D01*
X660793Y272118D02*
Y282274D01*
Y275503D02*
X655715Y278889D01*
X660793Y275503D02*
X655715Y272118D01*
X648944Y278889D02*
X645558D01*
X643865Y277196D01*
Y272118D01*
X648944D01*
X650637Y273810D01*
X648944Y275503D01*
X643865D01*
X633709Y282274D02*
Y272118D01*
X638787D01*
X640480Y273810D01*
Y277196D01*
X638787Y278889D01*
X633709D01*
X630323Y272118D02*
X626938D01*
X628630D01*
Y278889D01*
X630323D01*
X621859D02*
Y273810D01*
X620166Y272118D01*
X615088D01*
Y278889D01*
X611702Y272118D02*
X606624D01*
X604931Y273810D01*
X606624Y275503D01*
X610010D01*
X611702Y277196D01*
X610010Y278889D01*
X604931D01*
X601546D02*
X594775D01*
X601546Y272118D01*
X594775D01*
X581232D02*
Y282274D01*
X576154D01*
X574461Y280581D01*
Y277196D01*
X576154Y275503D01*
X581232D01*
X577847D02*
X574461Y272118D01*
X569383D02*
X565997D01*
X564304Y273810D01*
Y277196D01*
X565997Y278889D01*
X569383D01*
X571076Y277196D01*
Y273810D01*
X569383Y272118D01*
X560919Y278889D02*
X554148D01*
X560919Y272118D01*
X554148D01*
X550762D02*
Y278889D01*
X549069D01*
X547377Y277196D01*
Y272118D01*
Y277196D01*
X545684Y278889D01*
X543991Y277196D01*
Y272118D01*
X538913Y278889D02*
X535527D01*
X533834Y277196D01*
Y272118D01*
X538913D01*
X540605Y273810D01*
X538913Y275503D01*
X533834D01*
X530449Y278889D02*
Y272118D01*
Y275503D01*
X528756Y277196D01*
X527063Y278889D01*
X525370D01*
X520292D02*
Y273810D01*
X518599Y272118D01*
X513521D01*
Y270425D01*
X515214Y268732D01*
X516906D01*
X513521Y272118D02*
Y278889D01*
X510135Y272118D02*
Y278889D01*
X505057D01*
X503364Y277196D01*
Y272118D01*
X498286D02*
X494900D01*
X493207Y273810D01*
Y277196D01*
X494900Y278889D01*
X498286D01*
X499978Y277196D01*
Y273810D01*
X498286Y272118D01*
X489822Y278889D02*
Y273810D01*
X488129Y272118D01*
X486436Y273810D01*
X484743Y272118D01*
X483051Y273810D01*
Y278889D01*
X479665Y272118D02*
X476279D01*
X477972D01*
Y278889D01*
X479665D01*
X464430D02*
X469508D01*
X471201Y277196D01*
Y273810D01*
X469508Y272118D01*
X464430D01*
X461044Y278889D02*
X454273D01*
X461044Y272118D01*
X454273D01*
X550744Y339849D02*
X543973D01*
X547359D01*
Y329692D01*
X540587D02*
Y339849D01*
X535509D01*
X533816Y338156D01*
Y334770D01*
X535509Y333078D01*
X540587D01*
X537202D02*
X533816Y329692D01*
X530431D02*
Y336463D01*
X527045Y339849D01*
X523660Y336463D01*
Y329692D01*
Y334770D01*
X530431D01*
X513503Y338156D02*
X515196Y339849D01*
X518581D01*
X520274Y338156D01*
Y331385D01*
X518581Y329692D01*
X515196D01*
X513503Y331385D01*
X503346Y339849D02*
X510117D01*
Y329692D01*
X503346D01*
X510117Y334770D02*
X506732D01*
X493189Y338156D02*
X494882Y339849D01*
X498268D01*
X499961Y338156D01*
Y336463D01*
X498268Y334770D01*
X494882D01*
X493189Y333078D01*
Y331385D01*
X494882Y329692D01*
X498268D01*
X499961Y331385D01*
X489804Y339849D02*
Y329692D01*
X486418Y333078D01*
X483033Y329692D01*
Y339849D01*
X474569D02*
X477954D01*
X479647Y338156D01*
Y331385D01*
X477954Y329692D01*
X474569D01*
X472876Y331385D01*
Y338156D01*
X474569Y339849D01*
X394455Y480396D02*
X396148Y482089D01*
X399534D01*
X401227Y480396D01*
Y473625D01*
X399534Y471932D01*
X396148D01*
X394455Y473625D01*
Y477010D01*
X397841D01*
X391070Y471932D02*
Y482089D01*
X384299Y471932D01*
Y482089D01*
X380913D02*
Y471932D01*
X375835D01*
X374142Y473625D01*
Y480396D01*
X375835Y482089D01*
X380913D01*
X421550Y463039D02*
X414779D01*
X418164D01*
Y452882D01*
X411393Y463039D02*
X404622Y452882D01*
Y463039D02*
X411393Y452882D01*
X448220Y471932D02*
Y482089D01*
X443142D01*
X441449Y480396D01*
Y477010D01*
X443142Y475318D01*
X448220D01*
X444834D02*
X441449Y471932D01*
X438063Y482089D02*
X431292Y471932D01*
Y482089D02*
X438063Y471932D01*
X479967Y454152D02*
Y464309D01*
X474888D01*
X473195Y462616D01*
Y459230D01*
X474888Y457538D01*
X479967D01*
X476581D02*
X473195Y454152D01*
X469810Y464309D02*
X463039D01*
X466424D01*
Y454152D01*
X452882Y462616D02*
X454575Y464309D01*
X457960D01*
X459653Y462616D01*
Y460923D01*
X457960Y459230D01*
X454575D01*
X452882Y457538D01*
Y455845D01*
X454575Y454152D01*
X457960D01*
X459653Y455845D01*
X499020Y471932D02*
Y482089D01*
X492249Y471932D01*
Y482089D01*
X482092Y480396D02*
X483785Y482089D01*
X487170D01*
X488863Y480396D01*
Y473625D01*
X487170Y471932D01*
X483785D01*
X482092Y473625D01*
X540927Y468119D02*
Y457962D01*
X535848D01*
X534155Y459655D01*
Y466426D01*
X535848Y468119D01*
X540927D01*
X530770D02*
X523999D01*
X527384D01*
Y457962D01*
X520613D02*
Y468119D01*
X515535D01*
X513842Y466426D01*
Y463040D01*
X515535Y461348D01*
X520613D01*
X517228D02*
X513842Y457962D01*
X596138Y432977D02*
X585981D01*
Y427898D01*
X587674Y426205D01*
X591060D01*
X592752Y427898D01*
Y432977D01*
Y429591D02*
X596138Y426205D01*
X587674Y416049D02*
X585981Y417742D01*
Y421127D01*
X587674Y422820D01*
X589367D01*
X591060Y421127D01*
Y417742D01*
X592752Y416049D01*
X594445D01*
X596138Y417742D01*
Y421127D01*
X594445Y422820D01*
X585981Y412663D02*
Y405892D01*
Y409278D01*
X596138D01*
X660064Y451599D02*
X658371Y453292D01*
Y456677D01*
X660064Y458370D01*
X661757D01*
X663450Y456677D01*
Y453292D01*
X665142Y451599D01*
X666835D01*
X668528Y453292D01*
Y456677D01*
X666835Y458370D01*
X658371Y448213D02*
X668528D01*
X665142Y444828D01*
X668528Y441442D01*
X658371D01*
X660064Y431285D02*
X658371Y432978D01*
Y436364D01*
X660064Y438057D01*
X666835D01*
X668528Y436364D01*
Y432978D01*
X666835Y431285D01*
X658371Y427900D02*
X668528D01*
Y421129D01*
X658371Y417743D02*
X668528D01*
X665142D01*
X658371Y410972D01*
X663450Y416050D01*
X668528Y410972D01*
X681654Y410536D02*
X679961Y412229D01*
Y415614D01*
X681654Y417307D01*
X683347D01*
X685040Y415614D01*
Y412229D01*
X686732Y410536D01*
X688425D01*
X690118Y412229D01*
Y415614D01*
X688425Y417307D01*
X679961Y407150D02*
X690118D01*
X686732Y403765D01*
X690118Y400379D01*
X679961D01*
Y396994D02*
X690118D01*
Y391915D01*
X688425Y390223D01*
X681654D01*
X679961Y391915D01*
Y396994D01*
Y386837D02*
Y383451D01*
Y385144D01*
X690118D01*
Y386837D01*
Y383451D01*
X679961Y373295D02*
Y376680D01*
X681654Y378373D01*
X688425D01*
X690118Y376680D01*
Y373295D01*
X688425Y371602D01*
X681654D01*
X679961Y373295D01*
X660064Y375405D02*
X658371Y377098D01*
Y380484D01*
X660064Y382177D01*
X666835D01*
X668528Y380484D01*
Y377098D01*
X666835Y375405D01*
X663450D01*
Y378791D01*
X668528Y372020D02*
X658371D01*
X668528Y365249D01*
X658371D01*
Y361863D02*
X668528D01*
Y356785D01*
X666835Y355092D01*
X660064D01*
X658371Y356785D01*
Y361863D01*
X679961Y355507D02*
X686732D01*
X690118Y352121D01*
X686732Y348735D01*
X679961D01*
X681654Y338579D02*
X679961Y340271D01*
Y343657D01*
X681654Y345350D01*
X688425D01*
X690118Y343657D01*
Y340271D01*
X688425Y338579D01*
X681654Y328422D02*
X679961Y330115D01*
Y333500D01*
X681654Y335193D01*
X688425D01*
X690118Y333500D01*
Y330115D01*
X688425Y328422D01*
X668528Y325030D02*
X658371D01*
X668528Y318259D01*
X658371D01*
X660064Y308102D02*
X658371Y309795D01*
Y313180D01*
X660064Y314873D01*
X666835D01*
X668528Y313180D01*
Y309795D01*
X666835Y308102D01*
X596138Y325030D02*
X585981D01*
X596138Y318259D01*
X585981D01*
X587674Y308102D02*
X585981Y309795D01*
Y313180D01*
X587674Y314873D01*
X594445D01*
X596138Y313180D01*
Y309795D01*
X594445Y308102D01*
X565661Y355507D02*
X572432D01*
X575818Y352121D01*
X572432Y348735D01*
X565661D01*
X567354Y338579D02*
X565661Y340271D01*
Y343657D01*
X567354Y345350D01*
X574125D01*
X575818Y343657D01*
Y340271D01*
X574125Y338579D01*
X567354Y328422D02*
X565661Y330115D01*
Y333500D01*
X567354Y335193D01*
X574125D01*
X575818Y333500D01*
Y330115D01*
X574125Y328422D01*
X587674Y375405D02*
X585981Y377098D01*
Y380484D01*
X587674Y382177D01*
X594445D01*
X596138Y380484D01*
Y377098D01*
X594445Y375405D01*
X591060D01*
Y378791D01*
X596138Y372020D02*
X585981D01*
X596138Y365249D01*
X585981D01*
Y361863D02*
X596138D01*
Y356785D01*
X594445Y355092D01*
X587674D01*
X585981Y356785D01*
Y361863D01*
X575818Y402500D02*
X565661D01*
X575818Y395729D01*
X565661D01*
X567354Y385572D02*
X565661Y387265D01*
Y390650D01*
X567354Y392343D01*
X574125D01*
X575818Y390650D01*
Y387265D01*
X574125Y385572D01*
X373888Y464309D02*
Y457538D01*
X370502Y454152D01*
X367117Y457538D01*
Y464309D01*
X356960Y462616D02*
X358653Y464309D01*
X362038D01*
X363731Y462616D01*
Y455845D01*
X362038Y454152D01*
X358653D01*
X356960Y455845D01*
X346803Y462616D02*
X348496Y464309D01*
X351882D01*
X353575Y462616D01*
Y455845D01*
X351882Y454152D01*
X348496D01*
X346803Y455845D01*
M02*
