G04*
G04 #@! TF.GenerationSoftware,Altium Limited,Altium Designer,26.3.0 (6)*
G04*
G04 Layer_Physical_Order=1*
G04 Layer_Color=255*
%FSLAX44Y44*%
%MOMM*%
G71*
G04*
G04 #@! TF.SameCoordinates,56274C70-5272-4D43-B975-0071192F6068*
G04*
G04*
G04 #@! TF.FilePolarity,Positive*
G04*
G01*
G75*
%ADD15R,1.6000X0.8000*%
%ADD16R,3.0000X2.1000*%
%ADD23R,1.5700X1.5700*%
%ADD24C,1.5700*%
%ADD26R,1.5700X1.5700*%
%ADD28C,0.3810*%
%ADD29C,2.2000*%
%ADD30R,1.5300X1.5300*%
%ADD31C,1.5300*%
%ADD32R,1.5500X1.5500*%
%ADD33C,1.5500*%
%ADD34C,0.3500*%
G36*
X673100Y266700D02*
X294704D01*
X293540Y268217D01*
Y271783D01*
X292617Y275226D01*
X290835Y278314D01*
X288314Y280835D01*
X285226Y282617D01*
X281783Y283540D01*
X278217D01*
X274774Y282617D01*
X271686Y280835D01*
X269240Y278388D01*
X268894Y278403D01*
X266700Y279124D01*
Y300279D01*
X266940Y302720D01*
X269240Y302720D01*
X302020D01*
Y328800D01*
X269240D01*
X266940Y328800D01*
X266700Y331241D01*
Y413779D01*
X266940Y416220D01*
X269240Y416220D01*
X302020D01*
Y442300D01*
X269240D01*
X266940Y442300D01*
X266700Y444741D01*
Y457200D01*
X275456D01*
X278217Y456460D01*
X281783D01*
X284544Y457200D01*
X673100D01*
Y266700D01*
D02*
G37*
%LPC*%
G36*
X542388Y444730D02*
X539652D01*
X537010Y444022D01*
X534640Y442654D01*
X532706Y440720D01*
X531639Y438872D01*
X525001D01*
X523934Y440720D01*
X522000Y442654D01*
X519630Y444022D01*
X516988Y444730D01*
X514252D01*
X511610Y444022D01*
X509240Y442654D01*
X507306Y440720D01*
X505938Y438350D01*
X505230Y435708D01*
Y432972D01*
X505938Y430330D01*
X507306Y427960D01*
X509094Y426172D01*
X509041Y425514D01*
X508307Y423632D01*
X497533D01*
X496799Y425514D01*
X496746Y426172D01*
X498534Y427960D01*
X499902Y430330D01*
X500610Y432972D01*
Y435708D01*
X499902Y438350D01*
X498534Y440720D01*
X496600Y442654D01*
X494230Y444022D01*
X491588Y444730D01*
X488852D01*
X486210Y444022D01*
X483840Y442654D01*
X481906Y440720D01*
X480538Y438350D01*
X479830Y435708D01*
Y432972D01*
X480538Y430330D01*
X481906Y427960D01*
X483694Y426172D01*
X483641Y425514D01*
X482907Y423632D01*
X477127D01*
X475393Y423287D01*
X473923Y422305D01*
X447410Y395792D01*
X324020D01*
Y402490D01*
X302940D01*
Y397220D01*
Y384720D01*
Y372220D01*
Y359720D01*
Y345792D01*
X293000D01*
X293000Y345792D01*
X291266Y345447D01*
X289795Y344465D01*
X288895Y343565D01*
X287913Y342094D01*
X287568Y340360D01*
X287913Y338626D01*
X288895Y337155D01*
X290366Y336173D01*
X292100Y335828D01*
X293834Y336173D01*
X294665Y336728D01*
X302940D01*
Y334720D01*
X308948D01*
Y329140D01*
X309293Y327406D01*
X310275Y325935D01*
X310428Y325783D01*
Y325120D01*
X310773Y323386D01*
X311755Y321915D01*
X313226Y320933D01*
X314960Y320588D01*
X316694Y320933D01*
X318165Y321915D01*
X319147Y323386D01*
X319492Y325120D01*
Y327660D01*
X319147Y329394D01*
X318165Y330865D01*
X318165Y330865D01*
X318012Y331017D01*
Y334720D01*
X324020D01*
X324020Y334720D01*
X326560Y336047D01*
X327660Y335828D01*
X329394Y336173D01*
X330865Y337155D01*
X331847Y338626D01*
X332192Y340360D01*
X331847Y342094D01*
X330865Y343565D01*
X329965Y344465D01*
X328494Y345447D01*
X326760Y345792D01*
X324020D01*
Y349228D01*
X490068D01*
Y338997D01*
X468167Y317096D01*
X466175Y317630D01*
X463465D01*
X460848Y316929D01*
X458502Y315574D01*
X456586Y313658D01*
X455231Y311312D01*
X454530Y308695D01*
Y305985D01*
X455231Y303368D01*
X456586Y301022D01*
X458502Y299106D01*
X460848Y297751D01*
X463465Y297050D01*
X466175D01*
X468792Y297751D01*
X471138Y299106D01*
X473054Y301022D01*
X474409Y303368D01*
X475110Y305985D01*
Y308695D01*
X474576Y310687D01*
X497805Y333915D01*
X498787Y335386D01*
X499132Y337120D01*
X499132Y337120D01*
Y339500D01*
X501479Y340472D01*
X530630Y311321D01*
Y296950D01*
X551410D01*
Y317730D01*
X537039D01*
X497805Y356965D01*
X496334Y357947D01*
X494600Y358292D01*
X324020D01*
Y361728D01*
X464553D01*
X466287Y362073D01*
X467758Y363055D01*
X480565Y375863D01*
X604373D01*
X605814Y373323D01*
X605184Y372233D01*
X604490Y369642D01*
Y366958D01*
X605184Y364367D01*
X606526Y362043D01*
X608423Y360146D01*
X610747Y358804D01*
X613338Y358110D01*
X616022D01*
X618613Y358804D01*
X620937Y360146D01*
X622834Y362043D01*
X624176Y364367D01*
X624870Y366958D01*
Y369642D01*
X624176Y372233D01*
X623546Y373323D01*
X624987Y375863D01*
X626775D01*
X628509Y376208D01*
X629980Y377190D01*
X636815Y384025D01*
X638738Y383510D01*
X641422D01*
X644013Y384204D01*
X646337Y385546D01*
X648234Y387443D01*
X649576Y389767D01*
X650270Y392358D01*
Y395042D01*
X649576Y397633D01*
X648234Y399957D01*
X646337Y401854D01*
X644013Y403196D01*
X641422Y403890D01*
X638738D01*
X636147Y403196D01*
X633823Y401854D01*
X631926Y399957D01*
X630584Y397633D01*
X629890Y395042D01*
Y392358D01*
X630405Y390435D01*
X626141Y386170D01*
X625143Y386363D01*
X623848Y389200D01*
X624176Y389767D01*
X624870Y392358D01*
Y395042D01*
X624176Y397633D01*
X623546Y398723D01*
X624987Y401263D01*
X626775D01*
X628509Y401608D01*
X629980Y402590D01*
X636815Y409425D01*
X638738Y408910D01*
X641422D01*
X644013Y409604D01*
X646337Y410946D01*
X648234Y412843D01*
X649576Y415167D01*
X650270Y417758D01*
Y420442D01*
X649576Y423033D01*
X648234Y425357D01*
X646337Y427254D01*
X644013Y428596D01*
X641422Y429290D01*
X638738D01*
X636147Y428596D01*
X633823Y427254D01*
X631926Y425357D01*
X630584Y423033D01*
X629890Y420442D01*
Y417758D01*
X630405Y415835D01*
X627410Y412839D01*
X624870Y413891D01*
Y429290D01*
X604490D01*
Y423632D01*
X548333D01*
X547599Y425514D01*
X547546Y426172D01*
X549334Y427960D01*
X550702Y430330D01*
X551410Y432972D01*
Y435708D01*
X550702Y438350D01*
X549334Y440720D01*
X547400Y442654D01*
X545030Y444022D01*
X542388Y444730D01*
D02*
G37*
G36*
X373610D02*
X364490D01*
Y435610D01*
X373610D01*
Y444730D01*
D02*
G37*
G36*
X361950D02*
X352830D01*
Y435610D01*
X361950D01*
Y444730D01*
D02*
G37*
G36*
X466188D02*
X463452D01*
X460810Y444022D01*
X458440Y442654D01*
X456506Y440720D01*
X455138Y438350D01*
X454430Y435708D01*
Y432972D01*
X455138Y430330D01*
X456506Y427960D01*
X458440Y426026D01*
X460810Y424658D01*
X463452Y423950D01*
X466188D01*
X468830Y424658D01*
X471200Y426026D01*
X473134Y427960D01*
X474502Y430330D01*
X475210Y432972D01*
Y435708D01*
X474502Y438350D01*
X473134Y440720D01*
X471200Y442654D01*
X468830Y444022D01*
X466188Y444730D01*
D02*
G37*
G36*
X440788D02*
X438052D01*
X435410Y444022D01*
X433040Y442654D01*
X431106Y440720D01*
X429738Y438350D01*
X429030Y435708D01*
Y432972D01*
X429738Y430330D01*
X431106Y427960D01*
X433040Y426026D01*
X435410Y424658D01*
X438052Y423950D01*
X440788D01*
X443430Y424658D01*
X445800Y426026D01*
X447734Y427960D01*
X449102Y430330D01*
X449810Y432972D01*
Y435708D01*
X449102Y438350D01*
X447734Y440720D01*
X445800Y442654D01*
X443430Y444022D01*
X440788Y444730D01*
D02*
G37*
G36*
X415388D02*
X412652D01*
X410010Y444022D01*
X407640Y442654D01*
X405706Y440720D01*
X404338Y438350D01*
X403630Y435708D01*
Y432972D01*
X404338Y430330D01*
X405706Y427960D01*
X407640Y426026D01*
X410010Y424658D01*
X412652Y423950D01*
X415388D01*
X418030Y424658D01*
X420400Y426026D01*
X422334Y427960D01*
X423702Y430330D01*
X424410Y432972D01*
Y435708D01*
X423702Y438350D01*
X422334Y440720D01*
X420400Y442654D01*
X418030Y444022D01*
X415388Y444730D01*
D02*
G37*
G36*
X389988D02*
X387252D01*
X384610Y444022D01*
X382240Y442654D01*
X380306Y440720D01*
X378938Y438350D01*
X378230Y435708D01*
Y432972D01*
X378938Y430330D01*
X380306Y427960D01*
X382240Y426026D01*
X384610Y424658D01*
X387252Y423950D01*
X389988D01*
X392630Y424658D01*
X395000Y426026D01*
X396934Y427960D01*
X398302Y430330D01*
X399010Y432972D01*
Y435708D01*
X398302Y438350D01*
X396934Y440720D01*
X395000Y442654D01*
X392630Y444022D01*
X389988Y444730D01*
D02*
G37*
G36*
X373610Y433070D02*
X364490D01*
Y423950D01*
X373610D01*
Y433070D01*
D02*
G37*
G36*
X361950D02*
X352830D01*
Y423950D01*
X361950D01*
Y433070D01*
D02*
G37*
G36*
X324020Y410300D02*
X314750D01*
Y405030D01*
X324020D01*
Y410300D01*
D02*
G37*
G36*
X312210D02*
X302940D01*
Y405030D01*
X312210D01*
Y410300D01*
D02*
G37*
G36*
X641422Y378490D02*
X638738D01*
X636147Y377796D01*
X633823Y376454D01*
X631926Y374557D01*
X630584Y372233D01*
X629890Y369642D01*
Y366958D01*
X630584Y364367D01*
X631926Y362043D01*
X633823Y360146D01*
X636147Y358804D01*
X638738Y358110D01*
X641422D01*
X644013Y358804D01*
X646337Y360146D01*
X648234Y362043D01*
X649576Y364367D01*
X650270Y366958D01*
Y369642D01*
X649576Y372233D01*
X648234Y374557D01*
X646337Y376454D01*
X644013Y377796D01*
X641422Y378490D01*
D02*
G37*
G36*
Y353090D02*
X641350D01*
Y344170D01*
X650270D01*
Y344242D01*
X649576Y346833D01*
X648234Y349157D01*
X646337Y351054D01*
X644013Y352396D01*
X641422Y353090D01*
D02*
G37*
G36*
X616022D02*
X615950D01*
Y344170D01*
X624870D01*
Y344242D01*
X624176Y346833D01*
X622834Y349157D01*
X620937Y351054D01*
X618613Y352396D01*
X616022Y353090D01*
D02*
G37*
G36*
X638810D02*
X638738D01*
X636147Y352396D01*
X633823Y351054D01*
X631926Y349157D01*
X630584Y346833D01*
X629890Y344242D01*
Y344170D01*
X638810D01*
Y353090D01*
D02*
G37*
G36*
X613410D02*
X613338D01*
X610747Y352396D01*
X608423Y351054D01*
X606526Y349157D01*
X605184Y346833D01*
X604490Y344242D01*
Y344170D01*
X613410D01*
Y353090D01*
D02*
G37*
G36*
X650270Y341630D02*
X641350D01*
Y332710D01*
X641422D01*
X644013Y333404D01*
X646337Y334746D01*
X648234Y336643D01*
X649576Y338967D01*
X650270Y341558D01*
Y341630D01*
D02*
G37*
G36*
X638810D02*
X629890D01*
Y341558D01*
X630584Y338967D01*
X631926Y336643D01*
X633823Y334746D01*
X636147Y333404D01*
X638738Y332710D01*
X638810D01*
Y341630D01*
D02*
G37*
G36*
X624870D02*
X615950D01*
Y332710D01*
X616022D01*
X618613Y333404D01*
X620937Y334746D01*
X622834Y336643D01*
X624176Y338967D01*
X624870Y341558D01*
Y341630D01*
D02*
G37*
G36*
X613410D02*
X604490D01*
Y341558D01*
X605184Y338967D01*
X606526Y336643D01*
X608423Y334746D01*
X610747Y333404D01*
X613338Y332710D01*
X613410D01*
Y341630D01*
D02*
G37*
G36*
X373510Y317630D02*
X364490D01*
Y308610D01*
X373510D01*
Y317630D01*
D02*
G37*
G36*
X361950D02*
X352930D01*
Y308610D01*
X361950D01*
Y317630D01*
D02*
G37*
G36*
X641422Y327690D02*
X638738D01*
X636147Y326996D01*
X633823Y325654D01*
X631926Y323757D01*
X630584Y321433D01*
X629890Y318842D01*
Y316158D01*
X630584Y313567D01*
X631926Y311243D01*
X633823Y309346D01*
X636147Y308004D01*
X638738Y307310D01*
X641422D01*
X644013Y308004D01*
X646337Y309346D01*
X648234Y311243D01*
X649576Y313567D01*
X650270Y316158D01*
Y318842D01*
X649576Y321433D01*
X648234Y323757D01*
X646337Y325654D01*
X644013Y326996D01*
X641422Y327690D01*
D02*
G37*
G36*
X616022D02*
X613338D01*
X610747Y326996D01*
X608423Y325654D01*
X606526Y323757D01*
X605184Y321433D01*
X604490Y318842D01*
Y316158D01*
X605184Y313567D01*
X606526Y311243D01*
X608423Y309346D01*
X610747Y308004D01*
X613338Y307310D01*
X616022D01*
X618613Y308004D01*
X620937Y309346D01*
X622834Y311243D01*
X624176Y313567D01*
X624870Y316158D01*
Y318842D01*
X624176Y321433D01*
X622834Y323757D01*
X620937Y325654D01*
X618613Y326996D01*
X616022Y327690D01*
D02*
G37*
G36*
X491575Y317630D02*
X488865D01*
X486248Y316929D01*
X483902Y315574D01*
X481986Y313658D01*
X480631Y311312D01*
X479930Y308695D01*
Y305985D01*
X480631Y303368D01*
X481986Y301022D01*
X483902Y299106D01*
X486248Y297751D01*
X488865Y297050D01*
X491575D01*
X494192Y297751D01*
X496538Y299106D01*
X498454Y301022D01*
X499809Y303368D01*
X500510Y305985D01*
Y308695D01*
X499809Y311312D01*
X498454Y313658D01*
X496538Y315574D01*
X494192Y316929D01*
X491575Y317630D01*
D02*
G37*
G36*
X440775D02*
X438065D01*
X435448Y316929D01*
X433102Y315574D01*
X431186Y313658D01*
X429831Y311312D01*
X429130Y308695D01*
Y305985D01*
X429831Y303368D01*
X431186Y301022D01*
X433102Y299106D01*
X435448Y297751D01*
X438065Y297050D01*
X440775D01*
X443392Y297751D01*
X445738Y299106D01*
X447654Y301022D01*
X449009Y303368D01*
X449710Y305985D01*
Y308695D01*
X449009Y311312D01*
X447654Y313658D01*
X445738Y315574D01*
X443392Y316929D01*
X440775Y317630D01*
D02*
G37*
G36*
X415375D02*
X412665D01*
X410048Y316929D01*
X407702Y315574D01*
X405786Y313658D01*
X404431Y311312D01*
X403730Y308695D01*
Y305985D01*
X404431Y303368D01*
X405786Y301022D01*
X407702Y299106D01*
X410048Y297751D01*
X412665Y297050D01*
X415375D01*
X417992Y297751D01*
X420338Y299106D01*
X422254Y301022D01*
X423609Y303368D01*
X424310Y305985D01*
Y308695D01*
X423609Y311312D01*
X422254Y313658D01*
X420338Y315574D01*
X417992Y316929D01*
X415375Y317630D01*
D02*
G37*
G36*
X389975D02*
X387265D01*
X384648Y316929D01*
X382302Y315574D01*
X380386Y313658D01*
X379031Y311312D01*
X378330Y308695D01*
Y305985D01*
X379031Y303368D01*
X380386Y301022D01*
X382302Y299106D01*
X384648Y297751D01*
X387265Y297050D01*
X389975D01*
X392592Y297751D01*
X394938Y299106D01*
X396854Y301022D01*
X398209Y303368D01*
X398910Y305985D01*
Y308695D01*
X398209Y311312D01*
X396854Y313658D01*
X394938Y315574D01*
X392592Y316929D01*
X389975Y317630D01*
D02*
G37*
G36*
X373510Y306070D02*
X364490D01*
Y297050D01*
X373510D01*
Y306070D01*
D02*
G37*
G36*
X361950D02*
X352930D01*
Y297050D01*
X361950D01*
Y306070D01*
D02*
G37*
%LPD*%
G36*
X604490Y410327D02*
X485138D01*
X483404Y409982D01*
X481933Y409000D01*
X481933Y409000D01*
X456226Y383292D01*
X324020D01*
Y384720D01*
Y386728D01*
X449287D01*
X451022Y387073D01*
X452492Y388055D01*
X479005Y414568D01*
X604490D01*
Y410327D01*
D02*
G37*
G36*
X605814Y398723D02*
X605184Y397633D01*
X604490Y395042D01*
Y392358D01*
X605184Y389767D01*
X606526Y387443D01*
X605450Y384927D01*
X478688D01*
X476954Y384582D01*
X475483Y383600D01*
X462676Y370792D01*
X324020D01*
Y374228D01*
X458103D01*
X459837Y374573D01*
X461308Y375555D01*
X487015Y401263D01*
X604373D01*
X605814Y398723D01*
D02*
G37*
D15*
X313480Y403760D02*
D03*
Y391260D02*
D03*
Y341260D02*
D03*
Y378760D02*
D03*
Y366260D02*
D03*
Y353760D02*
D03*
D16*
X284480Y429260D02*
D03*
Y315760D02*
D03*
D23*
X363220Y434340D02*
D03*
D24*
X541020D02*
D03*
X515620D02*
D03*
X388620D02*
D03*
X490220D02*
D03*
X464820D02*
D03*
X439420D02*
D03*
X414020D02*
D03*
D26*
X541020Y307340D02*
D03*
D28*
X515620Y434340D02*
X541020D01*
X477127Y419100D02*
X541020D01*
X514755Y433475D02*
X515620Y434340D01*
X541020Y419100D02*
Y434340D01*
Y419100D02*
X614680D01*
X449287Y391260D02*
X477127Y419100D01*
X313480Y391260D02*
X449287D01*
X326760Y341260D02*
X327660Y340360D01*
X313480Y341260D02*
X326760D01*
X314960Y325120D02*
Y327660D01*
X313480Y329140D02*
X314960Y327660D01*
X313480Y329140D02*
Y341260D01*
X292100Y340360D02*
X293000Y341260D01*
X313480D01*
X464820Y307340D02*
X494600Y337120D01*
X458103Y378760D02*
X485138Y405795D01*
X464553Y366260D02*
X478688Y380395D01*
X626775D02*
X640080Y393700D01*
X478688Y380395D02*
X626775D01*
X416560Y366260D02*
X464553D01*
X313480D02*
X416560D01*
X494600Y353760D02*
X541020Y307340D01*
X485138Y405795D02*
X626775D01*
X457200Y353760D02*
X494600D01*
X313480D02*
X457200D01*
X626775Y405795D02*
X640080Y419100D01*
X313480Y378760D02*
X458103D01*
X494600Y337120D02*
Y353760D01*
D29*
X280000Y270000D02*
D03*
Y470000D02*
D03*
D30*
X614680Y419100D02*
D03*
D31*
X640080D02*
D03*
X614680Y393700D02*
D03*
X640080D02*
D03*
X614680Y368300D02*
D03*
X640080D02*
D03*
X614680Y342900D02*
D03*
X640080D02*
D03*
X614680Y317500D02*
D03*
X640080D02*
D03*
D32*
X363220Y307340D02*
D03*
D33*
X388620D02*
D03*
X490220D02*
D03*
X464820D02*
D03*
X439420D02*
D03*
X414020D02*
D03*
D34*
X327660Y391160D02*
D03*
Y340360D02*
D03*
X314960Y325120D02*
D03*
X292100Y340360D02*
D03*
X457200Y353760D02*
D03*
X485138Y405795D02*
D03*
X416560Y366260D02*
D03*
M02*
