G04*
G04 #@! TF.GenerationSoftware,Altium Limited,Altium Designer,26.3.0 (6)*
G04*
G04 Layer_Color=65535*
%FSLAX44Y44*%
%MOMM*%
G71*
G04*
G04 #@! TF.SameCoordinates,56274C70-5272-4D43-B975-0071192F6068*
G04*
G04*
G04 #@! TF.FilePolarity,Positive*
G04*
G01*
G75*
%ADD10C,0.1000*%
%ADD11C,0.2500*%
%ADD12C,0.2000*%
%ADD13C,0.1200*%
%ADD14C,0.2032*%
G36*
X528709Y335931D02*
X409329D01*
Y406813D01*
X528709D01*
Y335931D01*
D02*
G37*
%LPC*%
G36*
X475361Y379579D02*
X472377D01*
Y379206D01*
X472003D01*
Y378833D01*
X471630D01*
Y378460D01*
X471257D01*
Y378087D01*
X470884D01*
Y377714D01*
X470511D01*
Y377341D01*
X470138D01*
Y376968D01*
X469765D01*
Y376595D01*
X469392D01*
Y376222D01*
X469019D01*
Y375849D01*
X468646D01*
Y375476D01*
X468273D01*
Y375102D01*
X467900D01*
Y374729D01*
X467527D01*
Y374356D01*
X467154D01*
Y373983D01*
X466781D01*
Y373610D01*
X466408D01*
Y373237D01*
X466034D01*
Y372864D01*
X465661D01*
Y372491D01*
X465288D01*
Y372118D01*
X464915D01*
Y371745D01*
X464542D01*
Y371372D01*
X464169D01*
Y370999D01*
X463796D01*
Y370626D01*
X463423D01*
Y370253D01*
X463050D01*
Y369880D01*
X462677D01*
Y369506D01*
X462304D01*
Y369133D01*
X461931D01*
Y368760D01*
X461558D01*
Y368387D01*
X461185D01*
Y368014D01*
X460812D01*
Y367641D01*
X460438D01*
Y368014D01*
X460065D01*
Y368387D01*
X459692D01*
Y368760D01*
X459319D01*
Y369133D01*
X458946D01*
Y369506D01*
X458573D01*
Y369880D01*
X458200D01*
Y370253D01*
X457827D01*
Y370626D01*
X457454D01*
Y370999D01*
X457081D01*
Y371372D01*
X456708D01*
Y371745D01*
X456335D01*
Y372118D01*
X455962D01*
Y372491D01*
X455589D01*
Y372864D01*
X455216D01*
Y373237D01*
X454842D01*
Y373610D01*
X454469D01*
Y373983D01*
X454096D01*
Y374356D01*
X453723D01*
Y374729D01*
X453350D01*
Y375102D01*
X452977D01*
Y375476D01*
X452604D01*
Y375849D01*
X452231D01*
Y376222D01*
X451858D01*
Y376595D01*
X451485D01*
Y376968D01*
X451112D01*
Y377341D01*
X450739D01*
Y377714D01*
X450366D01*
Y378087D01*
X449993D01*
Y378460D01*
X449620D01*
Y378833D01*
X449247D01*
Y379206D01*
X448873D01*
Y379579D01*
X445889D01*
Y379206D01*
X446262D01*
Y378833D01*
X446635D01*
Y378460D01*
X447008D01*
Y378087D01*
X447381D01*
Y377714D01*
X447754D01*
Y377341D01*
X448127D01*
Y376968D01*
X448501D01*
Y376595D01*
X448873D01*
Y376222D01*
X449247D01*
Y375849D01*
X449620D01*
Y375476D01*
X449993D01*
Y375102D01*
X450366D01*
Y374729D01*
X450739D01*
Y374356D01*
X451112D01*
Y373983D01*
X451485D01*
Y373610D01*
X451858D01*
Y373237D01*
X452231D01*
Y372864D01*
X452604D01*
Y372491D01*
X452977D01*
Y372118D01*
X453350D01*
Y371745D01*
X453723D01*
Y371372D01*
X454096D01*
Y370999D01*
X454469D01*
Y370626D01*
X454842D01*
Y370253D01*
X455216D01*
Y369880D01*
X455589D01*
Y369506D01*
X455962D01*
Y369133D01*
X456335D01*
Y368760D01*
X456708D01*
Y368387D01*
X457081D01*
Y368014D01*
X457454D01*
Y367641D01*
X457827D01*
Y367268D01*
X458200D01*
Y366895D01*
X458573D01*
Y366522D01*
X458946D01*
Y366149D01*
X459319D01*
Y365776D01*
X459692D01*
Y352719D01*
X461558D01*
Y365776D01*
X461931D01*
Y366149D01*
X462304D01*
Y366522D01*
X462677D01*
Y366895D01*
X463050D01*
Y367268D01*
X463423D01*
Y367641D01*
X463796D01*
Y368014D01*
X464169D01*
Y368387D01*
X464542D01*
Y368760D01*
X464915D01*
Y369133D01*
X465288D01*
Y369506D01*
X465661D01*
Y369880D01*
X466034D01*
Y370253D01*
X466408D01*
Y370626D01*
X466781D01*
Y370999D01*
X467154D01*
Y371372D01*
X467527D01*
Y371745D01*
X467900D01*
Y372118D01*
X468273D01*
Y372491D01*
X468646D01*
Y372864D01*
X469019D01*
Y373237D01*
X469392D01*
Y373610D01*
X469765D01*
Y373983D01*
X470138D01*
Y374356D01*
X470511D01*
Y374729D01*
X470884D01*
Y375102D01*
X471257D01*
Y375476D01*
X471630D01*
Y375849D01*
X472003D01*
Y376222D01*
X472377D01*
Y376595D01*
X472749D01*
Y376968D01*
X473123D01*
Y377341D01*
X473496D01*
Y377714D01*
X473869D01*
Y378087D01*
X474242D01*
Y378460D01*
X474615D01*
Y378833D01*
X474988D01*
Y379206D01*
X475361D01*
Y379579D01*
D02*
G37*
G36*
X442905D02*
X441039D01*
Y379206D01*
X440666D01*
Y378833D01*
X440293D01*
Y378460D01*
X439920D01*
Y378087D01*
X439547D01*
Y377714D01*
X439174D01*
Y377341D01*
X438801D01*
Y376968D01*
X438428D01*
Y376595D01*
X438055D01*
Y376222D01*
X437682D01*
Y375849D01*
X437309D01*
Y375476D01*
X436936D01*
Y375102D01*
X436562D01*
Y374729D01*
X436189D01*
Y374356D01*
X435816D01*
Y373983D01*
X435443D01*
Y373610D01*
X435070D01*
Y373237D01*
X434697D01*
Y372864D01*
X434324D01*
Y372491D01*
X433951D01*
Y372118D01*
X433578D01*
Y371745D01*
X433205D01*
Y371372D01*
X432832D01*
Y370999D01*
X432459D01*
Y370626D01*
X432086D01*
Y370253D01*
X431713D01*
Y369880D01*
X431340D01*
Y369506D01*
X430966D01*
Y369133D01*
X430593D01*
Y368760D01*
X430220D01*
Y368387D01*
X429847D01*
Y368014D01*
X429474D01*
Y367641D01*
X429101D01*
Y367268D01*
X428728D01*
Y366895D01*
X428355D01*
Y366522D01*
X427982D01*
Y366149D01*
X427609D01*
Y365776D01*
X430593D01*
Y366149D01*
X430966D01*
Y366522D01*
X431340D01*
Y366895D01*
X431713D01*
Y367268D01*
X432086D01*
Y367641D01*
X432459D01*
Y368014D01*
X432832D01*
Y368387D01*
X433205D01*
Y368760D01*
X433578D01*
Y369133D01*
X433951D01*
Y369506D01*
X434324D01*
Y369880D01*
X434697D01*
Y370253D01*
X435070D01*
Y370626D01*
X448873D01*
Y370253D01*
X449247D01*
Y369880D01*
X449620D01*
Y369506D01*
X449993D01*
Y369133D01*
X450366D01*
Y368760D01*
X450739D01*
Y368387D01*
X451112D01*
Y368014D01*
X451485D01*
Y367641D01*
X451858D01*
Y367268D01*
X452231D01*
Y366895D01*
X452604D01*
Y366522D01*
X452977D01*
Y366149D01*
X453350D01*
Y365776D01*
X456335D01*
Y366149D01*
X455962D01*
Y366522D01*
X455589D01*
Y366895D01*
X455216D01*
Y367268D01*
X454842D01*
Y367641D01*
X454469D01*
Y368014D01*
X454096D01*
Y368387D01*
X453723D01*
Y368760D01*
X453350D01*
Y369133D01*
X452977D01*
Y369506D01*
X452604D01*
Y369880D01*
X452231D01*
Y370253D01*
X451858D01*
Y370626D01*
X451485D01*
Y370999D01*
X451112D01*
Y371372D01*
X450739D01*
Y371745D01*
X450366D01*
Y372118D01*
X449993D01*
Y372491D01*
X449620D01*
Y372864D01*
X449247D01*
Y373237D01*
X448873D01*
Y373610D01*
X448501D01*
Y373983D01*
X448127D01*
Y374356D01*
X447754D01*
Y374729D01*
X447381D01*
Y375102D01*
X447008D01*
Y375476D01*
X446635D01*
Y375849D01*
X446262D01*
Y376222D01*
X445889D01*
Y376595D01*
X445516D01*
Y376968D01*
X445143D01*
Y377341D01*
X444770D01*
Y377714D01*
X444397D01*
Y378087D01*
X444024D01*
Y378460D01*
X443651D01*
Y378833D01*
X443278D01*
Y379206D01*
X442905D01*
Y379579D01*
D02*
G37*
G36*
X424624Y403828D02*
X411194D01*
Y365776D01*
X424624D01*
Y366149D01*
X424997D01*
Y366522D01*
X425371D01*
Y366895D01*
X425744D01*
Y367268D01*
X426117D01*
Y367641D01*
X426490D01*
Y368014D01*
X426863D01*
Y368387D01*
X427236D01*
Y368760D01*
X427609D01*
Y369133D01*
X427982D01*
Y369506D01*
X428355D01*
Y369880D01*
X428728D01*
Y370253D01*
X429101D01*
Y370626D01*
X429474D01*
Y370999D01*
X429847D01*
Y371372D01*
X430220D01*
Y371745D01*
X430593D01*
Y372118D01*
X430966D01*
Y372491D01*
X431340D01*
Y372864D01*
X431713D01*
Y373237D01*
X432086D01*
Y373610D01*
X432459D01*
Y373983D01*
X432832D01*
Y374356D01*
X433205D01*
Y374729D01*
X433578D01*
Y375102D01*
X433951D01*
Y375476D01*
X434324D01*
Y375849D01*
X434697D01*
Y376222D01*
X435070D01*
Y376595D01*
X435443D01*
Y376968D01*
X435816D01*
Y377341D01*
X436189D01*
Y377714D01*
X436562D01*
Y378087D01*
X436936D01*
Y378460D01*
X437309D01*
Y378833D01*
X437682D01*
Y379206D01*
X438055D01*
Y390398D01*
X437682D01*
Y390771D01*
X437309D01*
Y391144D01*
X436936D01*
Y391517D01*
X436562D01*
Y391890D01*
X436189D01*
Y392263D01*
X435816D01*
Y392636D01*
X435443D01*
Y393009D01*
X435070D01*
Y393382D01*
X434697D01*
Y393756D01*
X434324D01*
Y394129D01*
X433951D01*
Y394502D01*
X433578D01*
Y394875D01*
X433205D01*
Y395248D01*
X432832D01*
Y395621D01*
X432459D01*
Y395994D01*
X432086D01*
Y396367D01*
X431713D01*
Y396740D01*
X431340D01*
Y397113D01*
X430966D01*
Y397486D01*
X430593D01*
Y397859D01*
X430220D01*
Y398232D01*
X429847D01*
Y398605D01*
X429474D01*
Y398978D01*
X429101D01*
Y399352D01*
X428728D01*
Y399725D01*
X428355D01*
Y400098D01*
X427982D01*
Y400471D01*
X427609D01*
Y400844D01*
X427236D01*
Y401217D01*
X426863D01*
Y401590D01*
X426490D01*
Y401963D01*
X426117D01*
Y402336D01*
X425744D01*
Y402709D01*
X425371D01*
Y403082D01*
X424997D01*
Y403455D01*
X424624D01*
Y403828D01*
D02*
G37*
G36*
X511175Y365776D02*
X509310D01*
Y355330D01*
X508937D01*
Y355703D01*
X508563D01*
Y356076D01*
X508190D01*
Y356449D01*
X507817D01*
Y356822D01*
X507444D01*
Y357195D01*
X507071D01*
Y357569D01*
X506698D01*
Y357942D01*
X506325D01*
Y358315D01*
X505952D01*
Y358688D01*
X505579D01*
Y359061D01*
X505206D01*
Y359434D01*
X504833D01*
Y359807D01*
X504460D01*
Y360180D01*
X504087D01*
Y360553D01*
X503714D01*
Y360926D01*
X503341D01*
Y361299D01*
X502968D01*
Y361672D01*
X502594D01*
Y362045D01*
X502221D01*
Y362418D01*
X501848D01*
Y362791D01*
X501475D01*
Y363164D01*
X501102D01*
Y363537D01*
X500729D01*
Y363911D01*
X500356D01*
Y364284D01*
X499983D01*
Y364657D01*
X499610D01*
Y365030D01*
X499237D01*
Y365403D01*
X498864D01*
Y365776D01*
X496999D01*
Y352719D01*
X498864D01*
Y362418D01*
X499237D01*
Y362045D01*
X499610D01*
Y361672D01*
X499983D01*
Y361299D01*
X500356D01*
Y360926D01*
X500729D01*
Y360553D01*
X501102D01*
Y360180D01*
X501475D01*
Y359807D01*
X501848D01*
Y359434D01*
X502221D01*
Y359061D01*
X502594D01*
Y358688D01*
X502968D01*
Y358315D01*
X503341D01*
Y357942D01*
X503714D01*
Y357569D01*
X504087D01*
Y357195D01*
X504460D01*
Y356822D01*
X504833D01*
Y356449D01*
X505206D01*
Y356076D01*
X505579D01*
Y355703D01*
X505952D01*
Y355330D01*
X506325D01*
Y354957D01*
X506698D01*
Y354584D01*
X507071D01*
Y354211D01*
X507444D01*
Y353838D01*
X507817D01*
Y353465D01*
X508190D01*
Y353092D01*
X508563D01*
Y352719D01*
X511175D01*
Y365776D01*
D02*
G37*
G36*
X526844D02*
X514160D01*
Y352719D01*
X526844D01*
Y354584D01*
X516025D01*
Y358315D01*
X526844D01*
Y360180D01*
X516025D01*
Y363911D01*
X526844D01*
Y365776D01*
D02*
G37*
G36*
X480211Y379579D02*
X478345D01*
Y379206D01*
X477972D01*
Y378833D01*
X477599D01*
Y378460D01*
X477226D01*
Y378087D01*
X476853D01*
Y377714D01*
X476480D01*
Y377341D01*
X476107D01*
Y376968D01*
X475734D01*
Y376595D01*
X475361D01*
Y376222D01*
X474988D01*
Y375849D01*
X474615D01*
Y375476D01*
X474242D01*
Y375102D01*
X473869D01*
Y374729D01*
X473496D01*
Y374356D01*
X473123D01*
Y373983D01*
X472749D01*
Y373610D01*
X472377D01*
Y373237D01*
X472003D01*
Y372864D01*
X471630D01*
Y372491D01*
X471257D01*
Y372118D01*
X470884D01*
Y371745D01*
X470511D01*
Y371372D01*
X470138D01*
Y370999D01*
X469765D01*
Y370626D01*
X469392D01*
Y370253D01*
X469019D01*
Y369880D01*
X468646D01*
Y369506D01*
X468273D01*
Y369133D01*
X467900D01*
Y368760D01*
X467527D01*
Y368387D01*
X467154D01*
Y368014D01*
X466781D01*
Y367641D01*
X466408D01*
Y367268D01*
X466034D01*
Y366895D01*
X465661D01*
Y366522D01*
X465288D01*
Y366149D01*
X464915D01*
Y365776D01*
X464542D01*
Y352719D01*
X464915D01*
Y352346D01*
X465288D01*
Y351973D01*
X465661D01*
Y351600D01*
X466034D01*
Y351226D01*
X466408D01*
Y350853D01*
X466781D01*
Y350480D01*
X467154D01*
Y350107D01*
X467527D01*
Y349734D01*
X467900D01*
Y349361D01*
X468273D01*
Y348988D01*
X468646D01*
Y348615D01*
X469019D01*
Y348242D01*
X469392D01*
Y347869D01*
X469765D01*
Y347496D01*
X470138D01*
Y347123D01*
X470511D01*
Y346750D01*
X470884D01*
Y346377D01*
X471257D01*
Y346004D01*
X471630D01*
Y345630D01*
X472003D01*
Y345257D01*
X472377D01*
Y344884D01*
X472749D01*
Y344511D01*
X473123D01*
Y344138D01*
X473496D01*
Y343765D01*
X473869D01*
Y343392D01*
X474242D01*
Y343019D01*
X474615D01*
Y342646D01*
X474988D01*
Y342273D01*
X475361D01*
Y341900D01*
X475734D01*
Y341527D01*
X476107D01*
Y341154D01*
X476480D01*
Y340781D01*
X476853D01*
Y340408D01*
X477226D01*
Y340035D01*
X477599D01*
Y339661D01*
X477972D01*
Y339288D01*
X478345D01*
Y338915D01*
X480211D01*
Y339288D01*
X480584D01*
Y339661D01*
X480957D01*
Y340035D01*
X481330D01*
Y340408D01*
X481703D01*
Y340781D01*
X482076D01*
Y341154D01*
X482449D01*
Y341527D01*
X482822D01*
Y341900D01*
X483195D01*
Y342273D01*
X483568D01*
Y342646D01*
X483941D01*
Y343019D01*
X484314D01*
Y343392D01*
X484688D01*
Y343765D01*
X485061D01*
Y344138D01*
X485434D01*
Y344511D01*
X485807D01*
Y344884D01*
X486180D01*
Y345257D01*
X486553D01*
Y345630D01*
X486926D01*
Y346004D01*
X487299D01*
Y346377D01*
X487672D01*
Y346750D01*
X488045D01*
Y347123D01*
X488418D01*
Y347496D01*
X488791D01*
Y347869D01*
X489164D01*
Y348242D01*
X489537D01*
Y348615D01*
X489910D01*
Y348988D01*
X490284D01*
Y349361D01*
X490657D01*
Y349734D01*
X491030D01*
Y350107D01*
X491403D01*
Y350480D01*
X491776D01*
Y350853D01*
X492149D01*
Y351226D01*
X492522D01*
Y351600D01*
X492895D01*
Y351973D01*
X493268D01*
Y352346D01*
X493641D01*
Y352719D01*
X494014D01*
Y365776D01*
X493641D01*
Y366149D01*
X493268D01*
Y366522D01*
X492895D01*
Y366895D01*
X492522D01*
Y367268D01*
X492149D01*
Y367641D01*
X491776D01*
Y368014D01*
X491403D01*
Y368387D01*
X491030D01*
Y368760D01*
X490657D01*
Y369133D01*
X490284D01*
Y369506D01*
X489910D01*
Y369880D01*
X489537D01*
Y370253D01*
X489164D01*
Y370626D01*
X488791D01*
Y370999D01*
X488418D01*
Y371372D01*
X488045D01*
Y371745D01*
X487672D01*
Y372118D01*
X487299D01*
Y372491D01*
X486926D01*
Y372864D01*
X486553D01*
Y373237D01*
X486180D01*
Y373610D01*
X485807D01*
Y373983D01*
X485434D01*
Y374356D01*
X485061D01*
Y374729D01*
X484688D01*
Y375102D01*
X484314D01*
Y375476D01*
X483941D01*
Y375849D01*
X483568D01*
Y376222D01*
X483195D01*
Y376595D01*
X482822D01*
Y376968D01*
X482449D01*
Y377341D01*
X482076D01*
Y377714D01*
X481703D01*
Y378087D01*
X481330D01*
Y378460D01*
X480957D01*
Y378833D01*
X480584D01*
Y379206D01*
X480211D01*
Y379579D01*
D02*
G37*
%LPD*%
G36*
X442158Y376968D02*
X442532D01*
Y376595D01*
X442905D01*
Y376222D01*
X443278D01*
Y375849D01*
X443651D01*
Y375476D01*
X444024D01*
Y375103D01*
X444397D01*
Y374729D01*
X444770D01*
Y374356D01*
X445143D01*
Y373983D01*
X445516D01*
Y373610D01*
X445889D01*
Y373237D01*
X446262D01*
Y372864D01*
X446635D01*
Y372491D01*
X437309D01*
Y372864D01*
X437682D01*
Y373237D01*
X438055D01*
Y373610D01*
X438428D01*
Y373983D01*
X438801D01*
Y374356D01*
X439174D01*
Y374729D01*
X439547D01*
Y375103D01*
X439920D01*
Y375476D01*
X440293D01*
Y375849D01*
X440666D01*
Y376222D01*
X441039D01*
Y376595D01*
X441412D01*
Y376968D01*
X441785D01*
Y377341D01*
X442158D01*
Y376968D01*
D02*
G37*
G36*
X423505Y401590D02*
X423878D01*
Y401217D01*
X424251D01*
Y400844D01*
X424624D01*
Y400471D01*
X424997D01*
Y400098D01*
X425371D01*
Y399725D01*
X425744D01*
Y399352D01*
X426117D01*
Y398979D01*
X426490D01*
Y398605D01*
X426863D01*
Y398232D01*
X427236D01*
Y397859D01*
X427609D01*
Y397486D01*
X427982D01*
Y397113D01*
X428355D01*
Y396740D01*
X428728D01*
Y396367D01*
X429101D01*
Y395994D01*
X429474D01*
Y395621D01*
X429847D01*
Y395248D01*
X430220D01*
Y394875D01*
X430593D01*
Y394502D01*
X430966D01*
Y394129D01*
X431340D01*
Y393756D01*
X431713D01*
Y393382D01*
X432086D01*
Y393009D01*
X432459D01*
Y392636D01*
X432832D01*
Y392263D01*
X433205D01*
Y391890D01*
X433578D01*
Y391517D01*
X433951D01*
Y391144D01*
X434324D01*
Y390771D01*
X434697D01*
Y390398D01*
X435070D01*
Y390025D01*
X435443D01*
Y389652D01*
X435816D01*
Y389279D01*
X436189D01*
Y380325D01*
X435816D01*
Y379952D01*
X435443D01*
Y379579D01*
X435070D01*
Y379206D01*
X434697D01*
Y378833D01*
X434324D01*
Y378460D01*
X433951D01*
Y378087D01*
X433578D01*
Y377714D01*
X433205D01*
Y377341D01*
X432832D01*
Y376968D01*
X432459D01*
Y376595D01*
X432086D01*
Y376222D01*
X431713D01*
Y375849D01*
X431340D01*
Y375476D01*
X430966D01*
Y375103D01*
X430593D01*
Y374729D01*
X430220D01*
Y374356D01*
X429847D01*
Y373983D01*
X429474D01*
Y373610D01*
X429101D01*
Y373237D01*
X428728D01*
Y372864D01*
X428355D01*
Y372491D01*
X427982D01*
Y372118D01*
X427609D01*
Y371745D01*
X427236D01*
Y371372D01*
X426863D01*
Y370999D01*
X426490D01*
Y370626D01*
X426117D01*
Y370253D01*
X425744D01*
Y369880D01*
X425371D01*
Y369506D01*
X424997D01*
Y369133D01*
X424624D01*
Y368760D01*
X424251D01*
Y368387D01*
X423878D01*
Y368014D01*
X423505D01*
Y367641D01*
X413060D01*
Y401963D01*
X423505D01*
Y401590D01*
D02*
G37*
G36*
X479465Y376968D02*
X479838D01*
Y376595D01*
X480211D01*
Y376222D01*
X480584D01*
Y375849D01*
X480957D01*
Y375476D01*
X481330D01*
Y375103D01*
X481703D01*
Y374729D01*
X482076D01*
Y374356D01*
X482449D01*
Y373983D01*
X482822D01*
Y373610D01*
X483195D01*
Y373237D01*
X483568D01*
Y372864D01*
X483941D01*
Y372491D01*
X484314D01*
Y372118D01*
X484688D01*
Y371745D01*
X485061D01*
Y371372D01*
X485434D01*
Y370999D01*
X485807D01*
Y370626D01*
X486180D01*
Y370253D01*
X486553D01*
Y369880D01*
X486926D01*
Y369506D01*
X487299D01*
Y369133D01*
X487672D01*
Y368760D01*
X488045D01*
Y368387D01*
X488418D01*
Y368014D01*
X488791D01*
Y367641D01*
X489164D01*
Y367268D01*
X489537D01*
Y366895D01*
X489910D01*
Y366522D01*
X490284D01*
Y366149D01*
X490657D01*
Y365776D01*
X491030D01*
Y365403D01*
X491403D01*
Y365030D01*
X491776D01*
Y364657D01*
X492149D01*
Y353838D01*
X491776D01*
Y353465D01*
X491403D01*
Y353092D01*
X491030D01*
Y352719D01*
X490657D01*
Y352346D01*
X490284D01*
Y351973D01*
X489910D01*
Y351600D01*
X489537D01*
Y351227D01*
X489164D01*
Y350853D01*
X488791D01*
Y350480D01*
X488418D01*
Y350107D01*
X488045D01*
Y349734D01*
X487672D01*
Y349361D01*
X487299D01*
Y348988D01*
X486926D01*
Y348615D01*
X486553D01*
Y348242D01*
X486180D01*
Y347869D01*
X485807D01*
Y347496D01*
X485434D01*
Y347123D01*
X485061D01*
Y346750D01*
X484688D01*
Y346377D01*
X484314D01*
Y346004D01*
X483941D01*
Y345630D01*
X483568D01*
Y345257D01*
X483195D01*
Y344884D01*
X482822D01*
Y344511D01*
X482449D01*
Y344138D01*
X482076D01*
Y343765D01*
X481703D01*
Y343392D01*
X481330D01*
Y343019D01*
X480957D01*
Y342646D01*
X480584D01*
Y342273D01*
X480211D01*
Y341900D01*
X479838D01*
Y341527D01*
X479465D01*
Y341154D01*
X479092D01*
Y341527D01*
X478718D01*
Y341900D01*
X478345D01*
Y342273D01*
X477972D01*
Y342646D01*
X477599D01*
Y343019D01*
X477226D01*
Y343392D01*
X476853D01*
Y343765D01*
X476480D01*
Y344138D01*
X476107D01*
Y344511D01*
X475734D01*
Y344884D01*
X475361D01*
Y345257D01*
X474988D01*
Y345630D01*
X474615D01*
Y346004D01*
X474242D01*
Y346377D01*
X473869D01*
Y346750D01*
X473496D01*
Y347123D01*
X473123D01*
Y347496D01*
X472749D01*
Y347869D01*
X472377D01*
Y348242D01*
X472003D01*
Y348615D01*
X471630D01*
Y348988D01*
X471257D01*
Y349361D01*
X470884D01*
Y349734D01*
X470511D01*
Y350107D01*
X470138D01*
Y350480D01*
X469765D01*
Y350853D01*
X469392D01*
Y351227D01*
X469019D01*
Y351600D01*
X468646D01*
Y351973D01*
X468273D01*
Y352346D01*
X467900D01*
Y352719D01*
X467527D01*
Y353092D01*
X467154D01*
Y353465D01*
X466781D01*
Y353838D01*
X466408D01*
Y364657D01*
X466781D01*
Y365030D01*
X467154D01*
Y365403D01*
X467527D01*
Y365776D01*
X467900D01*
Y366149D01*
X468273D01*
Y366522D01*
X468646D01*
Y366895D01*
X469019D01*
Y367268D01*
X469392D01*
Y367641D01*
X469765D01*
Y368014D01*
X470138D01*
Y368387D01*
X470511D01*
Y368760D01*
X470884D01*
Y369133D01*
X471257D01*
Y369506D01*
X471630D01*
Y369880D01*
X472003D01*
Y370253D01*
X472377D01*
Y370626D01*
X472749D01*
Y370999D01*
X473123D01*
Y371372D01*
X473496D01*
Y371745D01*
X473869D01*
Y372118D01*
X474242D01*
Y372491D01*
X474615D01*
Y372864D01*
X474988D01*
Y373237D01*
X475361D01*
Y373610D01*
X475734D01*
Y373983D01*
X476107D01*
Y374356D01*
X476480D01*
Y374729D01*
X476853D01*
Y375103D01*
X477226D01*
Y375476D01*
X477599D01*
Y375849D01*
X477972D01*
Y376222D01*
X478345D01*
Y376595D01*
X478718D01*
Y376968D01*
X479092D01*
Y377341D01*
X479465D01*
Y376968D01*
D02*
G37*
D10*
X577680Y419100D02*
G03*
X576680Y419100I-500J0D01*
G01*
D02*
G03*
X577680Y419100I500J0D01*
G01*
X305480Y415010D02*
Y433760D01*
Y415010D02*
Y433760D01*
X263480Y311260D02*
Y433760D01*
Y311260D02*
Y433760D01*
X305480Y311260D02*
Y330010D01*
Y311260D02*
Y330010D01*
D11*
X343270Y434340D02*
G03*
X343270Y434340I-1250J0D01*
G01*
D12*
X328480Y403760D02*
G03*
X327480Y403760I-500J0D01*
G01*
D02*
G03*
X328480Y403760I500J0D01*
G01*
D02*
G03*
X327480Y403760I-500J0D01*
G01*
X672880Y266800D02*
Y469800D01*
X581880Y266800D02*
X672880D01*
X581880D02*
Y469800D01*
X672880D01*
X375920Y420497D02*
Y448183D01*
X346075Y420497D02*
Y448183D01*
Y420497D02*
X558165D01*
Y448183D01*
X346075D02*
X558165D01*
X348620Y320040D02*
X504820D01*
X348620Y294640D02*
Y320040D01*
Y294640D02*
X504820D01*
Y320040D01*
X528320Y320675D02*
X553720D01*
X528320Y294005D02*
Y320675D01*
Y294005D02*
X553720D01*
Y320675D01*
D13*
X332740Y340360D02*
X364490D01*
X678180Y317500D02*
X689610D01*
X678180Y342900D02*
X689610D01*
X678180Y368300D02*
X689610D01*
X562610Y344170D02*
X577850D01*
X562610Y396240D02*
X577850D01*
X541020Y450850D02*
Y453390D01*
X439420Y271780D02*
Y290830D01*
Y452120D02*
Y467360D01*
X332740Y391160D02*
X364490D01*
X514350Y450850D02*
Y453390D01*
X388620Y271780D02*
Y290830D01*
X514350Y453390D02*
X541020D01*
X490220Y271780D02*
Y290830D01*
X514350Y453390D02*
X541020D01*
X490220Y452120D02*
Y467360D01*
X388620Y452120D02*
Y467360D01*
X332740Y365760D02*
X364490D01*
D14*
X690118Y413512D02*
X679961D01*
Y418590D01*
X681654Y420283D01*
X685040D01*
X686732Y418590D01*
Y413512D01*
X681654Y423669D02*
X679961Y425362D01*
Y428747D01*
X681654Y430440D01*
X683347D01*
X685040Y428747D01*
Y427054D01*
Y428747D01*
X686732Y430440D01*
X688425D01*
X690118Y428747D01*
Y425362D01*
X688425Y423669D01*
X690118Y388112D02*
X679961D01*
Y393190D01*
X681654Y394883D01*
X685040D01*
X686732Y393190D01*
Y388112D01*
X690118Y403347D02*
X679961D01*
X685040Y398269D01*
Y405040D01*
X568624Y362799D02*
X566931Y361106D01*
Y357720D01*
X568624Y356028D01*
X575395D01*
X577088Y357720D01*
Y361106D01*
X575395Y362799D01*
X572010D01*
Y359413D01*
X577088Y366184D02*
X566931D01*
X577088Y372956D01*
X566931D01*
Y376341D02*
X577088D01*
Y381419D01*
X575395Y383112D01*
X568624D01*
X566931Y381419D01*
Y376341D01*
X547881Y330628D02*
X554652D01*
X558038Y334013D01*
X554652Y337399D01*
X547881D01*
X549574Y347556D02*
X547881Y345863D01*
Y342477D01*
X549574Y340784D01*
X556345D01*
X558038Y342477D01*
Y345863D01*
X556345Y347556D01*
X549574Y357712D02*
X547881Y356020D01*
Y352634D01*
X549574Y350941D01*
X556345D01*
X558038Y352634D01*
Y356020D01*
X556345Y357712D01*
X575818Y413512D02*
X565661D01*
Y418590D01*
X567354Y420283D01*
X570740D01*
X572432Y418590D01*
Y413512D01*
X575818Y430440D02*
Y423669D01*
X569047Y430440D01*
X567354D01*
X565661Y428747D01*
Y425362D01*
X567354Y423669D01*
X405556Y454152D02*
Y464309D01*
X410634D01*
X412327Y462616D01*
Y459230D01*
X410634Y457538D01*
X405556D01*
X420791Y454152D02*
Y464309D01*
X415713Y459230D01*
X422484D01*
X333502Y409699D02*
Y402928D01*
X336888Y399542D01*
X340273Y402928D01*
Y409699D01*
X350430Y408006D02*
X348737Y409699D01*
X345351D01*
X343659Y408006D01*
Y401235D01*
X345351Y399542D01*
X348737D01*
X350430Y401235D01*
X360587Y408006D02*
X358894Y409699D01*
X355508D01*
X353815Y408006D01*
Y401235D01*
X355508Y399542D01*
X358894D01*
X360587Y401235D01*
X431800Y472440D02*
Y482597D01*
X436878D01*
X438571Y480904D01*
Y477518D01*
X436878Y475826D01*
X431800D01*
X448728Y482597D02*
X441957D01*
Y477518D01*
X445342Y479211D01*
X447035D01*
X448728Y477518D01*
Y474133D01*
X447035Y472440D01*
X443649D01*
X441957Y474133D01*
X456692Y276352D02*
Y286509D01*
X461770D01*
X463463Y284816D01*
Y281430D01*
X461770Y279738D01*
X456692D01*
X473620Y286509D02*
X466849D01*
Y281430D01*
X470234Y283123D01*
X471927D01*
X473620Y281430D01*
Y278045D01*
X471927Y276352D01*
X468541D01*
X466849Y278045D01*
X334772Y372872D02*
Y383029D01*
X339850D01*
X341543Y381336D01*
Y377950D01*
X339850Y376258D01*
X334772D01*
X344929Y381336D02*
X346622Y383029D01*
X350007D01*
X351700Y381336D01*
Y379643D01*
X350007Y377950D01*
X348314D01*
X350007D01*
X351700Y376258D01*
Y374565D01*
X350007Y372872D01*
X346622D01*
X344929Y374565D01*
X381160Y481008D02*
X379468Y482700D01*
X376082D01*
X374389Y481008D01*
Y474236D01*
X376082Y472544D01*
X379468D01*
X381160Y474236D01*
Y477622D01*
X377775D01*
X384546Y472544D02*
Y482700D01*
X391317Y472544D01*
Y482700D01*
X394703D02*
Y472544D01*
X399781D01*
X401474Y474236D01*
Y481008D01*
X399781Y482700D01*
X394703D01*
X369062Y360172D02*
Y370329D01*
X374140D01*
X375833Y368636D01*
Y365250D01*
X374140Y363558D01*
X369062D01*
X384297Y360172D02*
Y370329D01*
X379219Y365250D01*
X385990D01*
X375833Y343236D02*
X374140Y344929D01*
X370755D01*
X369062Y343236D01*
Y336465D01*
X370755Y334772D01*
X374140D01*
X375833Y336465D01*
Y339850D01*
X372448D01*
X379219Y334772D02*
Y344929D01*
X385990Y334772D01*
Y344929D01*
X389375D02*
Y334772D01*
X394454D01*
X396147Y336465D01*
Y343236D01*
X394454Y344929D01*
X389375D01*
X558038Y387776D02*
X547881D01*
X558038Y394547D01*
X547881D01*
X549574Y404704D02*
X547881Y403011D01*
Y399626D01*
X549574Y397933D01*
X556345D01*
X558038Y399626D01*
Y403011D01*
X556345Y404704D01*
X405892Y276352D02*
Y286509D01*
X410970D01*
X412663Y284816D01*
Y281430D01*
X410970Y279738D01*
X405892D01*
X416049Y284816D02*
X417742Y286509D01*
X421127D01*
X422820Y284816D01*
Y283123D01*
X421127Y281430D01*
X419434D01*
X421127D01*
X422820Y279738D01*
Y278045D01*
X421127Y276352D01*
X417742D01*
X416049Y278045D01*
X518922Y457962D02*
Y468119D01*
X524000D01*
X525693Y466426D01*
Y463040D01*
X524000Y461348D01*
X518922D01*
X535850Y457962D02*
X529079D01*
X535850Y464733D01*
Y466426D01*
X534157Y468119D01*
X530771D01*
X529079Y466426D01*
X348742Y286509D02*
Y279738D01*
X352128Y276352D01*
X355513Y279738D01*
Y286509D01*
X365670Y284816D02*
X363977Y286509D01*
X360592D01*
X358899Y284816D01*
Y278045D01*
X360592Y276352D01*
X363977D01*
X365670Y278045D01*
X375827Y284816D02*
X374134Y286509D01*
X370748D01*
X369055Y284816D01*
Y278045D01*
X370748Y276352D01*
X374134D01*
X375827Y278045D01*
X483783Y265766D02*
X482090Y267459D01*
X478705D01*
X477012Y265766D01*
Y258995D01*
X478705Y257302D01*
X482090D01*
X483783Y258995D01*
Y262380D01*
X480398D01*
X487169Y257302D02*
Y267459D01*
X493940Y257302D01*
Y267459D01*
X497325D02*
Y257302D01*
X502404D01*
X504097Y258995D01*
Y265766D01*
X502404Y267459D01*
X497325D01*
X456356Y454152D02*
Y464309D01*
X461434D01*
X463127Y462616D01*
Y459230D01*
X461434Y457538D01*
X456356D01*
X466513Y462616D02*
X468206Y464309D01*
X471591D01*
X473284Y462616D01*
Y460923D01*
X471591Y459230D01*
X469898D01*
X471591D01*
X473284Y457538D01*
Y455845D01*
X471591Y454152D01*
X468206D01*
X466513Y455845D01*
X380492Y257302D02*
Y267459D01*
X385570D01*
X387263Y265766D01*
Y262380D01*
X385570Y260688D01*
X380492D01*
X397420Y257302D02*
X390649D01*
X397420Y264073D01*
Y265766D01*
X395727Y267459D01*
X392341D01*
X390649Y265766D01*
X431292Y257302D02*
Y267459D01*
X436370D01*
X438063Y265766D01*
Y262380D01*
X436370Y260688D01*
X431292D01*
X446527Y257302D02*
Y267459D01*
X441449Y262380D01*
X448220D01*
X482092Y471932D02*
Y482089D01*
X488863Y471932D01*
Y482089D01*
X499020Y480396D02*
X497327Y482089D01*
X493941D01*
X492249Y480396D01*
Y473625D01*
X493941Y471932D01*
X497327D01*
X499020Y473625D01*
X347472Y464309D02*
Y457538D01*
X350858Y454152D01*
X354243Y457538D01*
Y464309D01*
X364400Y462616D02*
X362707Y464309D01*
X359322D01*
X357629Y462616D01*
Y455845D01*
X359322Y454152D01*
X362707D01*
X364400Y455845D01*
X374557Y462616D02*
X372864Y464309D01*
X369478D01*
X367785Y462616D01*
Y455845D01*
X369478Y454152D01*
X372864D01*
X374557Y455845D01*
X577088Y310642D02*
X566931D01*
X577088Y317413D01*
X566931D01*
X568624Y327570D02*
X566931Y325877D01*
Y322491D01*
X568624Y320799D01*
X575395D01*
X577088Y322491D01*
Y325877D01*
X575395Y327570D01*
X370332Y386842D02*
Y396999D01*
X375410D01*
X377103Y395306D01*
Y391920D01*
X375410Y390228D01*
X370332D01*
X387260Y386842D02*
X380489D01*
X387260Y393613D01*
Y395306D01*
X385567Y396999D01*
X382182D01*
X380489Y395306D01*
X333166Y349252D02*
Y359408D01*
X338244D01*
X339937Y357716D01*
Y354330D01*
X338244Y352637D01*
X333166D01*
X350094Y359408D02*
X343323D01*
Y354330D01*
X346708Y356023D01*
X348401D01*
X350094Y354330D01*
Y350944D01*
X348401Y349252D01*
X345016D01*
X343323Y350944D01*
X606642Y483446D02*
X604949Y485138D01*
X601564D01*
X599871Y483446D01*
Y481753D01*
X601564Y480060D01*
X604949D01*
X606642Y478367D01*
Y476674D01*
X604949Y474982D01*
X601564D01*
X599871Y476674D01*
X610028Y485138D02*
X616799D01*
X613413D01*
Y474982D01*
X620184D02*
Y485138D01*
X623570Y481753D01*
X626956Y485138D01*
Y474982D01*
X630341Y483446D02*
X632034Y485138D01*
X635420D01*
X637112Y483446D01*
Y481753D01*
X635420Y480060D01*
X633727D01*
X635420D01*
X637112Y478367D01*
Y476674D01*
X635420Y474982D01*
X632034D01*
X630341Y476674D01*
X647269Y474982D02*
X640498D01*
X647269Y481753D01*
Y483446D01*
X645576Y485138D01*
X642191D01*
X640498Y483446D01*
X266284Y292946D02*
X264591Y294638D01*
X261205D01*
X259513Y292946D01*
Y286174D01*
X261205Y284482D01*
X264591D01*
X266284Y286174D01*
X271362Y284482D02*
X274748D01*
X276441Y286174D01*
Y289560D01*
X274748Y291253D01*
X271362D01*
X269669Y289560D01*
Y286174D01*
X271362Y284482D01*
X279826D02*
Y291253D01*
X281519D01*
X283212Y289560D01*
Y284482D01*
Y289560D01*
X284904Y291253D01*
X286597Y289560D01*
Y284482D01*
X289983D02*
Y291253D01*
X291676D01*
X293368Y289560D01*
Y284482D01*
Y289560D01*
X295061Y291253D01*
X296754Y289560D01*
Y284482D01*
X301832D02*
X305218D01*
X306911Y286174D01*
Y289560D01*
X305218Y291253D01*
X301832D01*
X300140Y289560D01*
Y286174D01*
X301832Y284482D01*
X310296D02*
Y291253D01*
X315375D01*
X317067Y289560D01*
Y284482D01*
X320042Y428842D02*
Y422071D01*
X330198D01*
Y428842D01*
X325120Y422071D02*
Y425457D01*
X321734Y438999D02*
X320042Y437306D01*
Y433921D01*
X321734Y432228D01*
X323427D01*
X325120Y433921D01*
Y437306D01*
X326813Y438999D01*
X328506D01*
X330198Y437306D01*
Y433921D01*
X328506Y432228D01*
X330198Y442384D02*
X320042D01*
Y447463D01*
X321734Y449156D01*
X325120D01*
X326813Y447463D01*
Y442384D01*
X321734Y452541D02*
X320042Y454234D01*
Y457620D01*
X321734Y459312D01*
X323427D01*
X325120Y457620D01*
Y455927D01*
Y457620D01*
X326813Y459312D01*
X328506D01*
X330198Y457620D01*
Y454234D01*
X328506Y452541D01*
X330198Y469469D02*
Y462698D01*
X323427Y469469D01*
X321734D01*
X320042Y467776D01*
Y464391D01*
X321734Y462698D01*
X532556Y276862D02*
Y287018D01*
X537634D01*
X539327Y285326D01*
Y281940D01*
X537634Y280247D01*
X532556D01*
X549484Y287018D02*
X542713D01*
Y281940D01*
X546098Y283633D01*
X547791D01*
X549484Y281940D01*
Y278554D01*
X547791Y276862D01*
X544406D01*
X542713Y278554D01*
M02*
