M48
;Layer_Color=9474304
;FILE_FORMAT=4:4
METRIC,LZ
;TYPE=PLATED
T01F00S00C0.2000
T02F00S00C1.0200
;TYPE=NON_PLATED
T03F00S00C2.2000
%
T01
X002921Y0034036
X0032766
X0031496Y0032512
X0032766Y0039116
X0041656Y0036626
X004572Y0035376
X00485138Y00405795
T02
X0036322Y0030734
X0038862
X0041402
X0043942
X0046482
X0049022
X0054102
X0061468Y003175
Y003429
Y003683
Y003937
X0064008
Y003683
Y003429
Y003175
Y004191
X0061468
X0054102Y0043434
X0051562
X0049022
X0046482
X0043942
X0041402
X0038862
X0036322
T03
X0028Y0027
Y0047
M30
