G04*
G04 #@! TF.GenerationSoftware,Altium Limited,Altium Designer,26.3.0 (6)*
G04*
G04 Layer_Physical_Order=2*
G04 Layer_Color=16711680*
%FSLAX44Y44*%
%MOMM*%
G71*
G04*
G04 #@! TF.SameCoordinates,56274C70-5272-4D43-B975-0071192F6068*
G04*
G04*
G04 #@! TF.FilePolarity,Positive*
G04*
G01*
G75*
%ADD23R,1.5700X1.5700*%
%ADD24C,1.5700*%
%ADD26R,1.5700X1.5700*%
%ADD28C,0.3810*%
%ADD29C,2.2000*%
%ADD30R,1.5300X1.5300*%
%ADD31C,1.5300*%
%ADD32R,1.5500X1.5500*%
%ADD33C,1.5500*%
%ADD34C,0.3500*%
G36*
X673100Y266700D02*
X294704D01*
X293540Y268217D01*
Y271783D01*
X292617Y275226D01*
X290835Y278314D01*
X288314Y280835D01*
X285226Y282617D01*
X281783Y283540D01*
X278217D01*
X274774Y282617D01*
X271686Y280835D01*
X269240Y278388D01*
X268894Y278403D01*
X266700Y279124D01*
Y457200D01*
X275456D01*
X278217Y456460D01*
X281783D01*
X284544Y457200D01*
X673100D01*
Y266700D01*
D02*
G37*
%LPC*%
G36*
X389988Y444730D02*
X389890D01*
Y435610D01*
X399010D01*
Y435708D01*
X398302Y438350D01*
X396934Y440720D01*
X395000Y442654D01*
X392630Y444022D01*
X389988Y444730D01*
D02*
G37*
G36*
X387350D02*
X387252D01*
X384610Y444022D01*
X382240Y442654D01*
X380306Y440720D01*
X378938Y438350D01*
X378230Y435708D01*
Y435610D01*
X387350D01*
Y444730D01*
D02*
G37*
G36*
X542388D02*
X539652D01*
X537010Y444022D01*
X534640Y442654D01*
X532706Y440720D01*
X531338Y438350D01*
X530630Y435708D01*
Y432972D01*
X531338Y430330D01*
X532706Y427960D01*
X534640Y426026D01*
X537010Y424658D01*
X539652Y423950D01*
X542388D01*
X545030Y424658D01*
X547400Y426026D01*
X549334Y427960D01*
X550702Y430330D01*
X551410Y432972D01*
Y435708D01*
X550702Y438350D01*
X549334Y440720D01*
X547400Y442654D01*
X545030Y444022D01*
X542388Y444730D01*
D02*
G37*
G36*
X516988D02*
X514252D01*
X511610Y444022D01*
X509240Y442654D01*
X507306Y440720D01*
X505938Y438350D01*
X505230Y435708D01*
Y432972D01*
X505938Y430330D01*
X507306Y427960D01*
X509240Y426026D01*
X511610Y424658D01*
X514252Y423950D01*
X516988D01*
X519630Y424658D01*
X522000Y426026D01*
X523934Y427960D01*
X525302Y430330D01*
X526010Y432972D01*
Y435708D01*
X525302Y438350D01*
X523934Y440720D01*
X522000Y442654D01*
X519630Y444022D01*
X516988Y444730D01*
D02*
G37*
G36*
X491588D02*
X488852D01*
X486210Y444022D01*
X483840Y442654D01*
X481906Y440720D01*
X480538Y438350D01*
X479830Y435708D01*
Y432972D01*
X480538Y430330D01*
X481906Y427960D01*
X483840Y426026D01*
X486210Y424658D01*
X488852Y423950D01*
X491588D01*
X494230Y424658D01*
X496600Y426026D01*
X498534Y427960D01*
X499902Y430330D01*
X500610Y432972D01*
Y435708D01*
X499902Y438350D01*
X498534Y440720D01*
X496600Y442654D01*
X494230Y444022D01*
X491588Y444730D01*
D02*
G37*
G36*
X399010Y433070D02*
X389890D01*
Y423950D01*
X389988D01*
X392630Y424658D01*
X395000Y426026D01*
X396934Y427960D01*
X398302Y430330D01*
X399010Y432972D01*
Y433070D01*
D02*
G37*
G36*
X387350D02*
X378230D01*
Y432972D01*
X378938Y430330D01*
X380306Y427960D01*
X382240Y426026D01*
X384610Y424658D01*
X387252Y423950D01*
X387350D01*
Y433070D01*
D02*
G37*
G36*
X373610Y444730D02*
X352830D01*
Y423950D01*
X373610D01*
Y444730D01*
D02*
G37*
G36*
X641422Y429290D02*
X638738D01*
X636147Y428596D01*
X633823Y427254D01*
X631926Y425357D01*
X630584Y423033D01*
X629890Y420442D01*
Y417758D01*
X630584Y415167D01*
X631926Y412843D01*
X633823Y410946D01*
X636147Y409604D01*
X638738Y408910D01*
X641422D01*
X644013Y409604D01*
X646337Y410946D01*
X648234Y412843D01*
X649576Y415167D01*
X650270Y417758D01*
Y420442D01*
X649576Y423033D01*
X648234Y425357D01*
X646337Y427254D01*
X644013Y428596D01*
X641422Y429290D01*
D02*
G37*
G36*
X624870D02*
X604490D01*
Y408910D01*
X624870D01*
Y429290D01*
D02*
G37*
G36*
X641422Y403890D02*
X638738D01*
X636147Y403196D01*
X633823Y401854D01*
X631926Y399957D01*
X630584Y397633D01*
X629890Y395042D01*
Y392358D01*
X630584Y389767D01*
X631926Y387443D01*
X633823Y385546D01*
X636147Y384204D01*
X638738Y383510D01*
X641422D01*
X644013Y384204D01*
X646337Y385546D01*
X648234Y387443D01*
X649576Y389767D01*
X650270Y392358D01*
Y395042D01*
X649576Y397633D01*
X648234Y399957D01*
X646337Y401854D01*
X644013Y403196D01*
X641422Y403890D01*
D02*
G37*
G36*
X616022D02*
X613338D01*
X610747Y403196D01*
X608423Y401854D01*
X606526Y399957D01*
X605184Y397633D01*
X604490Y395042D01*
Y392358D01*
X605184Y389767D01*
X606526Y387443D01*
X608423Y385546D01*
X610747Y384204D01*
X613338Y383510D01*
X616022D01*
X618613Y384204D01*
X620937Y385546D01*
X622834Y387443D01*
X624176Y389767D01*
X624870Y392358D01*
Y395042D01*
X624176Y397633D01*
X622834Y399957D01*
X620937Y401854D01*
X618613Y403196D01*
X616022Y403890D01*
D02*
G37*
G36*
X641422Y378490D02*
X641350D01*
Y369570D01*
X650270D01*
Y369642D01*
X649576Y372233D01*
X648234Y374557D01*
X646337Y376454D01*
X644013Y377796D01*
X641422Y378490D01*
D02*
G37*
G36*
X616022D02*
X615950D01*
Y369570D01*
X624870D01*
Y369642D01*
X624176Y372233D01*
X622834Y374557D01*
X620937Y376454D01*
X618613Y377796D01*
X616022Y378490D01*
D02*
G37*
G36*
X638810D02*
X638738D01*
X636147Y377796D01*
X633823Y376454D01*
X631926Y374557D01*
X630584Y372233D01*
X629890Y369642D01*
Y369570D01*
X638810D01*
Y378490D01*
D02*
G37*
G36*
X613410D02*
X613338D01*
X610747Y377796D01*
X608423Y376454D01*
X606526Y374557D01*
X605184Y372233D01*
X604490Y369642D01*
Y369570D01*
X613410D01*
Y378490D01*
D02*
G37*
G36*
X650270Y367030D02*
X641350D01*
Y358110D01*
X641422D01*
X644013Y358804D01*
X646337Y360146D01*
X648234Y362043D01*
X649576Y364367D01*
X650270Y366958D01*
Y367030D01*
D02*
G37*
G36*
X638810D02*
X629890D01*
Y366958D01*
X630584Y364367D01*
X631926Y362043D01*
X633823Y360146D01*
X636147Y358804D01*
X638738Y358110D01*
X638810D01*
Y367030D01*
D02*
G37*
G36*
X624870D02*
X615950D01*
Y358110D01*
X616022D01*
X618613Y358804D01*
X620937Y360146D01*
X622834Y362043D01*
X624176Y364367D01*
X624870Y366958D01*
Y367030D01*
D02*
G37*
G36*
X613410D02*
X604490D01*
Y366958D01*
X605184Y364367D01*
X606526Y362043D01*
X608423Y360146D01*
X610747Y358804D01*
X613338Y358110D01*
X613410D01*
Y367030D01*
D02*
G37*
G36*
X466188Y444730D02*
X463452D01*
X460810Y444022D01*
X458440Y442654D01*
X456506Y440720D01*
X455138Y438350D01*
X454430Y435708D01*
Y432972D01*
X455138Y430330D01*
X456506Y427960D01*
X458440Y426026D01*
X460810Y424658D01*
X463452Y423950D01*
X466188D01*
X468248Y424502D01*
X480606Y412145D01*
Y405795D01*
Y372681D01*
X463720Y355795D01*
X460762Y356429D01*
X460405Y356965D01*
X443952Y373417D01*
Y424959D01*
X445800Y426026D01*
X447734Y427960D01*
X449102Y430330D01*
X449810Y432972D01*
Y435708D01*
X449102Y438350D01*
X447734Y440720D01*
X445800Y442654D01*
X443430Y444022D01*
X440788Y444730D01*
X438052D01*
X435410Y444022D01*
X433040Y442654D01*
X431106Y440720D01*
X429738Y438350D01*
X429030Y435708D01*
Y432972D01*
X429738Y430330D01*
X431106Y427960D01*
X433040Y426026D01*
X434888Y424959D01*
Y371540D01*
X435233Y369806D01*
X436215Y368335D01*
X453995Y350555D01*
X454531Y350198D01*
X455165Y347240D01*
X449420Y341495D01*
X448438Y340025D01*
X448093Y338290D01*
Y317211D01*
X445859Y316073D01*
X443952Y317411D01*
Y343400D01*
X443607Y345134D01*
X442625Y346605D01*
X419765Y369465D01*
X419765Y369465D01*
X418552Y370677D01*
Y424959D01*
X420400Y426026D01*
X422334Y427960D01*
X423702Y430330D01*
X424410Y432972D01*
Y435708D01*
X423702Y438350D01*
X422334Y440720D01*
X420400Y442654D01*
X418030Y444022D01*
X415388Y444730D01*
X412652D01*
X410010Y444022D01*
X407640Y442654D01*
X405706Y440720D01*
X404338Y438350D01*
X403630Y435708D01*
Y432972D01*
X404338Y430330D01*
X405706Y427960D01*
X407640Y426026D01*
X409488Y424959D01*
Y368800D01*
X409833Y367066D01*
X410815Y365595D01*
X413355Y363055D01*
X413355Y363055D01*
X434888Y341523D01*
Y316605D01*
X433102Y315574D01*
X431186Y313658D01*
X429831Y311312D01*
X429130Y308695D01*
Y305985D01*
X429720Y303783D01*
X429330Y302649D01*
X428227Y301067D01*
X426863Y300906D01*
X423776Y303993D01*
X424310Y305985D01*
Y308695D01*
X423609Y311312D01*
X422254Y313658D01*
X420338Y315574D01*
X417992Y316929D01*
X415375Y317630D01*
X412665D01*
X410048Y316929D01*
X407702Y315574D01*
X405786Y313658D01*
X404431Y311312D01*
X403730Y308695D01*
Y305985D01*
X404431Y303368D01*
X405786Y301022D01*
X407702Y299106D01*
X410048Y297751D01*
X412665Y297050D01*
X415375D01*
X417367Y297584D01*
X423010Y291940D01*
X423010Y291940D01*
X424481Y290958D01*
X426215Y290613D01*
X444471D01*
X446206Y290958D01*
X447676Y291940D01*
X455830Y300094D01*
X458335Y299272D01*
X458502Y299106D01*
X460848Y297751D01*
X463465Y297050D01*
X466175D01*
X468792Y297751D01*
X471138Y299106D01*
X473054Y301022D01*
X474409Y303368D01*
X475110Y305985D01*
Y308695D01*
X474409Y311312D01*
X473054Y313658D01*
X471138Y315574D01*
X468792Y316929D01*
X466175Y317630D01*
X463465D01*
X460848Y316929D01*
X459697Y316264D01*
X457157Y317676D01*
Y336413D01*
X488343Y367599D01*
X488343Y367599D01*
X489325Y369069D01*
X489670Y370803D01*
Y405795D01*
Y414022D01*
X489670Y414022D01*
X489325Y415756D01*
X488343Y417227D01*
X474658Y430911D01*
X475210Y432972D01*
Y435708D01*
X474502Y438350D01*
X473134Y440720D01*
X471200Y442654D01*
X468830Y444022D01*
X466188Y444730D01*
D02*
G37*
G36*
X328930Y344477D02*
Y341630D01*
X331777D01*
X331297Y342790D01*
X330090Y343997D01*
X328930Y344477D01*
D02*
G37*
G36*
X326390D02*
X325230Y343997D01*
X324023Y342790D01*
X323543Y341630D01*
X326390D01*
Y344477D01*
D02*
G37*
G36*
X293370D02*
Y341630D01*
X296217D01*
X295737Y342790D01*
X294530Y343997D01*
X293370Y344477D01*
D02*
G37*
G36*
X290830D02*
X289670Y343997D01*
X288463Y342790D01*
X287983Y341630D01*
X290830D01*
Y344477D01*
D02*
G37*
G36*
X331777Y339090D02*
X328930D01*
Y336243D01*
X330090Y336723D01*
X331297Y337930D01*
X331777Y339090D01*
D02*
G37*
G36*
X326390D02*
X323543D01*
X324023Y337930D01*
X325230Y336723D01*
X326390Y336243D01*
Y339090D01*
D02*
G37*
G36*
X296217D02*
X293370D01*
Y336243D01*
X294530Y336723D01*
X295737Y337930D01*
X296217Y339090D01*
D02*
G37*
G36*
X290830D02*
X287983D01*
X288463Y337930D01*
X289670Y336723D01*
X290830Y336243D01*
Y339090D01*
D02*
G37*
G36*
X641422Y353090D02*
X638738D01*
X636147Y352396D01*
X633823Y351054D01*
X631926Y349157D01*
X630584Y346833D01*
X629890Y344242D01*
Y341558D01*
X630584Y338967D01*
X631926Y336643D01*
X633823Y334746D01*
X636147Y333404D01*
X638738Y332710D01*
X641422D01*
X644013Y333404D01*
X646337Y334746D01*
X648234Y336643D01*
X649576Y338967D01*
X650270Y341558D01*
Y344242D01*
X649576Y346833D01*
X648234Y349157D01*
X646337Y351054D01*
X644013Y352396D01*
X641422Y353090D01*
D02*
G37*
G36*
X616022D02*
X613338D01*
X610747Y352396D01*
X608423Y351054D01*
X606526Y349157D01*
X605184Y346833D01*
X604490Y344242D01*
Y341558D01*
X605184Y338967D01*
X606526Y336643D01*
X608423Y334746D01*
X610747Y333404D01*
X613338Y332710D01*
X616022D01*
X618613Y333404D01*
X620937Y334746D01*
X622834Y336643D01*
X624176Y338967D01*
X624870Y341558D01*
Y344242D01*
X624176Y346833D01*
X622834Y349157D01*
X620937Y351054D01*
X618613Y352396D01*
X616022Y353090D01*
D02*
G37*
G36*
X316230Y329237D02*
Y326390D01*
X319077D01*
X318597Y327550D01*
X317390Y328757D01*
X316230Y329237D01*
D02*
G37*
G36*
X313690D02*
X312530Y328757D01*
X311323Y327550D01*
X310843Y326390D01*
X313690D01*
Y329237D01*
D02*
G37*
G36*
X319077Y323850D02*
X316230D01*
Y321003D01*
X317390Y321483D01*
X318597Y322690D01*
X319077Y323850D01*
D02*
G37*
G36*
X313690D02*
X310843D01*
X311323Y322690D01*
X312530Y321483D01*
X313690Y321003D01*
Y323850D01*
D02*
G37*
G36*
X491575Y317630D02*
X491490D01*
Y308610D01*
X500510D01*
Y308695D01*
X499809Y311312D01*
X498454Y313658D01*
X496538Y315574D01*
X494192Y316929D01*
X491575Y317630D01*
D02*
G37*
G36*
X488950D02*
X488865D01*
X486248Y316929D01*
X483902Y315574D01*
X481986Y313658D01*
X480631Y311312D01*
X479930Y308695D01*
Y308610D01*
X488950D01*
Y317630D01*
D02*
G37*
G36*
X641422Y327690D02*
X638738D01*
X636147Y326996D01*
X633823Y325654D01*
X631926Y323757D01*
X630584Y321433D01*
X629890Y318842D01*
Y316158D01*
X630584Y313567D01*
X631926Y311243D01*
X633823Y309346D01*
X636147Y308004D01*
X638738Y307310D01*
X641422D01*
X644013Y308004D01*
X646337Y309346D01*
X648234Y311243D01*
X649576Y313567D01*
X650270Y316158D01*
Y318842D01*
X649576Y321433D01*
X648234Y323757D01*
X646337Y325654D01*
X644013Y326996D01*
X641422Y327690D01*
D02*
G37*
G36*
X616022D02*
X613338D01*
X610747Y326996D01*
X608423Y325654D01*
X606526Y323757D01*
X605184Y321433D01*
X604490Y318842D01*
Y316158D01*
X605184Y313567D01*
X606526Y311243D01*
X608423Y309346D01*
X610747Y308004D01*
X613338Y307310D01*
X616022D01*
X618613Y308004D01*
X620937Y309346D01*
X622834Y311243D01*
X624176Y313567D01*
X624870Y316158D01*
Y318842D01*
X624176Y321433D01*
X622834Y323757D01*
X620937Y325654D01*
X618613Y326996D01*
X616022Y327690D01*
D02*
G37*
G36*
X500510Y306070D02*
X491490D01*
Y297050D01*
X491575D01*
X494192Y297751D01*
X496538Y299106D01*
X498454Y301022D01*
X499809Y303368D01*
X500510Y305985D01*
Y306070D01*
D02*
G37*
G36*
X488950D02*
X479930D01*
Y305985D01*
X480631Y303368D01*
X481986Y301022D01*
X483902Y299106D01*
X486248Y297751D01*
X488865Y297050D01*
X488950D01*
Y306070D01*
D02*
G37*
G36*
X327660Y395692D02*
X325926Y395347D01*
X324455Y394365D01*
X323473Y392894D01*
X323128Y391160D01*
X323473Y389426D01*
X324455Y387955D01*
X384088Y328323D01*
Y316605D01*
X382302Y315574D01*
X380386Y313658D01*
X379031Y311312D01*
X378330Y308695D01*
Y305985D01*
X379031Y303368D01*
X380386Y301022D01*
X382302Y299106D01*
X384648Y297751D01*
X387265Y297050D01*
X389975D01*
X392592Y297751D01*
X394938Y299106D01*
X396854Y301022D01*
X398209Y303368D01*
X398910Y305985D01*
Y308695D01*
X398209Y311312D01*
X396854Y313658D01*
X394938Y315574D01*
X393152Y316605D01*
Y330200D01*
X393152Y330200D01*
X392807Y331934D01*
X391825Y333405D01*
X391825Y333405D01*
X330865Y394365D01*
X329394Y395347D01*
X327660Y395692D01*
D02*
G37*
G36*
X373510Y317630D02*
X352930D01*
Y297050D01*
X373510D01*
Y317630D01*
D02*
G37*
G36*
X551410Y317730D02*
X530630D01*
Y296950D01*
X551410D01*
Y317730D01*
D02*
G37*
%LPD*%
D23*
X363220Y434340D02*
D03*
D24*
X541020D02*
D03*
X515620D02*
D03*
X388620D02*
D03*
X490220D02*
D03*
X464820D02*
D03*
X439420D02*
D03*
X414020D02*
D03*
D26*
X541020Y307340D02*
D03*
D28*
X388620D02*
Y330200D01*
X327660Y391160D02*
X388620Y330200D01*
X452625Y338290D02*
X485138Y370803D01*
Y405795D01*
Y414022D01*
X439420Y371540D02*
Y434340D01*
X416560Y366260D02*
X439420Y343400D01*
X464820Y434340D02*
X485138Y414022D01*
X439420Y371540D02*
X457200Y353760D01*
X452625Y303299D02*
Y338290D01*
X414020Y368800D02*
Y434340D01*
Y307340D02*
X426215Y295145D01*
X439420Y307340D02*
Y343400D01*
X414020Y368800D02*
X416560Y366260D01*
X444471Y295145D02*
X452625Y303299D01*
X426215Y295145D02*
X444471D01*
D29*
X280000Y270000D02*
D03*
Y470000D02*
D03*
D30*
X614680Y419100D02*
D03*
D31*
X640080D02*
D03*
X614680Y393700D02*
D03*
X640080D02*
D03*
X614680Y368300D02*
D03*
X640080D02*
D03*
X614680Y342900D02*
D03*
X640080D02*
D03*
X614680Y317500D02*
D03*
X640080D02*
D03*
D32*
X363220Y307340D02*
D03*
D33*
X388620D02*
D03*
X490220D02*
D03*
X464820D02*
D03*
X439420D02*
D03*
X414020D02*
D03*
D34*
X327660Y391160D02*
D03*
Y340360D02*
D03*
X314960Y325120D02*
D03*
X292100Y340360D02*
D03*
X457200Y353760D02*
D03*
X485138Y405795D02*
D03*
X416560Y366260D02*
D03*
M02*
