ISO-10303-21;
HEADER;
/* Generated by software containing ST-Developer
 * from STEP Tools, Inc. (www.steptools.com) 
 */

FILE_DESCRIPTION(
/* description */ (''),
/* implementation_level */ '2;1');

FILE_NAME(
/* name */ 'BLDC_1104_7200KV.step',
/* time_stamp */ '2026-03-13T16:47:17+01:00',
/* author */ (''),
/* organization */ (''),
/* preprocessor_version */ 'ST-DEVELOPER v20.1',
/* originating_system */ 'Autodesk Translation Framework v14.24.0.0',
/* authorisation */ '');

FILE_SCHEMA (('AUTOMOTIVE_DESIGN { 1 0 10303 214 3 1 1 }'));
ENDSEC;

DATA;
#10=MECHANICAL_DESIGN_GEOMETRIC_PRESENTATION_REPRESENTATION('',(#15,#16,
#17),#1335);
#11=SHAPE_REPRESENTATION_RELATIONSHIP('SRR','None',#1342,#12);
#12=ADVANCED_BREP_SHAPE_REPRESENTATION('',(#13,#14),#1334);
#13=MANIFOLD_SOLID_BREP('Bottom_Plate',#783);
#14=MANIFOLD_SOLID_BREP('Body3',#784);
#15=STYLED_ITEM('',(#1353),#750);
#16=STYLED_ITEM('',(#1352),#13);
#17=STYLED_ITEM('',(#1351),#14);
#18=FACE_BOUND('',#124,.T.);
#19=FACE_BOUND('',#127,.T.);
#20=FACE_BOUND('',#128,.T.);
#21=FACE_BOUND('',#129,.T.);
#22=FACE_BOUND('',#130,.T.);
#23=FACE_BOUND('',#131,.T.);
#24=FACE_BOUND('',#134,.T.);
#25=FACE_BOUND('',#136,.T.);
#26=FACE_BOUND('',#138,.T.);
#27=FACE_BOUND('',#140,.T.);
#28=FACE_BOUND('',#162,.T.);
#29=FACE_BOUND('',#163,.T.);
#30=FACE_BOUND('',#164,.T.);
#31=FACE_BOUND('',#165,.T.);
#32=FACE_BOUND('',#166,.T.);
#33=PLANE('',#801);
#34=PLANE('',#805);
#35=PLANE('',#809);
#36=PLANE('',#813);
#37=PLANE('',#817);
#38=PLANE('',#821);
#39=PLANE('',#822);
#40=PLANE('',#827);
#41=PLANE('',#833);
#42=PLANE('',#836);
#43=PLANE('',#839);
#44=PLANE('',#842);
#45=PLANE('',#853);
#46=PLANE('',#856);
#47=PLANE('',#857);
#48=PLANE('',#858);
#49=PLANE('',#861);
#50=PLANE('',#862);
#51=PLANE('',#863);
#52=PLANE('',#866);
#53=PLANE('',#867);
#54=PLANE('',#868);
#55=PLANE('',#871);
#56=PLANE('',#872);
#57=PLANE('',#873);
#58=PLANE('',#874);
#59=PLANE('',#875);
#60=PLANE('',#876);
#61=PLANE('',#877);
#62=PLANE('',#878);
#63=PLANE('',#879);
#64=FACE_OUTER_BOUND('',#111,.T.);
#65=FACE_OUTER_BOUND('',#112,.T.);
#66=FACE_OUTER_BOUND('',#113,.T.);
#67=FACE_OUTER_BOUND('',#114,.T.);
#68=FACE_OUTER_BOUND('',#115,.T.);
#69=FACE_OUTER_BOUND('',#116,.T.);
#70=FACE_OUTER_BOUND('',#117,.T.);
#71=FACE_OUTER_BOUND('',#118,.T.);
#72=FACE_OUTER_BOUND('',#119,.T.);
#73=FACE_OUTER_BOUND('',#120,.T.);
#74=FACE_OUTER_BOUND('',#121,.T.);
#75=FACE_OUTER_BOUND('',#122,.T.);
#76=FACE_OUTER_BOUND('',#123,.T.);
#77=FACE_OUTER_BOUND('',#125,.T.);
#78=FACE_OUTER_BOUND('',#126,.T.);
#79=FACE_OUTER_BOUND('',#132,.T.);
#80=FACE_OUTER_BOUND('',#133,.T.);
#81=FACE_OUTER_BOUND('',#135,.T.);
#82=FACE_OUTER_BOUND('',#137,.T.);
#83=FACE_OUTER_BOUND('',#139,.T.);
#84=FACE_OUTER_BOUND('',#141,.T.);
#85=FACE_OUTER_BOUND('',#142,.T.);
#86=FACE_OUTER_BOUND('',#143,.T.);
#87=FACE_OUTER_BOUND('',#144,.T.);
#88=FACE_OUTER_BOUND('',#145,.T.);
#89=FACE_OUTER_BOUND('',#146,.T.);
#90=FACE_OUTER_BOUND('',#147,.T.);
#91=FACE_OUTER_BOUND('',#148,.T.);
#92=FACE_OUTER_BOUND('',#149,.T.);
#93=FACE_OUTER_BOUND('',#150,.T.);
#94=FACE_OUTER_BOUND('',#151,.T.);
#95=FACE_OUTER_BOUND('',#152,.T.);
#96=FACE_OUTER_BOUND('',#153,.T.);
#97=FACE_OUTER_BOUND('',#154,.T.);
#98=FACE_OUTER_BOUND('',#155,.T.);
#99=FACE_OUTER_BOUND('',#156,.T.);
#100=FACE_OUTER_BOUND('',#157,.T.);
#101=FACE_OUTER_BOUND('',#158,.T.);
#102=FACE_OUTER_BOUND('',#159,.T.);
#103=FACE_OUTER_BOUND('',#160,.T.);
#104=FACE_OUTER_BOUND('',#161,.T.);
#105=FACE_OUTER_BOUND('',#167,.T.);
#106=FACE_OUTER_BOUND('',#168,.T.);
#107=FACE_OUTER_BOUND('',#169,.T.);
#108=FACE_OUTER_BOUND('',#170,.T.);
#109=FACE_OUTER_BOUND('',#171,.T.);
#110=FACE_OUTER_BOUND('',#172,.T.);
#111=EDGE_LOOP('',(#514,#515,#516,#517));
#112=EDGE_LOOP('',(#518));
#113=EDGE_LOOP('',(#519,#520,#521,#522));
#114=EDGE_LOOP('',(#523));
#115=EDGE_LOOP('',(#524,#525,#526,#527));
#116=EDGE_LOOP('',(#528));
#117=EDGE_LOOP('',(#529,#530,#531,#532));
#118=EDGE_LOOP('',(#533));
#119=EDGE_LOOP('',(#534,#535,#536,#537));
#120=EDGE_LOOP('',(#538));
#121=EDGE_LOOP('',(#539,#540,#541,#542));
#122=EDGE_LOOP('',(#543));
#123=EDGE_LOOP('',(#544));
#124=EDGE_LOOP('',(#545));
#125=EDGE_LOOP('',(#546,#547,#548,#549));
#126=EDGE_LOOP('',(#550));
#127=EDGE_LOOP('',(#551));
#128=EDGE_LOOP('',(#552));
#129=EDGE_LOOP('',(#553));
#130=EDGE_LOOP('',(#554));
#131=EDGE_LOOP('',(#555));
#132=EDGE_LOOP('',(#556,#557,#558,#559,#560,#561,#562));
#133=EDGE_LOOP('',(#563,#564,#565,#566,#567,#568));
#134=EDGE_LOOP('',(#569));
#135=EDGE_LOOP('',(#570,#571,#572,#573,#574,#575));
#136=EDGE_LOOP('',(#576));
#137=EDGE_LOOP('',(#577,#578,#579,#580,#581,#582));
#138=EDGE_LOOP('',(#583));
#139=EDGE_LOOP('',(#584,#585,#586,#587,#588,#589));
#140=EDGE_LOOP('',(#590));
#141=EDGE_LOOP('',(#591,#592,#593,#594));
#142=EDGE_LOOP('',(#595,#596,#597,#598));
#143=EDGE_LOOP('',(#599,#600,#601,#602));
#144=EDGE_LOOP('',(#603,#604,#605,#606));
#145=EDGE_LOOP('',(#607,#608,#609,#610));
#146=EDGE_LOOP('',(#611,#612,#613,#614));
#147=EDGE_LOOP('',(#615,#616,#617,#618));
#148=EDGE_LOOP('',(#619,#620,#621,#622,#623));
#149=EDGE_LOOP('',(#624,#625,#626,#627));
#150=EDGE_LOOP('',(#628,#629,#630,#631));
#151=EDGE_LOOP('',(#632,#633,#634,#635));
#152=EDGE_LOOP('',(#636,#637,#638,#639,#640));
#153=EDGE_LOOP('',(#641,#642,#643,#644));
#154=EDGE_LOOP('',(#645,#646,#647,#648));
#155=EDGE_LOOP('',(#649,#650,#651,#652));
#156=EDGE_LOOP('',(#653,#654,#655,#656,#657));
#157=EDGE_LOOP('',(#658,#659,#660,#661));
#158=EDGE_LOOP('',(#662,#663,#664,#665));
#159=EDGE_LOOP('',(#666,#667,#668,#669));
#160=EDGE_LOOP('',(#670,#671,#672,#673,#674));
#161=EDGE_LOOP('',(#675,#676,#677,#678,#679,#680,#681,#682,#683,#684,#685,
#686,#687,#688,#689,#690));
#162=EDGE_LOOP('',(#691));
#163=EDGE_LOOP('',(#692));
#164=EDGE_LOOP('',(#693));
#165=EDGE_LOOP('',(#694));
#166=EDGE_LOOP('',(#695));
#167=EDGE_LOOP('',(#696,#697,#698,#699));
#168=EDGE_LOOP('',(#700,#701,#702,#703));
#169=EDGE_LOOP('',(#704,#705,#706,#707));
#170=EDGE_LOOP('',(#708,#709,#710,#711));
#171=EDGE_LOOP('',(#712,#713,#714,#715));
#172=EDGE_LOOP('',(#716,#717,#718,#719));
#173=LINE('',#1119,#241);
#174=LINE('',#1126,#242);
#175=LINE('',#1133,#243);
#176=LINE('',#1140,#244);
#177=LINE('',#1147,#245);
#178=LINE('',#1154,#246);
#179=LINE('',#1165,#247);
#180=LINE('',#1169,#248);
#181=LINE('',#1179,#249);
#182=LINE('',#1181,#250);
#183=LINE('',#1185,#251);
#184=LINE('',#1186,#252);
#185=LINE('',#1191,#253);
#186=LINE('',#1193,#254);
#187=LINE('',#1197,#255);
#188=LINE('',#1198,#256);
#189=LINE('',#1203,#257);
#190=LINE('',#1205,#258);
#191=LINE('',#1209,#259);
#192=LINE('',#1210,#260);
#193=LINE('',#1215,#261);
#194=LINE('',#1217,#262);
#195=LINE('',#1221,#263);
#196=LINE('',#1222,#264);
#197=LINE('',#1227,#265);
#198=LINE('',#1231,#266);
#199=LINE('',#1235,#267);
#200=LINE('',#1239,#268);
#201=LINE('',#1244,#269);
#202=LINE('',#1245,#270);
#203=LINE('',#1246,#271);
#204=LINE('',#1250,#272);
#205=LINE('',#1253,#273);
#206=LINE('',#1254,#274);
#207=LINE('',#1257,#275);
#208=LINE('',#1258,#276);
#209=LINE('',#1261,#277);
#210=LINE('',#1262,#278);
#211=LINE('',#1266,#279);
#212=LINE('',#1269,#280);
#213=LINE('',#1270,#281);
#214=LINE('',#1273,#282);
#215=LINE('',#1274,#283);
#216=LINE('',#1277,#284);
#217=LINE('',#1278,#285);
#218=LINE('',#1282,#286);
#219=LINE('',#1285,#287);
#220=LINE('',#1286,#288);
#221=LINE('',#1289,#289);
#222=LINE('',#1290,#290);
#223=LINE('',#1293,#291);
#224=LINE('',#1294,#292);
#225=LINE('',#1298,#293);
#226=LINE('',#1301,#294);
#227=LINE('',#1302,#295);
#228=LINE('',#1304,#296);
#229=LINE('',#1309,#297);
#230=LINE('',#1311,#298);
#231=LINE('',#1313,#299);
#232=LINE('',#1314,#300);
#233=LINE('',#1317,#301);
#234=LINE('',#1319,#302);
#235=LINE('',#1320,#303);
#236=LINE('',#1323,#304);
#237=LINE('',#1325,#305);
#238=LINE('',#1326,#306);
#239=LINE('',#1328,#307);
#240=LINE('',#1329,#308);
#241=VECTOR('',#886,2.25);
#242=VECTOR('',#895,0.75);
#243=VECTOR('',#904,1.);
#244=VECTOR('',#913,1.);
#245=VECTOR('',#922,1.);
#246=VECTOR('',#931,1.);
#247=VECTOR('',#946,7.6);
#248=VECTOR('',#951,3.18198051533934);
#249=VECTOR('',#962,10.);
#250=VECTOR('',#963,10.);
#251=VECTOR('',#966,10.);
#252=VECTOR('',#967,10.);
#253=VECTOR('',#972,10.);
#254=VECTOR('',#973,10.);
#255=VECTOR('',#976,10.);
#256=VECTOR('',#977,10.);
#257=VECTOR('',#982,10.);
#258=VECTOR('',#983,10.);
#259=VECTOR('',#986,10.);
#260=VECTOR('',#987,10.);
#261=VECTOR('',#992,10.);
#262=VECTOR('',#993,10.);
#263=VECTOR('',#996,10.);
#264=VECTOR('',#997,10.);
#265=VECTOR('',#1002,1.);
#266=VECTOR('',#1007,1.);
#267=VECTOR('',#1012,1.);
#268=VECTOR('',#1017,1.);
#269=VECTOR('',#1022,10.);
#270=VECTOR('',#1023,10.);
#271=VECTOR('',#1024,10.);
#272=VECTOR('',#1029,10.);
#273=VECTOR('',#1032,10.);
#274=VECTOR('',#1033,10.);
#275=VECTOR('',#1036,10.);
#276=VECTOR('',#1037,10.);
#277=VECTOR('',#1040,10.);
#278=VECTOR('',#1041,10.);
#279=VECTOR('',#1046,10.);
#280=VECTOR('',#1049,10.);
#281=VECTOR('',#1050,10.);
#282=VECTOR('',#1053,10.);
#283=VECTOR('',#1054,10.);
#284=VECTOR('',#1057,10.);
#285=VECTOR('',#1058,10.);
#286=VECTOR('',#1063,10.);
#287=VECTOR('',#1066,10.);
#288=VECTOR('',#1067,10.);
#289=VECTOR('',#1070,10.);
#290=VECTOR('',#1071,10.);
#291=VECTOR('',#1074,10.);
#292=VECTOR('',#1075,10.);
#293=VECTOR('',#1080,10.);
#294=VECTOR('',#1083,10.);
#295=VECTOR('',#1084,10.);
#296=VECTOR('',#1087,10.);
#297=VECTOR('',#1092,10.);
#298=VECTOR('',#1093,10.);
#299=VECTOR('',#1094,10.);
#300=VECTOR('',#1095,10.);
#301=VECTOR('',#1098,10.);
#302=VECTOR('',#1099,10.);
#303=VECTOR('',#1100,10.);
#304=VECTOR('',#1103,10.);
#305=VECTOR('',#1104,10.);
#306=VECTOR('',#1105,10.);
#307=VECTOR('',#1108,10.);
#308=VECTOR('',#1109,10.);
#309=CIRCLE('',#799,2.25);
#310=CIRCLE('',#800,2.25);
#311=CIRCLE('',#803,0.75);
#312=CIRCLE('',#804,0.75);
#313=CIRCLE('',#807,1.);
#314=CIRCLE('',#808,1.);
#315=CIRCLE('',#811,1.);
#316=CIRCLE('',#812,1.);
#317=CIRCLE('',#815,1.);
#318=CIRCLE('',#816,1.);
#319=CIRCLE('',#819,1.);
#320=CIRCLE('',#820,1.);
#321=CIRCLE('',#823,7.6);
#322=CIRCLE('',#824,3.18198051533934);
#323=CIRCLE('',#826,7.6);
#324=CIRCLE('',#829,3.18198051533934);
#325=CIRCLE('',#830,3.18198051533934);
#326=CIRCLE('',#831,3.18198051533934);
#327=CIRCLE('',#832,3.18198051533934);
#328=CIRCLE('',#834,1.73063778364923);
#329=CIRCLE('',#835,1.);
#330=CIRCLE('',#837,1.99999999999987);
#331=CIRCLE('',#838,1.);
#332=CIRCLE('',#840,2.);
#333=CIRCLE('',#841,1.);
#334=CIRCLE('',#843,2.);
#335=CIRCLE('',#844,1.);
#336=CIRCLE('',#846,1.);
#337=CIRCLE('',#848,1.);
#338=CIRCLE('',#850,1.);
#339=CIRCLE('',#852,1.);
#340=CIRCLE('',#855,2.);
#341=CIRCLE('',#860,1.73063778364923);
#342=CIRCLE('',#865,1.99999999999987);
#343=CIRCLE('',#870,2.);
#344=VERTEX_POINT('',#1116);
#345=VERTEX_POINT('',#1118);
#346=VERTEX_POINT('',#1123);
#347=VERTEX_POINT('',#1125);
#348=VERTEX_POINT('',#1130);
#349=VERTEX_POINT('',#1132);
#350=VERTEX_POINT('',#1137);
#351=VERTEX_POINT('',#1139);
#352=VERTEX_POINT('',#1144);
#353=VERTEX_POINT('',#1146);
#354=VERTEX_POINT('',#1151);
#355=VERTEX_POINT('',#1153);
#356=VERTEX_POINT('',#1158);
#357=VERTEX_POINT('',#1160);
#358=VERTEX_POINT('',#1163);
#359=VERTEX_POINT('',#1168);
#360=VERTEX_POINT('',#1170);
#361=VERTEX_POINT('',#1172);
#362=VERTEX_POINT('',#1174);
#363=VERTEX_POINT('',#1178);
#364=VERTEX_POINT('',#1180);
#365=VERTEX_POINT('',#1182);
#366=VERTEX_POINT('',#1184);
#367=VERTEX_POINT('',#1187);
#368=VERTEX_POINT('',#1190);
#369=VERTEX_POINT('',#1192);
#370=VERTEX_POINT('',#1194);
#371=VERTEX_POINT('',#1196);
#372=VERTEX_POINT('',#1199);
#373=VERTEX_POINT('',#1202);
#374=VERTEX_POINT('',#1204);
#375=VERTEX_POINT('',#1206);
#376=VERTEX_POINT('',#1208);
#377=VERTEX_POINT('',#1211);
#378=VERTEX_POINT('',#1214);
#379=VERTEX_POINT('',#1216);
#380=VERTEX_POINT('',#1218);
#381=VERTEX_POINT('',#1220);
#382=VERTEX_POINT('',#1223);
#383=VERTEX_POINT('',#1226);
#384=VERTEX_POINT('',#1230);
#385=VERTEX_POINT('',#1234);
#386=VERTEX_POINT('',#1238);
#387=VERTEX_POINT('',#1242);
#388=VERTEX_POINT('',#1243);
#389=VERTEX_POINT('',#1248);
#390=VERTEX_POINT('',#1252);
#391=VERTEX_POINT('',#1256);
#392=VERTEX_POINT('',#1260);
#393=VERTEX_POINT('',#1264);
#394=VERTEX_POINT('',#1268);
#395=VERTEX_POINT('',#1272);
#396=VERTEX_POINT('',#1276);
#397=VERTEX_POINT('',#1280);
#398=VERTEX_POINT('',#1284);
#399=VERTEX_POINT('',#1288);
#400=VERTEX_POINT('',#1292);
#401=VERTEX_POINT('',#1296);
#402=VERTEX_POINT('',#1300);
#403=VERTEX_POINT('',#1307);
#404=VERTEX_POINT('',#1308);
#405=VERTEX_POINT('',#1310);
#406=VERTEX_POINT('',#1312);
#407=VERTEX_POINT('',#1316);
#408=VERTEX_POINT('',#1318);
#409=VERTEX_POINT('',#1322);
#410=VERTEX_POINT('',#1324);
#411=EDGE_CURVE('',#344,#344,#309,.T.);
#412=EDGE_CURVE('',#344,#345,#173,.T.);
#413=EDGE_CURVE('',#345,#345,#310,.T.);
#414=EDGE_CURVE('',#346,#346,#311,.T.);
#415=EDGE_CURVE('',#346,#347,#174,.T.);
#416=EDGE_CURVE('',#347,#347,#312,.T.);
#417=EDGE_CURVE('',#348,#348,#313,.T.);
#418=EDGE_CURVE('',#348,#349,#175,.T.);
#419=EDGE_CURVE('',#349,#349,#314,.T.);
#420=EDGE_CURVE('',#350,#350,#315,.T.);
#421=EDGE_CURVE('',#350,#351,#176,.T.);
#422=EDGE_CURVE('',#351,#351,#316,.T.);
#423=EDGE_CURVE('',#352,#352,#317,.T.);
#424=EDGE_CURVE('',#352,#353,#177,.T.);
#425=EDGE_CURVE('',#353,#353,#318,.T.);
#426=EDGE_CURVE('',#354,#354,#319,.T.);
#427=EDGE_CURVE('',#354,#355,#178,.T.);
#428=EDGE_CURVE('',#355,#355,#320,.T.);
#429=EDGE_CURVE('',#356,#356,#321,.T.);
#430=EDGE_CURVE('',#357,#357,#322,.T.);
#431=EDGE_CURVE('',#358,#358,#323,.T.);
#432=EDGE_CURVE('',#358,#356,#179,.T.);
#433=EDGE_CURVE('',#357,#359,#180,.T.);
#434=EDGE_CURVE('',#360,#359,#324,.T.);
#435=EDGE_CURVE('',#361,#360,#325,.T.);
#436=EDGE_CURVE('',#362,#361,#326,.T.);
#437=EDGE_CURVE('',#359,#362,#327,.T.);
#438=EDGE_CURVE('',#362,#363,#181,.T.);
#439=EDGE_CURVE('',#363,#364,#182,.T.);
#440=EDGE_CURVE('',#364,#365,#328,.T.);
#441=EDGE_CURVE('',#365,#366,#183,.T.);
#442=EDGE_CURVE('',#366,#359,#184,.T.);
#443=EDGE_CURVE('',#367,#367,#329,.T.);
#444=EDGE_CURVE('',#361,#368,#185,.T.);
#445=EDGE_CURVE('',#368,#369,#186,.T.);
#446=EDGE_CURVE('',#369,#370,#330,.T.);
#447=EDGE_CURVE('',#370,#371,#187,.T.);
#448=EDGE_CURVE('',#371,#362,#188,.T.);
#449=EDGE_CURVE('',#372,#372,#331,.T.);
#450=EDGE_CURVE('',#360,#373,#189,.T.);
#451=EDGE_CURVE('',#373,#374,#190,.T.);
#452=EDGE_CURVE('',#374,#375,#332,.T.);
#453=EDGE_CURVE('',#375,#376,#191,.T.);
#454=EDGE_CURVE('',#376,#361,#192,.T.);
#455=EDGE_CURVE('',#377,#377,#333,.T.);
#456=EDGE_CURVE('',#359,#378,#193,.T.);
#457=EDGE_CURVE('',#378,#379,#194,.T.);
#458=EDGE_CURVE('',#379,#380,#334,.T.);
#459=EDGE_CURVE('',#380,#381,#195,.T.);
#460=EDGE_CURVE('',#381,#360,#196,.T.);
#461=EDGE_CURVE('',#382,#382,#335,.T.);
#462=EDGE_CURVE('',#372,#383,#197,.T.);
#463=EDGE_CURVE('',#383,#383,#336,.T.);
#464=EDGE_CURVE('',#367,#384,#198,.T.);
#465=EDGE_CURVE('',#384,#384,#337,.T.);
#466=EDGE_CURVE('',#377,#385,#199,.T.);
#467=EDGE_CURVE('',#385,#385,#338,.T.);
#468=EDGE_CURVE('',#382,#386,#200,.T.);
#469=EDGE_CURVE('',#386,#386,#339,.T.);
#470=EDGE_CURVE('',#387,#388,#201,.T.);
#471=EDGE_CURVE('',#387,#381,#202,.T.);
#472=EDGE_CURVE('',#388,#380,#203,.T.);
#473=EDGE_CURVE('',#389,#388,#340,.T.);
#474=EDGE_CURVE('',#389,#379,#204,.T.);
#475=EDGE_CURVE('',#390,#389,#205,.T.);
#476=EDGE_CURVE('',#390,#378,#206,.T.);
#477=EDGE_CURVE('',#391,#390,#207,.T.);
#478=EDGE_CURVE('',#391,#366,#208,.T.);
#479=EDGE_CURVE('',#391,#392,#209,.T.);
#480=EDGE_CURVE('',#392,#365,#210,.T.);
#481=EDGE_CURVE('',#393,#392,#341,.T.);
#482=EDGE_CURVE('',#393,#364,#211,.T.);
#483=EDGE_CURVE('',#394,#393,#212,.T.);
#484=EDGE_CURVE('',#394,#363,#213,.T.);
#485=EDGE_CURVE('',#395,#394,#214,.T.);
#486=EDGE_CURVE('',#395,#371,#215,.T.);
#487=EDGE_CURVE('',#396,#395,#216,.T.);
#488=EDGE_CURVE('',#396,#370,#217,.T.);
#489=EDGE_CURVE('',#397,#396,#342,.T.);
#490=EDGE_CURVE('',#397,#369,#218,.T.);
#491=EDGE_CURVE('',#397,#398,#219,.T.);
#492=EDGE_CURVE('',#398,#368,#220,.T.);
#493=EDGE_CURVE('',#399,#398,#221,.T.);
#494=EDGE_CURVE('',#399,#376,#222,.T.);
#495=EDGE_CURVE('',#400,#399,#223,.T.);
#496=EDGE_CURVE('',#400,#375,#224,.T.);
#497=EDGE_CURVE('',#401,#400,#343,.T.);
#498=EDGE_CURVE('',#401,#374,#225,.T.);
#499=EDGE_CURVE('',#401,#402,#226,.T.);
#500=EDGE_CURVE('',#402,#373,#227,.T.);
#501=EDGE_CURVE('',#387,#402,#228,.T.);
#502=EDGE_CURVE('',#403,#404,#229,.T.);
#503=EDGE_CURVE('',#403,#405,#230,.T.);
#504=EDGE_CURVE('',#406,#405,#231,.T.);
#505=EDGE_CURVE('',#404,#406,#232,.T.);
#506=EDGE_CURVE('',#404,#407,#233,.T.);
#507=EDGE_CURVE('',#408,#406,#234,.T.);
#508=EDGE_CURVE('',#407,#408,#235,.T.);
#509=EDGE_CURVE('',#407,#409,#236,.T.);
#510=EDGE_CURVE('',#410,#408,#237,.T.);
#511=EDGE_CURVE('',#409,#410,#238,.T.);
#512=EDGE_CURVE('',#409,#403,#239,.T.);
#513=EDGE_CURVE('',#405,#410,#240,.T.);
#514=ORIENTED_EDGE('',*,*,#411,.F.);
#515=ORIENTED_EDGE('',*,*,#412,.T.);
#516=ORIENTED_EDGE('',*,*,#413,.F.);
#517=ORIENTED_EDGE('',*,*,#412,.F.);
#518=ORIENTED_EDGE('',*,*,#411,.T.);
#519=ORIENTED_EDGE('',*,*,#414,.F.);
#520=ORIENTED_EDGE('',*,*,#415,.T.);
#521=ORIENTED_EDGE('',*,*,#416,.F.);
#522=ORIENTED_EDGE('',*,*,#415,.F.);
#523=ORIENTED_EDGE('',*,*,#414,.T.);
#524=ORIENTED_EDGE('',*,*,#417,.F.);
#525=ORIENTED_EDGE('',*,*,#418,.T.);
#526=ORIENTED_EDGE('',*,*,#419,.T.);
#527=ORIENTED_EDGE('',*,*,#418,.F.);
#528=ORIENTED_EDGE('',*,*,#419,.F.);
#529=ORIENTED_EDGE('',*,*,#420,.F.);
#530=ORIENTED_EDGE('',*,*,#421,.T.);
#531=ORIENTED_EDGE('',*,*,#422,.T.);
#532=ORIENTED_EDGE('',*,*,#421,.F.);
#533=ORIENTED_EDGE('',*,*,#422,.F.);
#534=ORIENTED_EDGE('',*,*,#423,.F.);
#535=ORIENTED_EDGE('',*,*,#424,.T.);
#536=ORIENTED_EDGE('',*,*,#425,.T.);
#537=ORIENTED_EDGE('',*,*,#424,.F.);
#538=ORIENTED_EDGE('',*,*,#425,.F.);
#539=ORIENTED_EDGE('',*,*,#426,.F.);
#540=ORIENTED_EDGE('',*,*,#427,.T.);
#541=ORIENTED_EDGE('',*,*,#428,.T.);
#542=ORIENTED_EDGE('',*,*,#427,.F.);
#543=ORIENTED_EDGE('',*,*,#428,.F.);
#544=ORIENTED_EDGE('',*,*,#429,.F.);
#545=ORIENTED_EDGE('',*,*,#430,.T.);
#546=ORIENTED_EDGE('',*,*,#431,.F.);
#547=ORIENTED_EDGE('',*,*,#432,.T.);
#548=ORIENTED_EDGE('',*,*,#429,.T.);
#549=ORIENTED_EDGE('',*,*,#432,.F.);
#550=ORIENTED_EDGE('',*,*,#431,.T.);
#551=ORIENTED_EDGE('',*,*,#416,.T.);
#552=ORIENTED_EDGE('',*,*,#417,.T.);
#553=ORIENTED_EDGE('',*,*,#420,.T.);
#554=ORIENTED_EDGE('',*,*,#423,.T.);
#555=ORIENTED_EDGE('',*,*,#426,.T.);
#556=ORIENTED_EDGE('',*,*,#430,.F.);
#557=ORIENTED_EDGE('',*,*,#433,.T.);
#558=ORIENTED_EDGE('',*,*,#434,.F.);
#559=ORIENTED_EDGE('',*,*,#435,.F.);
#560=ORIENTED_EDGE('',*,*,#436,.F.);
#561=ORIENTED_EDGE('',*,*,#437,.F.);
#562=ORIENTED_EDGE('',*,*,#433,.F.);
#563=ORIENTED_EDGE('',*,*,#437,.T.);
#564=ORIENTED_EDGE('',*,*,#438,.T.);
#565=ORIENTED_EDGE('',*,*,#439,.T.);
#566=ORIENTED_EDGE('',*,*,#440,.T.);
#567=ORIENTED_EDGE('',*,*,#441,.T.);
#568=ORIENTED_EDGE('',*,*,#442,.T.);
#569=ORIENTED_EDGE('',*,*,#443,.T.);
#570=ORIENTED_EDGE('',*,*,#436,.T.);
#571=ORIENTED_EDGE('',*,*,#444,.T.);
#572=ORIENTED_EDGE('',*,*,#445,.T.);
#573=ORIENTED_EDGE('',*,*,#446,.T.);
#574=ORIENTED_EDGE('',*,*,#447,.T.);
#575=ORIENTED_EDGE('',*,*,#448,.T.);
#576=ORIENTED_EDGE('',*,*,#449,.T.);
#577=ORIENTED_EDGE('',*,*,#435,.T.);
#578=ORIENTED_EDGE('',*,*,#450,.T.);
#579=ORIENTED_EDGE('',*,*,#451,.T.);
#580=ORIENTED_EDGE('',*,*,#452,.T.);
#581=ORIENTED_EDGE('',*,*,#453,.T.);
#582=ORIENTED_EDGE('',*,*,#454,.T.);
#583=ORIENTED_EDGE('',*,*,#455,.T.);
#584=ORIENTED_EDGE('',*,*,#434,.T.);
#585=ORIENTED_EDGE('',*,*,#456,.T.);
#586=ORIENTED_EDGE('',*,*,#457,.T.);
#587=ORIENTED_EDGE('',*,*,#458,.T.);
#588=ORIENTED_EDGE('',*,*,#459,.T.);
#589=ORIENTED_EDGE('',*,*,#460,.T.);
#590=ORIENTED_EDGE('',*,*,#461,.T.);
#591=ORIENTED_EDGE('',*,*,#449,.F.);
#592=ORIENTED_EDGE('',*,*,#462,.T.);
#593=ORIENTED_EDGE('',*,*,#463,.T.);
#594=ORIENTED_EDGE('',*,*,#462,.F.);
#595=ORIENTED_EDGE('',*,*,#443,.F.);
#596=ORIENTED_EDGE('',*,*,#464,.T.);
#597=ORIENTED_EDGE('',*,*,#465,.T.);
#598=ORIENTED_EDGE('',*,*,#464,.F.);
#599=ORIENTED_EDGE('',*,*,#455,.F.);
#600=ORIENTED_EDGE('',*,*,#466,.T.);
#601=ORIENTED_EDGE('',*,*,#467,.T.);
#602=ORIENTED_EDGE('',*,*,#466,.F.);
#603=ORIENTED_EDGE('',*,*,#461,.F.);
#604=ORIENTED_EDGE('',*,*,#468,.T.);
#605=ORIENTED_EDGE('',*,*,#469,.T.);
#606=ORIENTED_EDGE('',*,*,#468,.F.);
#607=ORIENTED_EDGE('',*,*,#470,.F.);
#608=ORIENTED_EDGE('',*,*,#471,.T.);
#609=ORIENTED_EDGE('',*,*,#459,.F.);
#610=ORIENTED_EDGE('',*,*,#472,.F.);
#611=ORIENTED_EDGE('',*,*,#473,.T.);
#612=ORIENTED_EDGE('',*,*,#472,.T.);
#613=ORIENTED_EDGE('',*,*,#458,.F.);
#614=ORIENTED_EDGE('',*,*,#474,.F.);
#615=ORIENTED_EDGE('',*,*,#475,.T.);
#616=ORIENTED_EDGE('',*,*,#474,.T.);
#617=ORIENTED_EDGE('',*,*,#457,.F.);
#618=ORIENTED_EDGE('',*,*,#476,.F.);
#619=ORIENTED_EDGE('',*,*,#477,.T.);
#620=ORIENTED_EDGE('',*,*,#476,.T.);
#621=ORIENTED_EDGE('',*,*,#456,.F.);
#622=ORIENTED_EDGE('',*,*,#442,.F.);
#623=ORIENTED_EDGE('',*,*,#478,.F.);
#624=ORIENTED_EDGE('',*,*,#479,.F.);
#625=ORIENTED_EDGE('',*,*,#478,.T.);
#626=ORIENTED_EDGE('',*,*,#441,.F.);
#627=ORIENTED_EDGE('',*,*,#480,.F.);
#628=ORIENTED_EDGE('',*,*,#481,.T.);
#629=ORIENTED_EDGE('',*,*,#480,.T.);
#630=ORIENTED_EDGE('',*,*,#440,.F.);
#631=ORIENTED_EDGE('',*,*,#482,.F.);
#632=ORIENTED_EDGE('',*,*,#483,.T.);
#633=ORIENTED_EDGE('',*,*,#482,.T.);
#634=ORIENTED_EDGE('',*,*,#439,.F.);
#635=ORIENTED_EDGE('',*,*,#484,.F.);
#636=ORIENTED_EDGE('',*,*,#485,.T.);
#637=ORIENTED_EDGE('',*,*,#484,.T.);
#638=ORIENTED_EDGE('',*,*,#438,.F.);
#639=ORIENTED_EDGE('',*,*,#448,.F.);
#640=ORIENTED_EDGE('',*,*,#486,.F.);
#641=ORIENTED_EDGE('',*,*,#487,.T.);
#642=ORIENTED_EDGE('',*,*,#486,.T.);
#643=ORIENTED_EDGE('',*,*,#447,.F.);
#644=ORIENTED_EDGE('',*,*,#488,.F.);
#645=ORIENTED_EDGE('',*,*,#489,.T.);
#646=ORIENTED_EDGE('',*,*,#488,.T.);
#647=ORIENTED_EDGE('',*,*,#446,.F.);
#648=ORIENTED_EDGE('',*,*,#490,.F.);
#649=ORIENTED_EDGE('',*,*,#491,.F.);
#650=ORIENTED_EDGE('',*,*,#490,.T.);
#651=ORIENTED_EDGE('',*,*,#445,.F.);
#652=ORIENTED_EDGE('',*,*,#492,.F.);
#653=ORIENTED_EDGE('',*,*,#493,.T.);
#654=ORIENTED_EDGE('',*,*,#492,.T.);
#655=ORIENTED_EDGE('',*,*,#444,.F.);
#656=ORIENTED_EDGE('',*,*,#454,.F.);
#657=ORIENTED_EDGE('',*,*,#494,.F.);
#658=ORIENTED_EDGE('',*,*,#495,.T.);
#659=ORIENTED_EDGE('',*,*,#494,.T.);
#660=ORIENTED_EDGE('',*,*,#453,.F.);
#661=ORIENTED_EDGE('',*,*,#496,.F.);
#662=ORIENTED_EDGE('',*,*,#497,.T.);
#663=ORIENTED_EDGE('',*,*,#496,.T.);
#664=ORIENTED_EDGE('',*,*,#452,.F.);
#665=ORIENTED_EDGE('',*,*,#498,.F.);
#666=ORIENTED_EDGE('',*,*,#499,.F.);
#667=ORIENTED_EDGE('',*,*,#498,.T.);
#668=ORIENTED_EDGE('',*,*,#451,.F.);
#669=ORIENTED_EDGE('',*,*,#500,.F.);
#670=ORIENTED_EDGE('',*,*,#501,.T.);
#671=ORIENTED_EDGE('',*,*,#500,.T.);
#672=ORIENTED_EDGE('',*,*,#450,.F.);
#673=ORIENTED_EDGE('',*,*,#460,.F.);
#674=ORIENTED_EDGE('',*,*,#471,.F.);
#675=ORIENTED_EDGE('',*,*,#501,.F.);
#676=ORIENTED_EDGE('',*,*,#470,.T.);
#677=ORIENTED_EDGE('',*,*,#473,.F.);
#678=ORIENTED_EDGE('',*,*,#475,.F.);
#679=ORIENTED_EDGE('',*,*,#477,.F.);
#680=ORIENTED_EDGE('',*,*,#479,.T.);
#681=ORIENTED_EDGE('',*,*,#481,.F.);
#682=ORIENTED_EDGE('',*,*,#483,.F.);
#683=ORIENTED_EDGE('',*,*,#485,.F.);
#684=ORIENTED_EDGE('',*,*,#487,.F.);
#685=ORIENTED_EDGE('',*,*,#489,.F.);
#686=ORIENTED_EDGE('',*,*,#491,.T.);
#687=ORIENTED_EDGE('',*,*,#493,.F.);
#688=ORIENTED_EDGE('',*,*,#495,.F.);
#689=ORIENTED_EDGE('',*,*,#497,.F.);
#690=ORIENTED_EDGE('',*,*,#499,.T.);
#691=ORIENTED_EDGE('',*,*,#413,.T.);
#692=ORIENTED_EDGE('',*,*,#469,.F.);
#693=ORIENTED_EDGE('',*,*,#467,.F.);
#694=ORIENTED_EDGE('',*,*,#465,.F.);
#695=ORIENTED_EDGE('',*,*,#463,.F.);
#696=ORIENTED_EDGE('',*,*,#502,.F.);
#697=ORIENTED_EDGE('',*,*,#503,.T.);
#698=ORIENTED_EDGE('',*,*,#504,.F.);
#699=ORIENTED_EDGE('',*,*,#505,.F.);
#700=ORIENTED_EDGE('',*,*,#506,.F.);
#701=ORIENTED_EDGE('',*,*,#505,.T.);
#702=ORIENTED_EDGE('',*,*,#507,.F.);
#703=ORIENTED_EDGE('',*,*,#508,.F.);
#704=ORIENTED_EDGE('',*,*,#509,.F.);
#705=ORIENTED_EDGE('',*,*,#508,.T.);
#706=ORIENTED_EDGE('',*,*,#510,.F.);
#707=ORIENTED_EDGE('',*,*,#511,.F.);
#708=ORIENTED_EDGE('',*,*,#512,.F.);
#709=ORIENTED_EDGE('',*,*,#511,.T.);
#710=ORIENTED_EDGE('',*,*,#513,.F.);
#711=ORIENTED_EDGE('',*,*,#503,.F.);
#712=ORIENTED_EDGE('',*,*,#513,.T.);
#713=ORIENTED_EDGE('',*,*,#510,.T.);
#714=ORIENTED_EDGE('',*,*,#507,.T.);
#715=ORIENTED_EDGE('',*,*,#504,.T.);
#716=ORIENTED_EDGE('',*,*,#512,.T.);
#717=ORIENTED_EDGE('',*,*,#502,.T.);
#718=ORIENTED_EDGE('',*,*,#506,.T.);
#719=ORIENTED_EDGE('',*,*,#509,.T.);
#720=CYLINDRICAL_SURFACE('',#798,2.25);
#721=CYLINDRICAL_SURFACE('',#802,0.75);
#722=CYLINDRICAL_SURFACE('',#806,1.);
#723=CYLINDRICAL_SURFACE('',#810,1.);
#724=CYLINDRICAL_SURFACE('',#814,1.);
#725=CYLINDRICAL_SURFACE('',#818,1.);
#726=CYLINDRICAL_SURFACE('',#825,7.6);
#727=CYLINDRICAL_SURFACE('',#828,3.18198051533934);
#728=CYLINDRICAL_SURFACE('',#845,1.);
#729=CYLINDRICAL_SURFACE('',#847,1.);
#730=CYLINDRICAL_SURFACE('',#849,1.);
#731=CYLINDRICAL_SURFACE('',#851,1.);
#732=CYLINDRICAL_SURFACE('',#854,2.);
#733=CYLINDRICAL_SURFACE('',#859,1.73063778364923);
#734=CYLINDRICAL_SURFACE('',#864,1.99999999999987);
#735=CYLINDRICAL_SURFACE('',#869,2.);
#736=ADVANCED_FACE('',(#64),#720,.T.);
#737=ADVANCED_FACE('',(#65),#33,.T.);
#738=ADVANCED_FACE('',(#66),#721,.T.);
#739=ADVANCED_FACE('',(#67),#34,.T.);
#740=ADVANCED_FACE('',(#68),#722,.F.);
#741=ADVANCED_FACE('',(#69),#35,.T.);
#742=ADVANCED_FACE('',(#70),#723,.F.);
#743=ADVANCED_FACE('',(#71),#36,.T.);
#744=ADVANCED_FACE('',(#72),#724,.F.);
#745=ADVANCED_FACE('',(#73),#37,.T.);
#746=ADVANCED_FACE('',(#74),#725,.F.);
#747=ADVANCED_FACE('',(#75),#38,.T.);
#748=ADVANCED_FACE('',(#76,#18),#39,.F.);
#749=ADVANCED_FACE('',(#77),#726,.T.);
#750=ADVANCED_FACE('',(#78,#19,#20,#21,#22,#23),#40,.T.);
#751=ADVANCED_FACE('',(#79),#727,.T.);
#752=ADVANCED_FACE('',(#80,#24),#41,.T.);
#753=ADVANCED_FACE('',(#81,#25),#42,.T.);
#754=ADVANCED_FACE('',(#82,#26),#43,.T.);
#755=ADVANCED_FACE('',(#83,#27),#44,.T.);
#756=ADVANCED_FACE('',(#84),#728,.F.);
#757=ADVANCED_FACE('',(#85),#729,.F.);
#758=ADVANCED_FACE('',(#86),#730,.F.);
#759=ADVANCED_FACE('',(#87),#731,.F.);
#760=ADVANCED_FACE('',(#88),#45,.T.);
#761=ADVANCED_FACE('',(#89),#732,.T.);
#762=ADVANCED_FACE('',(#90),#46,.T.);
#763=ADVANCED_FACE('',(#91),#47,.T.);
#764=ADVANCED_FACE('',(#92),#48,.T.);
#765=ADVANCED_FACE('',(#93),#733,.T.);
#766=ADVANCED_FACE('',(#94),#49,.T.);
#767=ADVANCED_FACE('',(#95),#50,.T.);
#768=ADVANCED_FACE('',(#96),#51,.T.);
#769=ADVANCED_FACE('',(#97),#734,.T.);
#770=ADVANCED_FACE('',(#98),#52,.T.);
#771=ADVANCED_FACE('',(#99),#53,.T.);
#772=ADVANCED_FACE('',(#100),#54,.T.);
#773=ADVANCED_FACE('',(#101),#735,.T.);
#774=ADVANCED_FACE('',(#102),#55,.T.);
#775=ADVANCED_FACE('',(#103),#56,.T.);
#776=ADVANCED_FACE('',(#104,#28,#29,#30,#31,#32),#57,.F.);
#777=ADVANCED_FACE('',(#105),#58,.T.);
#778=ADVANCED_FACE('',(#106),#59,.T.);
#779=ADVANCED_FACE('',(#107),#60,.T.);
#780=ADVANCED_FACE('',(#108),#61,.T.);
#781=ADVANCED_FACE('',(#109),#62,.T.);
#782=ADVANCED_FACE('',(#110),#63,.F.);
#783=CLOSED_SHELL('',(#736,#737,#738,#739,#740,#741,#742,#743,#744,#745,
#746,#747,#748,#749,#750,#751,#752,#753,#754,#755,#756,#757,#758,#759,#760,
#761,#762,#763,#764,#765,#766,#767,#768,#769,#770,#771,#772,#773,#774,#775,
#776));
#784=CLOSED_SHELL('',(#777,#778,#779,#780,#781,#782));
#785=DERIVED_UNIT_ELEMENT(#787,1.);
#786=DERIVED_UNIT_ELEMENT(#1337,-3.);
#787=(
MASS_UNIT()
NAMED_UNIT(*)
SI_UNIT(.KILO.,.GRAM.)
);
#788=DERIVED_UNIT((#785,#786));
#789=MEASURE_REPRESENTATION_ITEM('density measure',
POSITIVE_RATIO_MEASURE(7850.),#788);
#790=PROPERTY_DEFINITION_REPRESENTATION(#795,#792);
#791=PROPERTY_DEFINITION_REPRESENTATION(#796,#793);
#792=REPRESENTATION('material name',(#794),#1334);
#793=REPRESENTATION('density',(#789),#1334);
#794=DESCRIPTIVE_REPRESENTATION_ITEM('Steel','Steel');
#795=PROPERTY_DEFINITION('material property','material name',#1344);
#796=PROPERTY_DEFINITION('material property','density of part',#1344);
#797=AXIS2_PLACEMENT_3D('',#1114,#880,#881);
#798=AXIS2_PLACEMENT_3D('',#1115,#882,#883);
#799=AXIS2_PLACEMENT_3D('',#1117,#884,#885);
#800=AXIS2_PLACEMENT_3D('',#1120,#887,#888);
#801=AXIS2_PLACEMENT_3D('',#1121,#889,#890);
#802=AXIS2_PLACEMENT_3D('',#1122,#891,#892);
#803=AXIS2_PLACEMENT_3D('',#1124,#893,#894);
#804=AXIS2_PLACEMENT_3D('',#1127,#896,#897);
#805=AXIS2_PLACEMENT_3D('',#1128,#898,#899);
#806=AXIS2_PLACEMENT_3D('',#1129,#900,#901);
#807=AXIS2_PLACEMENT_3D('',#1131,#902,#903);
#808=AXIS2_PLACEMENT_3D('',#1134,#905,#906);
#809=AXIS2_PLACEMENT_3D('',#1135,#907,#908);
#810=AXIS2_PLACEMENT_3D('',#1136,#909,#910);
#811=AXIS2_PLACEMENT_3D('',#1138,#911,#912);
#812=AXIS2_PLACEMENT_3D('',#1141,#914,#915);
#813=AXIS2_PLACEMENT_3D('',#1142,#916,#917);
#814=AXIS2_PLACEMENT_3D('',#1143,#918,#919);
#815=AXIS2_PLACEMENT_3D('',#1145,#920,#921);
#816=AXIS2_PLACEMENT_3D('',#1148,#923,#924);
#817=AXIS2_PLACEMENT_3D('',#1149,#925,#926);
#818=AXIS2_PLACEMENT_3D('',#1150,#927,#928);
#819=AXIS2_PLACEMENT_3D('',#1152,#929,#930);
#820=AXIS2_PLACEMENT_3D('',#1155,#932,#933);
#821=AXIS2_PLACEMENT_3D('',#1156,#934,#935);
#822=AXIS2_PLACEMENT_3D('',#1157,#936,#937);
#823=AXIS2_PLACEMENT_3D('',#1159,#938,#939);
#824=AXIS2_PLACEMENT_3D('',#1161,#940,#941);
#825=AXIS2_PLACEMENT_3D('',#1162,#942,#943);
#826=AXIS2_PLACEMENT_3D('',#1164,#944,#945);
#827=AXIS2_PLACEMENT_3D('',#1166,#947,#948);
#828=AXIS2_PLACEMENT_3D('',#1167,#949,#950);
#829=AXIS2_PLACEMENT_3D('',#1171,#952,#953);
#830=AXIS2_PLACEMENT_3D('',#1173,#954,#955);
#831=AXIS2_PLACEMENT_3D('',#1175,#956,#957);
#832=AXIS2_PLACEMENT_3D('',#1176,#958,#959);
#833=AXIS2_PLACEMENT_3D('',#1177,#960,#961);
#834=AXIS2_PLACEMENT_3D('',#1183,#964,#965);
#835=AXIS2_PLACEMENT_3D('',#1188,#968,#969);
#836=AXIS2_PLACEMENT_3D('',#1189,#970,#971);
#837=AXIS2_PLACEMENT_3D('',#1195,#974,#975);
#838=AXIS2_PLACEMENT_3D('',#1200,#978,#979);
#839=AXIS2_PLACEMENT_3D('',#1201,#980,#981);
#840=AXIS2_PLACEMENT_3D('',#1207,#984,#985);
#841=AXIS2_PLACEMENT_3D('',#1212,#988,#989);
#842=AXIS2_PLACEMENT_3D('',#1213,#990,#991);
#843=AXIS2_PLACEMENT_3D('',#1219,#994,#995);
#844=AXIS2_PLACEMENT_3D('',#1224,#998,#999);
#845=AXIS2_PLACEMENT_3D('',#1225,#1000,#1001);
#846=AXIS2_PLACEMENT_3D('',#1228,#1003,#1004);
#847=AXIS2_PLACEMENT_3D('',#1229,#1005,#1006);
#848=AXIS2_PLACEMENT_3D('',#1232,#1008,#1009);
#849=AXIS2_PLACEMENT_3D('',#1233,#1010,#1011);
#850=AXIS2_PLACEMENT_3D('',#1236,#1013,#1014);
#851=AXIS2_PLACEMENT_3D('',#1237,#1015,#1016);
#852=AXIS2_PLACEMENT_3D('',#1240,#1018,#1019);
#853=AXIS2_PLACEMENT_3D('',#1241,#1020,#1021);
#854=AXIS2_PLACEMENT_3D('',#1247,#1025,#1026);
#855=AXIS2_PLACEMENT_3D('',#1249,#1027,#1028);
#856=AXIS2_PLACEMENT_3D('',#1251,#1030,#1031);
#857=AXIS2_PLACEMENT_3D('',#1255,#1034,#1035);
#858=AXIS2_PLACEMENT_3D('',#1259,#1038,#1039);
#859=AXIS2_PLACEMENT_3D('',#1263,#1042,#1043);
#860=AXIS2_PLACEMENT_3D('',#1265,#1044,#1045);
#861=AXIS2_PLACEMENT_3D('',#1267,#1047,#1048);
#862=AXIS2_PLACEMENT_3D('',#1271,#1051,#1052);
#863=AXIS2_PLACEMENT_3D('',#1275,#1055,#1056);
#864=AXIS2_PLACEMENT_3D('',#1279,#1059,#1060);
#865=AXIS2_PLACEMENT_3D('',#1281,#1061,#1062);
#866=AXIS2_PLACEMENT_3D('',#1283,#1064,#1065);
#867=AXIS2_PLACEMENT_3D('',#1287,#1068,#1069);
#868=AXIS2_PLACEMENT_3D('',#1291,#1072,#1073);
#869=AXIS2_PLACEMENT_3D('',#1295,#1076,#1077);
#870=AXIS2_PLACEMENT_3D('',#1297,#1078,#1079);
#871=AXIS2_PLACEMENT_3D('',#1299,#1081,#1082);
#872=AXIS2_PLACEMENT_3D('',#1303,#1085,#1086);
#873=AXIS2_PLACEMENT_3D('',#1305,#1088,#1089);
#874=AXIS2_PLACEMENT_3D('',#1306,#1090,#1091);
#875=AXIS2_PLACEMENT_3D('',#1315,#1096,#1097);
#876=AXIS2_PLACEMENT_3D('',#1321,#1101,#1102);
#877=AXIS2_PLACEMENT_3D('',#1327,#1106,#1107);
#878=AXIS2_PLACEMENT_3D('',#1330,#1110,#1111);
#879=AXIS2_PLACEMENT_3D('',#1331,#1112,#1113);
#880=DIRECTION('axis',(0.,0.,1.));
#881=DIRECTION('refdir',(1.,0.,0.));
#882=DIRECTION('center_axis',(0.,0.,-1.));
#883=DIRECTION('ref_axis',(1.,0.,0.));
#884=DIRECTION('center_axis',(0.,0.,-1.));
#885=DIRECTION('ref_axis',(1.,0.,0.));
#886=DIRECTION('',(0.,0.,1.));
#887=DIRECTION('center_axis',(0.,0.,1.));
#888=DIRECTION('ref_axis',(1.,0.,0.));
#889=DIRECTION('center_axis',(0.,0.,-1.));
#890=DIRECTION('ref_axis',(1.,0.,0.));
#891=DIRECTION('center_axis',(0.,0.,1.));
#892=DIRECTION('ref_axis',(-1.,0.,0.));
#893=DIRECTION('center_axis',(0.,0.,1.));
#894=DIRECTION('ref_axis',(-1.,0.,0.));
#895=DIRECTION('',(0.,0.,-1.));
#896=DIRECTION('center_axis',(0.,0.,-1.));
#897=DIRECTION('ref_axis',(-1.,0.,0.));
#898=DIRECTION('center_axis',(0.,0.,1.));
#899=DIRECTION('ref_axis',(-1.,0.,0.));
#900=DIRECTION('center_axis',(0.,0.,-1.));
#901=DIRECTION('ref_axis',(-1.,0.,0.));
#902=DIRECTION('center_axis',(0.,0.,-1.));
#903=DIRECTION('ref_axis',(-1.,0.,0.));
#904=DIRECTION('',(0.,0.,-1.));
#905=DIRECTION('center_axis',(0.,0.,-1.));
#906=DIRECTION('ref_axis',(-1.,0.,0.));
#907=DIRECTION('center_axis',(0.,0.,1.));
#908=DIRECTION('ref_axis',(-1.,0.,0.));
#909=DIRECTION('center_axis',(0.,0.,-1.));
#910=DIRECTION('ref_axis',(-1.,0.,0.));
#911=DIRECTION('center_axis',(0.,0.,-1.));
#912=DIRECTION('ref_axis',(-1.,0.,0.));
#913=DIRECTION('',(0.,0.,-1.));
#914=DIRECTION('center_axis',(0.,0.,-1.));
#915=DIRECTION('ref_axis',(-1.,0.,0.));
#916=DIRECTION('center_axis',(0.,0.,1.));
#917=DIRECTION('ref_axis',(-1.,0.,0.));
#918=DIRECTION('center_axis',(0.,0.,-1.));
#919=DIRECTION('ref_axis',(-1.,0.,0.));
#920=DIRECTION('center_axis',(0.,0.,-1.));
#921=DIRECTION('ref_axis',(-1.,0.,0.));
#922=DIRECTION('',(0.,0.,-1.));
#923=DIRECTION('center_axis',(0.,0.,-1.));
#924=DIRECTION('ref_axis',(-1.,0.,0.));
#925=DIRECTION('center_axis',(0.,0.,1.));
#926=DIRECTION('ref_axis',(-1.,0.,0.));
#927=DIRECTION('center_axis',(0.,0.,-1.));
#928=DIRECTION('ref_axis',(-1.,0.,0.));
#929=DIRECTION('center_axis',(0.,0.,-1.));
#930=DIRECTION('ref_axis',(-1.,0.,0.));
#931=DIRECTION('',(0.,0.,-1.));
#932=DIRECTION('center_axis',(0.,0.,-1.));
#933=DIRECTION('ref_axis',(-1.,0.,0.));
#934=DIRECTION('center_axis',(0.,0.,1.));
#935=DIRECTION('ref_axis',(-1.,0.,0.));
#936=DIRECTION('center_axis',(0.,0.,1.));
#937=DIRECTION('ref_axis',(-1.,0.,0.));
#938=DIRECTION('center_axis',(0.,0.,1.));
#939=DIRECTION('ref_axis',(-1.,0.,0.));
#940=DIRECTION('center_axis',(0.,0.,1.));
#941=DIRECTION('ref_axis',(-1.,0.,0.));
#942=DIRECTION('center_axis',(0.,0.,1.));
#943=DIRECTION('ref_axis',(-1.,0.,0.));
#944=DIRECTION('center_axis',(0.,0.,1.));
#945=DIRECTION('ref_axis',(-1.,0.,0.));
#946=DIRECTION('',(0.,0.,-1.));
#947=DIRECTION('center_axis',(0.,0.,1.));
#948=DIRECTION('ref_axis',(-1.,0.,0.));
#949=DIRECTION('center_axis',(0.,0.,1.));
#950=DIRECTION('ref_axis',(-1.,0.,0.));
#951=DIRECTION('',(0.,0.,-1.));
#952=DIRECTION('center_axis',(0.,0.,-1.));
#953=DIRECTION('ref_axis',(-1.,0.,0.));
#954=DIRECTION('center_axis',(0.,0.,-1.));
#955=DIRECTION('ref_axis',(-1.,0.,0.));
#956=DIRECTION('center_axis',(0.,0.,-1.));
#957=DIRECTION('ref_axis',(-1.,0.,0.));
#958=DIRECTION('center_axis',(0.,0.,-1.));
#959=DIRECTION('ref_axis',(-1.,0.,0.));
#960=DIRECTION('center_axis',(0.,0.,1.));
#961=DIRECTION('ref_axis',(1.,0.,0.));
#962=DIRECTION('',(1.,-4.10840860022254E-14,0.));
#963=DIRECTION('',(0.727953108097408,-0.685626919258079,0.));
#964=DIRECTION('center_axis',(0.,0.,1.));
#965=DIRECTION('ref_axis',(1.,0.,0.));
#966=DIRECTION('',(-0.685626919258059,0.727953108097426,0.));
#967=DIRECTION('',(-8.72273588157634E-17,1.,0.));
#968=DIRECTION('center_axis',(0.,0.,-1.));
#969=DIRECTION('ref_axis',(1.,0.,0.));
#970=DIRECTION('center_axis',(0.,0.,1.));
#971=DIRECTION('ref_axis',(1.,0.,0.));
#972=DIRECTION('',(2.04112019628895E-14,-1.,0.));
#973=DIRECTION('',(-0.707106781186528,-0.707106781186568,0.));
#974=DIRECTION('center_axis',(0.,0.,1.));
#975=DIRECTION('ref_axis',(1.,0.,0.));
#976=DIRECTION('',(0.707106781186553,0.707106781186542,0.));
#977=DIRECTION('',(1.,-4.10840860022254E-14,0.));
#978=DIRECTION('center_axis',(0.,0.,-1.));
#979=DIRECTION('ref_axis',(1.,0.,0.));
#980=DIRECTION('center_axis',(0.,0.,1.));
#981=DIRECTION('ref_axis',(1.,0.,0.));
#982=DIRECTION('',(-1.,8.72273588157634E-17,0.));
#983=DIRECTION('',(-0.685626919258059,0.727953108097426,0.));
#984=DIRECTION('center_axis',(0.,0.,1.));
#985=DIRECTION('ref_axis',(1.,0.,0.));
#986=DIRECTION('',(0.727953108097408,-0.685626919258079,0.));
#987=DIRECTION('',(2.04112019628895E-14,-1.,0.));
#988=DIRECTION('center_axis',(0.,0.,-1.));
#989=DIRECTION('ref_axis',(1.,0.,0.));
#990=DIRECTION('center_axis',(0.,0.,1.));
#991=DIRECTION('ref_axis',(1.,0.,0.));
#992=DIRECTION('',(-8.72273588157634E-17,1.,0.));
#993=DIRECTION('',(0.707106781186553,0.707106781186542,0.));
#994=DIRECTION('center_axis',(0.,0.,1.));
#995=DIRECTION('ref_axis',(1.,0.,0.));
#996=DIRECTION('',(-0.707106781186528,-0.707106781186568,0.));
#997=DIRECTION('',(-1.,8.72273588157634E-17,0.));
#998=DIRECTION('center_axis',(0.,0.,-1.));
#999=DIRECTION('ref_axis',(1.,0.,0.));
#1000=DIRECTION('center_axis',(0.,0.,1.));
#1001=DIRECTION('ref_axis',(1.,0.,0.));
#1002=DIRECTION('',(0.,0.,-1.));
#1003=DIRECTION('center_axis',(0.,0.,-1.));
#1004=DIRECTION('ref_axis',(1.,0.,0.));
#1005=DIRECTION('center_axis',(0.,0.,1.));
#1006=DIRECTION('ref_axis',(1.,0.,0.));
#1007=DIRECTION('',(0.,0.,-1.));
#1008=DIRECTION('center_axis',(0.,0.,-1.));
#1009=DIRECTION('ref_axis',(1.,0.,0.));
#1010=DIRECTION('center_axis',(0.,0.,1.));
#1011=DIRECTION('ref_axis',(1.,0.,0.));
#1012=DIRECTION('',(0.,0.,-1.));
#1013=DIRECTION('center_axis',(0.,0.,-1.));
#1014=DIRECTION('ref_axis',(1.,0.,0.));
#1015=DIRECTION('center_axis',(0.,0.,1.));
#1016=DIRECTION('ref_axis',(1.,0.,0.));
#1017=DIRECTION('',(0.,0.,-1.));
#1018=DIRECTION('center_axis',(0.,0.,-1.));
#1019=DIRECTION('ref_axis',(1.,0.,0.));
#1020=DIRECTION('center_axis',(-0.707106781186568,0.707106781186528,0.));
#1021=DIRECTION('ref_axis',(-0.707106781186528,-0.707106781186568,0.));
#1022=DIRECTION('',(0.707106781186528,0.707106781186568,0.));
#1023=DIRECTION('',(0.,0.,1.));
#1024=DIRECTION('',(0.,0.,1.));
#1025=DIRECTION('center_axis',(0.,0.,1.));
#1026=DIRECTION('ref_axis',(1.,0.,0.));
#1027=DIRECTION('center_axis',(0.,0.,1.));
#1028=DIRECTION('ref_axis',(1.,0.,0.));
#1029=DIRECTION('',(0.,0.,1.));
#1030=DIRECTION('center_axis',(0.707106781186542,-0.707106781186553,0.));
#1031=DIRECTION('ref_axis',(0.707106781186553,0.707106781186542,0.));
#1032=DIRECTION('',(0.707106781186553,0.707106781186542,0.));
#1033=DIRECTION('',(0.,0.,1.));
#1034=DIRECTION('center_axis',(1.,8.72273588157634E-17,0.));
#1035=DIRECTION('ref_axis',(-8.72273588157634E-17,1.,0.));
#1036=DIRECTION('',(-8.72273588157634E-17,1.,0.));
#1037=DIRECTION('',(0.,0.,1.));
#1038=DIRECTION('center_axis',(0.727953108097426,0.685626919258059,0.));
#1039=DIRECTION('ref_axis',(-0.685626919258059,0.727953108097426,0.));
#1040=DIRECTION('',(0.685626919258059,-0.727953108097426,0.));
#1041=DIRECTION('',(0.,0.,1.));
#1042=DIRECTION('center_axis',(0.,0.,1.));
#1043=DIRECTION('ref_axis',(1.,0.,0.));
#1044=DIRECTION('center_axis',(0.,0.,1.));
#1045=DIRECTION('ref_axis',(1.,0.,0.));
#1046=DIRECTION('',(0.,0.,1.));
#1047=DIRECTION('center_axis',(-0.685626919258079,-0.727953108097408,0.));
#1048=DIRECTION('ref_axis',(0.727953108097408,-0.685626919258079,0.));
#1049=DIRECTION('',(0.727953108097408,-0.685626919258079,0.));
#1050=DIRECTION('',(0.,0.,1.));
#1051=DIRECTION('center_axis',(-4.10840860022254E-14,-1.,0.));
#1052=DIRECTION('ref_axis',(1.,-4.10840860022254E-14,0.));
#1053=DIRECTION('',(1.,-4.10840860022254E-14,0.));
#1054=DIRECTION('',(0.,0.,1.));
#1055=DIRECTION('center_axis',(0.707106781186542,-0.707106781186553,0.));
#1056=DIRECTION('ref_axis',(0.707106781186553,0.707106781186542,0.));
#1057=DIRECTION('',(0.707106781186553,0.707106781186542,0.));
#1058=DIRECTION('',(0.,0.,1.));
#1059=DIRECTION('center_axis',(0.,0.,1.));
#1060=DIRECTION('ref_axis',(-0.707106685747067,-0.707106876626015,0.));
#1061=DIRECTION('center_axis',(0.,0.,1.));
#1062=DIRECTION('ref_axis',(1.,0.,0.));
#1063=DIRECTION('',(0.,0.,1.));
#1064=DIRECTION('center_axis',(-0.707106781186568,0.707106781186528,0.));
#1065=DIRECTION('ref_axis',(-0.707106781186528,-0.707106781186568,0.));
#1066=DIRECTION('',(0.707106781186528,0.707106781186568,0.));
#1067=DIRECTION('',(0.,0.,1.));
#1068=DIRECTION('center_axis',(-1.,-2.04112019628895E-14,0.));
#1069=DIRECTION('ref_axis',(2.04112019628895E-14,-1.,0.));
#1070=DIRECTION('',(2.04112019628895E-14,-1.,0.));
#1071=DIRECTION('',(0.,0.,1.));
#1072=DIRECTION('center_axis',(-0.685626919258079,-0.727953108097408,0.));
#1073=DIRECTION('ref_axis',(0.727953108097408,-0.685626919258079,0.));
#1074=DIRECTION('',(0.727953108097408,-0.685626919258079,0.));
#1075=DIRECTION('',(0.,0.,1.));
#1076=DIRECTION('center_axis',(0.,0.,1.));
#1077=DIRECTION('ref_axis',(-0.707106856038237,0.70710670633485,0.));
#1078=DIRECTION('center_axis',(0.,0.,1.));
#1079=DIRECTION('ref_axis',(1.,0.,0.));
#1080=DIRECTION('',(0.,0.,1.));
#1081=DIRECTION('center_axis',(0.727953108097426,0.685626919258059,0.));
#1082=DIRECTION('ref_axis',(-0.685626919258059,0.727953108097426,0.));
#1083=DIRECTION('',(0.685626919258059,-0.727953108097426,0.));
#1084=DIRECTION('',(0.,0.,1.));
#1085=DIRECTION('center_axis',(8.72273588157634E-17,1.,0.));
#1086=DIRECTION('ref_axis',(-1.,8.72273588157634E-17,0.));
#1087=DIRECTION('',(-1.,8.72273588157634E-17,0.));
#1088=DIRECTION('center_axis',(0.,0.,1.));
#1089=DIRECTION('ref_axis',(1.,0.,0.));
#1090=DIRECTION('center_axis',(1.,0.,0.));
#1091=DIRECTION('ref_axis',(0.,1.,0.));
#1092=DIRECTION('',(0.,-1.,0.));
#1093=DIRECTION('',(0.,0.,1.));
#1094=DIRECTION('',(0.,1.,0.));
#1095=DIRECTION('',(0.,0.,1.));
#1096=DIRECTION('center_axis',(0.,-1.,0.));
#1097=DIRECTION('ref_axis',(1.,0.,0.));
#1098=DIRECTION('',(-1.,0.,0.));
#1099=DIRECTION('',(1.,0.,0.));
#1100=DIRECTION('',(0.,0.,1.));
#1101=DIRECTION('center_axis',(-1.,0.,0.));
#1102=DIRECTION('ref_axis',(0.,-1.,0.));
#1103=DIRECTION('',(0.,1.,0.));
#1104=DIRECTION('',(0.,-1.,0.));
#1105=DIRECTION('',(0.,0.,1.));
#1106=DIRECTION('center_axis',(0.,1.,0.));
#1107=DIRECTION('ref_axis',(-1.,0.,0.));
#1108=DIRECTION('',(1.,0.,0.));
#1109=DIRECTION('',(-1.,0.,0.));
#1110=DIRECTION('center_axis',(0.,0.,1.));
#1111=DIRECTION('ref_axis',(1.,0.,0.));
#1112=DIRECTION('center_axis',(0.,0.,1.));
#1113=DIRECTION('ref_axis',(-1.,0.,0.));
#1114=CARTESIAN_POINT('',(0.,0.,0.));
#1115=CARTESIAN_POINT('Origin',(0.,0.,0.));
#1116=CARTESIAN_POINT('',(-2.25,2.75545529808154E-16,-2.));
#1117=CARTESIAN_POINT('Origin',(0.,0.,-2.));
#1118=CARTESIAN_POINT('',(-2.25,2.75545529808154E-16,0.));
#1119=CARTESIAN_POINT('',(-2.25,2.75545529808154E-16,0.));
#1120=CARTESIAN_POINT('Origin',(0.,0.,0.));
#1121=CARTESIAN_POINT('Origin',(0.,0.,-2.));
#1122=CARTESIAN_POINT('Origin',(0.,0.,11.));
#1123=CARTESIAN_POINT('',(0.75,9.18485099360515E-17,16.));
#1124=CARTESIAN_POINT('Origin',(0.,0.,16.));
#1125=CARTESIAN_POINT('',(0.75,9.18485099360515E-17,11.));
#1126=CARTESIAN_POINT('',(0.75,9.18485099360515E-17,11.));
#1127=CARTESIAN_POINT('Origin',(0.,0.,11.));
#1128=CARTESIAN_POINT('Origin',(0.,0.,16.));
#1129=CARTESIAN_POINT('Origin',(-1.76776695296637,1.76776695296637,11.));
#1130=CARTESIAN_POINT('',(-0.767766952966368,1.76776695296637,11.));
#1131=CARTESIAN_POINT('Origin',(-1.76776695296637,1.76776695296637,11.));
#1132=CARTESIAN_POINT('',(-0.767766952966368,1.76776695296637,9.));
#1133=CARTESIAN_POINT('',(-0.767766952966368,1.76776695296637,11.));
#1134=CARTESIAN_POINT('Origin',(-1.76776695296637,1.76776695296637,9.));
#1135=CARTESIAN_POINT('Origin',(-1.76776695296637,1.76776695296637,9.));
#1136=CARTESIAN_POINT('Origin',(-1.76776695296637,-1.76776695296637,11.));
#1137=CARTESIAN_POINT('',(-0.767766952966369,-1.76776695296637,11.));
#1138=CARTESIAN_POINT('Origin',(-1.76776695296637,-1.76776695296637,11.));
#1139=CARTESIAN_POINT('',(-0.767766952966369,-1.76776695296637,9.));
#1140=CARTESIAN_POINT('',(-0.767766952966369,-1.76776695296637,11.));
#1141=CARTESIAN_POINT('Origin',(-1.76776695296637,-1.76776695296637,9.));
#1142=CARTESIAN_POINT('Origin',(-1.76776695296637,-1.76776695296637,9.));
#1143=CARTESIAN_POINT('Origin',(1.76776695296637,1.76776695296637,11.));
#1144=CARTESIAN_POINT('',(2.76776695296637,1.76776695296637,11.));
#1145=CARTESIAN_POINT('Origin',(1.76776695296637,1.76776695296637,11.));
#1146=CARTESIAN_POINT('',(2.76776695296637,1.76776695296637,9.));
#1147=CARTESIAN_POINT('',(2.76776695296637,1.76776695296637,11.));
#1148=CARTESIAN_POINT('Origin',(1.76776695296637,1.76776695296637,9.));
#1149=CARTESIAN_POINT('Origin',(1.76776695296637,1.76776695296637,9.));
#1150=CARTESIAN_POINT('Origin',(1.76776695296637,-1.76776695296637,11.));
#1151=CARTESIAN_POINT('',(2.76776695296637,-1.76776695296637,11.));
#1152=CARTESIAN_POINT('Origin',(1.76776695296637,-1.76776695296637,11.));
#1153=CARTESIAN_POINT('',(2.76776695296637,-1.76776695296637,9.));
#1154=CARTESIAN_POINT('',(2.76776695296637,-1.76776695296637,11.));
#1155=CARTESIAN_POINT('Origin',(1.76776695296637,-1.76776695296637,9.));
#1156=CARTESIAN_POINT('Origin',(1.76776695296637,-1.76776695296637,9.));
#1157=CARTESIAN_POINT('Origin',(0.,0.,3.5));
#1158=CARTESIAN_POINT('',(7.6,9.30731567351989E-16,3.5));
#1159=CARTESIAN_POINT('Origin',(0.,0.,3.5));
#1160=CARTESIAN_POINT('',(3.18198051533934,3.89680225305956E-16,3.5));
#1161=CARTESIAN_POINT('Origin',(0.,0.,3.5));
#1162=CARTESIAN_POINT('Origin',(0.,0.,3.5));
#1163=CARTESIAN_POINT('',(7.6,9.30731567351989E-16,11.));
#1164=CARTESIAN_POINT('Origin',(0.,0.,11.));
#1165=CARTESIAN_POINT('',(7.6,9.30731567351989E-16,3.5));
#1166=CARTESIAN_POINT('Origin',(0.,0.,11.));
#1167=CARTESIAN_POINT('Origin',(0.,0.,2.));
#1168=CARTESIAN_POINT('',(3.18198051533934,3.89680225305956E-16,2.));
#1169=CARTESIAN_POINT('',(3.18198051533934,3.89680225305956E-16,2.));
#1170=CARTESIAN_POINT('',(2.77555756156289E-16,3.18198051533947,2.));
#1171=CARTESIAN_POINT('Origin',(0.,0.,2.));
#1172=CARTESIAN_POINT('',(-3.18198051533966,-6.49480469405717E-14,2.));
#1173=CARTESIAN_POINT('Origin',(0.,0.,2.));
#1174=CARTESIAN_POINT('',(-1.30728761149612E-13,-3.18198051533947,2.));
#1175=CARTESIAN_POINT('Origin',(0.,0.,2.));
#1176=CARTESIAN_POINT('Origin',(0.,0.,2.));
#1177=CARTESIAN_POINT('Origin',(-1.94289029309402E-13,1.28785870856518E-13,
2.));
#1178=CARTESIAN_POINT('',(0.657812144701204,-3.18198051533949,2.));
#1179=CARTESIAN_POINT('',(-3.1819805153396,-3.18198051533934,2.));
#1180=CARTESIAN_POINT('',(1.9953941815427,-4.44179002913013,2.));
#1181=CARTESIAN_POINT('',(-5.8115878819146,2.9112619756359,2.));
#1182=CARTESIAN_POINT('',(4.44179250627201,-1.99539681160789,2.));
#1183=CARTESIAN_POINT('Origin',(3.18198051533934,-3.1819805153396,2.));
#1184=CARTESIAN_POINT('',(3.18198051533934,-0.657812144701505,2.));
#1185=CARTESIAN_POINT('',(-2.91126197563597,5.81158788191456,2.));
#1186=CARTESIAN_POINT('',(3.18198051533934,-3.1819805153396,2.));
#1187=CARTESIAN_POINT('',(2.18198051533934,-3.1819805153396,2.));
#1188=CARTESIAN_POINT('Origin',(3.18198051533934,-3.1819805153396,2.));
#1189=CARTESIAN_POINT('Origin',(-1.94289029309402E-13,1.28785870856518E-13,
2.));
#1190=CARTESIAN_POINT('',(-3.18198051533965,-0.353553390593611,2.));
#1191=CARTESIAN_POINT('',(-3.18198051533973,3.18198051533947,2.));
#1192=CARTESIAN_POINT('',(-4.59619445947034,-1.76776733472438,2.));
#1193=CARTESIAN_POINT('',(-5.78742748350697,-2.95900035876107,2.));
#1194=CARTESIAN_POINT('',(-1.76776695296642,-4.59619407771251,2.));
#1195=CARTESIAN_POINT('Origin',(-3.1819805153396,-3.18198051533934,2.));
#1196=CARTESIAN_POINT('',(-0.353553390593347,-3.18198051533945,2.));
#1197=CARTESIAN_POINT('',(-2.95900035876096,-5.78742748350703,2.));
#1198=CARTESIAN_POINT('',(-3.1819805153396,-3.18198051533934,2.));
#1199=CARTESIAN_POINT('',(-4.1819805153396,-3.18198051533934,2.));
#1200=CARTESIAN_POINT('Origin',(-3.1819805153396,-3.18198051533934,2.));
#1201=CARTESIAN_POINT('Origin',(-1.94289029309402E-13,1.28785870856518E-13,
2.));
#1202=CARTESIAN_POINT('',(-0.434550800770179,3.18198051533947,2.));
#1203=CARTESIAN_POINT('',(3.18198051533934,3.18198051533947,2.));
#1204=CARTESIAN_POINT('',(-1.72608016133246,4.55324057793705,2.));
#1205=CARTESIAN_POINT('',(-2.91126197563597,5.81158788191456,2.));
#1206=CARTESIAN_POINT('',(-4.55324026970351,1.72607987102071,2.));
#1207=CARTESIAN_POINT('Origin',(-3.18198051533973,3.18198051533947,2.));
#1208=CARTESIAN_POINT('',(-3.18198051533967,0.434550800770129,2.));
#1209=CARTESIAN_POINT('',(-5.8115878819146,2.9112619756359,2.));
#1210=CARTESIAN_POINT('',(-3.18198051533973,3.18198051533947,2.));
#1211=CARTESIAN_POINT('',(-4.18198051533973,3.18198051533947,2.));
#1212=CARTESIAN_POINT('Origin',(-3.18198051533973,3.18198051533947,2.));
#1213=CARTESIAN_POINT('Origin',(-1.94289029309402E-13,1.28785870856518E-13,
2.));
#1214=CARTESIAN_POINT('',(3.18198051533934,0.353553390593178,2.));
#1215=CARTESIAN_POINT('',(3.18198051533934,-3.1819805153396,2.));
#1216=CARTESIAN_POINT('',(4.59619407771249,1.76776695296631,2.));
#1217=CARTESIAN_POINT('',(-2.95900035876096,-5.78742748350703,2.));
#1218=CARTESIAN_POINT('',(1.76776695296624,4.59619407771256,2.));
#1219=CARTESIAN_POINT('Origin',(3.18198051533934,3.18198051533947,2.));
#1220=CARTESIAN_POINT('',(0.353553390593223,3.18198051533947,2.));
#1221=CARTESIAN_POINT('',(-5.78742748350697,-2.95900035876107,2.));
#1222=CARTESIAN_POINT('',(3.18198051533934,3.18198051533947,2.));
#1223=CARTESIAN_POINT('',(2.18198051533934,3.18198051533947,2.));
#1224=CARTESIAN_POINT('Origin',(3.18198051533934,3.18198051533947,2.));
#1225=CARTESIAN_POINT('Origin',(-3.1819805153396,-3.18198051533934,0.));
#1226=CARTESIAN_POINT('',(-4.1819805153396,-3.18198051533934,0.));
#1227=CARTESIAN_POINT('',(-4.1819805153396,-3.18198051533934,0.));
#1228=CARTESIAN_POINT('Origin',(-3.1819805153396,-3.18198051533934,0.));
#1229=CARTESIAN_POINT('Origin',(3.18198051533934,-3.1819805153396,0.));
#1230=CARTESIAN_POINT('',(2.18198051533934,-3.1819805153396,0.));
#1231=CARTESIAN_POINT('',(2.18198051533934,-3.1819805153396,0.));
#1232=CARTESIAN_POINT('Origin',(3.18198051533934,-3.1819805153396,0.));
#1233=CARTESIAN_POINT('Origin',(-3.18198051533973,3.18198051533947,0.));
#1234=CARTESIAN_POINT('',(-4.18198051533973,3.18198051533947,0.));
#1235=CARTESIAN_POINT('',(-4.18198051533973,3.18198051533947,0.));
#1236=CARTESIAN_POINT('Origin',(-3.18198051533973,3.18198051533947,0.));
#1237=CARTESIAN_POINT('Origin',(3.18198051533934,3.18198051533947,0.));
#1238=CARTESIAN_POINT('',(2.18198051533934,3.18198051533947,0.));
#1239=CARTESIAN_POINT('',(2.18198051533934,3.18198051533947,0.));
#1240=CARTESIAN_POINT('Origin',(3.18198051533934,3.18198051533947,0.));
#1241=CARTESIAN_POINT('Origin',(1.76776695296624,4.59619407771256,0.));
#1242=CARTESIAN_POINT('',(0.353553390593223,3.18198051533947,0.));
#1243=CARTESIAN_POINT('',(1.76776695296624,4.59619407771256,0.));
#1244=CARTESIAN_POINT('',(-5.78742748350697,-2.95900035876107,0.));
#1245=CARTESIAN_POINT('',(0.353553390593223,3.18198051533947,0.));
#1246=CARTESIAN_POINT('',(1.76776695296624,4.59619407771256,0.));
#1247=CARTESIAN_POINT('Origin',(3.18198051533934,3.18198051533947,0.));
#1248=CARTESIAN_POINT('',(4.59619407771249,1.76776695296631,0.));
#1249=CARTESIAN_POINT('Origin',(3.18198051533934,3.18198051533947,0.));
#1250=CARTESIAN_POINT('',(4.59619407771249,1.76776695296631,0.));
#1251=CARTESIAN_POINT('Origin',(3.18198051533934,0.353553390593178,0.));
#1252=CARTESIAN_POINT('',(3.18198051533934,0.353553390593178,0.));
#1253=CARTESIAN_POINT('',(-2.95900035876096,-5.78742748350703,0.));
#1254=CARTESIAN_POINT('',(3.18198051533934,0.353553390593178,0.));
#1255=CARTESIAN_POINT('Origin',(3.18198051533934,-0.657812144701505,0.));
#1256=CARTESIAN_POINT('',(3.18198051533934,-0.657812144701505,0.));
#1257=CARTESIAN_POINT('',(3.18198051533934,-3.1819805153396,0.));
#1258=CARTESIAN_POINT('',(3.18198051533934,-0.657812144701505,0.));
#1259=CARTESIAN_POINT('Origin',(4.44179250627201,-1.99539681160789,0.));
#1260=CARTESIAN_POINT('',(4.44179250627201,-1.99539681160789,0.));
#1261=CARTESIAN_POINT('',(-2.91126197563597,5.81158788191456,0.));
#1262=CARTESIAN_POINT('',(4.44179250627201,-1.99539681160789,0.));
#1263=CARTESIAN_POINT('Origin',(3.18198051533934,-3.1819805153396,0.));
#1264=CARTESIAN_POINT('',(1.9953941815427,-4.44179002913013,0.));
#1265=CARTESIAN_POINT('Origin',(3.18198051533934,-3.1819805153396,0.));
#1266=CARTESIAN_POINT('',(1.9953941815427,-4.44179002913013,0.));
#1267=CARTESIAN_POINT('Origin',(0.657812144701205,-3.1819805153395,0.));
#1268=CARTESIAN_POINT('',(0.657812144701204,-3.18198051533949,0.));
#1269=CARTESIAN_POINT('',(-5.8115878819146,2.9112619756359,0.));
#1270=CARTESIAN_POINT('',(0.657812144701204,-3.18198051533949,0.));
#1271=CARTESIAN_POINT('Origin',(-0.353553390593347,-3.18198051533945,0.));
#1272=CARTESIAN_POINT('',(-0.353553390593347,-3.18198051533945,0.));
#1273=CARTESIAN_POINT('',(-3.1819805153396,-3.18198051533934,0.));
#1274=CARTESIAN_POINT('',(-0.353553390593347,-3.18198051533945,0.));
#1275=CARTESIAN_POINT('Origin',(-1.76776695296642,-4.59619407771251,0.));
#1276=CARTESIAN_POINT('',(-1.76776695296642,-4.59619407771251,0.));
#1277=CARTESIAN_POINT('',(-2.95900035876096,-5.78742748350703,0.));
#1278=CARTESIAN_POINT('',(-1.76776695296642,-4.59619407771251,0.));
#1279=CARTESIAN_POINT('Origin',(-3.1819805153396,-3.18198051533934,0.));
#1280=CARTESIAN_POINT('',(-4.59619445947034,-1.76776733472438,0.));
#1281=CARTESIAN_POINT('Origin',(-3.1819805153396,-3.18198051533934,0.));
#1282=CARTESIAN_POINT('',(-4.59619445947034,-1.76776733472438,0.));
#1283=CARTESIAN_POINT('Origin',(-3.18198051533965,-0.353553390593611,0.));
#1284=CARTESIAN_POINT('',(-3.18198051533965,-0.353553390593611,0.));
#1285=CARTESIAN_POINT('',(-5.78742748350697,-2.95900035876107,0.));
#1286=CARTESIAN_POINT('',(-3.18198051533965,-0.353553390593611,0.));
#1287=CARTESIAN_POINT('Origin',(-3.18198051533967,0.434550800770129,0.));
#1288=CARTESIAN_POINT('',(-3.18198051533967,0.434550800770129,0.));
#1289=CARTESIAN_POINT('',(-3.18198051533973,3.18198051533947,0.));
#1290=CARTESIAN_POINT('',(-3.18198051533967,0.434550800770129,0.));
#1291=CARTESIAN_POINT('Origin',(-4.5532402697035,1.72607987102071,0.));
#1292=CARTESIAN_POINT('',(-4.55324026970351,1.72607987102071,0.));
#1293=CARTESIAN_POINT('',(-5.8115878819146,2.9112619756359,0.));
#1294=CARTESIAN_POINT('',(-4.55324026970351,1.72607987102071,0.));
#1295=CARTESIAN_POINT('Origin',(-3.18198051533973,3.18198051533947,0.));
#1296=CARTESIAN_POINT('',(-1.72608016133246,4.55324057793705,0.));
#1297=CARTESIAN_POINT('Origin',(-3.18198051533973,3.18198051533947,0.));
#1298=CARTESIAN_POINT('',(-1.72608016133246,4.55324057793705,0.));
#1299=CARTESIAN_POINT('Origin',(-0.434550800770179,3.18198051533947,0.));
#1300=CARTESIAN_POINT('',(-0.434550800770179,3.18198051533947,0.));
#1301=CARTESIAN_POINT('',(-2.91126197563597,5.81158788191456,0.));
#1302=CARTESIAN_POINT('',(-0.434550800770179,3.18198051533947,0.));
#1303=CARTESIAN_POINT('Origin',(0.353553390593223,3.18198051533947,0.));
#1304=CARTESIAN_POINT('',(3.18198051533934,3.18198051533947,0.));
#1305=CARTESIAN_POINT('Origin',(-1.94289029309402E-13,1.28785870856518E-13,
0.));
#1306=CARTESIAN_POINT('Origin',(2.00000002980232,5.00000007450581,2.));
#1307=CARTESIAN_POINT('',(2.00000002980232,15.0000002235174,2.));
#1308=CARTESIAN_POINT('',(2.00000002980232,5.00000007450581,2.));
#1309=CARTESIAN_POINT('',(2.00000002980232,15.0000002235174,2.));
#1310=CARTESIAN_POINT('',(2.00000002980232,15.0000002235174,3.));
#1311=CARTESIAN_POINT('',(2.00000002980232,15.0000002235174,2.));
#1312=CARTESIAN_POINT('',(2.00000002980232,5.00000007450581,3.));
#1313=CARTESIAN_POINT('',(2.00000002980232,15.0000002235174,3.));
#1314=CARTESIAN_POINT('',(2.00000002980232,5.00000007450581,2.));
#1315=CARTESIAN_POINT('Origin',(-2.00000002980232,5.00000007450581,2.));
#1316=CARTESIAN_POINT('',(-2.00000002980232,5.00000007450581,2.));
#1317=CARTESIAN_POINT('',(2.00000002980232,5.00000007450581,2.));
#1318=CARTESIAN_POINT('',(-2.00000002980232,5.00000007450581,3.));
#1319=CARTESIAN_POINT('',(2.00000002980232,5.00000007450581,3.));
#1320=CARTESIAN_POINT('',(-2.00000002980232,5.00000007450581,2.));
#1321=CARTESIAN_POINT('Origin',(-2.00000002980232,15.0000002235174,2.));
#1322=CARTESIAN_POINT('',(-2.00000002980232,15.0000002235174,2.));
#1323=CARTESIAN_POINT('',(-2.00000002980232,5.00000007450581,2.));
#1324=CARTESIAN_POINT('',(-2.00000002980232,15.0000002235174,3.));
#1325=CARTESIAN_POINT('',(-2.00000002980232,5.00000007450581,3.));
#1326=CARTESIAN_POINT('',(-2.00000002980232,15.0000002235174,2.));
#1327=CARTESIAN_POINT('Origin',(2.00000002980232,15.0000002235174,2.));
#1328=CARTESIAN_POINT('',(-2.00000002980232,15.0000002235174,2.));
#1329=CARTESIAN_POINT('',(-2.00000002980232,15.0000002235174,3.));
#1330=CARTESIAN_POINT('Origin',(0.,10.0000001490116,3.));
#1331=CARTESIAN_POINT('Origin',(0.,10.0000001490116,2.));
#1332=UNCERTAINTY_MEASURE_WITH_UNIT(LENGTH_MEASURE(0.01),#1336,
'DISTANCE_ACCURACY_VALUE',
'Maximum model space distance between geometric entities at asserted c
onnectivities');
#1333=UNCERTAINTY_MEASURE_WITH_UNIT(LENGTH_MEASURE(0.01),#1336,
'DISTANCE_ACCURACY_VALUE',
'Maximum model space distance between geometric entities at asserted c
onnectivities');
#1334=(
GEOMETRIC_REPRESENTATION_CONTEXT(3)
GLOBAL_UNCERTAINTY_ASSIGNED_CONTEXT((#1332))
GLOBAL_UNIT_ASSIGNED_CONTEXT((#1336,#1338,#1339))
REPRESENTATION_CONTEXT('','3D')
);
#1335=(
GEOMETRIC_REPRESENTATION_CONTEXT(3)
GLOBAL_UNCERTAINTY_ASSIGNED_CONTEXT((#1333))
GLOBAL_UNIT_ASSIGNED_CONTEXT((#1336,#1338,#1339))
REPRESENTATION_CONTEXT('','3D')
);
#1336=(
LENGTH_UNIT()
NAMED_UNIT(*)
SI_UNIT(.MILLI.,.METRE.)
);
#1337=(
LENGTH_UNIT()
NAMED_UNIT(*)
SI_UNIT($,.METRE.)
);
#1338=(
NAMED_UNIT(*)
PLANE_ANGLE_UNIT()
SI_UNIT($,.RADIAN.)
);
#1339=(
NAMED_UNIT(*)
SI_UNIT($,.STERADIAN.)
SOLID_ANGLE_UNIT()
);
#1340=SHAPE_DEFINITION_REPRESENTATION(#1341,#1342);
#1341=PRODUCT_DEFINITION_SHAPE('',$,#1344);
#1342=SHAPE_REPRESENTATION('',(#797),#1334);
#1343=PRODUCT_DEFINITION_CONTEXT('part definition',#1348,'design');
#1344=PRODUCT_DEFINITION('2026-03-09-18-42-08-300','BLDC_1104_7200KV',#1345,
#1343);
#1345=PRODUCT_DEFINITION_FORMATION('',$,#1350);
#1346=PRODUCT_RELATED_PRODUCT_CATEGORY('BLDC_1104_7200KV',
'BLDC_1104_7200KV',(#1350));
#1347=APPLICATION_PROTOCOL_DEFINITION('international standard',
'automotive_design',2009,#1348);
#1348=APPLICATION_CONTEXT(
'Core Data for Automotive Mechanical Design Process');
#1349=PRODUCT_CONTEXT('part definition',#1348,'mechanical');
#1350=PRODUCT('2026-03-09-18-42-08-300','BLDC_1104_7200KV',$,(#1349));
#1351=PRESENTATION_STYLE_ASSIGNMENT((#1354));
#1352=PRESENTATION_STYLE_ASSIGNMENT((#1355));
#1353=PRESENTATION_STYLE_ASSIGNMENT((#1356));
#1354=SURFACE_STYLE_USAGE(.BOTH.,#1357);
#1355=SURFACE_STYLE_USAGE(.BOTH.,#1358);
#1356=SURFACE_STYLE_USAGE(.BOTH.,#1359);
#1357=SURFACE_SIDE_STYLE('',(#1360));
#1358=SURFACE_SIDE_STYLE('',(#1361));
#1359=SURFACE_SIDE_STYLE('',(#1362));
#1360=SURFACE_STYLE_FILL_AREA(#1363);
#1361=SURFACE_STYLE_FILL_AREA(#1364);
#1362=SURFACE_STYLE_FILL_AREA(#1365);
#1363=FILL_AREA_STYLE('Steel - Satin',(#1366));
#1364=FILL_AREA_STYLE('Chrome - Black',(#1367));
#1365=FILL_AREA_STYLE('Aluminum - Anodized Glossy (Red)',(#1368));
#1366=FILL_AREA_STYLE_COLOUR('Steel - Satin',#1369);
#1367=FILL_AREA_STYLE_COLOUR('Chrome - Black',#1370);
#1368=FILL_AREA_STYLE_COLOUR('Aluminum - Anodized Glossy (Red)',#1371);
#1369=COLOUR_RGB('Steel - Satin',0.627450980392157,0.627450980392157,0.627450980392157);
#1370=COLOUR_RGB('Chrome - Black',0.564705882352941,0.556862745098039,0.545098039215686);
#1371=COLOUR_RGB('Aluminum - Anodized Glossy (Red)',0.854901960784314,0.349019607843137,
0.349019607843137);
ENDSEC;
END-ISO-10303-21;
